<?xml version="1.0" encoding="UTF-8" standalone="no"?>
<!-- Created with Inkscape (http://www.inkscape.org/) -->

<svg
   width="100%"
   height="auto"
   viewBox="0 0 103.88364 44.25708"
   version="1.1"
   id="svg5"
   xml:space="preserve"
   inkscape:version="1.2.2 (1:1.2.2+202212051552+b0a8486541)"
   sodipodi:docname="bfoxdraft.svg"
   xmlns:inkscape="http://www.inkscape.org/namespaces/inkscape"
   xmlns:sodipodi="http://sodipodi.sourceforge.net/DTD/sodipodi-0.dtd"
   xmlns="http://www.w3.org/2000/svg"
   xmlns:svg="http://www.w3.org/2000/svg"><sodipodi:namedview
     id="namedview7"
     pagecolor="#505050"
     bordercolor="#ffffff"
     borderopacity="1"
     inkscape:showpageshadow="0"
     inkscape:pageopacity="0"
     inkscape:pagecheckerboard="1"
     inkscape:deskcolor="#505050"
     inkscape:document-units="mm"
     showgrid="false"
     inkscape:zoom="0.89726538"
     inkscape:cx="-5323.9544"
     inkscape:cy="-7396.9198"
     inkscape:window-width="2166"
     inkscape:window-height="1336"
     inkscape:window-x="74"
     inkscape:window-y="27"
     inkscape:window-maximized="1"
     inkscape:current-layer="layer1"
     inkscape:lockguides="false" /><defs
     id="defs2"><linearGradient
       id="linearGradient2560"
       inkscape:swatch="solid"
       gradientTransform="matrix(9.0769026e-5,0,0,9.0769026e-5,47.845192,-9.1303294)"><stop
         style="stop-color:#ffffff;stop-opacity:1;"
         offset="0"
         id="stop2558" /></linearGradient><linearGradient
       id="linearGradient2554"
       inkscape:swatch="solid"><stop
         style="stop-color:#eeccb2;stop-opacity:1;"
         offset="0"
         id="stop2552" /></linearGradient><linearGradient
       id="linearGradient10538"
       inkscape:swatch="solid"
       gradientTransform="matrix(0,0,0,0,-216.5073,-27.076947)"><stop
         style="stop-color:#e4c7ff;stop-opacity:1;"
         offset="0"
         id="stop10536" /></linearGradient><linearGradient
       id="linearGradient10280"
       inkscape:swatch="solid"
       gradientTransform="matrix(0.00129662,0,0,0.00129662,-0.14741627,-0.00257316)"><stop
         style="stop-color:#fcef7f;stop-opacity:1;"
         offset="0"
         id="stop10278" /></linearGradient><linearGradient
       id="linearGradient9548"
       inkscape:swatch="solid"
       gradientTransform="scale(0.01852198)"><stop
         style="stop-color:#9aa49b;stop-opacity:1;"
         offset="0"
         id="stop9546" /></linearGradient><linearGradient
       id="linearGradient8816"
       inkscape:swatch="solid"
       gradientTransform="matrix(9.0769026e-5,0,0,9.0769026e-5,-4.37595,-14.411535)"><stop
         style="stop-color:#ff2050;stop-opacity:1;"
         offset="0"
         id="stop8814" /></linearGradient><linearGradient
       id="linearGradient8084"
       inkscape:swatch="solid"
       gradientTransform="translate(-0.14741627,-0.00257316)"><stop
         style="stop-color:#ff8157;stop-opacity:1;"
         offset="0"
         id="stop8082" /></linearGradient><linearGradient
       id="linearGradient6626"
       inkscape:swatch="solid"><stop
         style="stop-color:#e4c7ff;stop-opacity:1;"
         offset="0"
         id="stop6624" /></linearGradient><linearGradient
       id="linearGradient6620"
       inkscape:swatch="solid"
       gradientTransform="matrix(3.1139566e-8,0,0,3.1139566e-8,5.5502703e-4,3.758512e-4)"><stop
         style="stop-color:#544cf8;stop-opacity:1;"
         offset="0"
         id="stop6618" /></linearGradient><linearGradient
       id="linearGradient5888"
       inkscape:swatch="solid"
       gradientTransform="matrix(0,0,0,0,-4.4116647,-14.387314)"><stop
         style="stop-color:#1c4939;stop-opacity:1;"
         offset="0"
         id="stop5886" /></linearGradient><linearGradient
       id="linearGradient5882"
       inkscape:swatch="solid"
       gradientTransform="scale(0.01852198)"><stop
         style="stop-color:#81e0a0;stop-opacity:1;"
         offset="0"
         id="stop5880" /></linearGradient><linearGradient
       id="linearGradient4424"
       inkscape:swatch="solid"
       gradientTransform="matrix(-0.01510627,-0.00766461,-0.00795902,0.01454747,704.50872,-503.87783)"><stop
         style="stop-color:#ff0000;stop-opacity:1;"
         offset="0"
         id="stop4422" /></linearGradient><linearGradient
       id="linearGradient4418"
       inkscape:swatch="solid"><stop
         style="stop-color:#ffffff;stop-opacity:1;"
         offset="0"
         id="stop4416" /></linearGradient><linearGradient
       id="linearGradient3686"
       inkscape:swatch="solid"
       gradientTransform="scale(0.26458333)"><stop
         style="stop-color:#eeccb2;stop-opacity:1;"
         offset="0"
         id="stop3684" /></linearGradient><filter
       height="1.1640052"
       width="1.0641592"
       y="-0.082367532"
       x="-0.032075647"
       inkscape:menu-tooltip="Van Gogh painting effect for bitmaps"
       inkscape:menu="Distort"
       inkscape:label="Pixel Smear"
       style="color-interpolation-filters:sRGB"
       id="filter6866"><feTurbulence
         type="fractalNoise"
         numOctaves="3"
         baseFrequency="0.25 0.4"
         seed="5"
         id="feTurbulence6848" /><feColorMatrix
         result="result5"
         values="1 0 0 0 0 0 1 0 0 0 0 0 1 0 0 0 0 0 1 0 "
         id="feColorMatrix6850" /><feComposite
         in="SourceGraphic"
         operator="in"
         in2="result5"
         id="feComposite6852" /><feMorphology
         operator="dilate"
         radius="1.5"
         result="result3"
         id="feMorphology6854" /><feTurbulence
         numOctaves="5"
         baseFrequency="0.03"
         type="fractalNoise"
         seed="7"
         id="feTurbulence6856" /><feGaussianBlur
         stdDeviation="0.5"
         result="result91"
         id="feGaussianBlur6858" /><feDisplacementMap
         in="result3"
         xChannelSelector="R"
         yChannelSelector="G"
         scale="27"
         result="result4"
         in2="result91"
         id="feDisplacementMap6860" /><feComposite
         in="result4"
         k3="0.8"
         k1="1.3"
         result="result2"
         operator="arithmetic"
         in2="result4"
         id="feComposite6862"
         k2="0"
         k4="0" /><feBlend
         in2="result2"
         mode="screen"
         in="result2"
         id="feBlend6864" /></filter></defs><g
     inkscape:label="Layer 1"
     inkscape:groupmode="layer"
     id="layer1"
     style="display:inline"
     transform="translate(222.93598,-549.82591)"><path
       style="fill:url(#linearGradient10280);fill-rule:evenodd;stroke:url(#linearGradient8084);stroke-width:0.865;stroke-linecap:square;stroke-linejoin:bevel;stroke-dasharray:none;paint-order:normal;filter:url(#filter6866)"
       id="path6846"
       d="m -219.66294,557.28344 c 0.77624,0.48887 1.49815,1.07712 2.3287,1.46661 3.36137,1.57631 7.70734,2.72304 11.16465,3.71346 2.46771,0.70694 4.95528,1.34382 7.41942,2.06311 5.56221,1.62367 5.73932,1.7426 10.54446,3.41768 1.57404,0.57272 2.87128,1.12175 4.50272,1.45203 1.49476,0.30261 3.38842,0.41574 4.88509,0.43077 1.01139,0.01 2.02507,0.007 3.03352,-0.0703 0.99218,-0.0765 1.97304,-0.26117 2.95956,-0.39174 2.06767,-0.60399 3.1368,-0.76483 4.97642,-1.86124 0.73912,-0.44053 1.41645,-0.9806 2.08192,-1.52603 0.56779,-0.46538 1.08313,-0.99158 1.61154,-1.50122 0.6119,-0.59021 1.197,-1.20772 1.8074,-1.79946 -3.28503,1.92714 1.24447,-0.20108 -4.96256,-2.4837 -0.5762,-0.2119 -0.20068,1.25532 -0.0187,1.84166 0.32528,1.0482 0.86934,2.03274 1.49981,2.93108 1.35122,1.92532 4.65042,4.83135 6.21301,6.30071 4.03585,3.13521 4.80244,4.03691 9.44331,6.37807 1.7318,0.87363 3.54246,1.58525 5.3506,2.28738 1.27301,0.49432 2.57796,0.90482 3.88542,1.29908 0.52005,0.15681 1.42052,0.86807 1.59098,0.35234 0.62181,-1.88127 0.17029,-3.95909 0.25544,-5.93862 -0.86401,0.43899 -2.14231,0.45852 -2.59204,1.31699 -1.74223,3.32568 -0.23252,5.49632 1.54532,8.05989 1.00821,1.45378 3.20723,4.03148 4.85938,5.04957 0.7211,0.44437 1.58233,0.60497 2.37349,0.90747 1.16945,-0.45193 2.49561,-0.61677 3.50837,-1.35583 0.48538,-0.3542 2.94734,-4.94673 3.05636,-5.15813 1.50187,-2.91219 3.28734,-6.33235 3.89332,-9.58929 0.33562,-1.80385 0.17445,-3.66546 0.26168,-5.49818 -0.82304,-1.81882 -1.23818,-3.88474 -2.46911,-5.45647 -2.6754,-3.41609 -7.359,-5.5916 -11.4403,-6.52521 -4.85933,-1.11159 -11.49414,-1.31625 -16.52373,-1.04021 -1.40919,0.0773 -2.79277,0.40942 -4.18916,0.6141 -1.38439,0.2136 -0.46904,6.1464 0.91535,5.9328 v 0 c 4.51997,-0.74125 4.40462,-0.89453 10.23448,-0.6155 4.6778,0.22389 8.21841,0.45636 12.40373,2.35194 1.18942,0.53869 2.3349,1.22981 3.30256,2.10645 0.75286,0.68207 1.17666,1.65637 1.76499,2.48454 0.0112,1.26027 0.24227,2.53791 0.0335,3.78082 -0.48873,2.91018 -2.11812,5.98146 -3.4437,8.55477 -0.49179,0.9547 -1.07059,1.86315 -1.55589,2.82115 -0.12489,0.24654 -0.52266,0.67114 -0.2703,0.7838 0.61314,0.27379 1.34298,-0.003 2.01448,-0.005 -0.11151,0.89829 0.002,0.65273 -1.59036,-0.94242 -0.73787,-0.73911 -1.39167,-1.55903 -2.0437,-2.37487 -0.46086,-0.57666 -0.56599,-1.66449 -1.29188,-1.79872 -1.03984,-0.19227 -1.14571,2.72609 -2.74028,1.59848 0.31841,-1.98019 0.94627,-3.93496 0.95523,-5.94055 0.001,-0.3147 -0.62642,-0.0837 -0.92793,-0.17375 -1.15609,-0.34539 -2.31059,-0.70247 -3.43858,-1.13081 -1.5784,-0.59938 -3.16011,-1.20393 -4.67466,-1.95008 -4.11948,-2.02946 -4.73691,-2.78773 -8.3522,-5.56684 -1.09931,-1.02571 -2.22624,-2.02258 -3.29794,-3.0771 -0.69532,-0.68416 -1.27911,-1.47921 -2.00027,-2.13606 -0.14014,-0.12766 -0.35171,-0.19841 -0.54015,-0.17788 -0.1,0.0109 -0.094,0.32838 -0.16211,0.2544 -1.22516,-1.33099 -1.9553,-3.17397 -3.45567,-4.18463 -0.48562,-0.32713 -1.04074,0.53684 -1.56111,0.80526 -0.97123,0.94412 -1.89433,1.94152 -2.89899,2.85076 -0.3415,0.30906 -0.67203,0.63706 -1.05693,0.89003 -1.12367,0.73845 -1.8761,0.8832 -3.16524,1.30826 -0.76255,0.11223 -1.51958,0.27233 -2.28766,0.33668 -1.47974,0.12396 -3.31981,0.0843 -4.81839,-0.013 -0.46842,-0.0304 -0.93899,-0.0613 -1.40054,-0.14681 -1.4159,-0.26228 -2.72859,-0.83119 -4.07543,-1.32093 -4.99764,-1.73729 -5.16707,-1.85526 -10.90998,-3.53195 -2.43473,-0.71083 -4.89188,-1.34282 -7.33118,-2.03785 -3.6677,-1.04505 -7.38027,-2.02314 -10.87134,-3.59172 -0.97306,-1.00764 -5.29126,3.16241 -4.3182,4.17002 z" /></g></svg>
