<?xml version="1.0" encoding="UTF-8" standalone="no"?>
<!-- Created with Inkscape (http://www.inkscape.org/) -->

<svg
   width="195.67584mm"
   height="135.89001mm"
   viewBox="0 0 195.67584 135.89001"
   version="1.1"
   id="svg5"
   xml:space="preserve"
   xmlns="http://www.w3.org/2000/svg"
   xmlns:svg="http://www.w3.org/2000/svg"><defs
     id="defs2"><linearGradient
       id="linearGradient2560"
       gradientTransform="matrix(9.0769026e-5,0,0,9.0769026e-5,-4.7216088,-40.298232)"><stop
         style="stop-color:#ffffff;stop-opacity:1;"
         offset="0"
         id="stop2558" /></linearGradient><linearGradient
       id="linearGradient2554"><stop
         style="stop-color:#eeccb2;stop-opacity:1;"
         offset="0"
         id="stop2552" /></linearGradient><linearGradient
       id="linearGradient10538"
       gradientTransform="matrix(0,0,0,0,2171.8017,136.61469)"><stop
         style="stop-color:#e4c7ff;stop-opacity:1;"
         offset="0"
         id="stop10536" /></linearGradient><linearGradient
       id="linearGradient10280"
       gradientTransform="matrix(0,0,0,0,4588.3696,12544.551)"><stop
         style="stop-color:#fcef7f;stop-opacity:1;"
         offset="0"
         id="stop10278" /></linearGradient><linearGradient
       id="linearGradient9548"
       gradientTransform="matrix(3.4306404e-4,0,0,3.4306404e-4,-707.70461,-2098.3102)"><stop
         style="stop-color:#9aa49b;stop-opacity:1;"
         offset="0"
         id="stop9546" /></linearGradient><linearGradient
       id="linearGradient8816"
       gradientTransform="matrix(2.4015971e-5,0,0,2.4015971e-5,-561.32101,-1567.6908)"><stop
         style="stop-color:#ff2050;stop-opacity:1;"
         offset="0"
         id="stop8814" /></linearGradient><linearGradient
       id="linearGradient8084"
       gradientTransform="matrix(0.26458333,0,0,0.26458333,-560.20221,-1563.8784)"><stop
         style="stop-color:#ff8157;stop-opacity:1;"
         offset="0"
         id="stop8082" /></linearGradient><linearGradient
       id="linearGradient6626"><stop
         style="stop-color:#e4c7ff;stop-opacity:1;"
         offset="0"
         id="stop6624" /></linearGradient><linearGradient
       id="linearGradient6620"
       gradientTransform="matrix(0,0,0,0,75.93373,58.971845)"><stop
         style="stop-color:#544cf8;stop-opacity:1;"
         offset="0"
         id="stop6618" /></linearGradient><linearGradient
       id="linearGradient5888"
       gradientTransform="matrix(0,0,0,0,-486.97993,-1575.8712)"><stop
         style="stop-color:#1c4939;stop-opacity:1;"
         offset="0"
         id="stop5886" /></linearGradient><linearGradient
       id="linearGradient5882"
       gradientTransform="matrix(1.4751574e-5,-2.3311945e-7,4.9457063e-6,9.0729955e-5,1621.803,413.03004)"><stop
         style="stop-color:#81e0a0;stop-opacity:1;"
         offset="0"
         id="stop5880" /></linearGradient><linearGradient
       id="linearGradient4424"
       gradientTransform="matrix(-0.01510627,-0.00766461,-0.00795902,0.01454747,1112.771,-485.21619)"><stop
         style="stop-color:#ff0000;stop-opacity:1;"
         offset="0"
         id="stop4422" /></linearGradient><linearGradient
       id="linearGradient4418"><stop
         style="stop-color:#ffffff;stop-opacity:1;"
         offset="0"
         id="stop4416" /></linearGradient><linearGradient
       id="linearGradient3686"
       gradientTransform="scale(0.26458333)"><stop
         style="stop-color:#eeccb2;stop-opacity:1;"
         offset="0"
         id="stop3684" /></linearGradient><filter
       style="color-interpolation-filters:sRGB"
       id="filter2040"
       x="-0.031380389"
       y="-0.049871296"
       width="1.0627546"
       height="1.0997081"><feTurbulence
         baseFrequency="0.14"
         numOctaves="1"
         type="fractalNoise"
         id="feTurbulence2024" /><feColorMatrix
         values="1 0 0 0 0 0 1 0 0 0 0 0 1 0 0 0 0 0 6 -3.5 "
         result="result5"
         id="feColorMatrix2026" /><feComposite
         in2="result5"
         operator="in"
         in="SourceGraphic"
         result="result6"
         id="feComposite2028" /><feMorphology
         result="result3"
         radius="5"
         operator="dilate"
         in="result6"
         id="feMorphology2030" /><feDisplacementMap
         result="result4"
         scale="0"
         yChannelSelector="A"
         xChannelSelector="R"
         in="result3"
         in2="result3"
         id="feDisplacementMap2032" /><feComposite
         in2="result4"
         operator="arithmetic"
         result="result2"
         k1="1"
         k3="1"
         id="feComposite2034"
         k2="0"
         k4="0" /><feBlend
         mode="darken"
         in="result2"
         in2="result2"
         id="feBlend2036" /><feConvolveMatrix
         order="3 3"
         kernelMatrix="2 0 0 0 1 0 0 0 -1 "
         targetX="1"
         targetY="1"
         divisor="2"
         edgeMode="duplicate"
         id="feConvolveMatrix2038" /></filter></defs><g
     id="layer3"
     style="display:inline"
     transform="translate(542.57472,1593.8583)"><path
       style="fill:url(#linearGradient6626);fill-rule:evenodd;stroke:url(#linearGradient6626);stroke-width:5.78363;stroke-linejoin:round;filter:url(#filter2040)"
       id="path2022"
       d="m -525.3366,-1552.1441 c -0.46309,3.9047 -0.7801,7.0279 -1.49149,10.9502 -0.39976,2.204 -0.96165,4.3763 -1.37499,6.5779 -1.22049,6.5008 -2.05917,11.2319 -2.14027,17.9625 -0.043,3.569 0.32039,7.1315 0.48058,10.6972 1.67888,10.4177 0.80272,7.1384 3.35123,16.0099 1.11791,3.8915 1.61928,4.5456 2.07546,8.2472 0.27723,2.2495 0.0534,4.4051 -0.0517,6.667 -0.0891,1.5979 -0.25496,3.1934 -0.26736,4.7937 -0.047,6.0622 0.60542,12.1683 2.3227,17.9977 0.55492,1.8837 1.19175,3.753 2.01413,5.5362 0.82638,1.7919 1.94342,3.4349 2.91513,5.1523 2.68097,3.2982 4.09366,5.5365 7.58609,7.9794 1.24918,0.8738 2.64538,1.5357 4.05752,2.11 2.19249,0.8916 4.01984,0.9375 6.28106,1.3909 1.85353,0.3716 3.694,0.8056 5.541,1.2085 6.51837,1.1795 7.84219,1.6591 14.83252,1.8148 2.89945,0.064 5.8142,0.081 8.69738,-0.2323 4.89016,-0.5314 10.44025,-1.7763 14.76549,-4.3402 1.45609,-0.8631 2.54254,-2.2352 3.81381,-3.3528 0.49278,-1.4476 1.21703,-2.8362 1.47833,-4.3429 0.18571,-1.0708 -0.0556,-10.6458 -0.0572,-10.7535 -0.0719,-4.8543 -0.0651,-15.2837 -0.64184,-19.7205 -0.58103,-4.4695 -1.73777,-8.8452 -2.60666,-13.2678 -2.44262,-7.246 -2.98055,-11.0826 -7.24317,-16.9832 -2.57972,-3.5711 -2.79921,-2.0894 -5.49408,-4.6836 -1.27568,-1.228 -3.39625,-4.8672 -4.10851,-5.997 -2.37789,-4.1191 -4.7153,-8.2644 -7.4395,-12.1688 -0.45442,-0.6513 -0.96053,-1.2651 -1.42818,-1.9069 -0.13889,-0.1907 -0.5094,-0.7937 -0.39089,-0.5898 0.17878,0.3076 0.38126,0.6008 0.57188,0.9012 0.19651,-0.9558 0.42911,-2.2068 0.7412,-3.0991 0.19738,-0.5643 0.37428,-1.1574 0.72903,-1.6386 0.47986,-0.651 1.08949,-1.2076 1.73162,-1.6992 3.31237,-2.5358 5.24006,-3.0526 9.36044,-4.9347 8.73659,-2.9642 12.15551,-4.3946 21.57526,-6.338 3.95028,-0.815 7.94671,-1.4238 11.95635,-1.8616 3.37085,-0.368 6.7686,-0.4399 10.1576,-0.5526 3.48341,-0.1159 11.12752,-0.035 14.85747,-0.01 1.17331,0.025 2.34661,0.049 3.51991,0.074 -0.0106,0.043 -0.008,0.1646 -0.0319,0.1276 -0.71867,-1.1283 -0.79814,-3.8346 -2.07487,-3.4352 -1.25083,0.3913 0.0948,2.6976 0.6729,3.8738 0.75345,1.5328 7.66115,9.1117 8.12622,9.6364 3.66697,4.3931 8.48054,8.6061 9.90165,14.428 0.53911,2.2085 0.12848,5.0783 -0.0981,7.2649 -0.16963,1.6367 -0.3694,3.2702 -0.5541,4.9053 -0.24219,1.6645 -0.41093,3.3414 -0.72656,4.9935 -0.29501,1.5442 -0.69838,3.0665 -1.10344,4.5855 -1.0299,3.8623 -1.95418,6.9552 -3.56481,10.6398 -1.31203,3.0015 -3.62899,7.0952 -5.20531,9.9795 -0.73172,1.3555 -1.46427,2.7105 -2.19516,4.0664 -1.26074,2.3389 -2.2737,3.9946 -3.16137,6.4712 -1.2431,3.4684 -0.88105,4.2237 -2.61969,7.7607 -1.02992,2.0951 -2.32484,4.0492 -3.48726,6.0739 -1.23936,1.9047 -5.27152,7.9373 -6.4823,10.3419 -0.59122,1.1741 -1.17538,2.3864 -1.42628,3.6768 -0.56748,2.9186 0.13305,4.685 0.77161,7.4509 0.27251,1.1804 0.54561,2.3606 0.81842,3.5409 0.48713,2.0017 1.25627,5.3832 1.94197,7.3784 0.57012,1.659 1.27529,3.3723 2.54553,4.6455 0.8462,0.8481 2.56654,1.7026 3.61033,2.2755 2.68684,1.3337 5.57181,3.1058 8.54329,3.6938 3.83168,0.7581 6.65151,0.4042 10.59257,0.3279 2.44084,-0.047 4.88205,-0.073 7.32308,-0.1095 4.80056,-0.2069 9.60541,0.1008 14.40621,-0.01 2.90428,-0.067 5.41945,-0.025 8.05558,-1.3372 2.06455,-1.0276 2.89237,-2.3051 4.32436,-3.9712 1.67867,-2.2108 1.90584,-2.5739 3.69744,-4.6804 2.04057,-2.3992 2.62036,-2.7258 4.38282,-5.6117 1.07964,-1.7678 3.27264,-6.3864 4.14957,-8.1863 3.15621,-7.3197 6.73709,-14.4887 9.17212,-22.0984 1.17685,-3.6778 1.73138,-6.3742 2.61626,-10.1373 1.49299,-6.8301 3.44235,-13.5475 4.77412,-20.4138 0.2351,-1.2122 0.45469,-2.4294 0.59625,-3.656 0.20838,-1.8057 0.16252,-3.9866 0.16682,-5.7982 0.0695,-2.2769 0.16091,-5.0916 0.20377,-7.3361 0.0562,-2.9418 0.17105,-5.0709 -0.27773,-7.9968 -0.4858,-3.1673 -1.0393,-4.3296 -2.07351,-7.2745 -0.99215,-2.1708 -1.86702,-4.4171 -3.35125,-6.3275 -3.32233,-4.2762 -7.97503,-7.2087 -12.71133,-9.6695 -1.35549,-0.7043 -2.78181,-1.2629 -4.17271,-1.8944 -2.43752,-0.8859 -4.85125,-1.9144 -7.45038,-2.2388 -1.55674,-0.1943 -3.12584,-0.2772 -4.69196,-0.3691 -7.08497,-0.416 -6.56868,-0.304 -13.74632,-0.2735 -3.76669,0.6484 -9.52459,0.6098 -11.75217,4.6372 -0.45069,0.8148 -0.39783,1.8205 -0.64947,2.717 -0.37634,1.3408 -0.83641,1.5992 -1.81134,2.8892 -1.04144,1.3761 -2.09543,2.7428 -3.12431,4.1284 -3.61383,4.8666 -4.39415,5.8321 -7.58436,11.4969 -1.29107,2.2924 -2.42231,4.6714 -3.64536,7.0008 -1.12004,2.1333 -2.20821,4.2843 -3.38389,6.3874 -0.96448,1.7254 -2.02308,3.3964 -3.03462,5.0946 -1.0328,1.6332 -2.05879,3.2707 -3.0984,4.8995 -1.01721,1.5938 -2.03049,3.1902 -3.072,4.7682 -2.60722,3.9501 -3.76651,5.4217 -6.23884,9.415 -1.73141,2.7966 -2.77117,4.7695 -4.31625,7.5875 -0.57391,1.1541 -1.19238,2.287 -1.72172,3.4622 -2.21604,4.9199 -3.91823,10.1844 -5.58899,15.3087 -0.62837,1.9272 -1.18606,3.8777 -1.84818,5.7936 -0.60757,1.7581 -1.30647,3.4833 -1.95971,5.2249 -0.6406,1.4882 -1.25428,2.9883 -1.92181,4.4646 -2.21016,4.8881 -3.02153,6.168 -5.12525,11.1389 -1.6108,3.8062 -2.92635,7.7025 -4.19217,11.6314 -0.78463,1.9966 -1.58744,4.3612 -3.63307,5.4509 -0.55475,0.2955 -1.18705,0.4165 -1.7924,0.5856 -1.24495,0.3479 -4.69532,1.1592 -5.97102,1.4637 -4.2158,1.1096 -8.44361,2.1853 -12.78959,2.6712 -3.94175,0.4407 -9.44972,0.658 -13.49818,0.5101 -1.18704,-0.043 -2.36295,-0.2453 -3.54443,-0.368 -2.9346,-0.7943 -5.95791,-0.6321 -8.97125,-0.6136 -2.45299,0.015 -4.90556,0.1202 -7.35848,0.096 -6.34646,-0.063 -5.47871,-0.082 -10.74429,-0.7789 -0.63813,-0.1987 -1.27626,-0.3974 -1.9144,-0.5961 0.0853,0 0.21479,-0.079 0.25588,0 0.50089,0.9114 0.77444,1.9388 1.30025,2.836 0.0829,0.1415 0.14609,-0.3373 0.0769,-0.486 -0.53517,-1.1506 -1.04574,-2.3457 -1.85041,-3.3268 -0.48488,-0.5913 -1.27626,-0.8426 -1.91439,-1.2639 -4.28593,-2.6708 -8.87127,-4.8027 -13.27066,-7.2706 -0.79481,-0.4459 -1.5829,-0.9069 -2.3382,-1.4169 -0.15772,-0.1064 -0.47059,-0.5916 -0.38489,-0.4216 0.25982,0.5152 0.60914,0.9801 0.91371,1.4702 -0.40187,-0.7205 -0.70767,-1.5037 -1.20561,-2.1615 -0.3563,-0.4707 -0.88588,-0.7805 -1.32241,-1.1779 -0.39677,-0.3612 -0.79942,-0.7168 -1.17733,-1.0977 -1.18219,-1.1915 -1.49097,-1.7009 -2.62447,-3.1347 -0.69999,-0.8854 -1.40372,-1.7679 -2.10558,-2.6518 -0.57014,-0.8005 -1.16827,-1.5817 -1.71042,-2.4014 -1.06398,-1.6086 -1.84756,-3.369 -2.85417,-5.0095 -2.17557,-3.5457 -2.56606,-3.8901 -5.37505,-7.7564 -2.66647,-3.448 -6.78663,-8.6805 -9.37017,-12.3562 -1.28226,-1.8243 -2.41434,-3.2515 -2.95994,-5.3315 -0.0813,-0.3099 -0.0353,-0.6401 -0.0679,-0.9589 -0.0308,-0.3 -0.0816,-0.5975 -0.12234,-0.8963 -0.42834,-1.5046 -0.25545,-1.381 -1.43044,-2.8193 -0.67523,-0.8266 -0.96566,-0.7264 -1.55756,-1.5031 -0.2075,-0.2722 -0.5511,-1.4798 -0.57673,-1.5587 -0.60698,-2.8459 -0.78325,-3.1996 -0.97754,-6.2567 -0.11654,-1.8335 -0.17459,-3.4128 0.35565,-5.1648 0.58271,-1.9253 1.8606,-4.0446 2.76698,-5.7442 1.52197,-2.1977 3.77363,-5.5383 5.48267,-7.6886 0.53706,-0.6757 1.1057,-1.3308 1.73049,-1.9263 0.2562,-0.2442 0.58559,-0.3991 0.89306,-0.5744 1.62468,-0.9265 2.21415,-1.0703 4.21317,-1.8956 4.54793,-1.9451 9.13673,-3.8586 13.8832,-5.2768 1.69555,-0.5067 3.42084,-0.9092 5.14166,-1.3219 4.13419,-0.9916 6.72874,-1.4785 10.88381,-2.3194 4.05928,-0.6798 4.9511,-0.9321 8.85151,-1.2302 4.94514,-0.378 3.31286,0.04 8.5769,-0.5506 1.57213,-0.1763 14.19298,-1.9581 14.98435,-2.069 7.07757,-0.9881 10.26585,-1.3678 17.13194,-2.5625 2.15398,-0.3748 4.29425,-0.8246 6.44378,-1.2241 1.75859,-0.3269 3.52198,-0.6275 5.28045,-0.955 10.11851,-1.8844 -0.40867,-8e-4 9.07219,-1.6772 8.65159,-1.3229 17.07758,-3.7386 25.6657,-5.3801 1.76951,-0.3383 3.5428,-0.6666 5.32912,-0.9003 0.95094,-0.1244 1.91463,-0.1151 2.87195,-0.1727 2.54012,0.011 5.07782,-0.1047 7.61732,-0.1362 0.88463,-0.011 1.7718,-0.082 2.65403,-0.016 3.23223,0.2416 5.54026,1.0679 8.82445,1.9214 6.14246,1.661 13.60747,3.5918 19.59086,5.597 2.84174,0.9523 7.46799,2.2243 9.97575,4.7009 0.21713,0.2144 -0.85197,-0.4893 -0.89616,-0.1873 -0.098,0.6692 0.4279,1.2833 0.64185,1.9249 4.39421,4.5558 2.11732,2.6044 6.57264,5.8777 0.34673,0.2548 2.17656,1.4316 2.66226,2.1713 0.13404,0.2041 -0.40181,-0.2929 -0.54221,-0.4927 -0.10447,-0.1486 -0.11221,-0.3456 -0.16831,-0.5184 -0.0246,0.2479 -0.0578,0.495 -0.0737,0.7436 -0.0825,1.2927 -0.0255,1.6899 -0.17723,3.0893 -0.10244,0.9446 -0.22558,1.8874 -0.38086,2.8248 -0.34538,2.085 -0.79475,3.9312 -1.2608,5.9911 -0.36727,1.2468 -0.70272,2.5035 -1.10181,3.7405 -1.28938,3.9965 -1.55429,3.9684 -2.6138,8.0433 -0.79672,3.0641 -0.58498,2.9831 -1.00785,5.8703 -0.13243,0.9042 -0.29923,1.8031 -0.44885,2.7046 -1.05191,4.4929 -1.98878,9.0225 -3.30102,13.4503 -0.52844,1.7832 -1.13192,3.5436 -1.74414,5.2997 -1.37991,3.9582 -1.0341,3.1002 -2.50518,5.9445 -0.93933,1.163 -2.01798,2.1737 -2.68661,3.5411 -0.57743,1.1809 -0.97459,2.5607 -1.1519,3.8681 -0.0563,0.4151 -0.0325,0.8373 -0.0487,1.2559 0.36758,0.7723 0.73516,1.5447 1.10274,2.317 1.03247,0.9467 5.08941,-3.4779 4.05695,-4.4246 v 0 c 0.28108,0.693 0.56216,1.386 0.84325,2.0791 -0.18798,-0.3918 -0.094,-0.1402 0.0926,-1.0543 0.0631,-0.3089 0.11725,-0.6233 0.23121,-0.9173 0.60613,-1.5637 2.29656,-2.3763 2.91557,-3.9522 0.4261,-0.8548 0.90803,-1.684 1.2783,-2.5644 0.58231,-1.3846 1.08348,-2.8025 1.57569,-4.2216 0.64812,-1.8686 1.2837,-3.7429 1.8446,-5.6395 1.36319,-4.6094 2.34203,-9.3242 3.41958,-14.0045 0.16141,-0.9836 0.34143,-1.9643 0.48424,-2.9507 0.34888,-2.4099 0.13137,-2.2906 0.7983,-4.873 1.06736,-4.133 2.82732,-8.036 3.82251,-12.1904 0.52112,-2.3135 0.97642,-4.1742 1.35609,-6.5242 0.17234,-1.0667 0.3057,-2.1399 0.41962,-3.2144 0.26281,-2.4791 0.0563,-1.2236 0.16129,-2.8968 0.0156,-0.2493 0.0493,-0.4972 0.0739,-0.7458 -0.0152,-0.5872 0.10981,-1.1952 -0.0456,-1.7616 -0.68765,-2.5059 -2.39017,-3.4173 -4.34796,-4.8419 -3.02086,-2.1982 -1.82187,-1.4058 -4.43259,-2.9892 -0.48932,-1.3317 -1.47451,-4.1029 -2.0426,-4.7365 -2.20645,-2.4612 -9.64433,-4.8228 -11.63064,-5.4879 -6.05202,-2.0265 -13.60685,-3.9809 -19.82229,-5.6613 -2.11821,-0.5351 -4.21386,-1.1692 -6.35464,-1.6054 -1.31527,-0.268 -2.6565,-0.4066 -3.99531,-0.5034 -0.90883,-0.066 -1.82241,0.01 -2.73354,0.017 -2.63186,0.033 -5.26185,0.149 -7.89427,0.1479 -1.16041,0.081 -2.32788,0.093 -3.48124,0.2441 -1.86166,0.2445 -3.70934,0.5896 -5.55351,0.9426 -8.5275,1.6323 -16.89473,4.0272 -25.48471,5.3452 -9.76429,1.7281 1.08866,-0.2151 -9.09495,1.6813 -1.77612,0.3308 -3.55721,0.6345 -5.3334,0.9648 -2.09413,0.3896 -4.17898,0.8294 -6.27742,1.1949 -6.8051,1.1854 -9.97502,1.562 -17.0102,2.5442 -2.74264,0.3844 -5.48477,0.7726 -8.22792,1.1533 -2.12978,0.2957 -4.25427,0.6343 -6.39085,0.8759 -4.86494,0.55 -3.91997,0.1848 -8.7406,0.5656 -4.14995,0.3278 -5.1463,0.5991 -9.41148,1.3163 -4.13117,0.837 -7.08544,1.396 -11.19643,2.3914 -1.86588,0.4518 -3.73485,0.8992 -5.57358,1.4512 -4.87558,1.4637 -9.59288,3.4242 -14.26701,5.4225 -2.03522,0.8631 -3.64973,1.4028 -5.44817,2.5948 -1.72581,1.1439 -2.56684,2.0953 -3.90087,3.7762 -2.03675,2.5664 -4.14877,5.7925 -5.96351,8.456 -1.45419,2.7973 -2.59381,4.5564 -3.37924,7.5752 -0.58667,2.2549 -0.56191,4.5033 -0.39497,6.8072 0.0982,1.3558 0.24651,2.7104 0.4785,4.0499 0.21519,1.2424 0.57396,2.4557 0.86094,3.6836 0.296,0.7139 0.527,1.4583 0.88801,2.1416 0.56155,1.0629 1.08779,1.591 1.9106,2.37 0.13977,0.1323 0.26763,0.4535 0.44186,0.3717 0.16629,-0.078 -0.34134,-0.8665 -0.0206,-0.3432 0.13212,0.9614 0.33049,2.5295 0.57028,3.2854 0.81565,2.5711 2.12745,4.4178 3.70392,6.6601 2.60728,3.7084 6.62399,8.8053 9.34018,12.3154 2.50618,3.4366 3.05223,4.008 4.99845,7.1703 1.12949,1.8352 1.9907,3.7362 3.19933,5.552 0.60088,0.9027 1.2627,1.7634 1.89405,2.6451 0.70029,0.8819 1.3998,1.7645 2.10087,2.6459 1.43374,1.8024 1.74098,2.3052 3.24577,3.8068 0.44576,0.4448 0.9118,0.8695 1.38663,1.2831 0.18254,0.159 0.40766,0.5997 0.58317,0.4329 0.21148,-0.2009 -0.0851,-0.5772 -0.12757,-0.8658 0.33649,0.7239 0.54891,1.5197 1.00948,2.1717 0.61154,0.8657 3.42198,2.4006 3.90854,2.6736 4.24374,2.3817 8.66541,4.4405 12.81148,6.9972 2.3061,1.5097 1.83476,1.7491 1.12077,-1.2759 -0.006,-0.024 -0.0114,0.051 -0.003,0.075 0.38558,1.1307 0.54758,2.3712 1.1826,3.383 0.49197,0.784 4.11559,1.5528 4.27577,1.5973 5.75581,0.7269 4.88024,0.7608 11.59151,0.8279 2.42467,0.024 4.84904,-0.074 7.27373,-0.095 2.8895,-0.026 5.59216,-0.1731 8.3839,0.5842 1.38561,0.1325 2.76574,0.3494 4.15684,0.3974 4.41245,0.152 10.16669,-0.099 14.46924,-0.5923 4.48106,-0.5135 8.84661,-1.6065 13.19504,-2.7534 1.0266,-0.2456 2.05746,-0.474 3.0798,-0.7367 2.62147,-0.6738 5.03896,-1.1526 7.32815,-2.7109 1.87911,-1.2793 3.14473,-3.2079 4.14896,-5.1867 0.46618,-0.9187 0.77236,-1.9101 1.15854,-2.8651 1.19465,-3.715 2.42873,-7.4058 3.95085,-11.0044 2.27515,-5.379 5.04066,-10.5343 7.19615,-15.9654 0.6856,-1.8351 1.4167,-3.6538 2.0568,-5.5052 0.65396,-1.8915 1.20431,-3.8173 1.82424,-5.7202 1.21198,-3.7203 2.34139,-7.1015 3.73182,-10.7588 0.48322,-1.271 0.98267,-2.5371 1.53875,-3.7779 0.49406,-1.1025 1.07303,-2.1649 1.60954,-3.2474 1.4216,-2.5965 2.50521,-4.6471 4.08713,-7.2038 2.39404,-3.8694 3.7076,-5.5798 6.24977,-9.432 1.0509,-1.5924 2.07375,-3.2032 3.09982,-4.8117 1.06838,-1.6749 2.12232,-3.3588 3.18348,-5.0382 1.05998,-1.7845 2.1673,-3.5416 3.17994,-5.3533 1.18331,-2.117 2.2802,-4.2813 3.40598,-6.4295 1.16043,-2.2143 2.23149,-4.4764 3.45257,-6.6579 3.05689,-5.461 3.72193,-6.2467 7.23999,-10.9891 1.08958,-1.4687 2.20282,-2.9198 3.30423,-4.3797 0.71909,-1.1329 1.5606,-2.1969 2.15726,-3.3988 0.35103,-0.7071 0.56344,-1.4912 0.65923,-2.2748 0.0169,-0.1379 -0.25785,0.1259 -0.39672,0.1272 -0.15791,0 -0.58918,-0.03 -0.45857,-0.1189 2.29332,-1.5586 4.50387,-1.4573 7.31092,-1.9427 7.5336,-0.04 5.79859,-0.1418 13.27562,0.2573 1.32194,0.071 2.64599,0.1288 3.96227,0.2699 2.15312,0.2309 4.13292,1.1227 6.15582,1.8243 1.22654,0.5481 2.48247,1.0346 3.67961,1.6442 3.33,1.6958 5.42168,2.9343 8.25761,5.3104 0.82676,0.6927 1.61935,1.4397 2.29794,2.2781 1.23613,1.5272 1.99659,3.4516 2.813,5.2042 0.79339,2.1783 1.36669,3.4452 1.74588,5.7682 0.43424,2.6603 0.30948,4.62 0.25778,7.3317 -0.0393,2.0615 -0.14286,5.3709 -0.20571,7.4818 9e-5,1.022 0.0355,3.7378 -0.0895,4.845 -0.12744,1.1289 -0.32598,2.2494 -0.54166,3.3648 -1.32018,6.8269 -3.26819,13.503 -4.74737,20.2943 -0.79418,3.3938 -1.37471,6.1851 -2.42886,9.4997 -2.35369,7.4005 -5.85878,14.3593 -8.91239,21.4791 -0.35564,0.7308 -3.04382,6.3236 -3.66054,7.3581 -1.53717,2.5782 -2.18906,2.9889 -4.11475,5.2593 -1.85845,2.1911 -2.02044,2.4647 -3.67523,4.6535 -0.35506,0.452 -0.70874,0.905 -1.06516,1.3559 -0.208,0.2631 -0.34584,0.6049 -0.62811,0.7861 -1.82451,1.171 -3.95394,0.9514 -6.04847,0.999 -4.83757,0.1098 -9.67911,-0.1969 -14.51644,0.01 -2.46714,0.037 -4.9346,0.057 -7.40143,0.1111 -2.02725,0.044 -6.24454,0.3673 -8.55987,-0.033 -0.91405,-0.1582 -1.79008,-0.5 -2.65277,-0.841 -1.23327,-0.4875 -3.63874,-1.7714 -4.86861,-2.4102 -0.55742,-0.3054 -1.08558,-0.6716 -1.67227,-0.9161 -0.0644,-0.027 -0.0848,0.1109 -0.12716,0.1663 -0.19838,-0.1924 -0.39676,-0.3848 -0.59513,-0.5772 -0.35993,-0.6259 -0.64025,-1.2985 -0.87601,-1.9809 -0.66258,-1.9178 -1.40176,-5.1779 -1.86491,-7.0803 -0.27942,-1.208 -0.54151,-2.4201 -0.83825,-3.6239 -0.20026,-0.8124 -0.4497,-1.6121 -0.6525,-2.4239 -0.12316,-0.493 -0.40114,-0.9869 -0.32511,-1.4894 0.1432,-0.9461 0.52966,-1.8508 0.95997,-2.7056 1.18766,-2.3591 5.4592,-8.7759 6.54809,-10.455 1.29761,-2.3152 2.73738,-4.5562 3.89283,-6.9455 2.2566,-4.6664 1.1626,-3.6096 2.51019,-7.4865 0.78416,-2.2559 1.76872,-3.8365 2.92545,-5.9825 0.72638,-1.3476 1.4544,-2.6943 2.1816,-4.0415 1.83666,-3.3675 4.03328,-7.2266 5.5529,-10.7369 1.66654,-3.8496 2.72797,-7.335 3.78824,-11.3693 0.44504,-1.6933 0.87757,-3.3925 1.20421,-5.1126 0.32577,-1.7155 0.50076,-3.4562 0.75115,-5.1843 0.1912,-1.7034 0.41897,-3.403 0.5736,-5.1101 0.327,-3.6096 0.66261,-6.4558 -0.34758,-10.0458 -1.80646,-6.4199 -6.7233,-11.2328 -10.94949,-16.097 -1.56619,-1.765 -3.13701,-3.5258 -4.69856,-5.2949 -0.81226,-0.9202 -1.3783,-2.1282 -2.42282,-2.7728 -0.30931,-0.1909 -0.45545,1.1941 -0.64141,0.8818 -0.83075,-1.3952 -0.68863,-3.2501 -1.57778,-4.6088 -0.97595,-1.4913 -5.01696,1.1652 -5.32332,-0.5017 -3.87895,-0.026 -11.62847,-0.1086 -15.23198,0.019 -3.58798,0.1274 -7.18496,0.2181 -10.7531,0.6159 -4.20055,0.4682 -8.38627,1.1185 -12.52431,1.979 -9.92318,2.0636 -13.37282,3.5409 -22.60505,6.7064 -4.45722,2.0991 -7.71241,3.1396 -11.31043,6.3815 -1.07933,0.9725 -1.98865,2.1382 -2.78116,3.3559 -0.48568,0.7462 -0.72723,1.6283 -1.0119,2.4719 -0.46835,1.3879 -0.66228,2.7518 -0.91864,4.1828 0.14416,0.9565 0.17928,1.9359 0.43247,2.8694 0.0897,0.3307 0.37474,0.574 0.57651,0.8509 0.40323,0.5533 0.8452,1.0782 1.23796,1.6389 2.70586,3.8635 4.99603,7.9861 7.36685,12.0577 2.11781,3.2866 2.90563,4.9678 5.64084,7.625 0.35719,0.347 3.49673,2.3932 3.83646,2.8502 3.91008,5.2599 4.25567,8.4561 6.54176,15.1315 0.83283,4.1304 1.95038,8.2135 2.4985,12.3912 0.46297,3.5288 0.41063,7.1069 0.52636,10.6641 0.0962,2.9561 0.0654,5.9149 0.10926,8.8723 0.0304,2.0487 0.0717,4.0973 0.11365,6.1459 0.022,1.076 -0.005,2.1548 0.0782,3.2279 0.0329,0.4234 0.17979,0.8302 0.26969,1.2453 -0.69563,0.7379 -1.2264,1.6771 -2.08689,2.2137 -3.65734,2.2808 -8.36561,3.3712 -12.5438,3.8454 -2.68182,0.3043 -5.3948,0.2942 -8.0934,0.2454 -6.59841,-0.1192 -7.76157,-0.5698 -13.99071,-1.6934 -1.94828,-0.4222 -3.89001,-0.8758 -5.84485,-1.2665 -0.99754,-0.1993 -3.56322,-0.4908 -4.60017,-0.8523 -0.95529,-0.333 -1.92484,-0.6874 -2.76559,-1.2501 -2.86757,-1.9192 -4.11386,-3.8124 -6.32703,-6.4478 -0.82826,-1.4107 -1.78539,-2.7532 -2.48478,-4.2321 -0.73556,-1.5553 -1.3067,-3.1888 -1.80382,-4.8359 -1.58248,-5.2432 -2.21603,-10.824 -2.17277,-16.2903 0.0129,-1.6264 0.1808,-3.2478 0.2712,-4.8718 0.12217,-3.101 0.35401,-5.029 -0.0454,-8.0276 -0.53405,-4.0096 -1.02786,-4.7527 -2.19356,-8.7549 -2.39161,-8.2112 -1.51781,-4.9028 -3.13722,-14.6791 -0.16339,-3.3251 -0.51922,-6.6463 -0.49015,-9.9752 0.0564,-6.4541 0.85808,-10.9281 2.0303,-17.1787 0.43348,-2.3115 1.01611,-4.5937 1.43416,-6.9079 0.72476,-4.0122 1.02305,-6.9801 1.4894,-10.9364 0.21187,-1.3847 -5.72207,-2.2926 -5.93394,-0.908 z"
       transform="matrix(0.45120023,0,0,0.44789515,-278.45611,-858.29064)" /><path
       style="fill:url(#linearGradient6626);fill-rule:evenodd;stroke:url(#linearGradient6626);stroke-width:5.78363;stroke-linejoin:round;filter:url(#filter2040)"
       id="path2042"
       d="m -525.3366,-1552.1441 c -0.46309,3.9047 -0.7801,7.0279 -1.49149,10.9502 -0.39976,2.204 -0.96165,4.3763 -1.37499,6.5779 -1.22049,6.5008 -2.05917,11.2319 -2.14027,17.9625 -0.043,3.569 0.32039,7.1315 0.48058,10.6972 1.67888,10.4177 0.80272,7.1384 3.35123,16.0099 1.11791,3.8915 1.61928,4.5456 2.07546,8.2472 0.27723,2.2495 0.0534,4.4051 -0.0517,6.667 -0.0891,1.5979 -0.25496,3.1934 -0.26736,4.7937 -0.047,6.0622 0.60542,12.1683 2.3227,17.9977 0.55492,1.8837 1.19175,3.753 2.01413,5.5362 0.82638,1.7919 1.94342,3.4349 2.91513,5.1523 2.68097,3.2982 4.09366,5.5365 7.58609,7.9794 1.24918,0.8738 2.64538,1.5357 4.05752,2.11 2.19249,0.8916 4.01984,0.9375 6.28106,1.3909 1.85353,0.3716 3.694,0.8056 5.541,1.2085 6.51837,1.1795 7.84219,1.6591 14.83252,1.8148 2.89945,0.064 5.8142,0.081 8.69738,-0.2323 4.89016,-0.5314 10.44025,-1.7763 14.76549,-4.3402 1.45609,-0.8631 2.54254,-2.2352 3.81381,-3.3528 0.49278,-1.4476 1.21703,-2.8362 1.47833,-4.3429 0.18571,-1.0708 -0.0556,-10.6458 -0.0572,-10.7535 -0.0719,-4.8543 -0.0651,-15.2837 -0.64184,-19.7205 -0.58103,-4.4695 -1.73777,-8.8452 -2.60666,-13.2678 -2.44262,-7.246 -2.98055,-11.0826 -7.24317,-16.9832 -2.57972,-3.5711 -2.79921,-2.0894 -5.49408,-4.6836 -1.27568,-1.228 -3.39625,-4.8672 -4.10851,-5.997 -2.37789,-4.1191 -4.7153,-8.2644 -7.4395,-12.1688 -0.45442,-0.6513 -0.96053,-1.2651 -1.42818,-1.9069 -0.13889,-0.1907 -0.5094,-0.7937 -0.39089,-0.5898 0.17878,0.3076 0.38126,0.6008 0.57188,0.9012 0.19651,-0.9558 0.42911,-2.2068 0.7412,-3.0991 0.19738,-0.5643 0.37428,-1.1574 0.72903,-1.6386 0.47986,-0.651 1.08949,-1.2076 1.73162,-1.6992 3.31237,-2.5358 5.24006,-3.0526 9.36044,-4.9347 8.73659,-2.9642 12.15551,-4.3946 21.57526,-6.338 3.95028,-0.815 7.94671,-1.4238 11.95635,-1.8616 3.37085,-0.368 6.7686,-0.4399 10.1576,-0.5526 3.48341,-0.1159 11.12752,-0.035 14.85747,-0.01 1.17331,0.025 2.34661,0.049 3.51991,0.074 -0.0106,0.043 -0.008,0.1646 -0.0319,0.1276 -0.71867,-1.1283 -0.79814,-3.8346 -2.07487,-3.4352 -1.25083,0.3913 0.0948,2.6976 0.6729,3.8738 0.75345,1.5328 7.66115,9.1117 8.12622,9.6364 3.66697,4.3931 8.48054,8.6061 9.90165,14.428 0.53911,2.2085 0.12848,5.0783 -0.0981,7.2649 -0.16963,1.6367 -0.3694,3.2702 -0.5541,4.9053 -0.24219,1.6645 -0.41093,3.3414 -0.72656,4.9935 -0.29501,1.5442 -0.69838,3.0665 -1.10344,4.5855 -1.0299,3.8623 -1.95418,6.9552 -3.56481,10.6398 -1.31203,3.0015 -3.62899,7.0952 -5.20531,9.9795 -0.73172,1.3555 -1.46427,2.7105 -2.19516,4.0664 -1.26074,2.3389 -2.2737,3.9946 -3.16137,6.4712 -1.2431,3.4684 -0.88105,4.2237 -2.61969,7.7607 -1.02992,2.0951 -2.32484,4.0492 -3.48726,6.0739 -1.23936,1.9047 -5.27152,7.9373 -6.4823,10.3419 -0.59122,1.1741 -1.17538,2.3864 -1.42628,3.6768 -0.56748,2.9186 0.13305,4.685 0.77161,7.4509 0.27251,1.1804 0.54561,2.3606 0.81842,3.5409 0.48713,2.0017 1.25627,5.3832 1.94197,7.3784 0.57012,1.659 1.27529,3.3723 2.54553,4.6455 0.8462,0.8481 2.56654,1.7026 3.61033,2.2755 2.68684,1.3337 5.57181,3.1058 8.54329,3.6938 3.83168,0.7581 6.65151,0.4042 10.59257,0.3279 2.44084,-0.047 4.88205,-0.073 7.32308,-0.1095 4.80056,-0.2069 9.60541,0.1008 14.40621,-0.01 2.90428,-0.067 5.41945,-0.025 8.05558,-1.3372 2.06455,-1.0276 2.89237,-2.3051 4.32436,-3.9712 1.67867,-2.2108 1.90584,-2.5739 3.69744,-4.6804 2.04057,-2.3992 2.62036,-2.7258 4.38282,-5.6117 1.07964,-1.7678 3.27264,-6.3864 4.14957,-8.1863 3.15621,-7.3197 6.73709,-14.4887 9.17212,-22.0984 1.17685,-3.6778 1.73138,-6.3742 2.61626,-10.1373 1.49299,-6.8301 3.44235,-13.5475 4.77412,-20.4138 0.2351,-1.2122 0.45469,-2.4294 0.59625,-3.656 0.20838,-1.8057 0.16252,-3.9866 0.16682,-5.7982 0.0695,-2.2769 0.16091,-5.0916 0.20377,-7.3361 0.0562,-2.9418 0.17105,-5.0709 -0.27773,-7.9968 -0.4858,-3.1673 -1.0393,-4.3296 -2.07351,-7.2745 -0.99215,-2.1708 -1.86702,-4.4171 -3.35125,-6.3275 -3.32233,-4.2762 -7.97503,-7.2087 -12.71133,-9.6695 -1.35549,-0.7043 -2.78181,-1.2629 -4.17271,-1.8944 -2.43752,-0.8859 -4.85125,-1.9144 -7.45038,-2.2388 -1.55674,-0.1943 -3.12584,-0.2772 -4.69196,-0.3691 -7.08497,-0.416 -6.56868,-0.304 -13.74632,-0.2735 -3.76669,0.6484 -9.52459,0.6098 -11.75217,4.6372 -0.45069,0.8148 -0.39783,1.8205 -0.64947,2.717 -0.37634,1.3408 -0.83641,1.5992 -1.81134,2.8892 -1.04144,1.3761 -2.09543,2.7428 -3.12431,4.1284 -3.61383,4.8666 -4.39415,5.8321 -7.58436,11.4969 -1.29107,2.2924 -2.42231,4.6714 -3.64536,7.0008 -1.12004,2.1333 -2.20821,4.2843 -3.38389,6.3874 -0.96448,1.7254 -2.02308,3.3964 -3.03462,5.0946 -1.0328,1.6332 -2.05879,3.2707 -3.0984,4.8995 -1.01721,1.5938 -2.03049,3.1902 -3.072,4.7682 -2.60722,3.9501 -3.76651,5.4217 -6.23884,9.415 -1.73141,2.7966 -2.77117,4.7695 -4.31625,7.5875 -0.57391,1.1541 -1.19238,2.287 -1.72172,3.4622 -2.21604,4.9199 -3.91823,10.1844 -5.58899,15.3087 -0.62837,1.9272 -1.18606,3.8777 -1.84818,5.7936 -0.60757,1.7581 -1.30647,3.4833 -1.95971,5.2249 -0.6406,1.4882 -1.25428,2.9883 -1.92181,4.4646 -2.21016,4.8881 -3.02153,6.168 -5.12525,11.1389 -1.6108,3.8062 -2.92635,7.7025 -4.19217,11.6314 -0.78463,1.9966 -1.58744,4.3612 -3.63307,5.4509 -0.55475,0.2955 -1.18705,0.4165 -1.7924,0.5856 -1.24495,0.3479 -4.69532,1.1592 -5.97102,1.4637 -4.2158,1.1096 -8.44361,2.1853 -12.78959,2.6712 -3.94175,0.4407 -9.44972,0.658 -13.49818,0.5101 -1.18704,-0.043 -2.36295,-0.2453 -3.54443,-0.368 -2.9346,-0.7943 -5.95791,-0.6321 -8.97125,-0.6136 -2.45299,0.015 -4.90556,0.1202 -7.35848,0.096 -6.34646,-0.063 -5.47871,-0.082 -10.74429,-0.7789 -0.63813,-0.1987 -1.27626,-0.3974 -1.9144,-0.5961 0.0853,0 0.21479,-0.079 0.25588,0 0.50089,0.9114 0.77444,1.9388 1.30025,2.836 0.0829,0.1415 0.14609,-0.3373 0.0769,-0.486 -0.53517,-1.1506 -1.04574,-2.3457 -1.85041,-3.3268 -0.48488,-0.5913 -1.27626,-0.8426 -1.91439,-1.2639 -4.28593,-2.6708 -8.87127,-4.8027 -13.27066,-7.2706 -0.79481,-0.4459 -1.5829,-0.9069 -2.3382,-1.4169 -0.15772,-0.1064 -0.47059,-0.5916 -0.38489,-0.4216 0.25982,0.5152 0.60914,0.9801 0.91371,1.4702 -0.40187,-0.7205 -0.70767,-1.5037 -1.20561,-2.1615 -0.3563,-0.4707 -0.88588,-0.7805 -1.32241,-1.1779 -0.39677,-0.3612 -0.79942,-0.7168 -1.17733,-1.0977 -1.18219,-1.1915 -1.49097,-1.7009 -2.62447,-3.1347 -0.69999,-0.8854 -1.40372,-1.7679 -2.10558,-2.6518 -0.57014,-0.8005 -1.16827,-1.5817 -1.71042,-2.4014 -1.06398,-1.6086 -1.84756,-3.369 -2.85417,-5.0095 -2.17557,-3.5457 -2.56606,-3.8901 -5.37505,-7.7564 -2.66647,-3.448 -6.78663,-8.6805 -9.37017,-12.3562 -1.28226,-1.8243 -2.41434,-3.2515 -2.95994,-5.3315 -0.0813,-0.3099 -0.0353,-0.6401 -0.0679,-0.9589 -0.0308,-0.3 -0.0816,-0.5975 -0.12234,-0.8963 -0.42834,-1.5046 -0.25545,-1.381 -1.43044,-2.8193 -0.67523,-0.8266 -0.96566,-0.7264 -1.55756,-1.5031 -0.2075,-0.2722 -0.5511,-1.4798 -0.57673,-1.5587 -0.60698,-2.8459 -0.78325,-3.1996 -0.97754,-6.2567 -0.11654,-1.8335 -0.17459,-3.4128 0.35565,-5.1648 0.58271,-1.9253 1.8606,-4.0446 2.76698,-5.7442 1.52197,-2.1977 3.77363,-5.5383 5.48267,-7.6886 0.53706,-0.6757 1.1057,-1.3308 1.73049,-1.9263 0.2562,-0.2442 0.58559,-0.3991 0.89306,-0.5744 1.62468,-0.9265 2.21415,-1.0703 4.21317,-1.8956 4.54793,-1.9451 9.13673,-3.8586 13.8832,-5.2768 1.69555,-0.5067 3.42084,-0.9092 5.14166,-1.3219 4.13419,-0.9916 6.72874,-1.4785 10.88381,-2.3194 4.05928,-0.6798 4.9511,-0.9321 8.85151,-1.2302 4.94514,-0.378 3.31286,0.04 8.5769,-0.5506 1.57213,-0.1763 14.19298,-1.9581 14.98435,-2.069 7.07757,-0.9881 10.26585,-1.3678 17.13194,-2.5625 2.15398,-0.3748 4.29425,-0.8246 6.44378,-1.2241 1.75859,-0.3269 3.52198,-0.6275 5.28045,-0.955 10.11851,-1.8844 -0.40867,-8e-4 9.07219,-1.6772 8.65159,-1.3229 17.07758,-3.7386 25.6657,-5.3801 1.76951,-0.3383 3.5428,-0.6666 5.32912,-0.9003 0.95094,-0.1244 1.91463,-0.1151 2.87195,-0.1727 2.54012,0.011 5.07782,-0.1047 7.61732,-0.1362 0.88463,-0.011 1.7718,-0.082 2.65403,-0.016 3.23223,0.2416 5.54026,1.0679 8.82445,1.9214 6.14246,1.661 13.60747,3.5918 19.59086,5.597 2.84174,0.9523 7.46799,2.2243 9.97575,4.7009 0.21713,0.2144 -0.85197,-0.4893 -0.89616,-0.1873 -0.098,0.6692 0.4279,1.2833 0.64185,1.9249 4.39421,4.5558 2.11732,2.6044 6.57264,5.8777 0.34673,0.2548 2.17656,1.4316 2.66226,2.1713 0.13404,0.2041 -0.40181,-0.2929 -0.54221,-0.4927 -0.10447,-0.1486 -0.11221,-0.3456 -0.16831,-0.5184 -0.0246,0.2479 -0.0578,0.495 -0.0737,0.7436 -0.0825,1.2927 -0.0255,1.6899 -0.17723,3.0893 -0.10244,0.9446 -0.22558,1.8874 -0.38086,2.8248 -0.34538,2.085 -0.79475,3.9312 -1.2608,5.9911 -0.36727,1.2468 -0.70272,2.5035 -1.10181,3.7405 -1.28938,3.9965 -1.55429,3.9684 -2.6138,8.0433 -0.79672,3.0641 -0.58498,2.9831 -1.00785,5.8703 -0.13243,0.9042 -0.29923,1.8031 -0.44885,2.7046 -1.05191,4.4929 -1.98878,9.0225 -3.30102,13.4503 -0.52844,1.7832 -1.13192,3.5436 -1.74414,5.2997 -1.37991,3.9582 -1.0341,3.1002 -2.50518,5.9445 -0.93933,1.163 -2.01798,2.1737 -2.68661,3.5411 -0.57743,1.1809 -0.97459,2.5607 -1.1519,3.8681 -0.0563,0.4151 -0.0325,0.8373 -0.0487,1.2559 0.36758,0.7723 0.73516,1.5447 1.10274,2.317 1.03247,0.9467 5.08941,-3.4779 4.05695,-4.4246 v 0 c 0.28108,0.693 0.56216,1.386 0.84325,2.0791 -0.18798,-0.3918 -0.094,-0.1402 0.0926,-1.0543 0.0631,-0.3089 0.11725,-0.6233 0.23121,-0.9173 0.60613,-1.5637 2.29656,-2.3763 2.91557,-3.9522 0.4261,-0.8548 0.90803,-1.684 1.2783,-2.5644 0.58231,-1.3846 1.08348,-2.8025 1.57569,-4.2216 0.64812,-1.8686 1.2837,-3.7429 1.8446,-5.6395 1.36319,-4.6094 2.34203,-9.3242 3.41958,-14.0045 0.16141,-0.9836 0.34143,-1.9643 0.48424,-2.9507 0.34888,-2.4099 0.13137,-2.2906 0.7983,-4.873 1.06736,-4.133 2.82732,-8.036 3.82251,-12.1904 0.52112,-2.3135 0.97642,-4.1742 1.35609,-6.5242 0.17234,-1.0667 0.3057,-2.1399 0.41962,-3.2144 0.26281,-2.4791 0.0563,-1.2236 0.16129,-2.8968 0.0156,-0.2493 0.0493,-0.4972 0.0739,-0.7458 -0.0152,-0.5872 0.10981,-1.1952 -0.0456,-1.7616 -0.68765,-2.5059 -2.39017,-3.4173 -4.34796,-4.8419 -3.02086,-2.1982 -1.82187,-1.4058 -4.43259,-2.9892 -0.48932,-1.3317 -1.47451,-4.1029 -2.0426,-4.7365 -2.20645,-2.4612 -9.64433,-4.8228 -11.63064,-5.4879 -6.05202,-2.0265 -13.60685,-3.9809 -19.82229,-5.6613 -2.11821,-0.5351 -4.21386,-1.1692 -6.35464,-1.6054 -1.31527,-0.268 -2.6565,-0.4066 -3.99531,-0.5034 -0.90883,-0.066 -1.82241,0.01 -2.73354,0.017 -2.63186,0.033 -5.26185,0.149 -7.89427,0.1479 -1.16041,0.081 -2.32788,0.093 -3.48124,0.2441 -1.86166,0.2445 -3.70934,0.5896 -5.55351,0.9426 -8.5275,1.6323 -16.89473,4.0272 -25.48471,5.3452 -9.76429,1.7281 1.08866,-0.2151 -9.09495,1.6813 -1.77612,0.3308 -3.55721,0.6345 -5.3334,0.9648 -2.09413,0.3896 -4.17898,0.8294 -6.27742,1.1949 -6.8051,1.1854 -9.97502,1.562 -17.0102,2.5442 -2.74264,0.3844 -5.48477,0.7726 -8.22792,1.1533 -2.12978,0.2957 -4.25427,0.6343 -6.39085,0.8759 -4.86494,0.55 -3.91997,0.1848 -8.7406,0.5656 -4.14995,0.3278 -5.1463,0.5991 -9.41148,1.3163 -4.13117,0.837 -7.08544,1.396 -11.19643,2.3914 -1.86588,0.4518 -3.73485,0.8992 -5.57358,1.4512 -4.87558,1.4637 -9.59288,3.4242 -14.26701,5.4225 -2.03522,0.8631 -3.64973,1.4028 -5.44817,2.5948 -1.72581,1.1439 -2.56684,2.0953 -3.90087,3.7762 -2.03675,2.5664 -4.14877,5.7925 -5.96351,8.456 -1.45419,2.7973 -2.59381,4.5564 -3.37924,7.5752 -0.58667,2.2549 -0.56191,4.5033 -0.39497,6.8072 0.0982,1.3558 0.24651,2.7104 0.4785,4.0499 0.21519,1.2424 0.57396,2.4557 0.86094,3.6836 0.296,0.7139 0.527,1.4583 0.88801,2.1416 0.56155,1.0629 1.08779,1.591 1.9106,2.37 0.13977,0.1323 0.26763,0.4535 0.44186,0.3717 0.16629,-0.078 -0.34134,-0.8665 -0.0206,-0.3432 0.13212,0.9614 0.33049,2.5295 0.57028,3.2854 0.81565,2.5711 2.12745,4.4178 3.70392,6.6601 2.60728,3.7084 6.62399,8.8053 9.34018,12.3154 2.50618,3.4366 3.05223,4.008 4.99845,7.1703 1.12949,1.8352 1.9907,3.7362 3.19933,5.552 0.60088,0.9027 1.2627,1.7634 1.89405,2.6451 0.70029,0.8819 1.3998,1.7645 2.10087,2.6459 1.43374,1.8024 1.74098,2.3052 3.24577,3.8068 0.44576,0.4448 0.9118,0.8695 1.38663,1.2831 0.18254,0.159 0.40766,0.5997 0.58317,0.4329 0.21148,-0.2009 -0.0851,-0.5772 -0.12757,-0.8658 0.33649,0.7239 0.54891,1.5197 1.00948,2.1717 0.61154,0.8657 3.42198,2.4006 3.90854,2.6736 4.24374,2.3817 8.66541,4.4405 12.81148,6.9972 2.3061,1.5097 1.83476,1.7491 1.12077,-1.2759 -0.006,-0.024 -0.0114,0.051 -0.003,0.075 0.38558,1.1307 0.54758,2.3712 1.1826,3.383 0.49197,0.784 4.11559,1.5528 4.27577,1.5973 5.75581,0.7269 4.88024,0.7608 11.59151,0.8279 2.42467,0.024 4.84904,-0.074 7.27373,-0.095 2.8895,-0.026 5.59216,-0.1731 8.3839,0.5842 1.38561,0.1325 2.76574,0.3494 4.15684,0.3974 4.41245,0.152 10.16669,-0.099 14.46924,-0.5923 4.48106,-0.5135 8.84661,-1.6065 13.19504,-2.7534 1.0266,-0.2456 2.05746,-0.474 3.0798,-0.7367 2.62147,-0.6738 5.03896,-1.1526 7.32815,-2.7109 1.87911,-1.2793 3.14473,-3.2079 4.14896,-5.1867 0.46618,-0.9187 0.77236,-1.9101 1.15854,-2.8651 1.19465,-3.715 2.42873,-7.4058 3.95085,-11.0044 2.27515,-5.379 5.04066,-10.5343 7.19615,-15.9654 0.6856,-1.8351 1.4167,-3.6538 2.0568,-5.5052 0.65396,-1.8915 1.20431,-3.8173 1.82424,-5.7202 1.21198,-3.7203 2.34139,-7.1015 3.73182,-10.7588 0.48322,-1.271 0.98267,-2.5371 1.53875,-3.7779 0.49406,-1.1025 1.07303,-2.1649 1.60954,-3.2474 1.4216,-2.5965 2.50521,-4.6471 4.08713,-7.2038 2.39404,-3.8694 3.7076,-5.5798 6.24977,-9.432 1.0509,-1.5924 2.07375,-3.2032 3.09982,-4.8117 1.06838,-1.6749 2.12232,-3.3588 3.18348,-5.0382 1.05998,-1.7845 2.1673,-3.5416 3.17994,-5.3533 1.18331,-2.117 2.2802,-4.2813 3.40598,-6.4295 1.16043,-2.2143 2.23149,-4.4764 3.45257,-6.6579 3.05689,-5.461 3.72193,-6.2467 7.23999,-10.9891 1.08958,-1.4687 2.20282,-2.9198 3.30423,-4.3797 0.71909,-1.1329 1.5606,-2.1969 2.15726,-3.3988 0.35103,-0.7071 0.56344,-1.4912 0.65923,-2.2748 0.0169,-0.1379 -0.25785,0.1259 -0.39672,0.1272 -0.15791,0 -0.58918,-0.03 -0.45857,-0.1189 2.29332,-1.5586 4.50387,-1.4573 7.31092,-1.9427 7.5336,-0.04 5.79859,-0.1418 13.27562,0.2573 1.32194,0.071 2.64599,0.1288 3.96227,0.2699 2.15312,0.2309 4.13292,1.1227 6.15582,1.8243 1.22654,0.5481 2.48247,1.0346 3.67961,1.6442 3.33,1.6958 5.42168,2.9343 8.25761,5.3104 0.82676,0.6927 1.61935,1.4397 2.29794,2.2781 1.23613,1.5272 1.99659,3.4516 2.813,5.2042 0.79339,2.1783 1.36669,3.4452 1.74588,5.7682 0.43424,2.6603 0.30948,4.62 0.25778,7.3317 -0.0393,2.0615 -0.14286,5.3709 -0.20571,7.4818 9e-5,1.022 0.0355,3.7378 -0.0895,4.845 -0.12744,1.1289 -0.32598,2.2494 -0.54166,3.3648 -1.32018,6.8269 -3.26819,13.503 -4.74737,20.2943 -0.79418,3.3938 -1.37471,6.1851 -2.42886,9.4997 -2.35369,7.4005 -5.85878,14.3593 -8.91239,21.4791 -0.35564,0.7308 -3.04382,6.3236 -3.66054,7.3581 -1.53717,2.5782 -2.18906,2.9889 -4.11475,5.2593 -1.85845,2.1911 -2.02044,2.4647 -3.67523,4.6535 -0.35506,0.452 -0.70874,0.905 -1.06516,1.3559 -0.208,0.2631 -0.34584,0.6049 -0.62811,0.7861 -1.82451,1.171 -3.95394,0.9514 -6.04847,0.999 -4.83757,0.1098 -9.67911,-0.1969 -14.51644,0.01 -2.46714,0.037 -4.9346,0.057 -7.40143,0.1111 -2.02725,0.044 -6.24454,0.3673 -8.55987,-0.033 -0.91405,-0.1582 -1.79008,-0.5 -2.65277,-0.841 -1.23327,-0.4875 -3.63874,-1.7714 -4.86861,-2.4102 -0.55742,-0.3054 -1.08558,-0.6716 -1.67227,-0.9161 -0.0644,-0.027 -0.0848,0.1109 -0.12716,0.1663 -0.19838,-0.1924 -0.39676,-0.3848 -0.59513,-0.5772 -0.35993,-0.6259 -0.64025,-1.2985 -0.87601,-1.9809 -0.66258,-1.9178 -1.40176,-5.1779 -1.86491,-7.0803 -0.27942,-1.208 -0.54151,-2.4201 -0.83825,-3.6239 -0.20026,-0.8124 -0.4497,-1.6121 -0.6525,-2.4239 -0.12316,-0.493 -0.40114,-0.9869 -0.32511,-1.4894 0.1432,-0.9461 0.52966,-1.8508 0.95997,-2.7056 1.18766,-2.3591 5.4592,-8.7759 6.54809,-10.455 1.29761,-2.3152 2.73738,-4.5562 3.89283,-6.9455 2.2566,-4.6664 1.1626,-3.6096 2.51019,-7.4865 0.78416,-2.2559 1.76872,-3.8365 2.92545,-5.9825 0.72638,-1.3476 1.4544,-2.6943 2.1816,-4.0415 1.83666,-3.3675 4.03328,-7.2266 5.5529,-10.7369 1.66654,-3.8496 2.72797,-7.335 3.78824,-11.3693 0.44504,-1.6933 0.87757,-3.3925 1.20421,-5.1126 0.32577,-1.7155 0.50076,-3.4562 0.75115,-5.1843 0.1912,-1.7034 0.41897,-3.403 0.5736,-5.1101 0.327,-3.6096 0.66261,-6.4558 -0.34758,-10.0458 -1.80646,-6.4199 -6.7233,-11.2328 -10.94949,-16.097 -1.56619,-1.765 -3.13701,-3.5258 -4.69856,-5.2949 -0.81226,-0.9202 -1.3783,-2.1282 -2.42282,-2.7728 -0.30931,-0.1909 -0.45545,1.1941 -0.64141,0.8818 -0.83075,-1.3952 -0.68863,-3.2501 -1.57778,-4.6088 -0.97595,-1.4913 -5.01696,1.1652 -5.32332,-0.5017 -3.87895,-0.026 -11.62847,-0.1086 -15.23198,0.019 -3.58798,0.1274 -7.18496,0.2181 -10.7531,0.6159 -4.20055,0.4682 -8.38627,1.1185 -12.52431,1.979 -9.92318,2.0636 -13.37282,3.5409 -22.60505,6.7064 -4.45722,2.0991 -7.71241,3.1396 -11.31043,6.3815 -1.07933,0.9725 -1.98865,2.1382 -2.78116,3.3559 -0.48568,0.7462 -0.72723,1.6283 -1.0119,2.4719 -0.46835,1.3879 -0.66228,2.7518 -0.91864,4.1828 0.14416,0.9565 0.17928,1.9359 0.43247,2.8694 0.0897,0.3307 0.37474,0.574 0.57651,0.8509 0.40323,0.5533 0.8452,1.0782 1.23796,1.6389 2.70586,3.8635 4.99603,7.9861 7.36685,12.0577 2.11781,3.2866 2.90563,4.9678 5.64084,7.625 0.35719,0.347 3.49673,2.3932 3.83646,2.8502 3.91008,5.2599 4.25567,8.4561 6.54176,15.1315 0.83283,4.1304 1.95038,8.2135 2.4985,12.3912 0.46297,3.5288 0.41063,7.1069 0.52636,10.6641 0.0962,2.9561 0.0654,5.9149 0.10926,8.8723 0.0304,2.0487 0.0717,4.0973 0.11365,6.1459 0.022,1.076 -0.005,2.1548 0.0782,3.2279 0.0329,0.4234 0.17979,0.8302 0.26969,1.2453 -0.69563,0.7379 -1.2264,1.6771 -2.08689,2.2137 -3.65734,2.2808 -8.36561,3.3712 -12.5438,3.8454 -2.68182,0.3043 -5.3948,0.2942 -8.0934,0.2454 -6.59841,-0.1192 -7.76157,-0.5698 -13.99071,-1.6934 -1.94828,-0.4222 -3.89001,-0.8758 -5.84485,-1.2665 -0.99754,-0.1993 -3.56322,-0.4908 -4.60017,-0.8523 -0.95529,-0.333 -1.92484,-0.6874 -2.76559,-1.2501 -2.86757,-1.9192 -4.11386,-3.8124 -6.32703,-6.4478 -0.82826,-1.4107 -1.78539,-2.7532 -2.48478,-4.2321 -0.73556,-1.5553 -1.3067,-3.1888 -1.80382,-4.8359 -1.58248,-5.2432 -2.21603,-10.824 -2.17277,-16.2903 0.0129,-1.6264 0.1808,-3.2478 0.2712,-4.8718 0.12217,-3.101 0.35401,-5.029 -0.0454,-8.0276 -0.53405,-4.0096 -1.02786,-4.7527 -2.19356,-8.7549 -2.39161,-8.2112 -1.51781,-4.9028 -3.13722,-14.6791 -0.16339,-3.3251 -0.51922,-6.6463 -0.49015,-9.9752 0.0564,-6.4541 0.85808,-10.9281 2.0303,-17.1787 0.43348,-2.3115 1.01611,-4.5937 1.43416,-6.9079 0.72476,-4.0122 1.02305,-6.9801 1.4894,-10.9364 0.21187,-1.3847 -5.72207,-2.2926 -5.93394,-0.908 z"
       transform="matrix(-0.45120023,0,0,0.44789515,-674.70657,-843.01572)" /><path
       style="fill:url(#linearGradient6626);fill-rule:evenodd;stroke:url(#linearGradient6626);stroke-width:5.78363;stroke-linejoin:round;filter:url(#filter2040)"
       id="path2044"
       d="m -525.3366,-1552.1441 c -0.46309,3.9047 -0.7801,7.0279 -1.49149,10.9502 -0.39976,2.204 -0.96165,4.3763 -1.37499,6.5779 -1.22049,6.5008 -2.05917,11.2319 -2.14027,17.9625 -0.043,3.569 0.32039,7.1315 0.48058,10.6972 1.67888,10.4177 0.80272,7.1384 3.35123,16.0099 1.11791,3.8915 1.61928,4.5456 2.07546,8.2472 0.27723,2.2495 0.0534,4.4051 -0.0517,6.667 -0.0891,1.5979 -0.25496,3.1934 -0.26736,4.7937 -0.047,6.0622 0.60542,12.1683 2.3227,17.9977 0.55492,1.8837 1.19175,3.753 2.01413,5.5362 0.82638,1.7919 1.94342,3.4349 2.91513,5.1523 2.68097,3.2982 4.09366,5.5365 7.58609,7.9794 1.24918,0.8738 2.64538,1.5357 4.05752,2.11 2.19249,0.8916 4.01984,0.9375 6.28106,1.3909 1.85353,0.3716 3.694,0.8056 5.541,1.2085 6.51837,1.1795 7.84219,1.6591 14.83252,1.8148 2.89945,0.064 5.8142,0.081 8.69738,-0.2323 4.89016,-0.5314 10.44025,-1.7763 14.76549,-4.3402 1.45609,-0.8631 2.54254,-2.2352 3.81381,-3.3528 0.49278,-1.4476 1.21703,-2.8362 1.47833,-4.3429 0.18571,-1.0708 -0.0556,-10.6458 -0.0572,-10.7535 -0.0719,-4.8543 -0.0651,-15.2837 -0.64184,-19.7205 -0.58103,-4.4695 -1.73777,-8.8452 -2.60666,-13.2678 -2.44262,-7.246 -2.98055,-11.0826 -7.24317,-16.9832 -2.57972,-3.5711 -2.79921,-2.0894 -5.49408,-4.6836 -1.27568,-1.228 -3.39625,-4.8672 -4.10851,-5.997 -2.37789,-4.1191 -4.7153,-8.2644 -7.4395,-12.1688 -0.45442,-0.6513 -0.96053,-1.2651 -1.42818,-1.9069 -0.13889,-0.1907 -0.5094,-0.7937 -0.39089,-0.5898 0.17878,0.3076 0.38126,0.6008 0.57188,0.9012 0.19651,-0.9558 0.42911,-2.2068 0.7412,-3.0991 0.19738,-0.5643 0.37428,-1.1574 0.72903,-1.6386 0.47986,-0.651 1.08949,-1.2076 1.73162,-1.6992 3.31237,-2.5358 5.24006,-3.0526 9.36044,-4.9347 8.73659,-2.9642 12.15551,-4.3946 21.57526,-6.338 3.95028,-0.815 7.94671,-1.4238 11.95635,-1.8616 3.37085,-0.368 6.7686,-0.4399 10.1576,-0.5526 3.48341,-0.1159 11.12752,-0.035 14.85747,-0.01 1.17331,0.025 2.34661,0.049 3.51991,0.074 -0.0106,0.043 -0.008,0.1646 -0.0319,0.1276 -0.71867,-1.1283 -0.79814,-3.8346 -2.07487,-3.4352 -1.25083,0.3913 0.0948,2.6976 0.6729,3.8738 0.75345,1.5328 7.66115,9.1117 8.12622,9.6364 3.66697,4.3931 8.48054,8.6061 9.90165,14.428 0.53911,2.2085 0.12848,5.0783 -0.0981,7.2649 -0.16963,1.6367 -0.3694,3.2702 -0.5541,4.9053 -0.24219,1.6645 -0.41093,3.3414 -0.72656,4.9935 -0.29501,1.5442 -0.69838,3.0665 -1.10344,4.5855 -1.0299,3.8623 -1.95418,6.9552 -3.56481,10.6398 -1.31203,3.0015 -3.62899,7.0952 -5.20531,9.9795 -0.73172,1.3555 -1.46427,2.7105 -2.19516,4.0664 -1.26074,2.3389 -2.2737,3.9946 -3.16137,6.4712 -1.2431,3.4684 -0.88105,4.2237 -2.61969,7.7607 -1.02992,2.0951 -2.32484,4.0492 -3.48726,6.0739 -1.23936,1.9047 -5.27152,7.9373 -6.4823,10.3419 -0.59122,1.1741 -1.17538,2.3864 -1.42628,3.6768 -0.56748,2.9186 0.13305,4.685 0.77161,7.4509 0.27251,1.1804 0.54561,2.3606 0.81842,3.5409 0.48713,2.0017 1.25627,5.3832 1.94197,7.3784 0.57012,1.659 1.27529,3.3723 2.54553,4.6455 0.8462,0.8481 2.56654,1.7026 3.61033,2.2755 2.68684,1.3337 5.57181,3.1058 8.54329,3.6938 3.83168,0.7581 6.65151,0.4042 10.59257,0.3279 2.44084,-0.047 4.88205,-0.073 7.32308,-0.1095 4.80056,-0.2069 9.60541,0.1008 14.40621,-0.01 2.90428,-0.067 5.41945,-0.025 8.05558,-1.3372 2.06455,-1.0276 2.89237,-2.3051 4.32436,-3.9712 1.67867,-2.2108 1.90584,-2.5739 3.69744,-4.6804 2.04057,-2.3992 2.62036,-2.7258 4.38282,-5.6117 1.07964,-1.7678 3.27264,-6.3864 4.14957,-8.1863 3.15621,-7.3197 6.73709,-14.4887 9.17212,-22.0984 1.17685,-3.6778 1.73138,-6.3742 2.61626,-10.1373 1.49299,-6.8301 3.44235,-13.5475 4.77412,-20.4138 0.2351,-1.2122 0.45469,-2.4294 0.59625,-3.656 0.20838,-1.8057 0.16252,-3.9866 0.16682,-5.7982 0.0695,-2.2769 0.16091,-5.0916 0.20377,-7.3361 0.0562,-2.9418 0.17105,-5.0709 -0.27773,-7.9968 -0.4858,-3.1673 -1.0393,-4.3296 -2.07351,-7.2745 -0.99215,-2.1708 -1.86702,-4.4171 -3.35125,-6.3275 -3.32233,-4.2762 -7.97503,-7.2087 -12.71133,-9.6695 -1.35549,-0.7043 -2.78181,-1.2629 -4.17271,-1.8944 -2.43752,-0.8859 -4.85125,-1.9144 -7.45038,-2.2388 -1.55674,-0.1943 -3.12584,-0.2772 -4.69196,-0.3691 -7.08497,-0.416 -6.56868,-0.304 -13.74632,-0.2735 -3.76669,0.6484 -9.52459,0.6098 -11.75217,4.6372 -0.45069,0.8148 -0.39783,1.8205 -0.64947,2.717 -0.37634,1.3408 -0.83641,1.5992 -1.81134,2.8892 -1.04144,1.3761 -2.09543,2.7428 -3.12431,4.1284 -3.61383,4.8666 -4.39415,5.8321 -7.58436,11.4969 -1.29107,2.2924 -2.42231,4.6714 -3.64536,7.0008 -1.12004,2.1333 -2.20821,4.2843 -3.38389,6.3874 -0.96448,1.7254 -2.02308,3.3964 -3.03462,5.0946 -1.0328,1.6332 -2.05879,3.2707 -3.0984,4.8995 -1.01721,1.5938 -2.03049,3.1902 -3.072,4.7682 -2.60722,3.9501 -3.76651,5.4217 -6.23884,9.415 -1.73141,2.7966 -2.77117,4.7695 -4.31625,7.5875 -0.57391,1.1541 -1.19238,2.287 -1.72172,3.4622 -2.21604,4.9199 -3.91823,10.1844 -5.58899,15.3087 -0.62837,1.9272 -1.18606,3.8777 -1.84818,5.7936 -0.60757,1.7581 -1.30647,3.4833 -1.95971,5.2249 -0.6406,1.4882 -1.25428,2.9883 -1.92181,4.4646 -2.21016,4.8881 -3.02153,6.168 -5.12525,11.1389 -1.6108,3.8062 -2.92635,7.7025 -4.19217,11.6314 -0.78463,1.9966 -1.58744,4.3612 -3.63307,5.4509 -0.55475,0.2955 -1.18705,0.4165 -1.7924,0.5856 -1.24495,0.3479 -4.69532,1.1592 -5.97102,1.4637 -4.2158,1.1096 -8.44361,2.1853 -12.78959,2.6712 -3.94175,0.4407 -9.44972,0.658 -13.49818,0.5101 -1.18704,-0.043 -2.36295,-0.2453 -3.54443,-0.368 -2.9346,-0.7943 -5.95791,-0.6321 -8.97125,-0.6136 -2.45299,0.015 -4.90556,0.1202 -7.35848,0.096 -6.34646,-0.063 -5.47871,-0.082 -10.74429,-0.7789 -0.63813,-0.1987 -1.27626,-0.3974 -1.9144,-0.5961 0.0853,0 0.21479,-0.079 0.25588,0 0.50089,0.9114 0.77444,1.9388 1.30025,2.836 0.0829,0.1415 0.14609,-0.3373 0.0769,-0.486 -0.53517,-1.1506 -1.04574,-2.3457 -1.85041,-3.3268 -0.48488,-0.5913 -1.27626,-0.8426 -1.91439,-1.2639 -4.28593,-2.6708 -8.87127,-4.8027 -13.27066,-7.2706 -0.79481,-0.4459 -1.5829,-0.9069 -2.3382,-1.4169 -0.15772,-0.1064 -0.47059,-0.5916 -0.38489,-0.4216 0.25982,0.5152 0.60914,0.9801 0.91371,1.4702 -0.40187,-0.7205 -0.70767,-1.5037 -1.20561,-2.1615 -0.3563,-0.4707 -0.88588,-0.7805 -1.32241,-1.1779 -0.39677,-0.3612 -0.79942,-0.7168 -1.17733,-1.0977 -1.18219,-1.1915 -1.49097,-1.7009 -2.62447,-3.1347 -0.69999,-0.8854 -1.40372,-1.7679 -2.10558,-2.6518 -0.57014,-0.8005 -1.16827,-1.5817 -1.71042,-2.4014 -1.06398,-1.6086 -1.84756,-3.369 -2.85417,-5.0095 -2.17557,-3.5457 -2.56606,-3.8901 -5.37505,-7.7564 -2.66647,-3.448 -6.78663,-8.6805 -9.37017,-12.3562 -1.28226,-1.8243 -2.41434,-3.2515 -2.95994,-5.3315 -0.0813,-0.3099 -0.0353,-0.6401 -0.0679,-0.9589 -0.0308,-0.3 -0.0816,-0.5975 -0.12234,-0.8963 -0.42834,-1.5046 -0.25545,-1.381 -1.43044,-2.8193 -0.67523,-0.8266 -0.96566,-0.7264 -1.55756,-1.5031 -0.2075,-0.2722 -0.5511,-1.4798 -0.57673,-1.5587 -0.60698,-2.8459 -0.78325,-3.1996 -0.97754,-6.2567 -0.11654,-1.8335 -0.17459,-3.4128 0.35565,-5.1648 0.58271,-1.9253 1.8606,-4.0446 2.76698,-5.7442 1.52197,-2.1977 3.77363,-5.5383 5.48267,-7.6886 0.53706,-0.6757 1.1057,-1.3308 1.73049,-1.9263 0.2562,-0.2442 0.58559,-0.3991 0.89306,-0.5744 1.62468,-0.9265 2.21415,-1.0703 4.21317,-1.8956 4.54793,-1.9451 9.13673,-3.8586 13.8832,-5.2768 1.69555,-0.5067 3.42084,-0.9092 5.14166,-1.3219 4.13419,-0.9916 6.72874,-1.4785 10.88381,-2.3194 4.05928,-0.6798 4.9511,-0.9321 8.85151,-1.2302 4.94514,-0.378 3.31286,0.04 8.5769,-0.5506 1.57213,-0.1763 14.19298,-1.9581 14.98435,-2.069 7.07757,-0.9881 10.26585,-1.3678 17.13194,-2.5625 2.15398,-0.3748 4.29425,-0.8246 6.44378,-1.2241 1.75859,-0.3269 3.52198,-0.6275 5.28045,-0.955 10.11851,-1.8844 -0.40867,-8e-4 9.07219,-1.6772 8.65159,-1.3229 17.07758,-3.7386 25.6657,-5.3801 1.76951,-0.3383 3.5428,-0.6666 5.32912,-0.9003 0.95094,-0.1244 1.91463,-0.1151 2.87195,-0.1727 2.54012,0.011 5.07782,-0.1047 7.61732,-0.1362 0.88463,-0.011 1.7718,-0.082 2.65403,-0.016 3.23223,0.2416 5.54026,1.0679 8.82445,1.9214 6.14246,1.661 13.60747,3.5918 19.59086,5.597 2.84174,0.9523 7.46799,2.2243 9.97575,4.7009 0.21713,0.2144 -0.85197,-0.4893 -0.89616,-0.1873 -0.098,0.6692 0.4279,1.2833 0.64185,1.9249 4.39421,4.5558 2.11732,2.6044 6.57264,5.8777 0.34673,0.2548 2.17656,1.4316 2.66226,2.1713 0.13404,0.2041 -0.40181,-0.2929 -0.54221,-0.4927 -0.10447,-0.1486 -0.11221,-0.3456 -0.16831,-0.5184 -0.0246,0.2479 -0.0578,0.495 -0.0737,0.7436 -0.0825,1.2927 -0.0255,1.6899 -0.17723,3.0893 -0.10244,0.9446 -0.22558,1.8874 -0.38086,2.8248 -0.34538,2.085 -0.79475,3.9312 -1.2608,5.9911 -0.36727,1.2468 -0.70272,2.5035 -1.10181,3.7405 -1.28938,3.9965 -1.55429,3.9684 -2.6138,8.0433 -0.79672,3.0641 -0.58498,2.9831 -1.00785,5.8703 -0.13243,0.9042 -0.29923,1.8031 -0.44885,2.7046 -1.05191,4.4929 -1.98878,9.0225 -3.30102,13.4503 -0.52844,1.7832 -1.13192,3.5436 -1.74414,5.2997 -1.37991,3.9582 -1.0341,3.1002 -2.50518,5.9445 -0.93933,1.163 -2.01798,2.1737 -2.68661,3.5411 -0.57743,1.1809 -0.97459,2.5607 -1.1519,3.8681 -0.0563,0.4151 -0.0325,0.8373 -0.0487,1.2559 0.36758,0.7723 0.73516,1.5447 1.10274,2.317 1.03247,0.9467 5.08941,-3.4779 4.05695,-4.4246 v 0 c 0.28108,0.693 0.56216,1.386 0.84325,2.0791 -0.18798,-0.3918 -0.094,-0.1402 0.0926,-1.0543 0.0631,-0.3089 0.11725,-0.6233 0.23121,-0.9173 0.60613,-1.5637 2.29656,-2.3763 2.91557,-3.9522 0.4261,-0.8548 0.90803,-1.684 1.2783,-2.5644 0.58231,-1.3846 1.08348,-2.8025 1.57569,-4.2216 0.64812,-1.8686 1.2837,-3.7429 1.8446,-5.6395 1.36319,-4.6094 2.34203,-9.3242 3.41958,-14.0045 0.16141,-0.9836 0.34143,-1.9643 0.48424,-2.9507 0.34888,-2.4099 0.13137,-2.2906 0.7983,-4.873 1.06736,-4.133 2.82732,-8.036 3.82251,-12.1904 0.52112,-2.3135 0.97642,-4.1742 1.35609,-6.5242 0.17234,-1.0667 0.3057,-2.1399 0.41962,-3.2144 0.26281,-2.4791 0.0563,-1.2236 0.16129,-2.8968 0.0156,-0.2493 0.0493,-0.4972 0.0739,-0.7458 -0.0152,-0.5872 0.10981,-1.1952 -0.0456,-1.7616 -0.68765,-2.5059 -2.39017,-3.4173 -4.34796,-4.8419 -3.02086,-2.1982 -1.82187,-1.4058 -4.43259,-2.9892 -0.48932,-1.3317 -1.47451,-4.1029 -2.0426,-4.7365 -2.20645,-2.4612 -9.64433,-4.8228 -11.63064,-5.4879 -6.05202,-2.0265 -13.60685,-3.9809 -19.82229,-5.6613 -2.11821,-0.5351 -4.21386,-1.1692 -6.35464,-1.6054 -1.31527,-0.268 -2.6565,-0.4066 -3.99531,-0.5034 -0.90883,-0.066 -1.82241,0.01 -2.73354,0.017 -2.63186,0.033 -5.26185,0.149 -7.89427,0.1479 -1.16041,0.081 -2.32788,0.093 -3.48124,0.2441 -1.86166,0.2445 -3.70934,0.5896 -5.55351,0.9426 -8.5275,1.6323 -16.89473,4.0272 -25.48471,5.3452 -9.76429,1.7281 1.08866,-0.2151 -9.09495,1.6813 -1.77612,0.3308 -3.55721,0.6345 -5.3334,0.9648 -2.09413,0.3896 -4.17898,0.8294 -6.27742,1.1949 -6.8051,1.1854 -9.97502,1.562 -17.0102,2.5442 -2.74264,0.3844 -5.48477,0.7726 -8.22792,1.1533 -2.12978,0.2957 -4.25427,0.6343 -6.39085,0.8759 -4.86494,0.55 -3.91997,0.1848 -8.7406,0.5656 -4.14995,0.3278 -5.1463,0.5991 -9.41148,1.3163 -4.13117,0.837 -7.08544,1.396 -11.19643,2.3914 -1.86588,0.4518 -3.73485,0.8992 -5.57358,1.4512 -4.87558,1.4637 -9.59288,3.4242 -14.26701,5.4225 -2.03522,0.8631 -3.64973,1.4028 -5.44817,2.5948 -1.72581,1.1439 -2.56684,2.0953 -3.90087,3.7762 -2.03675,2.5664 -4.14877,5.7925 -5.96351,8.456 -1.45419,2.7973 -2.59381,4.5564 -3.37924,7.5752 -0.58667,2.2549 -0.56191,4.5033 -0.39497,6.8072 0.0982,1.3558 0.24651,2.7104 0.4785,4.0499 0.21519,1.2424 0.57396,2.4557 0.86094,3.6836 0.296,0.7139 0.527,1.4583 0.88801,2.1416 0.56155,1.0629 1.08779,1.591 1.9106,2.37 0.13977,0.1323 0.26763,0.4535 0.44186,0.3717 0.16629,-0.078 -0.34134,-0.8665 -0.0206,-0.3432 0.13212,0.9614 0.33049,2.5295 0.57028,3.2854 0.81565,2.5711 2.12745,4.4178 3.70392,6.6601 2.60728,3.7084 6.62399,8.8053 9.34018,12.3154 2.50618,3.4366 3.05223,4.008 4.99845,7.1703 1.12949,1.8352 1.9907,3.7362 3.19933,5.552 0.60088,0.9027 1.2627,1.7634 1.89405,2.6451 0.70029,0.8819 1.3998,1.7645 2.10087,2.6459 1.43374,1.8024 1.74098,2.3052 3.24577,3.8068 0.44576,0.4448 0.9118,0.8695 1.38663,1.2831 0.18254,0.159 0.40766,0.5997 0.58317,0.4329 0.21148,-0.2009 -0.0851,-0.5772 -0.12757,-0.8658 0.33649,0.7239 0.54891,1.5197 1.00948,2.1717 0.61154,0.8657 3.42198,2.4006 3.90854,2.6736 4.24374,2.3817 8.66541,4.4405 12.81148,6.9972 2.3061,1.5097 1.83476,1.7491 1.12077,-1.2759 -0.006,-0.024 -0.0114,0.051 -0.003,0.075 0.38558,1.1307 0.54758,2.3712 1.1826,3.383 0.49197,0.784 4.11559,1.5528 4.27577,1.5973 5.75581,0.7269 4.88024,0.7608 11.59151,0.8279 2.42467,0.024 4.84904,-0.074 7.27373,-0.095 2.8895,-0.026 5.59216,-0.1731 8.3839,0.5842 1.38561,0.1325 2.76574,0.3494 4.15684,0.3974 4.41245,0.152 10.16669,-0.099 14.46924,-0.5923 4.48106,-0.5135 8.84661,-1.6065 13.19504,-2.7534 1.0266,-0.2456 2.05746,-0.474 3.0798,-0.7367 2.62147,-0.6738 5.03896,-1.1526 7.32815,-2.7109 1.87911,-1.2793 3.14473,-3.2079 4.14896,-5.1867 0.46618,-0.9187 0.77236,-1.9101 1.15854,-2.8651 1.19465,-3.715 2.42873,-7.4058 3.95085,-11.0044 2.27515,-5.379 5.04066,-10.5343 7.19615,-15.9654 0.6856,-1.8351 1.4167,-3.6538 2.0568,-5.5052 0.65396,-1.8915 1.20431,-3.8173 1.82424,-5.7202 1.21198,-3.7203 2.34139,-7.1015 3.73182,-10.7588 0.48322,-1.271 0.98267,-2.5371 1.53875,-3.7779 0.49406,-1.1025 1.07303,-2.1649 1.60954,-3.2474 1.4216,-2.5965 2.50521,-4.6471 4.08713,-7.2038 2.39404,-3.8694 3.7076,-5.5798 6.24977,-9.432 1.0509,-1.5924 2.07375,-3.2032 3.09982,-4.8117 1.06838,-1.6749 2.12232,-3.3588 3.18348,-5.0382 1.05998,-1.7845 2.1673,-3.5416 3.17994,-5.3533 1.18331,-2.117 2.2802,-4.2813 3.40598,-6.4295 1.16043,-2.2143 2.23149,-4.4764 3.45257,-6.6579 3.05689,-5.461 3.72193,-6.2467 7.23999,-10.9891 1.08958,-1.4687 2.20282,-2.9198 3.30423,-4.3797 0.71909,-1.1329 1.5606,-2.1969 2.15726,-3.3988 0.35103,-0.7071 0.56344,-1.4912 0.65923,-2.2748 0.0169,-0.1379 -0.25785,0.1259 -0.39672,0.1272 -0.15791,0 -0.58918,-0.03 -0.45857,-0.1189 2.29332,-1.5586 4.50387,-1.4573 7.31092,-1.9427 7.5336,-0.04 5.79859,-0.1418 13.27562,0.2573 1.32194,0.071 2.64599,0.1288 3.96227,0.2699 2.15312,0.2309 4.13292,1.1227 6.15582,1.8243 1.22654,0.5481 2.48247,1.0346 3.67961,1.6442 3.33,1.6958 5.42168,2.9343 8.25761,5.3104 0.82676,0.6927 1.61935,1.4397 2.29794,2.2781 1.23613,1.5272 1.99659,3.4516 2.813,5.2042 0.79339,2.1783 1.36669,3.4452 1.74588,5.7682 0.43424,2.6603 0.30948,4.62 0.25778,7.3317 -0.0393,2.0615 -0.14286,5.3709 -0.20571,7.4818 9e-5,1.022 0.0355,3.7378 -0.0895,4.845 -0.12744,1.1289 -0.32598,2.2494 -0.54166,3.3648 -1.32018,6.8269 -3.26819,13.503 -4.74737,20.2943 -0.79418,3.3938 -1.37471,6.1851 -2.42886,9.4997 -2.35369,7.4005 -5.85878,14.3593 -8.91239,21.4791 -0.35564,0.7308 -3.04382,6.3236 -3.66054,7.3581 -1.53717,2.5782 -2.18906,2.9889 -4.11475,5.2593 -1.85845,2.1911 -2.02044,2.4647 -3.67523,4.6535 -0.35506,0.452 -0.70874,0.905 -1.06516,1.3559 -0.208,0.2631 -0.34584,0.6049 -0.62811,0.7861 -1.82451,1.171 -3.95394,0.9514 -6.04847,0.999 -4.83757,0.1098 -9.67911,-0.1969 -14.51644,0.01 -2.46714,0.037 -4.9346,0.057 -7.40143,0.1111 -2.02725,0.044 -6.24454,0.3673 -8.55987,-0.033 -0.91405,-0.1582 -1.79008,-0.5 -2.65277,-0.841 -1.23327,-0.4875 -3.63874,-1.7714 -4.86861,-2.4102 -0.55742,-0.3054 -1.08558,-0.6716 -1.67227,-0.9161 -0.0644,-0.027 -0.0848,0.1109 -0.12716,0.1663 -0.19838,-0.1924 -0.39676,-0.3848 -0.59513,-0.5772 -0.35993,-0.6259 -0.64025,-1.2985 -0.87601,-1.9809 -0.66258,-1.9178 -1.40176,-5.1779 -1.86491,-7.0803 -0.27942,-1.208 -0.54151,-2.4201 -0.83825,-3.6239 -0.20026,-0.8124 -0.4497,-1.6121 -0.6525,-2.4239 -0.12316,-0.493 -0.40114,-0.9869 -0.32511,-1.4894 0.1432,-0.9461 0.52966,-1.8508 0.95997,-2.7056 1.18766,-2.3591 5.4592,-8.7759 6.54809,-10.455 1.29761,-2.3152 2.73738,-4.5562 3.89283,-6.9455 2.2566,-4.6664 1.1626,-3.6096 2.51019,-7.4865 0.78416,-2.2559 1.76872,-3.8365 2.92545,-5.9825 0.72638,-1.3476 1.4544,-2.6943 2.1816,-4.0415 1.83666,-3.3675 4.03328,-7.2266 5.5529,-10.7369 1.66654,-3.8496 2.72797,-7.335 3.78824,-11.3693 0.44504,-1.6933 0.87757,-3.3925 1.20421,-5.1126 0.32577,-1.7155 0.50076,-3.4562 0.75115,-5.1843 0.1912,-1.7034 0.41897,-3.403 0.5736,-5.1101 0.327,-3.6096 0.66261,-6.4558 -0.34758,-10.0458 -1.80646,-6.4199 -6.7233,-11.2328 -10.94949,-16.097 -1.56619,-1.765 -3.13701,-3.5258 -4.69856,-5.2949 -0.81226,-0.9202 -1.3783,-2.1282 -2.42282,-2.7728 -0.30931,-0.1909 -0.45545,1.1941 -0.64141,0.8818 -0.83075,-1.3952 -0.68863,-3.2501 -1.57778,-4.6088 -0.97595,-1.4913 -5.01696,1.1652 -5.32332,-0.5017 -3.87895,-0.026 -11.62847,-0.1086 -15.23198,0.019 -3.58798,0.1274 -7.18496,0.2181 -10.7531,0.6159 -4.20055,0.4682 -8.38627,1.1185 -12.52431,1.979 -9.92318,2.0636 -13.37282,3.5409 -22.60505,6.7064 -4.45722,2.0991 -7.71241,3.1396 -11.31043,6.3815 -1.07933,0.9725 -1.98865,2.1382 -2.78116,3.3559 -0.48568,0.7462 -0.72723,1.6283 -1.0119,2.4719 -0.46835,1.3879 -0.66228,2.7518 -0.91864,4.1828 0.14416,0.9565 0.17928,1.9359 0.43247,2.8694 0.0897,0.3307 0.37474,0.574 0.57651,0.8509 0.40323,0.5533 0.8452,1.0782 1.23796,1.6389 2.70586,3.8635 4.99603,7.9861 7.36685,12.0577 2.11781,3.2866 2.90563,4.9678 5.64084,7.625 0.35719,0.347 3.49673,2.3932 3.83646,2.8502 3.91008,5.2599 4.25567,8.4561 6.54176,15.1315 0.83283,4.1304 1.95038,8.2135 2.4985,12.3912 0.46297,3.5288 0.41063,7.1069 0.52636,10.6641 0.0962,2.9561 0.0654,5.9149 0.10926,8.8723 0.0304,2.0487 0.0717,4.0973 0.11365,6.1459 0.022,1.076 -0.005,2.1548 0.0782,3.2279 0.0329,0.4234 0.17979,0.8302 0.26969,1.2453 -0.69563,0.7379 -1.2264,1.6771 -2.08689,2.2137 -3.65734,2.2808 -8.36561,3.3712 -12.5438,3.8454 -2.68182,0.3043 -5.3948,0.2942 -8.0934,0.2454 -6.59841,-0.1192 -7.76157,-0.5698 -13.99071,-1.6934 -1.94828,-0.4222 -3.89001,-0.8758 -5.84485,-1.2665 -0.99754,-0.1993 -3.56322,-0.4908 -4.60017,-0.8523 -0.95529,-0.333 -1.92484,-0.6874 -2.76559,-1.2501 -2.86757,-1.9192 -4.11386,-3.8124 -6.32703,-6.4478 -0.82826,-1.4107 -1.78539,-2.7532 -2.48478,-4.2321 -0.73556,-1.5553 -1.3067,-3.1888 -1.80382,-4.8359 -1.58248,-5.2432 -2.21603,-10.824 -2.17277,-16.2903 0.0129,-1.6264 0.1808,-3.2478 0.2712,-4.8718 0.12217,-3.101 0.35401,-5.029 -0.0454,-8.0276 -0.53405,-4.0096 -1.02786,-4.7527 -2.19356,-8.7549 -2.39161,-8.2112 -1.51781,-4.9028 -3.13722,-14.6791 -0.16339,-3.3251 -0.51922,-6.6463 -0.49015,-9.9752 0.0564,-6.4541 0.85808,-10.9281 2.0303,-17.1787 0.43348,-2.3115 1.01611,-4.5937 1.43416,-6.9079 0.72476,-4.0122 1.02305,-6.9801 1.4894,-10.9364 0.21187,-1.3847 -5.72207,-2.2926 -5.93394,-0.908 z"
       transform="matrix(0,0.45120023,-0.44789515,0,-1057.3125,-1329.7397)" /><path
       style="fill:url(#linearGradient6626);fill-rule:evenodd;stroke:url(#linearGradient6626);stroke-width:5.78363;stroke-linejoin:round;filter:url(#filter2040)"
       id="path2046"
       d="m -525.3366,-1552.1441 c -0.46309,3.9047 -0.7801,7.0279 -1.49149,10.9502 -0.39976,2.204 -0.96165,4.3763 -1.37499,6.5779 -1.22049,6.5008 -2.05917,11.2319 -2.14027,17.9625 -0.043,3.569 0.32039,7.1315 0.48058,10.6972 1.67888,10.4177 0.80272,7.1384 3.35123,16.0099 1.11791,3.8915 1.61928,4.5456 2.07546,8.2472 0.27723,2.2495 0.0534,4.4051 -0.0517,6.667 -0.0891,1.5979 -0.25496,3.1934 -0.26736,4.7937 -0.047,6.0622 0.60542,12.1683 2.3227,17.9977 0.55492,1.8837 1.19175,3.753 2.01413,5.5362 0.82638,1.7919 1.94342,3.4349 2.91513,5.1523 2.68097,3.2982 4.09366,5.5365 7.58609,7.9794 1.24918,0.8738 2.64538,1.5357 4.05752,2.11 2.19249,0.8916 4.01984,0.9375 6.28106,1.3909 1.85353,0.3716 3.694,0.8056 5.541,1.2085 6.51837,1.1795 7.84219,1.6591 14.83252,1.8148 2.89945,0.064 5.8142,0.081 8.69738,-0.2323 4.89016,-0.5314 10.44025,-1.7763 14.76549,-4.3402 1.45609,-0.8631 2.54254,-2.2352 3.81381,-3.3528 0.49278,-1.4476 1.21703,-2.8362 1.47833,-4.3429 0.18571,-1.0708 -0.0556,-10.6458 -0.0572,-10.7535 -0.0719,-4.8543 -0.0651,-15.2837 -0.64184,-19.7205 -0.58103,-4.4695 -1.73777,-8.8452 -2.60666,-13.2678 -2.44262,-7.246 -2.98055,-11.0826 -7.24317,-16.9832 -2.57972,-3.5711 -2.79921,-2.0894 -5.49408,-4.6836 -1.27568,-1.228 -3.39625,-4.8672 -4.10851,-5.997 -2.37789,-4.1191 -4.7153,-8.2644 -7.4395,-12.1688 -0.45442,-0.6513 -0.96053,-1.2651 -1.42818,-1.9069 -0.13889,-0.1907 -0.5094,-0.7937 -0.39089,-0.5898 0.17878,0.3076 0.38126,0.6008 0.57188,0.9012 0.19651,-0.9558 0.42911,-2.2068 0.7412,-3.0991 0.19738,-0.5643 0.37428,-1.1574 0.72903,-1.6386 0.47986,-0.651 1.08949,-1.2076 1.73162,-1.6992 3.31237,-2.5358 5.24006,-3.0526 9.36044,-4.9347 8.73659,-2.9642 12.15551,-4.3946 21.57526,-6.338 3.95028,-0.815 7.94671,-1.4238 11.95635,-1.8616 3.37085,-0.368 6.7686,-0.4399 10.1576,-0.5526 3.48341,-0.1159 11.12752,-0.035 14.85747,-0.01 1.17331,0.025 2.34661,0.049 3.51991,0.074 -0.0106,0.043 -0.008,0.1646 -0.0319,0.1276 -0.71867,-1.1283 -0.79814,-3.8346 -2.07487,-3.4352 -1.25083,0.3913 0.0948,2.6976 0.6729,3.8738 0.75345,1.5328 7.66115,9.1117 8.12622,9.6364 3.66697,4.3931 8.48054,8.6061 9.90165,14.428 0.53911,2.2085 0.12848,5.0783 -0.0981,7.2649 -0.16963,1.6367 -0.3694,3.2702 -0.5541,4.9053 -0.24219,1.6645 -0.41093,3.3414 -0.72656,4.9935 -0.29501,1.5442 -0.69838,3.0665 -1.10344,4.5855 -1.0299,3.8623 -1.95418,6.9552 -3.56481,10.6398 -1.31203,3.0015 -3.62899,7.0952 -5.20531,9.9795 -0.73172,1.3555 -1.46427,2.7105 -2.19516,4.0664 -1.26074,2.3389 -2.2737,3.9946 -3.16137,6.4712 -1.2431,3.4684 -0.88105,4.2237 -2.61969,7.7607 -1.02992,2.0951 -2.32484,4.0492 -3.48726,6.0739 -1.23936,1.9047 -5.27152,7.9373 -6.4823,10.3419 -0.59122,1.1741 -1.17538,2.3864 -1.42628,3.6768 -0.56748,2.9186 0.13305,4.685 0.77161,7.4509 0.27251,1.1804 0.54561,2.3606 0.81842,3.5409 0.48713,2.0017 1.25627,5.3832 1.94197,7.3784 0.57012,1.659 1.27529,3.3723 2.54553,4.6455 0.8462,0.8481 2.56654,1.7026 3.61033,2.2755 2.68684,1.3337 5.57181,3.1058 8.54329,3.6938 3.83168,0.7581 6.65151,0.4042 10.59257,0.3279 2.44084,-0.047 4.88205,-0.073 7.32308,-0.1095 4.80056,-0.2069 9.60541,0.1008 14.40621,-0.01 2.90428,-0.067 5.41945,-0.025 8.05558,-1.3372 2.06455,-1.0276 2.89237,-2.3051 4.32436,-3.9712 1.67867,-2.2108 1.90584,-2.5739 3.69744,-4.6804 2.04057,-2.3992 2.62036,-2.7258 4.38282,-5.6117 1.07964,-1.7678 3.27264,-6.3864 4.14957,-8.1863 3.15621,-7.3197 6.73709,-14.4887 9.17212,-22.0984 1.17685,-3.6778 1.73138,-6.3742 2.61626,-10.1373 1.49299,-6.8301 3.44235,-13.5475 4.77412,-20.4138 0.2351,-1.2122 0.45469,-2.4294 0.59625,-3.656 0.20838,-1.8057 0.16252,-3.9866 0.16682,-5.7982 0.0695,-2.2769 0.16091,-5.0916 0.20377,-7.3361 0.0562,-2.9418 0.17105,-5.0709 -0.27773,-7.9968 -0.4858,-3.1673 -1.0393,-4.3296 -2.07351,-7.2745 -0.99215,-2.1708 -1.86702,-4.4171 -3.35125,-6.3275 -3.32233,-4.2762 -7.97503,-7.2087 -12.71133,-9.6695 -1.35549,-0.7043 -2.78181,-1.2629 -4.17271,-1.8944 -2.43752,-0.8859 -4.85125,-1.9144 -7.45038,-2.2388 -1.55674,-0.1943 -3.12584,-0.2772 -4.69196,-0.3691 -7.08497,-0.416 -6.56868,-0.304 -13.74632,-0.2735 -3.76669,0.6484 -9.52459,0.6098 -11.75217,4.6372 -0.45069,0.8148 -0.39783,1.8205 -0.64947,2.717 -0.37634,1.3408 -0.83641,1.5992 -1.81134,2.8892 -1.04144,1.3761 -2.09543,2.7428 -3.12431,4.1284 -3.61383,4.8666 -4.39415,5.8321 -7.58436,11.4969 -1.29107,2.2924 -2.42231,4.6714 -3.64536,7.0008 -1.12004,2.1333 -2.20821,4.2843 -3.38389,6.3874 -0.96448,1.7254 -2.02308,3.3964 -3.03462,5.0946 -1.0328,1.6332 -2.05879,3.2707 -3.0984,4.8995 -1.01721,1.5938 -2.03049,3.1902 -3.072,4.7682 -2.60722,3.9501 -3.76651,5.4217 -6.23884,9.415 -1.73141,2.7966 -2.77117,4.7695 -4.31625,7.5875 -0.57391,1.1541 -1.19238,2.287 -1.72172,3.4622 -2.21604,4.9199 -3.91823,10.1844 -5.58899,15.3087 -0.62837,1.9272 -1.18606,3.8777 -1.84818,5.7936 -0.60757,1.7581 -1.30647,3.4833 -1.95971,5.2249 -0.6406,1.4882 -1.25428,2.9883 -1.92181,4.4646 -2.21016,4.8881 -3.02153,6.168 -5.12525,11.1389 -1.6108,3.8062 -2.92635,7.7025 -4.19217,11.6314 -0.78463,1.9966 -1.58744,4.3612 -3.63307,5.4509 -0.55475,0.2955 -1.18705,0.4165 -1.7924,0.5856 -1.24495,0.3479 -4.69532,1.1592 -5.97102,1.4637 -4.2158,1.1096 -8.44361,2.1853 -12.78959,2.6712 -3.94175,0.4407 -9.44972,0.658 -13.49818,0.5101 -1.18704,-0.043 -2.36295,-0.2453 -3.54443,-0.368 -2.9346,-0.7943 -5.95791,-0.6321 -8.97125,-0.6136 -2.45299,0.015 -4.90556,0.1202 -7.35848,0.096 -6.34646,-0.063 -5.47871,-0.082 -10.74429,-0.7789 -0.63813,-0.1987 -1.27626,-0.3974 -1.9144,-0.5961 0.0853,0 0.21479,-0.079 0.25588,0 0.50089,0.9114 0.77444,1.9388 1.30025,2.836 0.0829,0.1415 0.14609,-0.3373 0.0769,-0.486 -0.53517,-1.1506 -1.04574,-2.3457 -1.85041,-3.3268 -0.48488,-0.5913 -1.27626,-0.8426 -1.91439,-1.2639 -4.28593,-2.6708 -8.87127,-4.8027 -13.27066,-7.2706 -0.79481,-0.4459 -1.5829,-0.9069 -2.3382,-1.4169 -0.15772,-0.1064 -0.47059,-0.5916 -0.38489,-0.4216 0.25982,0.5152 0.60914,0.9801 0.91371,1.4702 -0.40187,-0.7205 -0.70767,-1.5037 -1.20561,-2.1615 -0.3563,-0.4707 -0.88588,-0.7805 -1.32241,-1.1779 -0.39677,-0.3612 -0.79942,-0.7168 -1.17733,-1.0977 -1.18219,-1.1915 -1.49097,-1.7009 -2.62447,-3.1347 -0.69999,-0.8854 -1.40372,-1.7679 -2.10558,-2.6518 -0.57014,-0.8005 -1.16827,-1.5817 -1.71042,-2.4014 -1.06398,-1.6086 -1.84756,-3.369 -2.85417,-5.0095 -2.17557,-3.5457 -2.56606,-3.8901 -5.37505,-7.7564 -2.66647,-3.448 -6.78663,-8.6805 -9.37017,-12.3562 -1.28226,-1.8243 -2.41434,-3.2515 -2.95994,-5.3315 -0.0813,-0.3099 -0.0353,-0.6401 -0.0679,-0.9589 -0.0308,-0.3 -0.0816,-0.5975 -0.12234,-0.8963 -0.42834,-1.5046 -0.25545,-1.381 -1.43044,-2.8193 -0.67523,-0.8266 -0.96566,-0.7264 -1.55756,-1.5031 -0.2075,-0.2722 -0.5511,-1.4798 -0.57673,-1.5587 -0.60698,-2.8459 -0.78325,-3.1996 -0.97754,-6.2567 -0.11654,-1.8335 -0.17459,-3.4128 0.35565,-5.1648 0.58271,-1.9253 1.8606,-4.0446 2.76698,-5.7442 1.52197,-2.1977 3.77363,-5.5383 5.48267,-7.6886 0.53706,-0.6757 1.1057,-1.3308 1.73049,-1.9263 0.2562,-0.2442 0.58559,-0.3991 0.89306,-0.5744 1.62468,-0.9265 2.21415,-1.0703 4.21317,-1.8956 4.54793,-1.9451 9.13673,-3.8586 13.8832,-5.2768 1.69555,-0.5067 3.42084,-0.9092 5.14166,-1.3219 4.13419,-0.9916 6.72874,-1.4785 10.88381,-2.3194 4.05928,-0.6798 4.9511,-0.9321 8.85151,-1.2302 4.94514,-0.378 3.31286,0.04 8.5769,-0.5506 1.57213,-0.1763 14.19298,-1.9581 14.98435,-2.069 7.07757,-0.9881 10.26585,-1.3678 17.13194,-2.5625 2.15398,-0.3748 4.29425,-0.8246 6.44378,-1.2241 1.75859,-0.3269 3.52198,-0.6275 5.28045,-0.955 10.11851,-1.8844 -0.40867,-8e-4 9.07219,-1.6772 8.65159,-1.3229 17.07758,-3.7386 25.6657,-5.3801 1.76951,-0.3383 3.5428,-0.6666 5.32912,-0.9003 0.95094,-0.1244 1.91463,-0.1151 2.87195,-0.1727 2.54012,0.011 5.07782,-0.1047 7.61732,-0.1362 0.88463,-0.011 1.7718,-0.082 2.65403,-0.016 3.23223,0.2416 5.54026,1.0679 8.82445,1.9214 6.14246,1.661 13.60747,3.5918 19.59086,5.597 2.84174,0.9523 7.46799,2.2243 9.97575,4.7009 0.21713,0.2144 -0.85197,-0.4893 -0.89616,-0.1873 -0.098,0.6692 0.4279,1.2833 0.64185,1.9249 4.39421,4.5558 2.11732,2.6044 6.57264,5.8777 0.34673,0.2548 2.17656,1.4316 2.66226,2.1713 0.13404,0.2041 -0.40181,-0.2929 -0.54221,-0.4927 -0.10447,-0.1486 -0.11221,-0.3456 -0.16831,-0.5184 -0.0246,0.2479 -0.0578,0.495 -0.0737,0.7436 -0.0825,1.2927 -0.0255,1.6899 -0.17723,3.0893 -0.10244,0.9446 -0.22558,1.8874 -0.38086,2.8248 -0.34538,2.085 -0.79475,3.9312 -1.2608,5.9911 -0.36727,1.2468 -0.70272,2.5035 -1.10181,3.7405 -1.28938,3.9965 -1.55429,3.9684 -2.6138,8.0433 -0.79672,3.0641 -0.58498,2.9831 -1.00785,5.8703 -0.13243,0.9042 -0.29923,1.8031 -0.44885,2.7046 -1.05191,4.4929 -1.98878,9.0225 -3.30102,13.4503 -0.52844,1.7832 -1.13192,3.5436 -1.74414,5.2997 -1.37991,3.9582 -1.0341,3.1002 -2.50518,5.9445 -0.93933,1.163 -2.01798,2.1737 -2.68661,3.5411 -0.57743,1.1809 -0.97459,2.5607 -1.1519,3.8681 -0.0563,0.4151 -0.0325,0.8373 -0.0487,1.2559 0.36758,0.7723 0.73516,1.5447 1.10274,2.317 1.03247,0.9467 5.08941,-3.4779 4.05695,-4.4246 v 0 c 0.28108,0.693 0.56216,1.386 0.84325,2.0791 -0.18798,-0.3918 -0.094,-0.1402 0.0926,-1.0543 0.0631,-0.3089 0.11725,-0.6233 0.23121,-0.9173 0.60613,-1.5637 2.29656,-2.3763 2.91557,-3.9522 0.4261,-0.8548 0.90803,-1.684 1.2783,-2.5644 0.58231,-1.3846 1.08348,-2.8025 1.57569,-4.2216 0.64812,-1.8686 1.2837,-3.7429 1.8446,-5.6395 1.36319,-4.6094 2.34203,-9.3242 3.41958,-14.0045 0.16141,-0.9836 0.34143,-1.9643 0.48424,-2.9507 0.34888,-2.4099 0.13137,-2.2906 0.7983,-4.873 1.06736,-4.133 2.82732,-8.036 3.82251,-12.1904 0.52112,-2.3135 0.97642,-4.1742 1.35609,-6.5242 0.17234,-1.0667 0.3057,-2.1399 0.41962,-3.2144 0.26281,-2.4791 0.0563,-1.2236 0.16129,-2.8968 0.0156,-0.2493 0.0493,-0.4972 0.0739,-0.7458 -0.0152,-0.5872 0.10981,-1.1952 -0.0456,-1.7616 -0.68765,-2.5059 -2.39017,-3.4173 -4.34796,-4.8419 -3.02086,-2.1982 -1.82187,-1.4058 -4.43259,-2.9892 -0.48932,-1.3317 -1.47451,-4.1029 -2.0426,-4.7365 -2.20645,-2.4612 -9.64433,-4.8228 -11.63064,-5.4879 -6.05202,-2.0265 -13.60685,-3.9809 -19.82229,-5.6613 -2.11821,-0.5351 -4.21386,-1.1692 -6.35464,-1.6054 -1.31527,-0.268 -2.6565,-0.4066 -3.99531,-0.5034 -0.90883,-0.066 -1.82241,0.01 -2.73354,0.017 -2.63186,0.033 -5.26185,0.149 -7.89427,0.1479 -1.16041,0.081 -2.32788,0.093 -3.48124,0.2441 -1.86166,0.2445 -3.70934,0.5896 -5.55351,0.9426 -8.5275,1.6323 -16.89473,4.0272 -25.48471,5.3452 -9.76429,1.7281 1.08866,-0.2151 -9.09495,1.6813 -1.77612,0.3308 -3.55721,0.6345 -5.3334,0.9648 -2.09413,0.3896 -4.17898,0.8294 -6.27742,1.1949 -6.8051,1.1854 -9.97502,1.562 -17.0102,2.5442 -2.74264,0.3844 -5.48477,0.7726 -8.22792,1.1533 -2.12978,0.2957 -4.25427,0.6343 -6.39085,0.8759 -4.86494,0.55 -3.91997,0.1848 -8.7406,0.5656 -4.14995,0.3278 -5.1463,0.5991 -9.41148,1.3163 -4.13117,0.837 -7.08544,1.396 -11.19643,2.3914 -1.86588,0.4518 -3.73485,0.8992 -5.57358,1.4512 -4.87558,1.4637 -9.59288,3.4242 -14.26701,5.4225 -2.03522,0.8631 -3.64973,1.4028 -5.44817,2.5948 -1.72581,1.1439 -2.56684,2.0953 -3.90087,3.7762 -2.03675,2.5664 -4.14877,5.7925 -5.96351,8.456 -1.45419,2.7973 -2.59381,4.5564 -3.37924,7.5752 -0.58667,2.2549 -0.56191,4.5033 -0.39497,6.8072 0.0982,1.3558 0.24651,2.7104 0.4785,4.0499 0.21519,1.2424 0.57396,2.4557 0.86094,3.6836 0.296,0.7139 0.527,1.4583 0.88801,2.1416 0.56155,1.0629 1.08779,1.591 1.9106,2.37 0.13977,0.1323 0.26763,0.4535 0.44186,0.3717 0.16629,-0.078 -0.34134,-0.8665 -0.0206,-0.3432 0.13212,0.9614 0.33049,2.5295 0.57028,3.2854 0.81565,2.5711 2.12745,4.4178 3.70392,6.6601 2.60728,3.7084 6.62399,8.8053 9.34018,12.3154 2.50618,3.4366 3.05223,4.008 4.99845,7.1703 1.12949,1.8352 1.9907,3.7362 3.19933,5.552 0.60088,0.9027 1.2627,1.7634 1.89405,2.6451 0.70029,0.8819 1.3998,1.7645 2.10087,2.6459 1.43374,1.8024 1.74098,2.3052 3.24577,3.8068 0.44576,0.4448 0.9118,0.8695 1.38663,1.2831 0.18254,0.159 0.40766,0.5997 0.58317,0.4329 0.21148,-0.2009 -0.0851,-0.5772 -0.12757,-0.8658 0.33649,0.7239 0.54891,1.5197 1.00948,2.1717 0.61154,0.8657 3.42198,2.4006 3.90854,2.6736 4.24374,2.3817 8.66541,4.4405 12.81148,6.9972 2.3061,1.5097 1.83476,1.7491 1.12077,-1.2759 -0.006,-0.024 -0.0114,0.051 -0.003,0.075 0.38558,1.1307 0.54758,2.3712 1.1826,3.383 0.49197,0.784 4.11559,1.5528 4.27577,1.5973 5.75581,0.7269 4.88024,0.7608 11.59151,0.8279 2.42467,0.024 4.84904,-0.074 7.27373,-0.095 2.8895,-0.026 5.59216,-0.1731 8.3839,0.5842 1.38561,0.1325 2.76574,0.3494 4.15684,0.3974 4.41245,0.152 10.16669,-0.099 14.46924,-0.5923 4.48106,-0.5135 8.84661,-1.6065 13.19504,-2.7534 1.0266,-0.2456 2.05746,-0.474 3.0798,-0.7367 2.62147,-0.6738 5.03896,-1.1526 7.32815,-2.7109 1.87911,-1.2793 3.14473,-3.2079 4.14896,-5.1867 0.46618,-0.9187 0.77236,-1.9101 1.15854,-2.8651 1.19465,-3.715 2.42873,-7.4058 3.95085,-11.0044 2.27515,-5.379 5.04066,-10.5343 7.19615,-15.9654 0.6856,-1.8351 1.4167,-3.6538 2.0568,-5.5052 0.65396,-1.8915 1.20431,-3.8173 1.82424,-5.7202 1.21198,-3.7203 2.34139,-7.1015 3.73182,-10.7588 0.48322,-1.271 0.98267,-2.5371 1.53875,-3.7779 0.49406,-1.1025 1.07303,-2.1649 1.60954,-3.2474 1.4216,-2.5965 2.50521,-4.6471 4.08713,-7.2038 2.39404,-3.8694 3.7076,-5.5798 6.24977,-9.432 1.0509,-1.5924 2.07375,-3.2032 3.09982,-4.8117 1.06838,-1.6749 2.12232,-3.3588 3.18348,-5.0382 1.05998,-1.7845 2.1673,-3.5416 3.17994,-5.3533 1.18331,-2.117 2.2802,-4.2813 3.40598,-6.4295 1.16043,-2.2143 2.23149,-4.4764 3.45257,-6.6579 3.05689,-5.461 3.72193,-6.2467 7.23999,-10.9891 1.08958,-1.4687 2.20282,-2.9198 3.30423,-4.3797 0.71909,-1.1329 1.5606,-2.1969 2.15726,-3.3988 0.35103,-0.7071 0.56344,-1.4912 0.65923,-2.2748 0.0169,-0.1379 -0.25785,0.1259 -0.39672,0.1272 -0.15791,0 -0.58918,-0.03 -0.45857,-0.1189 2.29332,-1.5586 4.50387,-1.4573 7.31092,-1.9427 7.5336,-0.04 5.79859,-0.1418 13.27562,0.2573 1.32194,0.071 2.64599,0.1288 3.96227,0.2699 2.15312,0.2309 4.13292,1.1227 6.15582,1.8243 1.22654,0.5481 2.48247,1.0346 3.67961,1.6442 3.33,1.6958 5.42168,2.9343 8.25761,5.3104 0.82676,0.6927 1.61935,1.4397 2.29794,2.2781 1.23613,1.5272 1.99659,3.4516 2.813,5.2042 0.79339,2.1783 1.36669,3.4452 1.74588,5.7682 0.43424,2.6603 0.30948,4.62 0.25778,7.3317 -0.0393,2.0615 -0.14286,5.3709 -0.20571,7.4818 9e-5,1.022 0.0355,3.7378 -0.0895,4.845 -0.12744,1.1289 -0.32598,2.2494 -0.54166,3.3648 -1.32018,6.8269 -3.26819,13.503 -4.74737,20.2943 -0.79418,3.3938 -1.37471,6.1851 -2.42886,9.4997 -2.35369,7.4005 -5.85878,14.3593 -8.91239,21.4791 -0.35564,0.7308 -3.04382,6.3236 -3.66054,7.3581 -1.53717,2.5782 -2.18906,2.9889 -4.11475,5.2593 -1.85845,2.1911 -2.02044,2.4647 -3.67523,4.6535 -0.35506,0.452 -0.70874,0.905 -1.06516,1.3559 -0.208,0.2631 -0.34584,0.6049 -0.62811,0.7861 -1.82451,1.171 -3.95394,0.9514 -6.04847,0.999 -4.83757,0.1098 -9.67911,-0.1969 -14.51644,0.01 -2.46714,0.037 -4.9346,0.057 -7.40143,0.1111 -2.02725,0.044 -6.24454,0.3673 -8.55987,-0.033 -0.91405,-0.1582 -1.79008,-0.5 -2.65277,-0.841 -1.23327,-0.4875 -3.63874,-1.7714 -4.86861,-2.4102 -0.55742,-0.3054 -1.08558,-0.6716 -1.67227,-0.9161 -0.0644,-0.027 -0.0848,0.1109 -0.12716,0.1663 -0.19838,-0.1924 -0.39676,-0.3848 -0.59513,-0.5772 -0.35993,-0.6259 -0.64025,-1.2985 -0.87601,-1.9809 -0.66258,-1.9178 -1.40176,-5.1779 -1.86491,-7.0803 -0.27942,-1.208 -0.54151,-2.4201 -0.83825,-3.6239 -0.20026,-0.8124 -0.4497,-1.6121 -0.6525,-2.4239 -0.12316,-0.493 -0.40114,-0.9869 -0.32511,-1.4894 0.1432,-0.9461 0.52966,-1.8508 0.95997,-2.7056 1.18766,-2.3591 5.4592,-8.7759 6.54809,-10.455 1.29761,-2.3152 2.73738,-4.5562 3.89283,-6.9455 2.2566,-4.6664 1.1626,-3.6096 2.51019,-7.4865 0.78416,-2.2559 1.76872,-3.8365 2.92545,-5.9825 0.72638,-1.3476 1.4544,-2.6943 2.1816,-4.0415 1.83666,-3.3675 4.03328,-7.2266 5.5529,-10.7369 1.66654,-3.8496 2.72797,-7.335 3.78824,-11.3693 0.44504,-1.6933 0.87757,-3.3925 1.20421,-5.1126 0.32577,-1.7155 0.50076,-3.4562 0.75115,-5.1843 0.1912,-1.7034 0.41897,-3.403 0.5736,-5.1101 0.327,-3.6096 0.66261,-6.4558 -0.34758,-10.0458 -1.80646,-6.4199 -6.7233,-11.2328 -10.94949,-16.097 -1.56619,-1.765 -3.13701,-3.5258 -4.69856,-5.2949 -0.81226,-0.9202 -1.3783,-2.1282 -2.42282,-2.7728 -0.30931,-0.1909 -0.45545,1.1941 -0.64141,0.8818 -0.83075,-1.3952 -0.68863,-3.2501 -1.57778,-4.6088 -0.97595,-1.4913 -5.01696,1.1652 -5.32332,-0.5017 -3.87895,-0.026 -11.62847,-0.1086 -15.23198,0.019 -3.58798,0.1274 -7.18496,0.2181 -10.7531,0.6159 -4.20055,0.4682 -8.38627,1.1185 -12.52431,1.979 -9.92318,2.0636 -13.37282,3.5409 -22.60505,6.7064 -4.45722,2.0991 -7.71241,3.1396 -11.31043,6.3815 -1.07933,0.9725 -1.98865,2.1382 -2.78116,3.3559 -0.48568,0.7462 -0.72723,1.6283 -1.0119,2.4719 -0.46835,1.3879 -0.66228,2.7518 -0.91864,4.1828 0.14416,0.9565 0.17928,1.9359 0.43247,2.8694 0.0897,0.3307 0.37474,0.574 0.57651,0.8509 0.40323,0.5533 0.8452,1.0782 1.23796,1.6389 2.70586,3.8635 4.99603,7.9861 7.36685,12.0577 2.11781,3.2866 2.90563,4.9678 5.64084,7.625 0.35719,0.347 3.49673,2.3932 3.83646,2.8502 3.91008,5.2599 4.25567,8.4561 6.54176,15.1315 0.83283,4.1304 1.95038,8.2135 2.4985,12.3912 0.46297,3.5288 0.41063,7.1069 0.52636,10.6641 0.0962,2.9561 0.0654,5.9149 0.10926,8.8723 0.0304,2.0487 0.0717,4.0973 0.11365,6.1459 0.022,1.076 -0.005,2.1548 0.0782,3.2279 0.0329,0.4234 0.17979,0.8302 0.26969,1.2453 -0.69563,0.7379 -1.2264,1.6771 -2.08689,2.2137 -3.65734,2.2808 -8.36561,3.3712 -12.5438,3.8454 -2.68182,0.3043 -5.3948,0.2942 -8.0934,0.2454 -6.59841,-0.1192 -7.76157,-0.5698 -13.99071,-1.6934 -1.94828,-0.4222 -3.89001,-0.8758 -5.84485,-1.2665 -0.99754,-0.1993 -3.56322,-0.4908 -4.60017,-0.8523 -0.95529,-0.333 -1.92484,-0.6874 -2.76559,-1.2501 -2.86757,-1.9192 -4.11386,-3.8124 -6.32703,-6.4478 -0.82826,-1.4107 -1.78539,-2.7532 -2.48478,-4.2321 -0.73556,-1.5553 -1.3067,-3.1888 -1.80382,-4.8359 -1.58248,-5.2432 -2.21603,-10.824 -2.17277,-16.2903 0.0129,-1.6264 0.1808,-3.2478 0.2712,-4.8718 0.12217,-3.101 0.35401,-5.029 -0.0454,-8.0276 -0.53405,-4.0096 -1.02786,-4.7527 -2.19356,-8.7549 -2.39161,-8.2112 -1.51781,-4.9028 -3.13722,-14.6791 -0.16339,-3.3251 -0.51922,-6.6463 -0.49015,-9.9752 0.0564,-6.4541 0.85808,-10.9281 2.0303,-17.1787 0.43348,-2.3115 1.01611,-4.5937 1.43416,-6.9079 0.72476,-4.0122 1.02305,-6.9801 1.4894,-10.9364 0.21187,-1.3847 -5.72207,-2.2926 -5.93394,-0.908 z"
       transform="matrix(0,-0.45120023,-0.44789515,0,-1045.9408,-1722.0869)" /></g></svg>
