<?xml version="1.0" encoding="UTF-8" standalone="no"?>
<!-- Created with Inkscape (http://www.inkscape.org/) -->

<svg
   width="299.94293mm"
   height="125.07276mm"
   viewBox="0 0 299.94293 125.07276"
   version="1.1"
   id="svg5"
   xml:space="preserve"
   xmlns="http://www.w3.org/2000/svg"
   xmlns:svg="http://www.w3.org/2000/svg"><defs
     id="defs2"><linearGradient
       id="linearGradient2560"
       gradientTransform="matrix(9.0769026e-5,0,0,9.0769026e-5,-4.7216088,-40.298232)"><stop
         style="stop-color:#ffffff;stop-opacity:1;"
         offset="0"
         id="stop2558" /></linearGradient><linearGradient
       id="linearGradient2554"><stop
         style="stop-color:#eeccb2;stop-opacity:1;"
         offset="0"
         id="stop2552" /></linearGradient><linearGradient
       id="linearGradient10538"
       gradientTransform="matrix(0,0,0,0,2171.8017,136.61469)"><stop
         style="stop-color:#e4c7ff;stop-opacity:1;"
         offset="0"
         id="stop10536" /></linearGradient><linearGradient
       id="linearGradient10280"
       gradientTransform="matrix(0,0,0,0,4588.3696,12544.551)"><stop
         style="stop-color:#fcef7f;stop-opacity:1;"
         offset="0"
         id="stop10278" /></linearGradient><linearGradient
       id="linearGradient9548"
       gradientTransform="matrix(0.01852198,0,0,0.01852198,-14.173782,11.671664)"><stop
         style="stop-color:#9aa49b;stop-opacity:1;"
         offset="0"
         id="stop9546" /></linearGradient><linearGradient
       id="linearGradient8816"
       gradientTransform="matrix(9.0769026e-5,0,0,9.0769026e-5,-4.37595,-14.411535)"><stop
         style="stop-color:#ff2050;stop-opacity:1;"
         offset="0"
         id="stop8814" /></linearGradient><linearGradient
       id="linearGradient8084"
       gradientTransform="translate(-0.14741627,-0.00257316)"><stop
         style="stop-color:#ff8157;stop-opacity:1;"
         offset="0"
         id="stop8082" /></linearGradient><linearGradient
       id="linearGradient6626"><stop
         style="stop-color:#e4c7ff;stop-opacity:1;"
         offset="0"
         id="stop6624" /></linearGradient><linearGradient
       id="linearGradient6620"
       gradientTransform="matrix(0,0,0,0,75.93373,58.971845)"><stop
         style="stop-color:#544cf8;stop-opacity:1;"
         offset="0"
         id="stop6618" /></linearGradient><linearGradient
       id="linearGradient5888"
       gradientTransform="matrix(0,0,0,0,152.46973,-4.6881514)"><stop
         style="stop-color:#1c4939;stop-opacity:1;"
         offset="0"
         id="stop5886" /></linearGradient><linearGradient
       id="linearGradient5882"
       gradientTransform="matrix(1.4751574e-5,-2.3311945e-7,4.9457063e-6,9.0729955e-5,1621.803,413.03004)"><stop
         style="stop-color:#81e0a0;stop-opacity:1;"
         offset="0"
         id="stop5880" /></linearGradient><linearGradient
       id="linearGradient4424"
       gradientTransform="matrix(-0.01510627,-0.00766461,-0.00795902,0.01454747,1112.771,-485.21619)"><stop
         style="stop-color:#ff0000;stop-opacity:1;"
         offset="0"
         id="stop4422" /></linearGradient><linearGradient
       id="linearGradient4418"><stop
         style="stop-color:#ffffff;stop-opacity:1;"
         offset="0"
         id="stop4416" /></linearGradient><linearGradient
       id="linearGradient3686"
       gradientTransform="scale(0.26458333)"><stop
         style="stop-color:#eeccb2;stop-opacity:1;"
         offset="0"
         id="stop3684" /></linearGradient><filter
       height="1.377705"
       width="1.4452419"
       y="-0.1887562"
       x="-0.22266334"
       style="color-interpolation-filters:sRGB"
       id="filter16001"><feTurbulence
         type="fractalNoise"
         numOctaves="3"
         baseFrequency="0.25 0.4"
         seed="5"
         id="feTurbulence15983" /><feColorMatrix
         result="result5"
         values="1 0 0 0 0 0 1 0 0 0 0 0 1 0 0 0 0 0 1 0 "
         id="feColorMatrix15985" /><feComposite
         in="SourceGraphic"
         operator="in"
         in2="result5"
         id="feComposite15987" /><feMorphology
         operator="dilate"
         radius="1.5"
         result="result3"
         id="feMorphology15989" /><feTurbulence
         numOctaves="5"
         baseFrequency="0.03"
         type="fractalNoise"
         seed="7"
         id="feTurbulence15991" /><feGaussianBlur
         stdDeviation="0.5"
         result="result91"
         id="feGaussianBlur15993" /><feDisplacementMap
         in="result3"
         xChannelSelector="R"
         yChannelSelector="G"
         scale="27"
         result="result4"
         in2="result91"
         id="feDisplacementMap15995" /><feComposite
         in="result4"
         k3="0.8"
         k1="1.3"
         result="result2"
         operator="arithmetic"
         in2="result4"
         id="feComposite15997"
         k2="0"
         k4="0" /><feBlend
         in2="result2"
         mode="screen"
         in="result2"
         id="feBlend15999"
         result="fbSourceGraphic" /><feColorMatrix
         result="fbSourceGraphicAlpha"
         in="fbSourceGraphic"
         values="0 0 0 -1 0 0 0 0 -1 0 0 0 0 -1 0 0 0 0 1 0"
         id="feColorMatrix2770" /><feGaussianBlur
         id="feGaussianBlur2772"
         stdDeviation="3"
         result="result10"
         in="fbSourceGraphic" /><feBlend
         in2="result10"
         id="feBlend2774"
         mode="normal"
         in="result10"
         result="fbSourceGraphic" /><feGaussianBlur
         id="feGaussianBlur2776"
         stdDeviation="3"
         result="result8"
         in="fbSourceGraphic" /><feTurbulence
         id="feTurbulence2778"
         seed="0"
         result="result7"
         type="fractalNoise"
         numOctaves="1"
         baseFrequency="0.2" /><feComposite
         in2="result8"
         id="feComposite2780"
         result="result6"
         operator="in"
         in="result8" /><feDisplacementMap
         in2="result6"
         id="feDisplacementMap2782"
         in="result7"
         xChannelSelector="R"
         yChannelSelector="G"
         scale="50"
         result="result4" /><feComposite
         in2="result4"
         id="feComposite2784"
         result="result2"
         operator="arithmetic"
         in="result8"
         k1="1"
         k3="1"
         k2="0"
         k4="0" /><feComposite
         in2="result2"
         id="feComposite2786"
         result="fbSourceGraphic"
         in="fbSourceGraphic"
         operator="in" /><feDisplacementMap
         in2="result4"
         id="feDisplacementMap2788"
         yChannelSelector="G"
         scale="50"
         xChannelSelector="R"
         result="fbSourceGraphic" /><feColorMatrix
         result="fbSourceGraphicAlpha"
         in="fbSourceGraphic"
         values="0 0 0 -1 0 0 0 0 -1 0 0 0 0 -1 0 0 0 0 1 0"
         id="feColorMatrix2790" /><feGaussianBlur
         id="feGaussianBlur2792"
         stdDeviation="0.01"
         result="result1"
         in="fbSourceGraphic" /><feBlend
         in2="result1"
         id="feBlend2794"
         result="fbSourceGraphic"
         mode="multiply" /><feTurbulence
         id="feTurbulence2796"
         baseFrequency="0.8"
         type="fractalNoise"
         seed="0"
         numOctaves="3"
         result="result3" /><feDisplacementMap
         in2="result3"
         id="feDisplacementMap2798"
         in="fbSourceGraphic"
         xChannelSelector="R"
         yChannelSelector="G"
         scale="50"
         result="result2" /><feMorphology
         id="feMorphology2800"
         radius="1"
         operator="dilate"
         result="result4" /><feBlend
         in2="result2"
         id="feBlend2802"
         mode="screen"
         result="fbSourceGraphic" /><feColorMatrix
         result="fbSourceGraphicAlpha"
         in="fbSourceGraphic"
         values="0 0 0 -1 0 0 0 0 -1 0 0 0 0 -1 0 0 0 0 1 0"
         id="feColorMatrix3065" /><feTurbulence
         id="feTurbulence3067"
         baseFrequency="0.14"
         numOctaves="1"
         type="fractalNoise" /><feColorMatrix
         id="feColorMatrix3069"
         values="1 0 0 0 0 0 1 0 0 0 0 0 1 0 0 0 0 0 6 -3.5 "
         result="result5" /><feComposite
         in2="result5"
         id="feComposite3071"
         operator="in"
         in="fbSourceGraphic"
         result="result6" /><feMorphology
         id="feMorphology3073"
         result="result3"
         radius="5"
         operator="dilate"
         in="result6" /><feDisplacementMap
         in2="result3"
         id="feDisplacementMap3075"
         result="result4"
         scale="0"
         yChannelSelector="A"
         xChannelSelector="R"
         in="result3" /><feComposite
         in2="result4"
         id="feComposite3077"
         operator="arithmetic"
         result="result2"
         k1="1"
         k3="1"
         k2="0"
         k4="0" /><feBlend
         in2="result2"
         id="feBlend3079"
         mode="darken"
         in="result2" /><feConvolveMatrix
         id="feConvolveMatrix3081"
         order="3 3"
         kernelMatrix="2 0 0 0 1 0 0 0 -1 "
         targetX="1"
         targetY="1"
         divisor="2"
         edgeMode="duplicate" /></filter></defs><g
     id="layer3"
     style="display:inline"
     transform="translate(538.17792,1587.591)"><path
       style="display:inline;fill:url(#linearGradient5888);fill-opacity:1;fill-rule:evenodd;stroke:url(#linearGradient6620);stroke-width:3.13656;stroke-linecap:square;stroke-linejoin:miter;stroke-dasharray:none;stroke-opacity:1;paint-order:fill markers stroke;filter:url(#filter16001)"
       id="path15981"
       d="m -404.84693,-1538.1505 c -8.07731,7.6744 -21.23818,-18.2458 -30.64486,-12.4856 -9.9463,6.0907 -17.88634,15.878 -23.0182,26.3512 -2.27991,4.6529 -0.52136,11.1875 2.59647,15.3259 1.68129,2.2317 7.03847,1.6658 8.34353,-0.8048 4.11681,-7.7935 3.81248,-17.2108 5.71875,-25.8162 2.68555,-2.5668 7.63834,-4.0092 8.05667,-7.7005 0.28173,-2.4858 -4.33054,-3.0642 -6.83191,-3.1068 -2.06235,-0.035 -4.40367,1.1302 -5.46775,2.8972 -5.32717,8.8464 -10.7928,17.9929 -13.16439,28.0435 -0.55597,2.3561 3.34697,3.5742 5.40149,4.8546 0.47953,0.2989 -0.1941,-1.1132 -0.29117,-1.6699 1.90941,-7.8119 3.81883,-15.6238 5.72823,-23.4357 1.31153,-0.5846 5.3559,-1.9575 3.93456,-1.7536 -6.04308,0.8667 -14.19934,-1.0765 -17.92462,3.7601 -1.43248,1.8598 -4.13176,27.4183 -0.38312,33.758 0.96629,1.6341 3.6997,0.8535 5.54953,1.2802 39.00639,15.0089 22.76592,-28.0436 12.7466,-27.3102 -7.57645,0.5546 -15.71173,3.4029 -20.998,8.8587 -6.53468,6.7442 -8.05876,23.2758 -2.53076,31.5112 1.51487,2.2568 4.92802,2.2949 7.39203,3.4424 -0.99954,-1.4403 1.75628,-5.2963 -0.081,-5.574 -1.91783,-0.29 -3.39278,2.1996 -4.31112,3.9081 -4.67463,8.6965 -1.62007,8.4953 1.21391,16.9697 0.78202,2.3385 1.20605,4.7819 1.80908,7.1728 4.78907,2.5094 12.25849,7.4431 3.54092,-12.7812 -0.8645,-2.0056 -4.61399,0.185 -6.3873,1.4599 -1.90408,1.3689 -3.1232,3.6615 -3.84157,5.8938 -1.70661,5.3033 2.12291,6.6241 -0.68305,5.454 47.98743,43.9967 25.68652,-2.9559 19.49506,-5.6939 -5.73863,-2.5377 -12.5643,0.4892 -18.77147,1.4073 -2.78887,0.4125 -5.4279,1.5527 -8.06043,2.5615 -1.34403,0.515 -3.36222,0.6336 -3.8295,1.9949 -0.33488,0.9756 2.06013,0.1059 3.09018,0.1589 7.10374,5.0396 14.20746,10.0791 21.3112,15.1187 -0.35869,1.4429 -0.48471,5.693 -1.07608,4.3288 -0.84185,-1.942 1.78001,-4.9367 0.20137,-6.3466 -6.71441,-5.9968 -15.17192,-9.7191 -23.05582,-14.0652 -1.31347,-0.7241 -2.96492,-0.5416 -4.37382,-1.0558 -1.20703,-0.4406 -2.27695,-1.1916 -3.4154,-1.7874 3.43326,1.3976 8.58567,0.9059 10.29978,4.1926 3.60481,6.912 3.30067,15.2856 3.91181,23.0572 0.0584,0.7428 -1.41751,1.3816 -2.02409,0.9488 -5.8774,-4.1933 -12.75869,-7.8976 -16.42938,-14.1149 -9.36863,-15.8681 6.94049,-9.1502 -0.33777,-11.8439 31.23832,14.1744 9.23491,-1.5049 19.89939,21.1103 0.56063,1.1889 2.64531,0.7979 3.91618,0.4622 3.82362,-1.0099 5.31201,-4.928 8.01589,-7.2133 2.02502,-1.7115 4.41826,-2.9323 6.62739,-4.3985 0.0665,-0.098 6.56971,-10.1351 7.90811,-10.6905 2.12545,-0.8819 4.87534,1.0747 6.90343,-0.013 1.01343,-0.5433 -0.0778,-2.3483 -0.51832,-3.4105 -0.18375,-0.4431 -0.75425,1.594 -0.31361,1.4044 2.37249,-1.0208 4.38367,-2.7325 6.5755,-4.0988 19.20738,-7.2496 -5.569,3.55 7.77325,-6.6203 0.90334,-0.6886 2.27206,0.1 3.399,0.2417 0.4333,-1.3006 -2.95593,0.7824 -2.1788,0.8852 0.829,0.1096 1.61388,-0.4386 2.42081,-0.6579 0.76933,-1.0193 1.53868,-2.0385 2.30804,-3.0577 1.64724,0.1257 3.63508,1.3879 4.94173,0.3771 0.8882,-0.6872 -1.36697,-2.1059 -2.47555,-2.285 -4.26037,-0.6884 -8.6872,-0.9096 -12.94522,-0.2069 -1.03618,0.1711 1.44897,1.7815 2.48823,1.9327 3.69194,0.5373 7.46154,0.039 11.19232,0.058 -0.72792,-0.7851 7.6613,1.8932 5.7463,2.8411 -8.39801,4.1573 -6.9098,-0.8301 -8.59181,-5.2198 -1.68601,-4.4002 -1.78023,-10.1591 -5.53321,-13.0085 -1.96421,-1.4914 -1.57858,4.673 -2.36789,7.0095 1.0958,2.574 1.8958,5.2952 3.28737,7.7221 1.14173,1.9912 2.73103,3.6968 4.24791,5.4194 0.63397,0.72 2.19917,2.8387 2.1793,1.8796 -0.0873,-4.2086 -0.66024,-8.5646 -2.39745,-12.3989 -0.6496,-1.4339 -2.88753,-3.0316 -4.19901,-2.161 -1.65394,1.098 -0.86707,3.8746 -1.30061,5.8119 1.01152,10.2668 -0.14,8.5264 5.77741,18.6936 0.37513,0.6446 2.28576,1.8976 1.79353,1.3374 -2.13709,-2.4322 -4.52805,-4.6295 -6.75291,-6.9816 -0.80123,-0.8471 -1.27926,-2.0966 -2.32386,-2.6146 -0.85423,-0.4236 -1.90677,0.029 -2.86014,0.044 -4.53224,10.5816 0.36737,-2.9902 -0.80032,13.6022 -0.15541,2.2081 -1.72725,8.41 -2.23139,6.2546 -0.83962,-3.5895 2.11535,-7.4526 1.12089,-11.0023 -0.36666,-1.3088 -2.76043,0.132 -4.03096,0.6149 -1.74008,0.6613 -3.23588,1.8412 -4.85381,2.7619 -1.02285,0.299 -3.48363,-0.085 -3.06855,0.8969 0.49426,1.1688 3.90149,-0.562 3.74263,0.6971 -0.19576,1.5514 -6.19543,10.1989 -8.70902,11.5823 -3.45416,1.901 0.72652,-4.4298 -1.81314,-0.073 -0.4268,-0.4907 -0.91559,-2.0105 -1.28045,-1.4721 -0.59087,0.8719 -0.904,3.0092 0.13885,3.1566 5.33538,0.754 10.85009,-1.8683 16.14247,-0.8557 2.0501,0.3922 3.95811,6.8116 4.10403,4.7294 0.16023,-2.2863 -2.03832,-4.4537 -4.04585,-5.5595 -4.6133,-2.5412 -10.00641,-3.2913 -15.00962,-4.9369 -1.93464,1.7392 -4.34377,3.0646 -5.80388,5.2176 -11.94855,17.6195 5.88865,6.9034 18.86498,-0.032 0.0842,-0.045 -3.51348,-4.3913 -3.88713,-4.8583 -2.56317,2.56 -1.27182,1.0045 2.54929,9.1481 0.25699,0.5476 0.16497,-1.1987 0.24744,-1.798 0.83598,-1.9491 -26.72887,-13.7716 -27.56485,-11.8225 v 0 c -0.49797,1.8896 -1.25973,3.7289 -1.49394,5.669 -1.55636,12.8931 -1.81388,10.1159 0.15978,17.9776 1.6541,0.6632 3.40963,1.1149 4.96226,1.9897 1.44341,0.8132 2.61123,2.0402 3.942,3.027 0.21016,0.1559 0.42799,0.4791 0.67665,0.3977 7.7742,-2.5432 14.95626,-7.9672 23.13291,-8.1865 4.24392,-0.1139 -5.54519,11.9211 -7.12967,10.5538 -4.33157,-0.9701 -9.12654,-0.733 -12.99475,-2.9103 -1.57408,-0.886 -3.20728,-5.6445 -1.45131,-5.221 2.57225,0.6204 2.5583,5.3059 5.08328,6.097 5.71201,1.7896 11.94871,0.7409 17.92306,1.1113 -0.3665,-0.6728 -1.85955,-1.9222 -1.09948,-2.0183 2.34048,-0.296 4.64076,0.8514 6.96113,1.277 0.76394,-1.8045 1.50136,-3.6206 2.29177,-5.4137 0.96303,-2.1848 2.5613,-4.1662 2.96812,-6.5189 0.13592,-0.7862 -1.52109,0.6353 -2.05351,1.2294 -1.58324,1.7668 -4.76522,3.4435 -4.19822,5.7471 0.92297,3.7499 10.90422,-5.5642 11.54748,-0.9358 0.93297,-2.0997 1.86594,-4.1994 2.79894,-6.299 1.33546,-1.5364 3.15167,-2.7617 4.00638,-4.6092 1.94886,-4.2128 1.34458,-9.6452 4.2591,-13.2579 1.10186,-1.3659 2.67825,2.6624 2.8825,4.4054 0.14441,1.2324 -2.74142,2.1469 -1.99826,3.1405 0.70442,0.9419 2.08798,-1.0831 3.13198,-1.6247 5.90997,-5.8927 8.5684,-6.5329 8.26042,-16.7263 -0.15478,-5.1221 -1.64645,-10.1704 -3.34584,-15.0049 -0.24942,-0.7096 -2.17194,-1.4076 -2.15903,-0.6556 0.32563,18.9645 3.91946,1.5181 1.44627,11.8085 0.75271,-0.4988 2.07034,-0.6131 2.25816,-1.4964 0.73147,-3.4395 -1.61271,-22.4236 -1.68571,-22.7097 -0.28141,-1.1031 -3.58836,-0.9485 -3.41056,0.1759 0.21537,1.3622 1.2023,2.4824 1.80346,3.7235 -0.71089,1.4772 -1.32279,5.8569 -2.13265,4.4316 -2.86197,-5.0371 -2.25626,-11.5061 -4.83473,-16.6939 -0.73629,-1.4814 -2.88859,-1.7213 -4.50125,-2.0901 -4.34245,-0.9929 -9.61023,-2.1115 -14.18641,-0.8246 -0.53758,0.1512 -0.96459,0.5629 -1.4469,0.8444 3.50332,0.3355 7.04382,0.3967 10.50994,1.0064 0.54663,0.096 1.83319,1.0687 1.27818,1.067 -5.6414,-0.017 -11.24882,-0.942 -16.88767,-1.1129 -1.05942,-0.032 -2.35643,-0.2087 -3.13928,0.5059 -0.75777,0.6917 2.68332,1.7186 1.22494,2.8237 -0.41783,-1.0223 -0.14909,-3.0809 -1.25346,-3.0671 -1.41021,0.017 -1.55678,2.5779 -2.85938,3.1184 -7.67601,3.1855 -1.54559,-3.4687 -9.18824,0.6248 -1.32522,0.7098 -1.71101,2.5696 -2.96561,3.3979 -0.89199,0.5889 -2.09537,0.4233 -3.14304,0.6349 3.77061,2.4321 -1.4097,-1.1429 -7.13308,0.037 -9.14453,1.8851 -9.28005,5.5754 -14.97201,12.0651 -6.72113,7.6629 -5.24049,2.4373 -5.91812,10.4531 -0.79473,-0.057 -1.58946,-0.115 -2.38421,-0.1724 -0.34309,0.1359 -0.66231,0.3685 -1.02926,0.4078 -2.48218,0.2663 -5.16535,-0.4498 -7.47231,0.5043 -8.8592,3.6635 -16.54548,17.4382 -12.06508,26.7409 3.39323,7.0455 13.62131,7.6857 20.43198,11.5286 6.44234,-0.7011 19.15469,-0.3264 14.47313,-15.0185 -2.42459,-7.609 -10.8349,-12.0978 -17.75251,-16.0879 -2.08717,-1.2039 -6.41993,-0.5275 -6.9977,1.8117 -2.06754,8.3709 -3.56005,18.0889 0.16131,25.8669 2.20814,4.6153 9.70074,3.2558 14.55111,4.8837 2.82313,-0.1243 5.83115,0.6396 8.46939,-0.3729 2.15651,-0.8277 6.12685,-2.78 5.00102,-4.797 -3.76317,-6.7419 -12.00364,-9.9336 -16.66073,-16.092 -1.22071,-1.6142 1.85124,-6.6112 -0.0991,-6.0706 -2.4814,0.6878 -4.71509,4.8764 -3.26213,7.0023 4.8015,7.0252 12.92905,11.0667 19.39359,16.6 3.41178,-0.2777 10.44107,-0.4901 13.61699,-2.1942 0.92096,-0.4941 2.40996,-2.3162 1.46857,-2.7702 -4.16991,-2.0112 -10.11306,0.047 -13.54844,-3.0561 -5.17308,-4.6732 -14.36219,-47.8677 20.50852,-4.099 1.53416,-0.3865 5.46166,-1.0416 6.17879,-2.8306 0.58134,-1.4502 -0.93869,-3.1479 -0.53311,-4.6567 0.32755,-1.2186 2.34331,-1.5609 2.53947,-2.8074 2.94643,-18.723 -4.07649,-12.3745 2.10341,-17.3402 0.7099,0.4614 2.13289,0.5377 2.12971,1.3844 -0.003,0.7626 -1.58946,1.3437 -2.13797,0.8139 -0.57811,-0.5582 0.59397,-1.5449 0.55005,-2.3474 -0.0999,-1.8257 -1.27233,-3.5943 -0.97393,-5.3983 3.23371,-19.549 5.03565,-0.9821 2.12584,-18.0782 -0.57771,-1.1956 -1.43322,-2.2933 -1.7331,-3.5869 -0.14401,-0.6212 1.06892,-2.0772 0.47173,-1.8538 -3.50351,1.3108 -6.30616,4.1871 -9.85655,5.3651 -4.01026,1.3305 -8.30937,2.5291 -12.50794,2.0552 -1.15176,-0.13 -0.93914,-2.6956 -0.0824,-3.4763 7.71368,-7.0279 16.55167,-12.7127 24.82752,-19.0691 -1.06963,-0.7088 -2.10498,-1.4723 -3.20892,-2.1263 -9.54051,-5.6523 1.03618,1.2868 -11.55608,12.473 -3.00066,2.6656 -15.38369,4.4804 -11.67519,2.9453 4.9615,-2.0537 11.43453,-0.9643 15.464,-4.5136 6.00893,-5.2928 8.50958,-13.5673 12.76435,-20.351 -1.21113,-2.4123 -1.70127,-5.352 -3.63342,-7.2369 -11.86786,-11.5776 -23.01986,10.9493 -29.52483,17.6735 -1.192,1.2322 -2.97357,3.032 -2.29105,4.6047 1.22904,2.832 3.87982,5.7772 6.9474,6.1245 8.21066,0.9296 16.43878,-1.6975 24.65819,-2.5463 3.12962,-8.4182 8.39179,-16.3289 9.3889,-25.2545 1.18779,-10.6324 -13.7835,-5.069 -15.45585,-3.6766 -8.90349,7.4133 -19.7436,14.4086 -23.92267,25.2144 -4.03072,10.4222 38.49391,6.9604 30.45126,14.0194 2.68079,1.902 29.57949,-36.0099 26.89871,-37.9119 z"
       transform="matrix(0.00187731,0.43466676,-0.43570539,0.00187284,-1145.4795,-1332.7036)" /><path
       style="display:inline;fill:url(#linearGradient5888);fill-opacity:1;fill-rule:evenodd;stroke:url(#linearGradient6620);stroke-width:3.13656;stroke-linecap:square;stroke-linejoin:miter;stroke-dasharray:none;stroke-opacity:1;paint-order:fill markers stroke;filter:url(#filter16001)"
       id="path487"
       d="m -404.84693,-1538.1505 c -8.07731,7.6744 -21.23818,-18.2458 -30.64486,-12.4856 -9.9463,6.0907 -17.88634,15.878 -23.0182,26.3512 -2.27991,4.6529 -0.52136,11.1875 2.59647,15.3259 1.68129,2.2317 7.03847,1.6658 8.34353,-0.8048 4.11681,-7.7935 3.81248,-17.2108 5.71875,-25.8162 2.68555,-2.5668 7.63834,-4.0092 8.05667,-7.7005 0.28173,-2.4858 -4.33054,-3.0642 -6.83191,-3.1068 -2.06235,-0.035 -4.40367,1.1302 -5.46775,2.8972 -5.32717,8.8464 -10.7928,17.9929 -13.16439,28.0435 -0.55597,2.3561 3.34697,3.5742 5.40149,4.8546 0.47953,0.2989 -0.1941,-1.1132 -0.29117,-1.6699 1.90941,-7.8119 3.81883,-15.6238 5.72823,-23.4357 1.31153,-0.5846 5.3559,-1.9575 3.93456,-1.7536 -6.04308,0.8667 -14.19934,-1.0765 -17.92462,3.7601 -1.43248,1.8598 -4.13176,27.4183 -0.38312,33.758 0.96629,1.6341 3.6997,0.8535 5.54953,1.2802 39.00639,15.0089 22.76592,-28.0436 12.7466,-27.3102 -7.57645,0.5546 -15.71173,3.4029 -20.998,8.8587 -6.53468,6.7442 -8.05876,23.2758 -2.53076,31.5112 1.51487,2.2568 4.92802,2.2949 7.39203,3.4424 -0.99954,-1.4403 1.75628,-5.2963 -0.081,-5.574 -1.91783,-0.29 -3.39278,2.1996 -4.31112,3.9081 -4.67463,8.6965 -1.62007,8.4953 1.21391,16.9697 0.78202,2.3385 1.20605,4.7819 1.80908,7.1728 4.78907,2.5094 12.25849,7.4431 3.54092,-12.7812 -0.8645,-2.0056 -4.61399,0.185 -6.3873,1.4599 -1.90408,1.3689 -3.1232,3.6615 -3.84157,5.8938 -1.70661,5.3033 2.12291,6.6241 -0.68305,5.454 47.98743,43.9967 25.68652,-2.9559 19.49506,-5.6939 -5.73863,-2.5377 -12.5643,0.4892 -18.77147,1.4073 -2.78887,0.4125 -5.4279,1.5527 -8.06043,2.5615 -1.34403,0.515 -3.36222,0.6336 -3.8295,1.9949 -0.33488,0.9756 2.06013,0.1059 3.09018,0.1589 7.10374,5.0396 14.20746,10.0791 21.3112,15.1187 -0.35869,1.4429 -0.48471,5.693 -1.07608,4.3288 -0.84185,-1.942 1.78001,-4.9367 0.20137,-6.3466 -6.71441,-5.9968 -15.17192,-9.7191 -23.05582,-14.0652 -1.31347,-0.7241 -2.96492,-0.5416 -4.37382,-1.0558 -1.20703,-0.4406 -2.27695,-1.1916 -3.4154,-1.7874 3.43326,1.3976 8.58567,0.9059 10.29978,4.1926 3.60481,6.912 3.30067,15.2856 3.91181,23.0572 0.0584,0.7428 -1.41751,1.3816 -2.02409,0.9488 -5.8774,-4.1933 -12.75869,-7.8976 -16.42938,-14.1149 -9.36863,-15.8681 6.94049,-9.1502 -0.33777,-11.8439 31.23832,14.1744 9.23491,-1.5049 19.89939,21.1103 0.56063,1.1889 2.64531,0.7979 3.91618,0.4622 3.82362,-1.0099 5.31201,-4.928 8.01589,-7.2133 2.02502,-1.7115 4.41826,-2.9323 6.62739,-4.3985 0.0665,-0.098 6.56971,-10.1351 7.90811,-10.6905 2.12545,-0.8819 4.87534,1.0747 6.90343,-0.013 1.01343,-0.5433 -0.0778,-2.3483 -0.51832,-3.4105 -0.18375,-0.4431 -0.75425,1.594 -0.31361,1.4044 2.37249,-1.0208 4.38367,-2.7325 6.5755,-4.0988 19.20738,-7.2496 -5.569,3.55 7.77325,-6.6203 0.90334,-0.6886 2.27206,0.1 3.399,0.2417 0.4333,-1.3006 -2.95593,0.7824 -2.1788,0.8852 0.829,0.1096 1.61388,-0.4386 2.42081,-0.6579 0.76933,-1.0193 1.53868,-2.0385 2.30804,-3.0577 1.64724,0.1257 3.63508,1.3879 4.94173,0.3771 0.8882,-0.6872 -1.36697,-2.1059 -2.47555,-2.285 -4.26037,-0.6884 -8.6872,-0.9096 -12.94522,-0.2069 -1.03618,0.1711 1.44897,1.7815 2.48823,1.9327 3.69194,0.5373 7.46154,0.039 11.19232,0.058 -0.72792,-0.7851 7.6613,1.8932 5.7463,2.8411 -8.39801,4.1573 -6.9098,-0.8301 -8.59181,-5.2198 -1.68601,-4.4002 -1.78023,-10.1591 -5.53321,-13.0085 -1.96421,-1.4914 -1.57858,4.673 -2.36789,7.0095 1.0958,2.574 1.8958,5.2952 3.28737,7.7221 1.14173,1.9912 2.73103,3.6968 4.24791,5.4194 0.63397,0.72 2.19917,2.8387 2.1793,1.8796 -0.0873,-4.2086 -0.66024,-8.5646 -2.39745,-12.3989 -0.6496,-1.4339 -2.88753,-3.0316 -4.19901,-2.161 -1.65394,1.098 -0.86707,3.8746 -1.30061,5.8119 1.01152,10.2668 -0.14,8.5264 5.77741,18.6936 0.37513,0.6446 2.28576,1.8976 1.79353,1.3374 -2.13709,-2.4322 -4.52805,-4.6295 -6.75291,-6.9816 -0.80123,-0.8471 -1.27926,-2.0966 -2.32386,-2.6146 -0.85423,-0.4236 -1.90677,0.029 -2.86014,0.044 -4.53224,10.5816 0.36737,-2.9902 -0.80032,13.6022 -0.15541,2.2081 -1.72725,8.41 -2.23139,6.2546 -0.83962,-3.5895 2.11535,-7.4526 1.12089,-11.0023 -0.36666,-1.3088 -2.76043,0.132 -4.03096,0.6149 -1.74008,0.6613 -3.23588,1.8412 -4.85381,2.7619 -1.02285,0.299 -3.48363,-0.085 -3.06855,0.8969 0.49426,1.1688 3.90149,-0.562 3.74263,0.6971 -0.19576,1.5514 -6.19543,10.1989 -8.70902,11.5823 -3.45416,1.901 0.72652,-4.4298 -1.81314,-0.073 -0.4268,-0.4907 -0.91559,-2.0105 -1.28045,-1.4721 -0.59087,0.8719 -0.904,3.0092 0.13885,3.1566 5.33538,0.754 10.85009,-1.8683 16.14247,-0.8557 2.0501,0.3922 3.95811,6.8116 4.10403,4.7294 0.16023,-2.2863 -2.03832,-4.4537 -4.04585,-5.5595 -4.6133,-2.5412 -10.00641,-3.2913 -15.00962,-4.9369 -1.93464,1.7392 -4.34377,3.0646 -5.80388,5.2176 -11.94855,17.6195 5.88865,6.9034 18.86498,-0.032 0.0842,-0.045 -3.51348,-4.3913 -3.88713,-4.8583 -2.56317,2.56 -1.27182,1.0045 2.54929,9.1481 0.25699,0.5476 0.16497,-1.1987 0.24744,-1.798 0.83598,-1.9491 -26.72887,-13.7716 -27.56485,-11.8225 v 0 c -0.49797,1.8896 -1.25973,3.7289 -1.49394,5.669 -1.55636,12.8931 -1.81388,10.1159 0.15978,17.9776 1.6541,0.6632 3.40963,1.1149 4.96226,1.9897 1.44341,0.8132 2.61123,2.0402 3.942,3.027 0.21016,0.1559 0.42799,0.4791 0.67665,0.3977 7.7742,-2.5432 14.95626,-7.9672 23.13291,-8.1865 4.24392,-0.1139 -5.54519,11.9211 -7.12967,10.5538 -4.33157,-0.9701 -9.12654,-0.733 -12.99475,-2.9103 -1.57408,-0.886 -3.20728,-5.6445 -1.45131,-5.221 2.57225,0.6204 2.5583,5.3059 5.08328,6.097 5.71201,1.7896 11.94871,0.7409 17.92306,1.1113 -0.3665,-0.6728 -1.85955,-1.9222 -1.09948,-2.0183 2.34048,-0.296 4.64076,0.8514 6.96113,1.277 0.76394,-1.8045 1.50136,-3.6206 2.29177,-5.4137 0.96303,-2.1848 2.5613,-4.1662 2.96812,-6.5189 0.13592,-0.7862 -1.52109,0.6353 -2.05351,1.2294 -1.58324,1.7668 -4.76522,3.4435 -4.19822,5.7471 0.92297,3.7499 10.90422,-5.5642 11.54748,-0.9358 0.93297,-2.0997 1.86594,-4.1994 2.79894,-6.299 1.33546,-1.5364 3.15167,-2.7617 4.00638,-4.6092 1.94886,-4.2128 1.34458,-9.6452 4.2591,-13.2579 1.10186,-1.3659 2.67825,2.6624 2.8825,4.4054 0.14441,1.2324 -2.74142,2.1469 -1.99826,3.1405 0.70442,0.9419 2.08798,-1.0831 3.13198,-1.6247 5.90997,-5.8927 8.5684,-6.5329 8.26042,-16.7263 -0.15478,-5.1221 -1.64645,-10.1704 -3.34584,-15.0049 -0.24942,-0.7096 -2.17194,-1.4076 -2.15903,-0.6556 0.32563,18.9645 3.91946,1.5181 1.44627,11.8085 0.75271,-0.4988 2.07034,-0.6131 2.25816,-1.4964 0.73147,-3.4395 -1.61271,-22.4236 -1.68571,-22.7097 -0.28141,-1.1031 -3.58836,-0.9485 -3.41056,0.1759 0.21537,1.3622 1.2023,2.4824 1.80346,3.7235 -0.71089,1.4772 -1.32279,5.8569 -2.13265,4.4316 -2.86197,-5.0371 -2.25626,-11.5061 -4.83473,-16.6939 -0.73629,-1.4814 -2.88859,-1.7213 -4.50125,-2.0901 -4.34245,-0.9929 -9.61023,-2.1115 -14.18641,-0.8246 -0.53758,0.1512 -0.96459,0.5629 -1.4469,0.8444 3.50332,0.3355 7.04382,0.3967 10.50994,1.0064 0.54663,0.096 1.83319,1.0687 1.27818,1.067 -5.6414,-0.017 -11.24882,-0.942 -16.88767,-1.1129 -1.05942,-0.032 -2.35643,-0.2087 -3.13928,0.5059 -0.75777,0.6917 2.68332,1.7186 1.22494,2.8237 -0.41783,-1.0223 -0.14909,-3.0809 -1.25346,-3.0671 -1.41021,0.017 -1.55678,2.5779 -2.85938,3.1184 -7.67601,3.1855 -1.54559,-3.4687 -9.18824,0.6248 -1.32522,0.7098 -1.71101,2.5696 -2.96561,3.3979 -0.89199,0.5889 -2.09537,0.4233 -3.14304,0.6349 3.77061,2.4321 -1.4097,-1.1429 -7.13308,0.037 -9.14453,1.8851 -9.28005,5.5754 -14.97201,12.0651 -6.72113,7.6629 -5.24049,2.4373 -5.91812,10.4531 -0.79473,-0.057 -1.58946,-0.115 -2.38421,-0.1724 -0.34309,0.1359 -0.66231,0.3685 -1.02926,0.4078 -2.48218,0.2663 -5.16535,-0.4498 -7.47231,0.5043 -8.8592,3.6635 -16.54548,17.4382 -12.06508,26.7409 3.39323,7.0455 13.62131,7.6857 20.43198,11.5286 6.44234,-0.7011 19.15469,-0.3264 14.47313,-15.0185 -2.42459,-7.609 -10.8349,-12.0978 -17.75251,-16.0879 -2.08717,-1.2039 -6.41993,-0.5275 -6.9977,1.8117 -2.06754,8.3709 -3.56005,18.0889 0.16131,25.8669 2.20814,4.6153 9.70074,3.2558 14.55111,4.8837 2.82313,-0.1243 5.83115,0.6396 8.46939,-0.3729 2.15651,-0.8277 6.12685,-2.78 5.00102,-4.797 -3.76317,-6.7419 -12.00364,-9.9336 -16.66073,-16.092 -1.22071,-1.6142 1.85124,-6.6112 -0.0991,-6.0706 -2.4814,0.6878 -4.71509,4.8764 -3.26213,7.0023 4.8015,7.0252 12.92905,11.0667 19.39359,16.6 3.41178,-0.2777 10.44107,-0.4901 13.61699,-2.1942 0.92096,-0.4941 2.40996,-2.3162 1.46857,-2.7702 -4.16991,-2.0112 -10.11306,0.047 -13.54844,-3.0561 -5.17308,-4.6732 -14.36219,-47.8677 20.50852,-4.099 1.53416,-0.3865 5.46166,-1.0416 6.17879,-2.8306 0.58134,-1.4502 -0.93869,-3.1479 -0.53311,-4.6567 0.32755,-1.2186 2.34331,-1.5609 2.53947,-2.8074 2.94643,-18.723 -4.07649,-12.3745 2.10341,-17.3402 0.7099,0.4614 2.13289,0.5377 2.12971,1.3844 -0.003,0.7626 -1.58946,1.3437 -2.13797,0.8139 -0.57811,-0.5582 0.59397,-1.5449 0.55005,-2.3474 -0.0999,-1.8257 -1.27233,-3.5943 -0.97393,-5.3983 3.23371,-19.549 5.03565,-0.9821 2.12584,-18.0782 -0.57771,-1.1956 -1.43322,-2.2933 -1.7331,-3.5869 -0.14401,-0.6212 1.06892,-2.0772 0.47173,-1.8538 -3.50351,1.3108 -6.30616,4.1871 -9.85655,5.3651 -4.01026,1.3305 -8.30937,2.5291 -12.50794,2.0552 -1.15176,-0.13 -0.93914,-2.6956 -0.0824,-3.4763 7.71368,-7.0279 16.55167,-12.7127 24.82752,-19.0691 -1.06963,-0.7088 -2.10498,-1.4723 -3.20892,-2.1263 -9.54051,-5.6523 1.03618,1.2868 -11.55608,12.473 -3.00066,2.6656 -15.38369,4.4804 -11.67519,2.9453 4.9615,-2.0537 11.43453,-0.9643 15.464,-4.5136 6.00893,-5.2928 8.50958,-13.5673 12.76435,-20.351 -1.21113,-2.4123 -1.70127,-5.352 -3.63342,-7.2369 -11.86786,-11.5776 -23.01986,10.9493 -29.52483,17.6735 -1.192,1.2322 -2.97357,3.032 -2.29105,4.6047 1.22904,2.832 3.87982,5.7772 6.9474,6.1245 8.21066,0.9296 16.43878,-1.6975 24.65819,-2.5463 3.12962,-8.4182 8.39179,-16.3289 9.3889,-25.2545 1.18779,-10.6324 -13.7835,-5.069 -15.45585,-3.6766 -8.90349,7.4133 -19.7436,14.4086 -23.92267,25.2144 -4.03072,10.4222 38.49391,6.9604 30.45126,14.0194 2.68079,1.902 29.57949,-36.0099 26.89871,-37.9119 z"
       transform="matrix(0.00187731,0.43466676,-0.43570539,0.00187284,-1093.4415,-1344.9619)" /><path
       style="display:inline;fill:url(#linearGradient5888);fill-opacity:1;fill-rule:evenodd;stroke:url(#linearGradient6620);stroke-width:3.13656;stroke-linecap:square;stroke-linejoin:miter;stroke-dasharray:none;stroke-opacity:1;paint-order:fill markers stroke;filter:url(#filter16001)"
       id="path543"
       d="m -404.84693,-1538.1505 c -8.07731,7.6744 -21.23818,-18.2458 -30.64486,-12.4856 -9.9463,6.0907 -17.88634,15.878 -23.0182,26.3512 -2.27991,4.6529 -0.52136,11.1875 2.59647,15.3259 1.68129,2.2317 7.03847,1.6658 8.34353,-0.8048 4.11681,-7.7935 3.81248,-17.2108 5.71875,-25.8162 2.68555,-2.5668 7.63834,-4.0092 8.05667,-7.7005 0.28173,-2.4858 -4.33054,-3.0642 -6.83191,-3.1068 -2.06235,-0.035 -4.40367,1.1302 -5.46775,2.8972 -5.32717,8.8464 -10.7928,17.9929 -13.16439,28.0435 -0.55597,2.3561 3.34697,3.5742 5.40149,4.8546 0.47953,0.2989 -0.1941,-1.1132 -0.29117,-1.6699 1.90941,-7.8119 3.81883,-15.6238 5.72823,-23.4357 1.31153,-0.5846 5.3559,-1.9575 3.93456,-1.7536 -6.04308,0.8667 -14.19934,-1.0765 -17.92462,3.7601 -1.43248,1.8598 -4.13176,27.4183 -0.38312,33.758 0.96629,1.6341 3.6997,0.8535 5.54953,1.2802 39.00639,15.0089 22.76592,-28.0436 12.7466,-27.3102 -7.57645,0.5546 -15.71173,3.4029 -20.998,8.8587 -6.53468,6.7442 -8.05876,23.2758 -2.53076,31.5112 1.51487,2.2568 4.92802,2.2949 7.39203,3.4424 -0.99954,-1.4403 1.75628,-5.2963 -0.081,-5.574 -1.91783,-0.29 -3.39278,2.1996 -4.31112,3.9081 -4.67463,8.6965 -1.62007,8.4953 1.21391,16.9697 0.78202,2.3385 1.20605,4.7819 1.80908,7.1728 4.78907,2.5094 12.25849,7.4431 3.54092,-12.7812 -0.8645,-2.0056 -4.61399,0.185 -6.3873,1.4599 -1.90408,1.3689 -3.1232,3.6615 -3.84157,5.8938 -1.70661,5.3033 2.12291,6.6241 -0.68305,5.454 47.98743,43.9967 25.68652,-2.9559 19.49506,-5.6939 -5.73863,-2.5377 -12.5643,0.4892 -18.77147,1.4073 -2.78887,0.4125 -5.4279,1.5527 -8.06043,2.5615 -1.34403,0.515 -3.36222,0.6336 -3.8295,1.9949 -0.33488,0.9756 2.06013,0.1059 3.09018,0.1589 7.10374,5.0396 14.20746,10.0791 21.3112,15.1187 -0.35869,1.4429 -0.48471,5.693 -1.07608,4.3288 -0.84185,-1.942 1.78001,-4.9367 0.20137,-6.3466 -6.71441,-5.9968 -15.17192,-9.7191 -23.05582,-14.0652 -1.31347,-0.7241 -2.96492,-0.5416 -4.37382,-1.0558 -1.20703,-0.4406 -2.27695,-1.1916 -3.4154,-1.7874 3.43326,1.3976 8.58567,0.9059 10.29978,4.1926 3.60481,6.912 3.30067,15.2856 3.91181,23.0572 0.0584,0.7428 -1.41751,1.3816 -2.02409,0.9488 -5.8774,-4.1933 -12.75869,-7.8976 -16.42938,-14.1149 -9.36863,-15.8681 6.94049,-9.1502 -0.33777,-11.8439 31.23832,14.1744 9.23491,-1.5049 19.89939,21.1103 0.56063,1.1889 2.64531,0.7979 3.91618,0.4622 3.82362,-1.0099 5.31201,-4.928 8.01589,-7.2133 2.02502,-1.7115 4.41826,-2.9323 6.62739,-4.3985 0.0665,-0.098 6.56971,-10.1351 7.90811,-10.6905 2.12545,-0.8819 4.87534,1.0747 6.90343,-0.013 1.01343,-0.5433 -0.0778,-2.3483 -0.51832,-3.4105 -0.18375,-0.4431 -0.75425,1.594 -0.31361,1.4044 2.37249,-1.0208 4.38367,-2.7325 6.5755,-4.0988 19.20738,-7.2496 -5.569,3.55 7.77325,-6.6203 0.90334,-0.6886 2.27206,0.1 3.399,0.2417 0.4333,-1.3006 -2.95593,0.7824 -2.1788,0.8852 0.829,0.1096 1.61388,-0.4386 2.42081,-0.6579 0.76933,-1.0193 1.53868,-2.0385 2.30804,-3.0577 1.64724,0.1257 3.63508,1.3879 4.94173,0.3771 0.8882,-0.6872 -1.36697,-2.1059 -2.47555,-2.285 -4.26037,-0.6884 -8.6872,-0.9096 -12.94522,-0.2069 -1.03618,0.1711 1.44897,1.7815 2.48823,1.9327 3.69194,0.5373 7.46154,0.039 11.19232,0.058 -0.72792,-0.7851 7.6613,1.8932 5.7463,2.8411 -8.39801,4.1573 -6.9098,-0.8301 -8.59181,-5.2198 -1.68601,-4.4002 -1.78023,-10.1591 -5.53321,-13.0085 -1.96421,-1.4914 -1.57858,4.673 -2.36789,7.0095 1.0958,2.574 1.8958,5.2952 3.28737,7.7221 1.14173,1.9912 2.73103,3.6968 4.24791,5.4194 0.63397,0.72 2.19917,2.8387 2.1793,1.8796 -0.0873,-4.2086 -0.66024,-8.5646 -2.39745,-12.3989 -0.6496,-1.4339 -2.88753,-3.0316 -4.19901,-2.161 -1.65394,1.098 -0.86707,3.8746 -1.30061,5.8119 1.01152,10.2668 -0.14,8.5264 5.77741,18.6936 0.37513,0.6446 2.28576,1.8976 1.79353,1.3374 -2.13709,-2.4322 -4.52805,-4.6295 -6.75291,-6.9816 -0.80123,-0.8471 -1.27926,-2.0966 -2.32386,-2.6146 -0.85423,-0.4236 -1.90677,0.029 -2.86014,0.044 -4.53224,10.5816 0.36737,-2.9902 -0.80032,13.6022 -0.15541,2.2081 -1.72725,8.41 -2.23139,6.2546 -0.83962,-3.5895 2.11535,-7.4526 1.12089,-11.0023 -0.36666,-1.3088 -2.76043,0.132 -4.03096,0.6149 -1.74008,0.6613 -3.23588,1.8412 -4.85381,2.7619 -1.02285,0.299 -3.48363,-0.085 -3.06855,0.8969 0.49426,1.1688 3.90149,-0.562 3.74263,0.6971 -0.19576,1.5514 -6.19543,10.1989 -8.70902,11.5823 -3.45416,1.901 0.72652,-4.4298 -1.81314,-0.073 -0.4268,-0.4907 -0.91559,-2.0105 -1.28045,-1.4721 -0.59087,0.8719 -0.904,3.0092 0.13885,3.1566 5.33538,0.754 10.85009,-1.8683 16.14247,-0.8557 2.0501,0.3922 3.95811,6.8116 4.10403,4.7294 0.16023,-2.2863 -2.03832,-4.4537 -4.04585,-5.5595 -4.6133,-2.5412 -10.00641,-3.2913 -15.00962,-4.9369 -1.93464,1.7392 -4.34377,3.0646 -5.80388,5.2176 -11.94855,17.6195 5.88865,6.9034 18.86498,-0.032 0.0842,-0.045 -3.51348,-4.3913 -3.88713,-4.8583 -2.56317,2.56 -1.27182,1.0045 2.54929,9.1481 0.25699,0.5476 0.16497,-1.1987 0.24744,-1.798 0.83598,-1.9491 -26.72887,-13.7716 -27.56485,-11.8225 v 0 c -0.49797,1.8896 -1.25973,3.7289 -1.49394,5.669 -1.55636,12.8931 -1.81388,10.1159 0.15978,17.9776 1.6541,0.6632 3.40963,1.1149 4.96226,1.9897 1.44341,0.8132 2.61123,2.0402 3.942,3.027 0.21016,0.1559 0.42799,0.4791 0.67665,0.3977 7.7742,-2.5432 14.95626,-7.9672 23.13291,-8.1865 4.24392,-0.1139 -5.54519,11.9211 -7.12967,10.5538 -4.33157,-0.9701 -9.12654,-0.733 -12.99475,-2.9103 -1.57408,-0.886 -3.20728,-5.6445 -1.45131,-5.221 2.57225,0.6204 2.5583,5.3059 5.08328,6.097 5.71201,1.7896 11.94871,0.7409 17.92306,1.1113 -0.3665,-0.6728 -1.85955,-1.9222 -1.09948,-2.0183 2.34048,-0.296 4.64076,0.8514 6.96113,1.277 0.76394,-1.8045 1.50136,-3.6206 2.29177,-5.4137 0.96303,-2.1848 2.5613,-4.1662 2.96812,-6.5189 0.13592,-0.7862 -1.52109,0.6353 -2.05351,1.2294 -1.58324,1.7668 -4.76522,3.4435 -4.19822,5.7471 0.92297,3.7499 10.90422,-5.5642 11.54748,-0.9358 0.93297,-2.0997 1.86594,-4.1994 2.79894,-6.299 1.33546,-1.5364 3.15167,-2.7617 4.00638,-4.6092 1.94886,-4.2128 1.34458,-9.6452 4.2591,-13.2579 1.10186,-1.3659 2.67825,2.6624 2.8825,4.4054 0.14441,1.2324 -2.74142,2.1469 -1.99826,3.1405 0.70442,0.9419 2.08798,-1.0831 3.13198,-1.6247 5.90997,-5.8927 8.5684,-6.5329 8.26042,-16.7263 -0.15478,-5.1221 -1.64645,-10.1704 -3.34584,-15.0049 -0.24942,-0.7096 -2.17194,-1.4076 -2.15903,-0.6556 0.32563,18.9645 3.91946,1.5181 1.44627,11.8085 0.75271,-0.4988 2.07034,-0.6131 2.25816,-1.4964 0.73147,-3.4395 -1.61271,-22.4236 -1.68571,-22.7097 -0.28141,-1.1031 -3.58836,-0.9485 -3.41056,0.1759 0.21537,1.3622 1.2023,2.4824 1.80346,3.7235 -0.71089,1.4772 -1.32279,5.8569 -2.13265,4.4316 -2.86197,-5.0371 -2.25626,-11.5061 -4.83473,-16.6939 -0.73629,-1.4814 -2.88859,-1.7213 -4.50125,-2.0901 -4.34245,-0.9929 -9.61023,-2.1115 -14.18641,-0.8246 -0.53758,0.1512 -0.96459,0.5629 -1.4469,0.8444 3.50332,0.3355 7.04382,0.3967 10.50994,1.0064 0.54663,0.096 1.83319,1.0687 1.27818,1.067 -5.6414,-0.017 -11.24882,-0.942 -16.88767,-1.1129 -1.05942,-0.032 -2.35643,-0.2087 -3.13928,0.5059 -0.75777,0.6917 2.68332,1.7186 1.22494,2.8237 -0.41783,-1.0223 -0.14909,-3.0809 -1.25346,-3.0671 -1.41021,0.017 -1.55678,2.5779 -2.85938,3.1184 -7.67601,3.1855 -1.54559,-3.4687 -9.18824,0.6248 -1.32522,0.7098 -1.71101,2.5696 -2.96561,3.3979 -0.89199,0.5889 -2.09537,0.4233 -3.14304,0.6349 3.77061,2.4321 -1.4097,-1.1429 -7.13308,0.037 -9.14453,1.8851 -9.28005,5.5754 -14.97201,12.0651 -6.72113,7.6629 -5.24049,2.4373 -5.91812,10.4531 -0.79473,-0.057 -1.58946,-0.115 -2.38421,-0.1724 -0.34309,0.1359 -0.66231,0.3685 -1.02926,0.4078 -2.48218,0.2663 -5.16535,-0.4498 -7.47231,0.5043 -8.8592,3.6635 -16.54548,17.4382 -12.06508,26.7409 3.39323,7.0455 13.62131,7.6857 20.43198,11.5286 6.44234,-0.7011 19.15469,-0.3264 14.47313,-15.0185 -2.42459,-7.609 -10.8349,-12.0978 -17.75251,-16.0879 -2.08717,-1.2039 -6.41993,-0.5275 -6.9977,1.8117 -2.06754,8.3709 -3.56005,18.0889 0.16131,25.8669 2.20814,4.6153 9.70074,3.2558 14.55111,4.8837 2.82313,-0.1243 5.83115,0.6396 8.46939,-0.3729 2.15651,-0.8277 6.12685,-2.78 5.00102,-4.797 -3.76317,-6.7419 -12.00364,-9.9336 -16.66073,-16.092 -1.22071,-1.6142 1.85124,-6.6112 -0.0991,-6.0706 -2.4814,0.6878 -4.71509,4.8764 -3.26213,7.0023 4.8015,7.0252 12.92905,11.0667 19.39359,16.6 3.41178,-0.2777 10.44107,-0.4901 13.61699,-2.1942 0.92096,-0.4941 2.40996,-2.3162 1.46857,-2.7702 -4.16991,-2.0112 -10.11306,0.047 -13.54844,-3.0561 -5.17308,-4.6732 -14.36219,-47.8677 20.50852,-4.099 1.53416,-0.3865 5.46166,-1.0416 6.17879,-2.8306 0.58134,-1.4502 -0.93869,-3.1479 -0.53311,-4.6567 0.32755,-1.2186 2.34331,-1.5609 2.53947,-2.8074 2.94643,-18.723 -4.07649,-12.3745 2.10341,-17.3402 0.7099,0.4614 2.13289,0.5377 2.12971,1.3844 -0.003,0.7626 -1.58946,1.3437 -2.13797,0.8139 -0.57811,-0.5582 0.59397,-1.5449 0.55005,-2.3474 -0.0999,-1.8257 -1.27233,-3.5943 -0.97393,-5.3983 3.23371,-19.549 5.03565,-0.9821 2.12584,-18.0782 -0.57771,-1.1956 -1.43322,-2.2933 -1.7331,-3.5869 -0.14401,-0.6212 1.06892,-2.0772 0.47173,-1.8538 -3.50351,1.3108 -6.30616,4.1871 -9.85655,5.3651 -4.01026,1.3305 -8.30937,2.5291 -12.50794,2.0552 -1.15176,-0.13 -0.93914,-2.6956 -0.0824,-3.4763 7.71368,-7.0279 16.55167,-12.7127 24.82752,-19.0691 -1.06963,-0.7088 -2.10498,-1.4723 -3.20892,-2.1263 -9.54051,-5.6523 1.03618,1.2868 -11.55608,12.473 -3.00066,2.6656 -15.38369,4.4804 -11.67519,2.9453 4.9615,-2.0537 11.43453,-0.9643 15.464,-4.5136 6.00893,-5.2928 8.50958,-13.5673 12.76435,-20.351 -1.21113,-2.4123 -1.70127,-5.352 -3.63342,-7.2369 -11.86786,-11.5776 -23.01986,10.9493 -29.52483,17.6735 -1.192,1.2322 -2.97357,3.032 -2.29105,4.6047 1.22904,2.832 3.87982,5.7772 6.9474,6.1245 8.21066,0.9296 16.43878,-1.6975 24.65819,-2.5463 3.12962,-8.4182 8.39179,-16.3289 9.3889,-25.2545 1.18779,-10.6324 -13.7835,-5.069 -15.45585,-3.6766 -8.90349,7.4133 -19.7436,14.4086 -23.92267,25.2144 -4.03072,10.4222 38.49391,6.9604 30.45126,14.0194 2.68079,1.902 29.57949,-36.0099 26.89871,-37.9119 z"
       transform="matrix(0.00187731,0.43466676,-0.43570539,0.00187284,-1090.5839,-1299.6419)" /><path
       style="display:inline;fill:url(#linearGradient5888);fill-opacity:1;fill-rule:evenodd;stroke:url(#linearGradient6620);stroke-width:3.13656;stroke-linecap:square;stroke-linejoin:miter;stroke-dasharray:none;stroke-opacity:1;paint-order:fill markers stroke;filter:url(#filter16001)"
       id="path545"
       d="m -404.84693,-1538.1505 c -8.07731,7.6744 -21.23818,-18.2458 -30.64486,-12.4856 -9.9463,6.0907 -17.88634,15.878 -23.0182,26.3512 -2.27991,4.6529 -0.52136,11.1875 2.59647,15.3259 1.68129,2.2317 7.03847,1.6658 8.34353,-0.8048 4.11681,-7.7935 3.81248,-17.2108 5.71875,-25.8162 2.68555,-2.5668 7.63834,-4.0092 8.05667,-7.7005 0.28173,-2.4858 -4.33054,-3.0642 -6.83191,-3.1068 -2.06235,-0.035 -4.40367,1.1302 -5.46775,2.8972 -5.32717,8.8464 -10.7928,17.9929 -13.16439,28.0435 -0.55597,2.3561 3.34697,3.5742 5.40149,4.8546 0.47953,0.2989 -0.1941,-1.1132 -0.29117,-1.6699 1.90941,-7.8119 3.81883,-15.6238 5.72823,-23.4357 1.31153,-0.5846 5.3559,-1.9575 3.93456,-1.7536 -6.04308,0.8667 -14.19934,-1.0765 -17.92462,3.7601 -1.43248,1.8598 -4.13176,27.4183 -0.38312,33.758 0.96629,1.6341 3.6997,0.8535 5.54953,1.2802 39.00639,15.0089 22.76592,-28.0436 12.7466,-27.3102 -7.57645,0.5546 -15.71173,3.4029 -20.998,8.8587 -6.53468,6.7442 -8.05876,23.2758 -2.53076,31.5112 1.51487,2.2568 4.92802,2.2949 7.39203,3.4424 -0.99954,-1.4403 1.75628,-5.2963 -0.081,-5.574 -1.91783,-0.29 -3.39278,2.1996 -4.31112,3.9081 -4.67463,8.6965 -1.62007,8.4953 1.21391,16.9697 0.78202,2.3385 1.20605,4.7819 1.80908,7.1728 4.78907,2.5094 12.25849,7.4431 3.54092,-12.7812 -0.8645,-2.0056 -4.61399,0.185 -6.3873,1.4599 -1.90408,1.3689 -3.1232,3.6615 -3.84157,5.8938 -1.70661,5.3033 2.12291,6.6241 -0.68305,5.454 47.98743,43.9967 25.68652,-2.9559 19.49506,-5.6939 -5.73863,-2.5377 -12.5643,0.4892 -18.77147,1.4073 -2.78887,0.4125 -5.4279,1.5527 -8.06043,2.5615 -1.34403,0.515 -3.36222,0.6336 -3.8295,1.9949 -0.33488,0.9756 2.06013,0.1059 3.09018,0.1589 7.10374,5.0396 14.20746,10.0791 21.3112,15.1187 -0.35869,1.4429 -0.48471,5.693 -1.07608,4.3288 -0.84185,-1.942 1.78001,-4.9367 0.20137,-6.3466 -6.71441,-5.9968 -15.17192,-9.7191 -23.05582,-14.0652 -1.31347,-0.7241 -2.96492,-0.5416 -4.37382,-1.0558 -1.20703,-0.4406 -2.27695,-1.1916 -3.4154,-1.7874 3.43326,1.3976 8.58567,0.9059 10.29978,4.1926 3.60481,6.912 3.30067,15.2856 3.91181,23.0572 0.0584,0.7428 -1.41751,1.3816 -2.02409,0.9488 -5.8774,-4.1933 -12.75869,-7.8976 -16.42938,-14.1149 -9.36863,-15.8681 6.94049,-9.1502 -0.33777,-11.8439 31.23832,14.1744 9.23491,-1.5049 19.89939,21.1103 0.56063,1.1889 2.64531,0.7979 3.91618,0.4622 3.82362,-1.0099 5.31201,-4.928 8.01589,-7.2133 2.02502,-1.7115 4.41826,-2.9323 6.62739,-4.3985 0.0665,-0.098 6.56971,-10.1351 7.90811,-10.6905 2.12545,-0.8819 4.87534,1.0747 6.90343,-0.013 1.01343,-0.5433 -0.0778,-2.3483 -0.51832,-3.4105 -0.18375,-0.4431 -0.75425,1.594 -0.31361,1.4044 2.37249,-1.0208 4.38367,-2.7325 6.5755,-4.0988 19.20738,-7.2496 -5.569,3.55 7.77325,-6.6203 0.90334,-0.6886 2.27206,0.1 3.399,0.2417 0.4333,-1.3006 -2.95593,0.7824 -2.1788,0.8852 0.829,0.1096 1.61388,-0.4386 2.42081,-0.6579 0.76933,-1.0193 1.53868,-2.0385 2.30804,-3.0577 1.64724,0.1257 3.63508,1.3879 4.94173,0.3771 0.8882,-0.6872 -1.36697,-2.1059 -2.47555,-2.285 -4.26037,-0.6884 -8.6872,-0.9096 -12.94522,-0.2069 -1.03618,0.1711 1.44897,1.7815 2.48823,1.9327 3.69194,0.5373 7.46154,0.039 11.19232,0.058 -0.72792,-0.7851 7.6613,1.8932 5.7463,2.8411 -8.39801,4.1573 -6.9098,-0.8301 -8.59181,-5.2198 -1.68601,-4.4002 -1.78023,-10.1591 -5.53321,-13.0085 -1.96421,-1.4914 -1.57858,4.673 -2.36789,7.0095 1.0958,2.574 1.8958,5.2952 3.28737,7.7221 1.14173,1.9912 2.73103,3.6968 4.24791,5.4194 0.63397,0.72 2.19917,2.8387 2.1793,1.8796 -0.0873,-4.2086 -0.66024,-8.5646 -2.39745,-12.3989 -0.6496,-1.4339 -2.88753,-3.0316 -4.19901,-2.161 -1.65394,1.098 -0.86707,3.8746 -1.30061,5.8119 1.01152,10.2668 -0.14,8.5264 5.77741,18.6936 0.37513,0.6446 2.28576,1.8976 1.79353,1.3374 -2.13709,-2.4322 -4.52805,-4.6295 -6.75291,-6.9816 -0.80123,-0.8471 -1.27926,-2.0966 -2.32386,-2.6146 -0.85423,-0.4236 -1.90677,0.029 -2.86014,0.044 -4.53224,10.5816 0.36737,-2.9902 -0.80032,13.6022 -0.15541,2.2081 -1.72725,8.41 -2.23139,6.2546 -0.83962,-3.5895 2.11535,-7.4526 1.12089,-11.0023 -0.36666,-1.3088 -2.76043,0.132 -4.03096,0.6149 -1.74008,0.6613 -3.23588,1.8412 -4.85381,2.7619 -1.02285,0.299 -3.48363,-0.085 -3.06855,0.8969 0.49426,1.1688 3.90149,-0.562 3.74263,0.6971 -0.19576,1.5514 -6.19543,10.1989 -8.70902,11.5823 -3.45416,1.901 0.72652,-4.4298 -1.81314,-0.073 -0.4268,-0.4907 -0.91559,-2.0105 -1.28045,-1.4721 -0.59087,0.8719 -0.904,3.0092 0.13885,3.1566 5.33538,0.754 10.85009,-1.8683 16.14247,-0.8557 2.0501,0.3922 3.95811,6.8116 4.10403,4.7294 0.16023,-2.2863 -2.03832,-4.4537 -4.04585,-5.5595 -4.6133,-2.5412 -10.00641,-3.2913 -15.00962,-4.9369 -1.93464,1.7392 -4.34377,3.0646 -5.80388,5.2176 -11.94855,17.6195 5.88865,6.9034 18.86498,-0.032 0.0842,-0.045 -3.51348,-4.3913 -3.88713,-4.8583 -2.56317,2.56 -1.27182,1.0045 2.54929,9.1481 0.25699,0.5476 0.16497,-1.1987 0.24744,-1.798 0.83598,-1.9491 -26.72887,-13.7716 -27.56485,-11.8225 v 0 c -0.49797,1.8896 -1.25973,3.7289 -1.49394,5.669 -1.55636,12.8931 -1.81388,10.1159 0.15978,17.9776 1.6541,0.6632 3.40963,1.1149 4.96226,1.9897 1.44341,0.8132 2.61123,2.0402 3.942,3.027 0.21016,0.1559 0.42799,0.4791 0.67665,0.3977 7.7742,-2.5432 14.95626,-7.9672 23.13291,-8.1865 4.24392,-0.1139 -5.54519,11.9211 -7.12967,10.5538 -4.33157,-0.9701 -9.12654,-0.733 -12.99475,-2.9103 -1.57408,-0.886 -3.20728,-5.6445 -1.45131,-5.221 2.57225,0.6204 2.5583,5.3059 5.08328,6.097 5.71201,1.7896 11.94871,0.7409 17.92306,1.1113 -0.3665,-0.6728 -1.85955,-1.9222 -1.09948,-2.0183 2.34048,-0.296 4.64076,0.8514 6.96113,1.277 0.76394,-1.8045 1.50136,-3.6206 2.29177,-5.4137 0.96303,-2.1848 2.5613,-4.1662 2.96812,-6.5189 0.13592,-0.7862 -1.52109,0.6353 -2.05351,1.2294 -1.58324,1.7668 -4.76522,3.4435 -4.19822,5.7471 0.92297,3.7499 10.90422,-5.5642 11.54748,-0.9358 0.93297,-2.0997 1.86594,-4.1994 2.79894,-6.299 1.33546,-1.5364 3.15167,-2.7617 4.00638,-4.6092 1.94886,-4.2128 1.34458,-9.6452 4.2591,-13.2579 1.10186,-1.3659 2.67825,2.6624 2.8825,4.4054 0.14441,1.2324 -2.74142,2.1469 -1.99826,3.1405 0.70442,0.9419 2.08798,-1.0831 3.13198,-1.6247 5.90997,-5.8927 8.5684,-6.5329 8.26042,-16.7263 -0.15478,-5.1221 -1.64645,-10.1704 -3.34584,-15.0049 -0.24942,-0.7096 -2.17194,-1.4076 -2.15903,-0.6556 0.32563,18.9645 3.91946,1.5181 1.44627,11.8085 0.75271,-0.4988 2.07034,-0.6131 2.25816,-1.4964 0.73147,-3.4395 -1.61271,-22.4236 -1.68571,-22.7097 -0.28141,-1.1031 -3.58836,-0.9485 -3.41056,0.1759 0.21537,1.3622 1.2023,2.4824 1.80346,3.7235 -0.71089,1.4772 -1.32279,5.8569 -2.13265,4.4316 -2.86197,-5.0371 -2.25626,-11.5061 -4.83473,-16.6939 -0.73629,-1.4814 -2.88859,-1.7213 -4.50125,-2.0901 -4.34245,-0.9929 -9.61023,-2.1115 -14.18641,-0.8246 -0.53758,0.1512 -0.96459,0.5629 -1.4469,0.8444 3.50332,0.3355 7.04382,0.3967 10.50994,1.0064 0.54663,0.096 1.83319,1.0687 1.27818,1.067 -5.6414,-0.017 -11.24882,-0.942 -16.88767,-1.1129 -1.05942,-0.032 -2.35643,-0.2087 -3.13928,0.5059 -0.75777,0.6917 2.68332,1.7186 1.22494,2.8237 -0.41783,-1.0223 -0.14909,-3.0809 -1.25346,-3.0671 -1.41021,0.017 -1.55678,2.5779 -2.85938,3.1184 -7.67601,3.1855 -1.54559,-3.4687 -9.18824,0.6248 -1.32522,0.7098 -1.71101,2.5696 -2.96561,3.3979 -0.89199,0.5889 -2.09537,0.4233 -3.14304,0.6349 3.77061,2.4321 -1.4097,-1.1429 -7.13308,0.037 -9.14453,1.8851 -9.28005,5.5754 -14.97201,12.0651 -6.72113,7.6629 -5.24049,2.4373 -5.91812,10.4531 -0.79473,-0.057 -1.58946,-0.115 -2.38421,-0.1724 -0.34309,0.1359 -0.66231,0.3685 -1.02926,0.4078 -2.48218,0.2663 -5.16535,-0.4498 -7.47231,0.5043 -8.8592,3.6635 -16.54548,17.4382 -12.06508,26.7409 3.39323,7.0455 13.62131,7.6857 20.43198,11.5286 6.44234,-0.7011 19.15469,-0.3264 14.47313,-15.0185 -2.42459,-7.609 -10.8349,-12.0978 -17.75251,-16.0879 -2.08717,-1.2039 -6.41993,-0.5275 -6.9977,1.8117 -2.06754,8.3709 -3.56005,18.0889 0.16131,25.8669 2.20814,4.6153 9.70074,3.2558 14.55111,4.8837 2.82313,-0.1243 5.83115,0.6396 8.46939,-0.3729 2.15651,-0.8277 6.12685,-2.78 5.00102,-4.797 -3.76317,-6.7419 -12.00364,-9.9336 -16.66073,-16.092 -1.22071,-1.6142 1.85124,-6.6112 -0.0991,-6.0706 -2.4814,0.6878 -4.71509,4.8764 -3.26213,7.0023 4.8015,7.0252 12.92905,11.0667 19.39359,16.6 3.41178,-0.2777 10.44107,-0.4901 13.61699,-2.1942 0.92096,-0.4941 2.40996,-2.3162 1.46857,-2.7702 -4.16991,-2.0112 -10.11306,0.047 -13.54844,-3.0561 -5.17308,-4.6732 -14.36219,-47.8677 20.50852,-4.099 1.53416,-0.3865 5.46166,-1.0416 6.17879,-2.8306 0.58134,-1.4502 -0.93869,-3.1479 -0.53311,-4.6567 0.32755,-1.2186 2.34331,-1.5609 2.53947,-2.8074 2.94643,-18.723 -4.07649,-12.3745 2.10341,-17.3402 0.7099,0.4614 2.13289,0.5377 2.12971,1.3844 -0.003,0.7626 -1.58946,1.3437 -2.13797,0.8139 -0.57811,-0.5582 0.59397,-1.5449 0.55005,-2.3474 -0.0999,-1.8257 -1.27233,-3.5943 -0.97393,-5.3983 3.23371,-19.549 5.03565,-0.9821 2.12584,-18.0782 -0.57771,-1.1956 -1.43322,-2.2933 -1.7331,-3.5869 -0.14401,-0.6212 1.06892,-2.0772 0.47173,-1.8538 -3.50351,1.3108 -6.30616,4.1871 -9.85655,5.3651 -4.01026,1.3305 -8.30937,2.5291 -12.50794,2.0552 -1.15176,-0.13 -0.93914,-2.6956 -0.0824,-3.4763 7.71368,-7.0279 16.55167,-12.7127 24.82752,-19.0691 -1.06963,-0.7088 -2.10498,-1.4723 -3.20892,-2.1263 -9.54051,-5.6523 1.03618,1.2868 -11.55608,12.473 -3.00066,2.6656 -15.38369,4.4804 -11.67519,2.9453 4.9615,-2.0537 11.43453,-0.9643 15.464,-4.5136 6.00893,-5.2928 8.50958,-13.5673 12.76435,-20.351 -1.21113,-2.4123 -1.70127,-5.352 -3.63342,-7.2369 -11.86786,-11.5776 -23.01986,10.9493 -29.52483,17.6735 -1.192,1.2322 -2.97357,3.032 -2.29105,4.6047 1.22904,2.832 3.87982,5.7772 6.9474,6.1245 8.21066,0.9296 16.43878,-1.6975 24.65819,-2.5463 3.12962,-8.4182 8.39179,-16.3289 9.3889,-25.2545 1.18779,-10.6324 -13.7835,-5.069 -15.45585,-3.6766 -8.90349,7.4133 -19.7436,14.4086 -23.92267,25.2144 -4.03072,10.4222 38.49391,6.9604 30.45126,14.0194 2.68079,1.902 29.57949,-36.0099 26.89871,-37.9119 z"
       transform="matrix(0.00187731,0.43466676,-0.43570539,0.00187284,-1038.5459,-1311.9002)" /><path
       style="display:inline;fill:url(#linearGradient5888);fill-opacity:1;fill-rule:evenodd;stroke:url(#linearGradient6620);stroke-width:3.13656;stroke-linecap:square;stroke-linejoin:miter;stroke-dasharray:none;stroke-opacity:1;paint-order:fill markers stroke;filter:url(#filter16001)"
       id="path547"
       d="m -404.84693,-1538.1505 c -8.07731,7.6744 -21.23818,-18.2458 -30.64486,-12.4856 -9.9463,6.0907 -17.88634,15.878 -23.0182,26.3512 -2.27991,4.6529 -0.52136,11.1875 2.59647,15.3259 1.68129,2.2317 7.03847,1.6658 8.34353,-0.8048 4.11681,-7.7935 3.81248,-17.2108 5.71875,-25.8162 2.68555,-2.5668 7.63834,-4.0092 8.05667,-7.7005 0.28173,-2.4858 -4.33054,-3.0642 -6.83191,-3.1068 -2.06235,-0.035 -4.40367,1.1302 -5.46775,2.8972 -5.32717,8.8464 -10.7928,17.9929 -13.16439,28.0435 -0.55597,2.3561 3.34697,3.5742 5.40149,4.8546 0.47953,0.2989 -0.1941,-1.1132 -0.29117,-1.6699 1.90941,-7.8119 3.81883,-15.6238 5.72823,-23.4357 1.31153,-0.5846 5.3559,-1.9575 3.93456,-1.7536 -6.04308,0.8667 -14.19934,-1.0765 -17.92462,3.7601 -1.43248,1.8598 -4.13176,27.4183 -0.38312,33.758 0.96629,1.6341 3.6997,0.8535 5.54953,1.2802 39.00639,15.0089 22.76592,-28.0436 12.7466,-27.3102 -7.57645,0.5546 -15.71173,3.4029 -20.998,8.8587 -6.53468,6.7442 -8.05876,23.2758 -2.53076,31.5112 1.51487,2.2568 4.92802,2.2949 7.39203,3.4424 -0.99954,-1.4403 1.75628,-5.2963 -0.081,-5.574 -1.91783,-0.29 -3.39278,2.1996 -4.31112,3.9081 -4.67463,8.6965 -1.62007,8.4953 1.21391,16.9697 0.78202,2.3385 1.20605,4.7819 1.80908,7.1728 4.78907,2.5094 12.25849,7.4431 3.54092,-12.7812 -0.8645,-2.0056 -4.61399,0.185 -6.3873,1.4599 -1.90408,1.3689 -3.1232,3.6615 -3.84157,5.8938 -1.70661,5.3033 2.12291,6.6241 -0.68305,5.454 47.98743,43.9967 25.68652,-2.9559 19.49506,-5.6939 -5.73863,-2.5377 -12.5643,0.4892 -18.77147,1.4073 -2.78887,0.4125 -5.4279,1.5527 -8.06043,2.5615 -1.34403,0.515 -3.36222,0.6336 -3.8295,1.9949 -0.33488,0.9756 2.06013,0.1059 3.09018,0.1589 7.10374,5.0396 14.20746,10.0791 21.3112,15.1187 -0.35869,1.4429 -0.48471,5.693 -1.07608,4.3288 -0.84185,-1.942 1.78001,-4.9367 0.20137,-6.3466 -6.71441,-5.9968 -15.17192,-9.7191 -23.05582,-14.0652 -1.31347,-0.7241 -2.96492,-0.5416 -4.37382,-1.0558 -1.20703,-0.4406 -2.27695,-1.1916 -3.4154,-1.7874 3.43326,1.3976 8.58567,0.9059 10.29978,4.1926 3.60481,6.912 3.30067,15.2856 3.91181,23.0572 0.0584,0.7428 -1.41751,1.3816 -2.02409,0.9488 -5.8774,-4.1933 -12.75869,-7.8976 -16.42938,-14.1149 -9.36863,-15.8681 6.94049,-9.1502 -0.33777,-11.8439 31.23832,14.1744 9.23491,-1.5049 19.89939,21.1103 0.56063,1.1889 2.64531,0.7979 3.91618,0.4622 3.82362,-1.0099 5.31201,-4.928 8.01589,-7.2133 2.02502,-1.7115 4.41826,-2.9323 6.62739,-4.3985 0.0665,-0.098 6.56971,-10.1351 7.90811,-10.6905 2.12545,-0.8819 4.87534,1.0747 6.90343,-0.013 1.01343,-0.5433 -0.0778,-2.3483 -0.51832,-3.4105 -0.18375,-0.4431 -0.75425,1.594 -0.31361,1.4044 2.37249,-1.0208 4.38367,-2.7325 6.5755,-4.0988 19.20738,-7.2496 -5.569,3.55 7.77325,-6.6203 0.90334,-0.6886 2.27206,0.1 3.399,0.2417 0.4333,-1.3006 -2.95593,0.7824 -2.1788,0.8852 0.829,0.1096 1.61388,-0.4386 2.42081,-0.6579 0.76933,-1.0193 1.53868,-2.0385 2.30804,-3.0577 1.64724,0.1257 3.63508,1.3879 4.94173,0.3771 0.8882,-0.6872 -1.36697,-2.1059 -2.47555,-2.285 -4.26037,-0.6884 -8.6872,-0.9096 -12.94522,-0.2069 -1.03618,0.1711 1.44897,1.7815 2.48823,1.9327 3.69194,0.5373 7.46154,0.039 11.19232,0.058 -0.72792,-0.7851 7.6613,1.8932 5.7463,2.8411 -8.39801,4.1573 -6.9098,-0.8301 -8.59181,-5.2198 -1.68601,-4.4002 -1.78023,-10.1591 -5.53321,-13.0085 -1.96421,-1.4914 -1.57858,4.673 -2.36789,7.0095 1.0958,2.574 1.8958,5.2952 3.28737,7.7221 1.14173,1.9912 2.73103,3.6968 4.24791,5.4194 0.63397,0.72 2.19917,2.8387 2.1793,1.8796 -0.0873,-4.2086 -0.66024,-8.5646 -2.39745,-12.3989 -0.6496,-1.4339 -2.88753,-3.0316 -4.19901,-2.161 -1.65394,1.098 -0.86707,3.8746 -1.30061,5.8119 1.01152,10.2668 -0.14,8.5264 5.77741,18.6936 0.37513,0.6446 2.28576,1.8976 1.79353,1.3374 -2.13709,-2.4322 -4.52805,-4.6295 -6.75291,-6.9816 -0.80123,-0.8471 -1.27926,-2.0966 -2.32386,-2.6146 -0.85423,-0.4236 -1.90677,0.029 -2.86014,0.044 -4.53224,10.5816 0.36737,-2.9902 -0.80032,13.6022 -0.15541,2.2081 -1.72725,8.41 -2.23139,6.2546 -0.83962,-3.5895 2.11535,-7.4526 1.12089,-11.0023 -0.36666,-1.3088 -2.76043,0.132 -4.03096,0.6149 -1.74008,0.6613 -3.23588,1.8412 -4.85381,2.7619 -1.02285,0.299 -3.48363,-0.085 -3.06855,0.8969 0.49426,1.1688 3.90149,-0.562 3.74263,0.6971 -0.19576,1.5514 -6.19543,10.1989 -8.70902,11.5823 -3.45416,1.901 0.72652,-4.4298 -1.81314,-0.073 -0.4268,-0.4907 -0.91559,-2.0105 -1.28045,-1.4721 -0.59087,0.8719 -0.904,3.0092 0.13885,3.1566 5.33538,0.754 10.85009,-1.8683 16.14247,-0.8557 2.0501,0.3922 3.95811,6.8116 4.10403,4.7294 0.16023,-2.2863 -2.03832,-4.4537 -4.04585,-5.5595 -4.6133,-2.5412 -10.00641,-3.2913 -15.00962,-4.9369 -1.93464,1.7392 -4.34377,3.0646 -5.80388,5.2176 -11.94855,17.6195 5.88865,6.9034 18.86498,-0.032 0.0842,-0.045 -3.51348,-4.3913 -3.88713,-4.8583 -2.56317,2.56 -1.27182,1.0045 2.54929,9.1481 0.25699,0.5476 0.16497,-1.1987 0.24744,-1.798 0.83598,-1.9491 -26.72887,-13.7716 -27.56485,-11.8225 v 0 c -0.49797,1.8896 -1.25973,3.7289 -1.49394,5.669 -1.55636,12.8931 -1.81388,10.1159 0.15978,17.9776 1.6541,0.6632 3.40963,1.1149 4.96226,1.9897 1.44341,0.8132 2.61123,2.0402 3.942,3.027 0.21016,0.1559 0.42799,0.4791 0.67665,0.3977 7.7742,-2.5432 14.95626,-7.9672 23.13291,-8.1865 4.24392,-0.1139 -5.54519,11.9211 -7.12967,10.5538 -4.33157,-0.9701 -9.12654,-0.733 -12.99475,-2.9103 -1.57408,-0.886 -3.20728,-5.6445 -1.45131,-5.221 2.57225,0.6204 2.5583,5.3059 5.08328,6.097 5.71201,1.7896 11.94871,0.7409 17.92306,1.1113 -0.3665,-0.6728 -1.85955,-1.9222 -1.09948,-2.0183 2.34048,-0.296 4.64076,0.8514 6.96113,1.277 0.76394,-1.8045 1.50136,-3.6206 2.29177,-5.4137 0.96303,-2.1848 2.5613,-4.1662 2.96812,-6.5189 0.13592,-0.7862 -1.52109,0.6353 -2.05351,1.2294 -1.58324,1.7668 -4.76522,3.4435 -4.19822,5.7471 0.92297,3.7499 10.90422,-5.5642 11.54748,-0.9358 0.93297,-2.0997 1.86594,-4.1994 2.79894,-6.299 1.33546,-1.5364 3.15167,-2.7617 4.00638,-4.6092 1.94886,-4.2128 1.34458,-9.6452 4.2591,-13.2579 1.10186,-1.3659 2.67825,2.6624 2.8825,4.4054 0.14441,1.2324 -2.74142,2.1469 -1.99826,3.1405 0.70442,0.9419 2.08798,-1.0831 3.13198,-1.6247 5.90997,-5.8927 8.5684,-6.5329 8.26042,-16.7263 -0.15478,-5.1221 -1.64645,-10.1704 -3.34584,-15.0049 -0.24942,-0.7096 -2.17194,-1.4076 -2.15903,-0.6556 0.32563,18.9645 3.91946,1.5181 1.44627,11.8085 0.75271,-0.4988 2.07034,-0.6131 2.25816,-1.4964 0.73147,-3.4395 -1.61271,-22.4236 -1.68571,-22.7097 -0.28141,-1.1031 -3.58836,-0.9485 -3.41056,0.1759 0.21537,1.3622 1.2023,2.4824 1.80346,3.7235 -0.71089,1.4772 -1.32279,5.8569 -2.13265,4.4316 -2.86197,-5.0371 -2.25626,-11.5061 -4.83473,-16.6939 -0.73629,-1.4814 -2.88859,-1.7213 -4.50125,-2.0901 -4.34245,-0.9929 -9.61023,-2.1115 -14.18641,-0.8246 -0.53758,0.1512 -0.96459,0.5629 -1.4469,0.8444 3.50332,0.3355 7.04382,0.3967 10.50994,1.0064 0.54663,0.096 1.83319,1.0687 1.27818,1.067 -5.6414,-0.017 -11.24882,-0.942 -16.88767,-1.1129 -1.05942,-0.032 -2.35643,-0.2087 -3.13928,0.5059 -0.75777,0.6917 2.68332,1.7186 1.22494,2.8237 -0.41783,-1.0223 -0.14909,-3.0809 -1.25346,-3.0671 -1.41021,0.017 -1.55678,2.5779 -2.85938,3.1184 -7.67601,3.1855 -1.54559,-3.4687 -9.18824,0.6248 -1.32522,0.7098 -1.71101,2.5696 -2.96561,3.3979 -0.89199,0.5889 -2.09537,0.4233 -3.14304,0.6349 3.77061,2.4321 -1.4097,-1.1429 -7.13308,0.037 -9.14453,1.8851 -9.28005,5.5754 -14.97201,12.0651 -6.72113,7.6629 -5.24049,2.4373 -5.91812,10.4531 -0.79473,-0.057 -1.58946,-0.115 -2.38421,-0.1724 -0.34309,0.1359 -0.66231,0.3685 -1.02926,0.4078 -2.48218,0.2663 -5.16535,-0.4498 -7.47231,0.5043 -8.8592,3.6635 -16.54548,17.4382 -12.06508,26.7409 3.39323,7.0455 13.62131,7.6857 20.43198,11.5286 6.44234,-0.7011 19.15469,-0.3264 14.47313,-15.0185 -2.42459,-7.609 -10.8349,-12.0978 -17.75251,-16.0879 -2.08717,-1.2039 -6.41993,-0.5275 -6.9977,1.8117 -2.06754,8.3709 -3.56005,18.0889 0.16131,25.8669 2.20814,4.6153 9.70074,3.2558 14.55111,4.8837 2.82313,-0.1243 5.83115,0.6396 8.46939,-0.3729 2.15651,-0.8277 6.12685,-2.78 5.00102,-4.797 -3.76317,-6.7419 -12.00364,-9.9336 -16.66073,-16.092 -1.22071,-1.6142 1.85124,-6.6112 -0.0991,-6.0706 -2.4814,0.6878 -4.71509,4.8764 -3.26213,7.0023 4.8015,7.0252 12.92905,11.0667 19.39359,16.6 3.41178,-0.2777 10.44107,-0.4901 13.61699,-2.1942 0.92096,-0.4941 2.40996,-2.3162 1.46857,-2.7702 -4.16991,-2.0112 -10.11306,0.047 -13.54844,-3.0561 -5.17308,-4.6732 -14.36219,-47.8677 20.50852,-4.099 1.53416,-0.3865 5.46166,-1.0416 6.17879,-2.8306 0.58134,-1.4502 -0.93869,-3.1479 -0.53311,-4.6567 0.32755,-1.2186 2.34331,-1.5609 2.53947,-2.8074 2.94643,-18.723 -4.07649,-12.3745 2.10341,-17.3402 0.7099,0.4614 2.13289,0.5377 2.12971,1.3844 -0.003,0.7626 -1.58946,1.3437 -2.13797,0.8139 -0.57811,-0.5582 0.59397,-1.5449 0.55005,-2.3474 -0.0999,-1.8257 -1.27233,-3.5943 -0.97393,-5.3983 3.23371,-19.549 5.03565,-0.9821 2.12584,-18.0782 -0.57771,-1.1956 -1.43322,-2.2933 -1.7331,-3.5869 -0.14401,-0.6212 1.06892,-2.0772 0.47173,-1.8538 -3.50351,1.3108 -6.30616,4.1871 -9.85655,5.3651 -4.01026,1.3305 -8.30937,2.5291 -12.50794,2.0552 -1.15176,-0.13 -0.93914,-2.6956 -0.0824,-3.4763 7.71368,-7.0279 16.55167,-12.7127 24.82752,-19.0691 -1.06963,-0.7088 -2.10498,-1.4723 -3.20892,-2.1263 -9.54051,-5.6523 1.03618,1.2868 -11.55608,12.473 -3.00066,2.6656 -15.38369,4.4804 -11.67519,2.9453 4.9615,-2.0537 11.43453,-0.9643 15.464,-4.5136 6.00893,-5.2928 8.50958,-13.5673 12.76435,-20.351 -1.21113,-2.4123 -1.70127,-5.352 -3.63342,-7.2369 -11.86786,-11.5776 -23.01986,10.9493 -29.52483,17.6735 -1.192,1.2322 -2.97357,3.032 -2.29105,4.6047 1.22904,2.832 3.87982,5.7772 6.9474,6.1245 8.21066,0.9296 16.43878,-1.6975 24.65819,-2.5463 3.12962,-8.4182 8.39179,-16.3289 9.3889,-25.2545 1.18779,-10.6324 -13.7835,-5.069 -15.45585,-3.6766 -8.90349,7.4133 -19.7436,14.4086 -23.92267,25.2144 -4.03072,10.4222 38.49391,6.9604 30.45126,14.0194 2.68079,1.902 29.57949,-36.0099 26.89871,-37.9119 z"
       transform="matrix(0.00187731,0.43466676,-0.43570539,0.00187284,-1031.2112,-1342.4311)" /><path
       style="display:inline;fill:url(#linearGradient5888);fill-opacity:1;fill-rule:evenodd;stroke:url(#linearGradient6620);stroke-width:3.13656;stroke-linecap:square;stroke-linejoin:miter;stroke-dasharray:none;stroke-opacity:1;paint-order:fill markers stroke;filter:url(#filter16001)"
       id="path549"
       d="m -404.84693,-1538.1505 c -8.07731,7.6744 -21.23818,-18.2458 -30.64486,-12.4856 -9.9463,6.0907 -17.88634,15.878 -23.0182,26.3512 -2.27991,4.6529 -0.52136,11.1875 2.59647,15.3259 1.68129,2.2317 7.03847,1.6658 8.34353,-0.8048 4.11681,-7.7935 3.81248,-17.2108 5.71875,-25.8162 2.68555,-2.5668 7.63834,-4.0092 8.05667,-7.7005 0.28173,-2.4858 -4.33054,-3.0642 -6.83191,-3.1068 -2.06235,-0.035 -4.40367,1.1302 -5.46775,2.8972 -5.32717,8.8464 -10.7928,17.9929 -13.16439,28.0435 -0.55597,2.3561 3.34697,3.5742 5.40149,4.8546 0.47953,0.2989 -0.1941,-1.1132 -0.29117,-1.6699 1.90941,-7.8119 3.81883,-15.6238 5.72823,-23.4357 1.31153,-0.5846 5.3559,-1.9575 3.93456,-1.7536 -6.04308,0.8667 -14.19934,-1.0765 -17.92462,3.7601 -1.43248,1.8598 -4.13176,27.4183 -0.38312,33.758 0.96629,1.6341 3.6997,0.8535 5.54953,1.2802 39.00639,15.0089 22.76592,-28.0436 12.7466,-27.3102 -7.57645,0.5546 -15.71173,3.4029 -20.998,8.8587 -6.53468,6.7442 -8.05876,23.2758 -2.53076,31.5112 1.51487,2.2568 4.92802,2.2949 7.39203,3.4424 -0.99954,-1.4403 1.75628,-5.2963 -0.081,-5.574 -1.91783,-0.29 -3.39278,2.1996 -4.31112,3.9081 -4.67463,8.6965 -1.62007,8.4953 1.21391,16.9697 0.78202,2.3385 1.20605,4.7819 1.80908,7.1728 4.78907,2.5094 12.25849,7.4431 3.54092,-12.7812 -0.8645,-2.0056 -4.61399,0.185 -6.3873,1.4599 -1.90408,1.3689 -3.1232,3.6615 -3.84157,5.8938 -1.70661,5.3033 2.12291,6.6241 -0.68305,5.454 47.98743,43.9967 25.68652,-2.9559 19.49506,-5.6939 -5.73863,-2.5377 -12.5643,0.4892 -18.77147,1.4073 -2.78887,0.4125 -5.4279,1.5527 -8.06043,2.5615 -1.34403,0.515 -3.36222,0.6336 -3.8295,1.9949 -0.33488,0.9756 2.06013,0.1059 3.09018,0.1589 7.10374,5.0396 14.20746,10.0791 21.3112,15.1187 -0.35869,1.4429 -0.48471,5.693 -1.07608,4.3288 -0.84185,-1.942 1.78001,-4.9367 0.20137,-6.3466 -6.71441,-5.9968 -15.17192,-9.7191 -23.05582,-14.0652 -1.31347,-0.7241 -2.96492,-0.5416 -4.37382,-1.0558 -1.20703,-0.4406 -2.27695,-1.1916 -3.4154,-1.7874 3.43326,1.3976 8.58567,0.9059 10.29978,4.1926 3.60481,6.912 3.30067,15.2856 3.91181,23.0572 0.0584,0.7428 -1.41751,1.3816 -2.02409,0.9488 -5.8774,-4.1933 -12.75869,-7.8976 -16.42938,-14.1149 -9.36863,-15.8681 6.94049,-9.1502 -0.33777,-11.8439 31.23832,14.1744 9.23491,-1.5049 19.89939,21.1103 0.56063,1.1889 2.64531,0.7979 3.91618,0.4622 3.82362,-1.0099 5.31201,-4.928 8.01589,-7.2133 2.02502,-1.7115 4.41826,-2.9323 6.62739,-4.3985 0.0665,-0.098 6.56971,-10.1351 7.90811,-10.6905 2.12545,-0.8819 4.87534,1.0747 6.90343,-0.013 1.01343,-0.5433 -0.0778,-2.3483 -0.51832,-3.4105 -0.18375,-0.4431 -0.75425,1.594 -0.31361,1.4044 2.37249,-1.0208 4.38367,-2.7325 6.5755,-4.0988 19.20738,-7.2496 -5.569,3.55 7.77325,-6.6203 0.90334,-0.6886 2.27206,0.1 3.399,0.2417 0.4333,-1.3006 -2.95593,0.7824 -2.1788,0.8852 0.829,0.1096 1.61388,-0.4386 2.42081,-0.6579 0.76933,-1.0193 1.53868,-2.0385 2.30804,-3.0577 1.64724,0.1257 3.63508,1.3879 4.94173,0.3771 0.8882,-0.6872 -1.36697,-2.1059 -2.47555,-2.285 -4.26037,-0.6884 -8.6872,-0.9096 -12.94522,-0.2069 -1.03618,0.1711 1.44897,1.7815 2.48823,1.9327 3.69194,0.5373 7.46154,0.039 11.19232,0.058 -0.72792,-0.7851 7.6613,1.8932 5.7463,2.8411 -8.39801,4.1573 -6.9098,-0.8301 -8.59181,-5.2198 -1.68601,-4.4002 -1.78023,-10.1591 -5.53321,-13.0085 -1.96421,-1.4914 -1.57858,4.673 -2.36789,7.0095 1.0958,2.574 1.8958,5.2952 3.28737,7.7221 1.14173,1.9912 2.73103,3.6968 4.24791,5.4194 0.63397,0.72 2.19917,2.8387 2.1793,1.8796 -0.0873,-4.2086 -0.66024,-8.5646 -2.39745,-12.3989 -0.6496,-1.4339 -2.88753,-3.0316 -4.19901,-2.161 -1.65394,1.098 -0.86707,3.8746 -1.30061,5.8119 1.01152,10.2668 -0.14,8.5264 5.77741,18.6936 0.37513,0.6446 2.28576,1.8976 1.79353,1.3374 -2.13709,-2.4322 -4.52805,-4.6295 -6.75291,-6.9816 -0.80123,-0.8471 -1.27926,-2.0966 -2.32386,-2.6146 -0.85423,-0.4236 -1.90677,0.029 -2.86014,0.044 -4.53224,10.5816 0.36737,-2.9902 -0.80032,13.6022 -0.15541,2.2081 -1.72725,8.41 -2.23139,6.2546 -0.83962,-3.5895 2.11535,-7.4526 1.12089,-11.0023 -0.36666,-1.3088 -2.76043,0.132 -4.03096,0.6149 -1.74008,0.6613 -3.23588,1.8412 -4.85381,2.7619 -1.02285,0.299 -3.48363,-0.085 -3.06855,0.8969 0.49426,1.1688 3.90149,-0.562 3.74263,0.6971 -0.19576,1.5514 -6.19543,10.1989 -8.70902,11.5823 -3.45416,1.901 0.72652,-4.4298 -1.81314,-0.073 -0.4268,-0.4907 -0.91559,-2.0105 -1.28045,-1.4721 -0.59087,0.8719 -0.904,3.0092 0.13885,3.1566 5.33538,0.754 10.85009,-1.8683 16.14247,-0.8557 2.0501,0.3922 3.95811,6.8116 4.10403,4.7294 0.16023,-2.2863 -2.03832,-4.4537 -4.04585,-5.5595 -4.6133,-2.5412 -10.00641,-3.2913 -15.00962,-4.9369 -1.93464,1.7392 -4.34377,3.0646 -5.80388,5.2176 -11.94855,17.6195 5.88865,6.9034 18.86498,-0.032 0.0842,-0.045 -3.51348,-4.3913 -3.88713,-4.8583 -2.56317,2.56 -1.27182,1.0045 2.54929,9.1481 0.25699,0.5476 0.16497,-1.1987 0.24744,-1.798 0.83598,-1.9491 -26.72887,-13.7716 -27.56485,-11.8225 v 0 c -0.49797,1.8896 -1.25973,3.7289 -1.49394,5.669 -1.55636,12.8931 -1.81388,10.1159 0.15978,17.9776 1.6541,0.6632 3.40963,1.1149 4.96226,1.9897 1.44341,0.8132 2.61123,2.0402 3.942,3.027 0.21016,0.1559 0.42799,0.4791 0.67665,0.3977 7.7742,-2.5432 14.95626,-7.9672 23.13291,-8.1865 4.24392,-0.1139 -5.54519,11.9211 -7.12967,10.5538 -4.33157,-0.9701 -9.12654,-0.733 -12.99475,-2.9103 -1.57408,-0.886 -3.20728,-5.6445 -1.45131,-5.221 2.57225,0.6204 2.5583,5.3059 5.08328,6.097 5.71201,1.7896 11.94871,0.7409 17.92306,1.1113 -0.3665,-0.6728 -1.85955,-1.9222 -1.09948,-2.0183 2.34048,-0.296 4.64076,0.8514 6.96113,1.277 0.76394,-1.8045 1.50136,-3.6206 2.29177,-5.4137 0.96303,-2.1848 2.5613,-4.1662 2.96812,-6.5189 0.13592,-0.7862 -1.52109,0.6353 -2.05351,1.2294 -1.58324,1.7668 -4.76522,3.4435 -4.19822,5.7471 0.92297,3.7499 10.90422,-5.5642 11.54748,-0.9358 0.93297,-2.0997 1.86594,-4.1994 2.79894,-6.299 1.33546,-1.5364 3.15167,-2.7617 4.00638,-4.6092 1.94886,-4.2128 1.34458,-9.6452 4.2591,-13.2579 1.10186,-1.3659 2.67825,2.6624 2.8825,4.4054 0.14441,1.2324 -2.74142,2.1469 -1.99826,3.1405 0.70442,0.9419 2.08798,-1.0831 3.13198,-1.6247 5.90997,-5.8927 8.5684,-6.5329 8.26042,-16.7263 -0.15478,-5.1221 -1.64645,-10.1704 -3.34584,-15.0049 -0.24942,-0.7096 -2.17194,-1.4076 -2.15903,-0.6556 0.32563,18.9645 3.91946,1.5181 1.44627,11.8085 0.75271,-0.4988 2.07034,-0.6131 2.25816,-1.4964 0.73147,-3.4395 -1.61271,-22.4236 -1.68571,-22.7097 -0.28141,-1.1031 -3.58836,-0.9485 -3.41056,0.1759 0.21537,1.3622 1.2023,2.4824 1.80346,3.7235 -0.71089,1.4772 -1.32279,5.8569 -2.13265,4.4316 -2.86197,-5.0371 -2.25626,-11.5061 -4.83473,-16.6939 -0.73629,-1.4814 -2.88859,-1.7213 -4.50125,-2.0901 -4.34245,-0.9929 -9.61023,-2.1115 -14.18641,-0.8246 -0.53758,0.1512 -0.96459,0.5629 -1.4469,0.8444 3.50332,0.3355 7.04382,0.3967 10.50994,1.0064 0.54663,0.096 1.83319,1.0687 1.27818,1.067 -5.6414,-0.017 -11.24882,-0.942 -16.88767,-1.1129 -1.05942,-0.032 -2.35643,-0.2087 -3.13928,0.5059 -0.75777,0.6917 2.68332,1.7186 1.22494,2.8237 -0.41783,-1.0223 -0.14909,-3.0809 -1.25346,-3.0671 -1.41021,0.017 -1.55678,2.5779 -2.85938,3.1184 -7.67601,3.1855 -1.54559,-3.4687 -9.18824,0.6248 -1.32522,0.7098 -1.71101,2.5696 -2.96561,3.3979 -0.89199,0.5889 -2.09537,0.4233 -3.14304,0.6349 3.77061,2.4321 -1.4097,-1.1429 -7.13308,0.037 -9.14453,1.8851 -9.28005,5.5754 -14.97201,12.0651 -6.72113,7.6629 -5.24049,2.4373 -5.91812,10.4531 -0.79473,-0.057 -1.58946,-0.115 -2.38421,-0.1724 -0.34309,0.1359 -0.66231,0.3685 -1.02926,0.4078 -2.48218,0.2663 -5.16535,-0.4498 -7.47231,0.5043 -8.8592,3.6635 -16.54548,17.4382 -12.06508,26.7409 3.39323,7.0455 13.62131,7.6857 20.43198,11.5286 6.44234,-0.7011 19.15469,-0.3264 14.47313,-15.0185 -2.42459,-7.609 -10.8349,-12.0978 -17.75251,-16.0879 -2.08717,-1.2039 -6.41993,-0.5275 -6.9977,1.8117 -2.06754,8.3709 -3.56005,18.0889 0.16131,25.8669 2.20814,4.6153 9.70074,3.2558 14.55111,4.8837 2.82313,-0.1243 5.83115,0.6396 8.46939,-0.3729 2.15651,-0.8277 6.12685,-2.78 5.00102,-4.797 -3.76317,-6.7419 -12.00364,-9.9336 -16.66073,-16.092 -1.22071,-1.6142 1.85124,-6.6112 -0.0991,-6.0706 -2.4814,0.6878 -4.71509,4.8764 -3.26213,7.0023 4.8015,7.0252 12.92905,11.0667 19.39359,16.6 3.41178,-0.2777 10.44107,-0.4901 13.61699,-2.1942 0.92096,-0.4941 2.40996,-2.3162 1.46857,-2.7702 -4.16991,-2.0112 -10.11306,0.047 -13.54844,-3.0561 -5.17308,-4.6732 -14.36219,-47.8677 20.50852,-4.099 1.53416,-0.3865 5.46166,-1.0416 6.17879,-2.8306 0.58134,-1.4502 -0.93869,-3.1479 -0.53311,-4.6567 0.32755,-1.2186 2.34331,-1.5609 2.53947,-2.8074 2.94643,-18.723 -4.07649,-12.3745 2.10341,-17.3402 0.7099,0.4614 2.13289,0.5377 2.12971,1.3844 -0.003,0.7626 -1.58946,1.3437 -2.13797,0.8139 -0.57811,-0.5582 0.59397,-1.5449 0.55005,-2.3474 -0.0999,-1.8257 -1.27233,-3.5943 -0.97393,-5.3983 3.23371,-19.549 5.03565,-0.9821 2.12584,-18.0782 -0.57771,-1.1956 -1.43322,-2.2933 -1.7331,-3.5869 -0.14401,-0.6212 1.06892,-2.0772 0.47173,-1.8538 -3.50351,1.3108 -6.30616,4.1871 -9.85655,5.3651 -4.01026,1.3305 -8.30937,2.5291 -12.50794,2.0552 -1.15176,-0.13 -0.93914,-2.6956 -0.0824,-3.4763 7.71368,-7.0279 16.55167,-12.7127 24.82752,-19.0691 -1.06963,-0.7088 -2.10498,-1.4723 -3.20892,-2.1263 -9.54051,-5.6523 1.03618,1.2868 -11.55608,12.473 -3.00066,2.6656 -15.38369,4.4804 -11.67519,2.9453 4.9615,-2.0537 11.43453,-0.9643 15.464,-4.5136 6.00893,-5.2928 8.50958,-13.5673 12.76435,-20.351 -1.21113,-2.4123 -1.70127,-5.352 -3.63342,-7.2369 -11.86786,-11.5776 -23.01986,10.9493 -29.52483,17.6735 -1.192,1.2322 -2.97357,3.032 -2.29105,4.6047 1.22904,2.832 3.87982,5.7772 6.9474,6.1245 8.21066,0.9296 16.43878,-1.6975 24.65819,-2.5463 3.12962,-8.4182 8.39179,-16.3289 9.3889,-25.2545 1.18779,-10.6324 -13.7835,-5.069 -15.45585,-3.6766 -8.90349,7.4133 -19.7436,14.4086 -23.92267,25.2144 -4.03072,10.4222 38.49391,6.9604 30.45126,14.0194 2.68079,1.902 29.57949,-36.0099 26.89871,-37.9119 z"
       transform="matrix(0.00187731,0.43466676,-0.43570539,0.00187284,-979.17318,-1354.6894)" /><path
       style="display:inline;fill:url(#linearGradient5888);fill-opacity:1;fill-rule:evenodd;stroke:url(#linearGradient6620);stroke-width:3.13656;stroke-linecap:square;stroke-linejoin:miter;stroke-dasharray:none;stroke-opacity:1;paint-order:fill markers stroke;filter:url(#filter16001)"
       id="path551"
       d="m -404.84693,-1538.1505 c -8.07731,7.6744 -21.23818,-18.2458 -30.64486,-12.4856 -9.9463,6.0907 -17.88634,15.878 -23.0182,26.3512 -2.27991,4.6529 -0.52136,11.1875 2.59647,15.3259 1.68129,2.2317 7.03847,1.6658 8.34353,-0.8048 4.11681,-7.7935 3.81248,-17.2108 5.71875,-25.8162 2.68555,-2.5668 7.63834,-4.0092 8.05667,-7.7005 0.28173,-2.4858 -4.33054,-3.0642 -6.83191,-3.1068 -2.06235,-0.035 -4.40367,1.1302 -5.46775,2.8972 -5.32717,8.8464 -10.7928,17.9929 -13.16439,28.0435 -0.55597,2.3561 3.34697,3.5742 5.40149,4.8546 0.47953,0.2989 -0.1941,-1.1132 -0.29117,-1.6699 1.90941,-7.8119 3.81883,-15.6238 5.72823,-23.4357 1.31153,-0.5846 5.3559,-1.9575 3.93456,-1.7536 -6.04308,0.8667 -14.19934,-1.0765 -17.92462,3.7601 -1.43248,1.8598 -4.13176,27.4183 -0.38312,33.758 0.96629,1.6341 3.6997,0.8535 5.54953,1.2802 39.00639,15.0089 22.76592,-28.0436 12.7466,-27.3102 -7.57645,0.5546 -15.71173,3.4029 -20.998,8.8587 -6.53468,6.7442 -8.05876,23.2758 -2.53076,31.5112 1.51487,2.2568 4.92802,2.2949 7.39203,3.4424 -0.99954,-1.4403 1.75628,-5.2963 -0.081,-5.574 -1.91783,-0.29 -3.39278,2.1996 -4.31112,3.9081 -4.67463,8.6965 -1.62007,8.4953 1.21391,16.9697 0.78202,2.3385 1.20605,4.7819 1.80908,7.1728 4.78907,2.5094 12.25849,7.4431 3.54092,-12.7812 -0.8645,-2.0056 -4.61399,0.185 -6.3873,1.4599 -1.90408,1.3689 -3.1232,3.6615 -3.84157,5.8938 -1.70661,5.3033 2.12291,6.6241 -0.68305,5.454 47.98743,43.9967 25.68652,-2.9559 19.49506,-5.6939 -5.73863,-2.5377 -12.5643,0.4892 -18.77147,1.4073 -2.78887,0.4125 -5.4279,1.5527 -8.06043,2.5615 -1.34403,0.515 -3.36222,0.6336 -3.8295,1.9949 -0.33488,0.9756 2.06013,0.1059 3.09018,0.1589 7.10374,5.0396 14.20746,10.0791 21.3112,15.1187 -0.35869,1.4429 -0.48471,5.693 -1.07608,4.3288 -0.84185,-1.942 1.78001,-4.9367 0.20137,-6.3466 -6.71441,-5.9968 -15.17192,-9.7191 -23.05582,-14.0652 -1.31347,-0.7241 -2.96492,-0.5416 -4.37382,-1.0558 -1.20703,-0.4406 -2.27695,-1.1916 -3.4154,-1.7874 3.43326,1.3976 8.58567,0.9059 10.29978,4.1926 3.60481,6.912 3.30067,15.2856 3.91181,23.0572 0.0584,0.7428 -1.41751,1.3816 -2.02409,0.9488 -5.8774,-4.1933 -12.75869,-7.8976 -16.42938,-14.1149 -9.36863,-15.8681 6.94049,-9.1502 -0.33777,-11.8439 31.23832,14.1744 9.23491,-1.5049 19.89939,21.1103 0.56063,1.1889 2.64531,0.7979 3.91618,0.4622 3.82362,-1.0099 5.31201,-4.928 8.01589,-7.2133 2.02502,-1.7115 4.41826,-2.9323 6.62739,-4.3985 0.0665,-0.098 6.56971,-10.1351 7.90811,-10.6905 2.12545,-0.8819 4.87534,1.0747 6.90343,-0.013 1.01343,-0.5433 -0.0778,-2.3483 -0.51832,-3.4105 -0.18375,-0.4431 -0.75425,1.594 -0.31361,1.4044 2.37249,-1.0208 4.38367,-2.7325 6.5755,-4.0988 19.20738,-7.2496 -5.569,3.55 7.77325,-6.6203 0.90334,-0.6886 2.27206,0.1 3.399,0.2417 0.4333,-1.3006 -2.95593,0.7824 -2.1788,0.8852 0.829,0.1096 1.61388,-0.4386 2.42081,-0.6579 0.76933,-1.0193 1.53868,-2.0385 2.30804,-3.0577 1.64724,0.1257 3.63508,1.3879 4.94173,0.3771 0.8882,-0.6872 -1.36697,-2.1059 -2.47555,-2.285 -4.26037,-0.6884 -8.6872,-0.9096 -12.94522,-0.2069 -1.03618,0.1711 1.44897,1.7815 2.48823,1.9327 3.69194,0.5373 7.46154,0.039 11.19232,0.058 -0.72792,-0.7851 7.6613,1.8932 5.7463,2.8411 -8.39801,4.1573 -6.9098,-0.8301 -8.59181,-5.2198 -1.68601,-4.4002 -1.78023,-10.1591 -5.53321,-13.0085 -1.96421,-1.4914 -1.57858,4.673 -2.36789,7.0095 1.0958,2.574 1.8958,5.2952 3.28737,7.7221 1.14173,1.9912 2.73103,3.6968 4.24791,5.4194 0.63397,0.72 2.19917,2.8387 2.1793,1.8796 -0.0873,-4.2086 -0.66024,-8.5646 -2.39745,-12.3989 -0.6496,-1.4339 -2.88753,-3.0316 -4.19901,-2.161 -1.65394,1.098 -0.86707,3.8746 -1.30061,5.8119 1.01152,10.2668 -0.14,8.5264 5.77741,18.6936 0.37513,0.6446 2.28576,1.8976 1.79353,1.3374 -2.13709,-2.4322 -4.52805,-4.6295 -6.75291,-6.9816 -0.80123,-0.8471 -1.27926,-2.0966 -2.32386,-2.6146 -0.85423,-0.4236 -1.90677,0.029 -2.86014,0.044 -4.53224,10.5816 0.36737,-2.9902 -0.80032,13.6022 -0.15541,2.2081 -1.72725,8.41 -2.23139,6.2546 -0.83962,-3.5895 2.11535,-7.4526 1.12089,-11.0023 -0.36666,-1.3088 -2.76043,0.132 -4.03096,0.6149 -1.74008,0.6613 -3.23588,1.8412 -4.85381,2.7619 -1.02285,0.299 -3.48363,-0.085 -3.06855,0.8969 0.49426,1.1688 3.90149,-0.562 3.74263,0.6971 -0.19576,1.5514 -6.19543,10.1989 -8.70902,11.5823 -3.45416,1.901 0.72652,-4.4298 -1.81314,-0.073 -0.4268,-0.4907 -0.91559,-2.0105 -1.28045,-1.4721 -0.59087,0.8719 -0.904,3.0092 0.13885,3.1566 5.33538,0.754 10.85009,-1.8683 16.14247,-0.8557 2.0501,0.3922 3.95811,6.8116 4.10403,4.7294 0.16023,-2.2863 -2.03832,-4.4537 -4.04585,-5.5595 -4.6133,-2.5412 -10.00641,-3.2913 -15.00962,-4.9369 -1.93464,1.7392 -4.34377,3.0646 -5.80388,5.2176 -11.94855,17.6195 5.88865,6.9034 18.86498,-0.032 0.0842,-0.045 -3.51348,-4.3913 -3.88713,-4.8583 -2.56317,2.56 -1.27182,1.0045 2.54929,9.1481 0.25699,0.5476 0.16497,-1.1987 0.24744,-1.798 0.83598,-1.9491 -26.72887,-13.7716 -27.56485,-11.8225 v 0 c -0.49797,1.8896 -1.25973,3.7289 -1.49394,5.669 -1.55636,12.8931 -1.81388,10.1159 0.15978,17.9776 1.6541,0.6632 3.40963,1.1149 4.96226,1.9897 1.44341,0.8132 2.61123,2.0402 3.942,3.027 0.21016,0.1559 0.42799,0.4791 0.67665,0.3977 7.7742,-2.5432 14.95626,-7.9672 23.13291,-8.1865 4.24392,-0.1139 -5.54519,11.9211 -7.12967,10.5538 -4.33157,-0.9701 -9.12654,-0.733 -12.99475,-2.9103 -1.57408,-0.886 -3.20728,-5.6445 -1.45131,-5.221 2.57225,0.6204 2.5583,5.3059 5.08328,6.097 5.71201,1.7896 11.94871,0.7409 17.92306,1.1113 -0.3665,-0.6728 -1.85955,-1.9222 -1.09948,-2.0183 2.34048,-0.296 4.64076,0.8514 6.96113,1.277 0.76394,-1.8045 1.50136,-3.6206 2.29177,-5.4137 0.96303,-2.1848 2.5613,-4.1662 2.96812,-6.5189 0.13592,-0.7862 -1.52109,0.6353 -2.05351,1.2294 -1.58324,1.7668 -4.76522,3.4435 -4.19822,5.7471 0.92297,3.7499 10.90422,-5.5642 11.54748,-0.9358 0.93297,-2.0997 1.86594,-4.1994 2.79894,-6.299 1.33546,-1.5364 3.15167,-2.7617 4.00638,-4.6092 1.94886,-4.2128 1.34458,-9.6452 4.2591,-13.2579 1.10186,-1.3659 2.67825,2.6624 2.8825,4.4054 0.14441,1.2324 -2.74142,2.1469 -1.99826,3.1405 0.70442,0.9419 2.08798,-1.0831 3.13198,-1.6247 5.90997,-5.8927 8.5684,-6.5329 8.26042,-16.7263 -0.15478,-5.1221 -1.64645,-10.1704 -3.34584,-15.0049 -0.24942,-0.7096 -2.17194,-1.4076 -2.15903,-0.6556 0.32563,18.9645 3.91946,1.5181 1.44627,11.8085 0.75271,-0.4988 2.07034,-0.6131 2.25816,-1.4964 0.73147,-3.4395 -1.61271,-22.4236 -1.68571,-22.7097 -0.28141,-1.1031 -3.58836,-0.9485 -3.41056,0.1759 0.21537,1.3622 1.2023,2.4824 1.80346,3.7235 -0.71089,1.4772 -1.32279,5.8569 -2.13265,4.4316 -2.86197,-5.0371 -2.25626,-11.5061 -4.83473,-16.6939 -0.73629,-1.4814 -2.88859,-1.7213 -4.50125,-2.0901 -4.34245,-0.9929 -9.61023,-2.1115 -14.18641,-0.8246 -0.53758,0.1512 -0.96459,0.5629 -1.4469,0.8444 3.50332,0.3355 7.04382,0.3967 10.50994,1.0064 0.54663,0.096 1.83319,1.0687 1.27818,1.067 -5.6414,-0.017 -11.24882,-0.942 -16.88767,-1.1129 -1.05942,-0.032 -2.35643,-0.2087 -3.13928,0.5059 -0.75777,0.6917 2.68332,1.7186 1.22494,2.8237 -0.41783,-1.0223 -0.14909,-3.0809 -1.25346,-3.0671 -1.41021,0.017 -1.55678,2.5779 -2.85938,3.1184 -7.67601,3.1855 -1.54559,-3.4687 -9.18824,0.6248 -1.32522,0.7098 -1.71101,2.5696 -2.96561,3.3979 -0.89199,0.5889 -2.09537,0.4233 -3.14304,0.6349 3.77061,2.4321 -1.4097,-1.1429 -7.13308,0.037 -9.14453,1.8851 -9.28005,5.5754 -14.97201,12.0651 -6.72113,7.6629 -5.24049,2.4373 -5.91812,10.4531 -0.79473,-0.057 -1.58946,-0.115 -2.38421,-0.1724 -0.34309,0.1359 -0.66231,0.3685 -1.02926,0.4078 -2.48218,0.2663 -5.16535,-0.4498 -7.47231,0.5043 -8.8592,3.6635 -16.54548,17.4382 -12.06508,26.7409 3.39323,7.0455 13.62131,7.6857 20.43198,11.5286 6.44234,-0.7011 19.15469,-0.3264 14.47313,-15.0185 -2.42459,-7.609 -10.8349,-12.0978 -17.75251,-16.0879 -2.08717,-1.2039 -6.41993,-0.5275 -6.9977,1.8117 -2.06754,8.3709 -3.56005,18.0889 0.16131,25.8669 2.20814,4.6153 9.70074,3.2558 14.55111,4.8837 2.82313,-0.1243 5.83115,0.6396 8.46939,-0.3729 2.15651,-0.8277 6.12685,-2.78 5.00102,-4.797 -3.76317,-6.7419 -12.00364,-9.9336 -16.66073,-16.092 -1.22071,-1.6142 1.85124,-6.6112 -0.0991,-6.0706 -2.4814,0.6878 -4.71509,4.8764 -3.26213,7.0023 4.8015,7.0252 12.92905,11.0667 19.39359,16.6 3.41178,-0.2777 10.44107,-0.4901 13.61699,-2.1942 0.92096,-0.4941 2.40996,-2.3162 1.46857,-2.7702 -4.16991,-2.0112 -10.11306,0.047 -13.54844,-3.0561 -5.17308,-4.6732 -14.36219,-47.8677 20.50852,-4.099 1.53416,-0.3865 5.46166,-1.0416 6.17879,-2.8306 0.58134,-1.4502 -0.93869,-3.1479 -0.53311,-4.6567 0.32755,-1.2186 2.34331,-1.5609 2.53947,-2.8074 2.94643,-18.723 -4.07649,-12.3745 2.10341,-17.3402 0.7099,0.4614 2.13289,0.5377 2.12971,1.3844 -0.003,0.7626 -1.58946,1.3437 -2.13797,0.8139 -0.57811,-0.5582 0.59397,-1.5449 0.55005,-2.3474 -0.0999,-1.8257 -1.27233,-3.5943 -0.97393,-5.3983 3.23371,-19.549 5.03565,-0.9821 2.12584,-18.0782 -0.57771,-1.1956 -1.43322,-2.2933 -1.7331,-3.5869 -0.14401,-0.6212 1.06892,-2.0772 0.47173,-1.8538 -3.50351,1.3108 -6.30616,4.1871 -9.85655,5.3651 -4.01026,1.3305 -8.30937,2.5291 -12.50794,2.0552 -1.15176,-0.13 -0.93914,-2.6956 -0.0824,-3.4763 7.71368,-7.0279 16.55167,-12.7127 24.82752,-19.0691 -1.06963,-0.7088 -2.10498,-1.4723 -3.20892,-2.1263 -9.54051,-5.6523 1.03618,1.2868 -11.55608,12.473 -3.00066,2.6656 -15.38369,4.4804 -11.67519,2.9453 4.9615,-2.0537 11.43453,-0.9643 15.464,-4.5136 6.00893,-5.2928 8.50958,-13.5673 12.76435,-20.351 -1.21113,-2.4123 -1.70127,-5.352 -3.63342,-7.2369 -11.86786,-11.5776 -23.01986,10.9493 -29.52483,17.6735 -1.192,1.2322 -2.97357,3.032 -2.29105,4.6047 1.22904,2.832 3.87982,5.7772 6.9474,6.1245 8.21066,0.9296 16.43878,-1.6975 24.65819,-2.5463 3.12962,-8.4182 8.39179,-16.3289 9.3889,-25.2545 1.18779,-10.6324 -13.7835,-5.069 -15.45585,-3.6766 -8.90349,7.4133 -19.7436,14.4086 -23.92267,25.2144 -4.03072,10.4222 38.49391,6.9604 30.45126,14.0194 2.68079,1.902 29.57949,-36.0099 26.89871,-37.9119 z"
       transform="matrix(0.00187731,0.43466676,-0.43570539,0.00187284,-976.31558,-1309.3694)" /><path
       style="display:inline;fill:url(#linearGradient5888);fill-opacity:1;fill-rule:evenodd;stroke:url(#linearGradient6620);stroke-width:3.13656;stroke-linecap:square;stroke-linejoin:miter;stroke-dasharray:none;stroke-opacity:1;paint-order:fill markers stroke;filter:url(#filter16001)"
       id="path553"
       d="m -404.84693,-1538.1505 c -8.07731,7.6744 -21.23818,-18.2458 -30.64486,-12.4856 -9.9463,6.0907 -17.88634,15.878 -23.0182,26.3512 -2.27991,4.6529 -0.52136,11.1875 2.59647,15.3259 1.68129,2.2317 7.03847,1.6658 8.34353,-0.8048 4.11681,-7.7935 3.81248,-17.2108 5.71875,-25.8162 2.68555,-2.5668 7.63834,-4.0092 8.05667,-7.7005 0.28173,-2.4858 -4.33054,-3.0642 -6.83191,-3.1068 -2.06235,-0.035 -4.40367,1.1302 -5.46775,2.8972 -5.32717,8.8464 -10.7928,17.9929 -13.16439,28.0435 -0.55597,2.3561 3.34697,3.5742 5.40149,4.8546 0.47953,0.2989 -0.1941,-1.1132 -0.29117,-1.6699 1.90941,-7.8119 3.81883,-15.6238 5.72823,-23.4357 1.31153,-0.5846 5.3559,-1.9575 3.93456,-1.7536 -6.04308,0.8667 -14.19934,-1.0765 -17.92462,3.7601 -1.43248,1.8598 -4.13176,27.4183 -0.38312,33.758 0.96629,1.6341 3.6997,0.8535 5.54953,1.2802 39.00639,15.0089 22.76592,-28.0436 12.7466,-27.3102 -7.57645,0.5546 -15.71173,3.4029 -20.998,8.8587 -6.53468,6.7442 -8.05876,23.2758 -2.53076,31.5112 1.51487,2.2568 4.92802,2.2949 7.39203,3.4424 -0.99954,-1.4403 1.75628,-5.2963 -0.081,-5.574 -1.91783,-0.29 -3.39278,2.1996 -4.31112,3.9081 -4.67463,8.6965 -1.62007,8.4953 1.21391,16.9697 0.78202,2.3385 1.20605,4.7819 1.80908,7.1728 4.78907,2.5094 12.25849,7.4431 3.54092,-12.7812 -0.8645,-2.0056 -4.61399,0.185 -6.3873,1.4599 -1.90408,1.3689 -3.1232,3.6615 -3.84157,5.8938 -1.70661,5.3033 2.12291,6.6241 -0.68305,5.454 47.98743,43.9967 25.68652,-2.9559 19.49506,-5.6939 -5.73863,-2.5377 -12.5643,0.4892 -18.77147,1.4073 -2.78887,0.4125 -5.4279,1.5527 -8.06043,2.5615 -1.34403,0.515 -3.36222,0.6336 -3.8295,1.9949 -0.33488,0.9756 2.06013,0.1059 3.09018,0.1589 7.10374,5.0396 14.20746,10.0791 21.3112,15.1187 -0.35869,1.4429 -0.48471,5.693 -1.07608,4.3288 -0.84185,-1.942 1.78001,-4.9367 0.20137,-6.3466 -6.71441,-5.9968 -15.17192,-9.7191 -23.05582,-14.0652 -1.31347,-0.7241 -2.96492,-0.5416 -4.37382,-1.0558 -1.20703,-0.4406 -2.27695,-1.1916 -3.4154,-1.7874 3.43326,1.3976 8.58567,0.9059 10.29978,4.1926 3.60481,6.912 3.30067,15.2856 3.91181,23.0572 0.0584,0.7428 -1.41751,1.3816 -2.02409,0.9488 -5.8774,-4.1933 -12.75869,-7.8976 -16.42938,-14.1149 -9.36863,-15.8681 6.94049,-9.1502 -0.33777,-11.8439 31.23832,14.1744 9.23491,-1.5049 19.89939,21.1103 0.56063,1.1889 2.64531,0.7979 3.91618,0.4622 3.82362,-1.0099 5.31201,-4.928 8.01589,-7.2133 2.02502,-1.7115 4.41826,-2.9323 6.62739,-4.3985 0.0665,-0.098 6.56971,-10.1351 7.90811,-10.6905 2.12545,-0.8819 4.87534,1.0747 6.90343,-0.013 1.01343,-0.5433 -0.0778,-2.3483 -0.51832,-3.4105 -0.18375,-0.4431 -0.75425,1.594 -0.31361,1.4044 2.37249,-1.0208 4.38367,-2.7325 6.5755,-4.0988 19.20738,-7.2496 -5.569,3.55 7.77325,-6.6203 0.90334,-0.6886 2.27206,0.1 3.399,0.2417 0.4333,-1.3006 -2.95593,0.7824 -2.1788,0.8852 0.829,0.1096 1.61388,-0.4386 2.42081,-0.6579 0.76933,-1.0193 1.53868,-2.0385 2.30804,-3.0577 1.64724,0.1257 3.63508,1.3879 4.94173,0.3771 0.8882,-0.6872 -1.36697,-2.1059 -2.47555,-2.285 -4.26037,-0.6884 -8.6872,-0.9096 -12.94522,-0.2069 -1.03618,0.1711 1.44897,1.7815 2.48823,1.9327 3.69194,0.5373 7.46154,0.039 11.19232,0.058 -0.72792,-0.7851 7.6613,1.8932 5.7463,2.8411 -8.39801,4.1573 -6.9098,-0.8301 -8.59181,-5.2198 -1.68601,-4.4002 -1.78023,-10.1591 -5.53321,-13.0085 -1.96421,-1.4914 -1.57858,4.673 -2.36789,7.0095 1.0958,2.574 1.8958,5.2952 3.28737,7.7221 1.14173,1.9912 2.73103,3.6968 4.24791,5.4194 0.63397,0.72 2.19917,2.8387 2.1793,1.8796 -0.0873,-4.2086 -0.66024,-8.5646 -2.39745,-12.3989 -0.6496,-1.4339 -2.88753,-3.0316 -4.19901,-2.161 -1.65394,1.098 -0.86707,3.8746 -1.30061,5.8119 1.01152,10.2668 -0.14,8.5264 5.77741,18.6936 0.37513,0.6446 2.28576,1.8976 1.79353,1.3374 -2.13709,-2.4322 -4.52805,-4.6295 -6.75291,-6.9816 -0.80123,-0.8471 -1.27926,-2.0966 -2.32386,-2.6146 -0.85423,-0.4236 -1.90677,0.029 -2.86014,0.044 -4.53224,10.5816 0.36737,-2.9902 -0.80032,13.6022 -0.15541,2.2081 -1.72725,8.41 -2.23139,6.2546 -0.83962,-3.5895 2.11535,-7.4526 1.12089,-11.0023 -0.36666,-1.3088 -2.76043,0.132 -4.03096,0.6149 -1.74008,0.6613 -3.23588,1.8412 -4.85381,2.7619 -1.02285,0.299 -3.48363,-0.085 -3.06855,0.8969 0.49426,1.1688 3.90149,-0.562 3.74263,0.6971 -0.19576,1.5514 -6.19543,10.1989 -8.70902,11.5823 -3.45416,1.901 0.72652,-4.4298 -1.81314,-0.073 -0.4268,-0.4907 -0.91559,-2.0105 -1.28045,-1.4721 -0.59087,0.8719 -0.904,3.0092 0.13885,3.1566 5.33538,0.754 10.85009,-1.8683 16.14247,-0.8557 2.0501,0.3922 3.95811,6.8116 4.10403,4.7294 0.16023,-2.2863 -2.03832,-4.4537 -4.04585,-5.5595 -4.6133,-2.5412 -10.00641,-3.2913 -15.00962,-4.9369 -1.93464,1.7392 -4.34377,3.0646 -5.80388,5.2176 -11.94855,17.6195 5.88865,6.9034 18.86498,-0.032 0.0842,-0.045 -3.51348,-4.3913 -3.88713,-4.8583 -2.56317,2.56 -1.27182,1.0045 2.54929,9.1481 0.25699,0.5476 0.16497,-1.1987 0.24744,-1.798 0.83598,-1.9491 -26.72887,-13.7716 -27.56485,-11.8225 v 0 c -0.49797,1.8896 -1.25973,3.7289 -1.49394,5.669 -1.55636,12.8931 -1.81388,10.1159 0.15978,17.9776 1.6541,0.6632 3.40963,1.1149 4.96226,1.9897 1.44341,0.8132 2.61123,2.0402 3.942,3.027 0.21016,0.1559 0.42799,0.4791 0.67665,0.3977 7.7742,-2.5432 14.95626,-7.9672 23.13291,-8.1865 4.24392,-0.1139 -5.54519,11.9211 -7.12967,10.5538 -4.33157,-0.9701 -9.12654,-0.733 -12.99475,-2.9103 -1.57408,-0.886 -3.20728,-5.6445 -1.45131,-5.221 2.57225,0.6204 2.5583,5.3059 5.08328,6.097 5.71201,1.7896 11.94871,0.7409 17.92306,1.1113 -0.3665,-0.6728 -1.85955,-1.9222 -1.09948,-2.0183 2.34048,-0.296 4.64076,0.8514 6.96113,1.277 0.76394,-1.8045 1.50136,-3.6206 2.29177,-5.4137 0.96303,-2.1848 2.5613,-4.1662 2.96812,-6.5189 0.13592,-0.7862 -1.52109,0.6353 -2.05351,1.2294 -1.58324,1.7668 -4.76522,3.4435 -4.19822,5.7471 0.92297,3.7499 10.90422,-5.5642 11.54748,-0.9358 0.93297,-2.0997 1.86594,-4.1994 2.79894,-6.299 1.33546,-1.5364 3.15167,-2.7617 4.00638,-4.6092 1.94886,-4.2128 1.34458,-9.6452 4.2591,-13.2579 1.10186,-1.3659 2.67825,2.6624 2.8825,4.4054 0.14441,1.2324 -2.74142,2.1469 -1.99826,3.1405 0.70442,0.9419 2.08798,-1.0831 3.13198,-1.6247 5.90997,-5.8927 8.5684,-6.5329 8.26042,-16.7263 -0.15478,-5.1221 -1.64645,-10.1704 -3.34584,-15.0049 -0.24942,-0.7096 -2.17194,-1.4076 -2.15903,-0.6556 0.32563,18.9645 3.91946,1.5181 1.44627,11.8085 0.75271,-0.4988 2.07034,-0.6131 2.25816,-1.4964 0.73147,-3.4395 -1.61271,-22.4236 -1.68571,-22.7097 -0.28141,-1.1031 -3.58836,-0.9485 -3.41056,0.1759 0.21537,1.3622 1.2023,2.4824 1.80346,3.7235 -0.71089,1.4772 -1.32279,5.8569 -2.13265,4.4316 -2.86197,-5.0371 -2.25626,-11.5061 -4.83473,-16.6939 -0.73629,-1.4814 -2.88859,-1.7213 -4.50125,-2.0901 -4.34245,-0.9929 -9.61023,-2.1115 -14.18641,-0.8246 -0.53758,0.1512 -0.96459,0.5629 -1.4469,0.8444 3.50332,0.3355 7.04382,0.3967 10.50994,1.0064 0.54663,0.096 1.83319,1.0687 1.27818,1.067 -5.6414,-0.017 -11.24882,-0.942 -16.88767,-1.1129 -1.05942,-0.032 -2.35643,-0.2087 -3.13928,0.5059 -0.75777,0.6917 2.68332,1.7186 1.22494,2.8237 -0.41783,-1.0223 -0.14909,-3.0809 -1.25346,-3.0671 -1.41021,0.017 -1.55678,2.5779 -2.85938,3.1184 -7.67601,3.1855 -1.54559,-3.4687 -9.18824,0.6248 -1.32522,0.7098 -1.71101,2.5696 -2.96561,3.3979 -0.89199,0.5889 -2.09537,0.4233 -3.14304,0.6349 3.77061,2.4321 -1.4097,-1.1429 -7.13308,0.037 -9.14453,1.8851 -9.28005,5.5754 -14.97201,12.0651 -6.72113,7.6629 -5.24049,2.4373 -5.91812,10.4531 -0.79473,-0.057 -1.58946,-0.115 -2.38421,-0.1724 -0.34309,0.1359 -0.66231,0.3685 -1.02926,0.4078 -2.48218,0.2663 -5.16535,-0.4498 -7.47231,0.5043 -8.8592,3.6635 -16.54548,17.4382 -12.06508,26.7409 3.39323,7.0455 13.62131,7.6857 20.43198,11.5286 6.44234,-0.7011 19.15469,-0.3264 14.47313,-15.0185 -2.42459,-7.609 -10.8349,-12.0978 -17.75251,-16.0879 -2.08717,-1.2039 -6.41993,-0.5275 -6.9977,1.8117 -2.06754,8.3709 -3.56005,18.0889 0.16131,25.8669 2.20814,4.6153 9.70074,3.2558 14.55111,4.8837 2.82313,-0.1243 5.83115,0.6396 8.46939,-0.3729 2.15651,-0.8277 6.12685,-2.78 5.00102,-4.797 -3.76317,-6.7419 -12.00364,-9.9336 -16.66073,-16.092 -1.22071,-1.6142 1.85124,-6.6112 -0.0991,-6.0706 -2.4814,0.6878 -4.71509,4.8764 -3.26213,7.0023 4.8015,7.0252 12.92905,11.0667 19.39359,16.6 3.41178,-0.2777 10.44107,-0.4901 13.61699,-2.1942 0.92096,-0.4941 2.40996,-2.3162 1.46857,-2.7702 -4.16991,-2.0112 -10.11306,0.047 -13.54844,-3.0561 -5.17308,-4.6732 -14.36219,-47.8677 20.50852,-4.099 1.53416,-0.3865 5.46166,-1.0416 6.17879,-2.8306 0.58134,-1.4502 -0.93869,-3.1479 -0.53311,-4.6567 0.32755,-1.2186 2.34331,-1.5609 2.53947,-2.8074 2.94643,-18.723 -4.07649,-12.3745 2.10341,-17.3402 0.7099,0.4614 2.13289,0.5377 2.12971,1.3844 -0.003,0.7626 -1.58946,1.3437 -2.13797,0.8139 -0.57811,-0.5582 0.59397,-1.5449 0.55005,-2.3474 -0.0999,-1.8257 -1.27233,-3.5943 -0.97393,-5.3983 3.23371,-19.549 5.03565,-0.9821 2.12584,-18.0782 -0.57771,-1.1956 -1.43322,-2.2933 -1.7331,-3.5869 -0.14401,-0.6212 1.06892,-2.0772 0.47173,-1.8538 -3.50351,1.3108 -6.30616,4.1871 -9.85655,5.3651 -4.01026,1.3305 -8.30937,2.5291 -12.50794,2.0552 -1.15176,-0.13 -0.93914,-2.6956 -0.0824,-3.4763 7.71368,-7.0279 16.55167,-12.7127 24.82752,-19.0691 -1.06963,-0.7088 -2.10498,-1.4723 -3.20892,-2.1263 -9.54051,-5.6523 1.03618,1.2868 -11.55608,12.473 -3.00066,2.6656 -15.38369,4.4804 -11.67519,2.9453 4.9615,-2.0537 11.43453,-0.9643 15.464,-4.5136 6.00893,-5.2928 8.50958,-13.5673 12.76435,-20.351 -1.21113,-2.4123 -1.70127,-5.352 -3.63342,-7.2369 -11.86786,-11.5776 -23.01986,10.9493 -29.52483,17.6735 -1.192,1.2322 -2.97357,3.032 -2.29105,4.6047 1.22904,2.832 3.87982,5.7772 6.9474,6.1245 8.21066,0.9296 16.43878,-1.6975 24.65819,-2.5463 3.12962,-8.4182 8.39179,-16.3289 9.3889,-25.2545 1.18779,-10.6324 -13.7835,-5.069 -15.45585,-3.6766 -8.90349,7.4133 -19.7436,14.4086 -23.92267,25.2144 -4.03072,10.4222 38.49391,6.9604 30.45126,14.0194 2.68079,1.902 29.57949,-36.0099 26.89871,-37.9119 z"
       transform="matrix(0.00187731,0.43466676,-0.43570539,0.00187284,-924.27758,-1321.6277)" /></g></svg>
