<?xml version="1.0" encoding="UTF-8" standalone="no"?>
<!-- Created with Inkscape (http://www.inkscape.org/) -->

<svg
   width="434.04788mm"
   height="292.41376mm"
   viewBox="0 0 434.04788 292.41375"
   version="1.1"
   id="svg5"
   xml:space="preserve"
   xmlns="http://www.w3.org/2000/svg"
   xmlns:svg="http://www.w3.org/2000/svg"><defs
     id="defs2"><linearGradient
       id="linearGradient2560"
       gradientTransform="matrix(9.0769026e-5,0,0,9.0769026e-5,-4.7216088,-40.298232)"><stop
         style="stop-color:#ffffff;stop-opacity:1;"
         offset="0"
         id="stop2558" /></linearGradient><linearGradient
       id="linearGradient2554"><stop
         style="stop-color:#eeccb2;stop-opacity:1;"
         offset="0"
         id="stop2552" /></linearGradient><linearGradient
       id="linearGradient10538"
       gradientTransform="matrix(0,0,0,0,2171.8017,136.61469)"><stop
         style="stop-color:#e4c7ff;stop-opacity:1;"
         offset="0"
         id="stop10536" /></linearGradient><linearGradient
       id="linearGradient10280"
       gradientTransform="matrix(0,0,0,0,4588.3696,12544.551)"><stop
         style="stop-color:#fcef7f;stop-opacity:1;"
         offset="0"
         id="stop10278" /></linearGradient><linearGradient
       id="linearGradient9548"
       gradientTransform="matrix(0.00129662,0,0,0.00129662,-640.12637,-2012.6564)"><stop
         style="stop-color:#9aa49b;stop-opacity:1;"
         offset="0"
         id="stop9546" /></linearGradient><linearGradient
       id="linearGradient8816"
       gradientTransform="matrix(2.4015971e-5,0,0,2.4015971e-5,-561.32101,-1567.6908)"><stop
         style="stop-color:#ff2050;stop-opacity:1;"
         offset="0"
         id="stop8814" /></linearGradient><linearGradient
       id="linearGradient8084"
       gradientTransform="matrix(0.26458333,0,0,0.26458333,-560.20221,-1563.8784)"><stop
         style="stop-color:#ff8157;stop-opacity:1;"
         offset="0"
         id="stop8082" /></linearGradient><linearGradient
       id="linearGradient6626"><stop
         style="stop-color:#e4c7ff;stop-opacity:1;"
         offset="0"
         id="stop6624" /></linearGradient><linearGradient
       id="linearGradient6620"
       gradientTransform="matrix(0,0,0,0,75.93373,58.971845)"><stop
         style="stop-color:#544cf8;stop-opacity:1;"
         offset="0"
         id="stop6618" /></linearGradient><linearGradient
       id="linearGradient5888"
       gradientTransform="matrix(0,0,0,0,194.10865,-38.083491)"><stop
         style="stop-color:#1c4939;stop-opacity:1;"
         offset="0"
         id="stop5886" /></linearGradient><linearGradient
       id="linearGradient5882"
       gradientTransform="matrix(1.4751574e-5,-2.3311945e-7,4.9457063e-6,9.0729955e-5,1621.803,413.03004)"><stop
         style="stop-color:#81e0a0;stop-opacity:1;"
         offset="0"
         id="stop5880" /></linearGradient><linearGradient
       id="linearGradient4424"
       gradientTransform="matrix(-0.01510627,-0.00766461,-0.00795902,0.01454747,1112.771,-485.21619)"><stop
         style="stop-color:#ff0000;stop-opacity:1;"
         offset="0"
         id="stop4422" /></linearGradient><linearGradient
       id="linearGradient4418"><stop
         style="stop-color:#ffffff;stop-opacity:1;"
         offset="0"
         id="stop4416" /></linearGradient><linearGradient
       id="linearGradient3686"
       gradientTransform="scale(0.26458333)"><stop
         style="stop-color:#eeccb2;stop-opacity:1;"
         offset="0"
         id="stop3684" /></linearGradient><filter
       style="color-interpolation-filters:sRGB"
       id="filter1763"
       x="-0.023420269"
       y="-0.026349314"
       width="1.0468692"
       height="1.0527191"><feTurbulence
         baseFrequency="0.14"
         numOctaves="1"
         type="fractalNoise"
         id="feTurbulence1747" /><feColorMatrix
         values="1 0 0 0 0 0 1 0 0 0 0 0 1 0 0 0 0 0 6 -3.5 "
         result="result5"
         id="feColorMatrix1749" /><feComposite
         in2="result5"
         operator="in"
         in="SourceGraphic"
         result="result6"
         id="feComposite1751" /><feMorphology
         result="result3"
         radius="5"
         operator="dilate"
         in="result6"
         id="feMorphology1753" /><feDisplacementMap
         result="result4"
         scale="0"
         yChannelSelector="A"
         xChannelSelector="R"
         in="result3"
         in2="result3"
         id="feDisplacementMap1755" /><feComposite
         in2="result4"
         operator="arithmetic"
         result="result2"
         k1="1"
         k3="1"
         id="feComposite1757"
         k2="0"
         k4="0" /><feBlend
         mode="darken"
         in="result2"
         in2="result2"
         id="feBlend1759" /><feConvolveMatrix
         order="3 3"
         kernelMatrix="2 0 0 0 1 0 0 0 -1 "
         targetX="1"
         targetY="1"
         divisor="2"
         edgeMode="duplicate"
         id="feConvolveMatrix1761" /></filter></defs><g
     id="layer3"
     style="display:inline"
     transform="translate(614.29068,1605.1873)"><path
       style="fill:url(#linearGradient9548);fill-rule:evenodd;stroke:url(#linearGradient5888);stroke-width:2.6;stroke-linejoin:round;filter:url(#filter1763)"
       id="path1745"
       d="m -506.17117,-1562.1587 c 4.97674,0.2345 9.96304,0.3162 14.93023,0.7036 18.16644,1.4167 38.52323,3.7948 56.42546,6.3894 8.02716,1.1634 16.03843,2.46 24.00298,3.9945 3.53748,0.6816 6.923,3.2325 10.47797,2.649 1.52812,-0.2508 -1.60433,-2.6492 -2.4065,-3.9738 -6.98911,-1.0481 -7.20735,-1.6099 -15.98118,0.9098 -9.91112,2.8463 -41.47371,17.1364 -45.59327,18.7194 -41.9597,16.1241 -40.54347,14.3384 -84.53328,25.3806 -22.68698,3.8089 -33.42641,6.5592 -54.40851,7.5371 -0.82661,0.039 -3.0197,-1.2149 -2.38723,-0.6813 8.04075,6.7843 5.64187,3.7708 16.0516,3.7059 4.53338,-0.028 9.05973,0.3612 13.5896,0.5418 8.35687,0.5388 16.71488,1.0602 25.07063,1.6162 17.23411,1.1468 34.46936,2.2781 51.69888,3.492 39.36882,2.7738 73.01016,4.9375 111.89406,9.3186 27.14922,3.059 20.04891,-0.4411 30.90708,5.5786 -3.01972,-1.9075 -5.61691,-4.7695 -9.05914,-5.7226 -4.10261,-1.136 -18.99521,-0.3514 -23.52607,1.2404 -3.82952,1.3455 -7.16979,3.8171 -10.63557,5.9299 -6.72501,4.0996 -13.12706,8.7224 -19.92494,12.7 -8.84664,5.1763 -17.98836,9.8311 -26.98254,14.7466 -25.53755,11.3015 -30.4363,14.819 -56.75034,21.534 -6.15953,1.5718 -12.46262,2.6404 -18.78822,3.2705 -2.03896,0.2032 -4.78501,-2.3663 -6.09598,-0.7915 -1.11692,1.3416 2.68691,2.7349 4.43176,2.7907 2.86438,0.092 5.50675,-1.59 8.26013,-2.3849 4.81638,-1.3142 9.58944,-2.7989 14.44913,-3.9426 7.72737,-1.8186 15.47612,-3.5811 23.29729,-4.9407 28.05306,-4.8767 49.44728,-6.8674 78.73158,-8.4295 36.34545,-1.9387 32.18286,-1.6253 59.60087,0.5047 -1.46037,-0.7174 -2.76025,-2.2942 -4.38111,-2.1522 -6.22372,0.545 -12.22603,2.5952 -18.28041,4.1367 -11.27359,2.8703 -22.45387,6.0957 -33.69349,9.0963 -26.07576,6.9613 -53.94737,14.6868 -80.48053,19.8978 -10.80599,2.1223 -21.7608,3.4002 -32.6412,5.1002 -9.46153,20.2264 -19.67317,-3.675 -28.87404,-0.8367 -1.64804,0.5084 2.80243,2.5486 4.52658,2.5062 2.50137,-0.062 4.90225,-1.3789 6.96887,-2.7895 10.0737,-6.8759 11.36256,-11.8098 18.14662,-22.5598 2.74027,-5.5574 16.03039,-32.7688 19.10333,-37.95 3.22523,-5.4381 6.67437,-10.798 10.77779,-15.608 3.67312,-4.3057 7.73887,-8.3944 12.41647,-11.5804 14.68177,-9.9999 22.33245,-10.6712 39.08544,-15.357 -14.08663,0.786 17.78129,-3.897 16.55983,1.5095 -0.27632,1.2231 -2.42062,0.6556 -3.63092,0.9833 -1.49857,4.1922 -3.59306,8.2171 -4.4957,12.5766 -3.7039,17.8891 -1.98022,31.4893 -1.506,50.1945 0.75502,23.7535 2.12761,42.4495 0.0732,65.964 -0.52705,6.0326 -1.52607,12.0617 -3.18784,17.8848 -0.3541,1.2408 -3.32512,3.9003 -2.70604,2.7682 6.81722,-12.4675 2.05803,7.3715 5.25305,-16.3094 6.28128,-28.0801 8.24366,-38.0749 16.22818,-67.6598 3.47538,-12.8773 6.98698,-25.7545 11.06568,-38.4536 3.57058,-11.1171 7.74442,-22.0335 11.86989,-32.9568 5.24449,-13.8863 12.66242,-31.5132 18.52185,-45.6281 2.1146,-4.0564 3.96913,-8.2594 6.34378,-12.1693 1.23529,-2.0339 2.83686,-3.8318 4.44166,-5.5889 0.20996,-0.2299 0.12829,0.8473 -0.17505,0.9174 -1.3318,0.3079 -3.21927,-0.9746 -4.10012,0.071 -2.64176,3.1348 -3.54187,7.3945 -5.30841,11.0938 -3.72552,7.8017 -7.44519,15.6061 -11.16778,23.4092 -13.05025,25.2933 -21.73447,44.4195 -38.88966,67.69 -7.9376,10.7671 -16.59857,21.0792 -26.17591,30.4179 -18.10483,17.6536 -41.81258,34.6017 -63.66969,47.6068 -6.33739,3.7708 -13.18461,6.6099 -19.77691,9.9149 -2.38843,0.3044 -4.9834,-0.1048 -7.16529,0.9134 -1.33926,0.6249 3.06537,0.9631 4.41835,0.3684 3.95713,-1.7392 8.16995,-10.5304 8.78647,-13.3501 1.94539,-8.8976 1.50017,-39.6109 1.53673,-45.0465 2.56554,-26.4542 2.11777,-39.253 11.23141,-64.4786 3.38967,-9.3823 7.83205,-18.4336 13.0785,-26.9184 9.27528,-15.0002 20.53362,-25.8592 33.95658,-36.8749 4.43818,-3.6423 9.32939,-6.6945 13.99409,-10.0418 -15.24327,-7.2849 11.96684,-3.0541 10.34915,-6.8646 -2.76617,-6.5157 -4.06887,-4.8283 -7.74452,-3.2334 -1.28407,0.5597 1.11475,6.0626 2.39882,5.5029 v 0 c 3.33897,-1.4631 5.32872,-1.2922 1.83514,-7.139 -2.12222,-3.5517 -12.09808,31.1685 -10.34383,6.8608 -4.8413,3.4902 -9.92234,6.6698 -14.52389,10.4705 -14.05387,11.6078 -25.64875,22.9125 -35.3263,38.7071 -5.42122,8.848 -9.98997,18.2864 -13.4923,28.0542 -9.25728,25.8179 -8.81673,38.9134 -11.41572,65.9159 -5.9e-4,0.091 0.18606,36.2601 -0.96755,42.5341 -0.50124,2.726 -1.90124,5.2572 -3.40247,7.5872 -1.31861,2.0465 -11.88494,9.4432 -3.48568,13.8839 2.68158,1.4177 5.98504,-0.9915 8.97755,-1.4872 6.79301,-3.4208 13.84662,-6.367 20.37902,-10.2625 22.39791,-13.3566 46.38032,-30.5652 64.9257,-48.7112 9.77219,-9.5618 18.59839,-20.1221 26.70332,-31.1326 17.3006,-23.503 26.06362,-42.7851 39.22692,-68.3025 3.72669,-7.8117 7.48069,-15.6104 11.18007,-23.435 1.9399,-4.1032 4.99003,-7.8713 5.73756,-12.3479 0.94013,-5.63 -2.03401,-9.7724 -6.31051,-5.9941 -4.82044,4.2587 -9.17318,14.4776 -11.60351,19.1579 -5.89369,14.1984 -13.35599,31.931 -18.6258,45.8965 -4.16845,11.0467 -8.38136,22.0881 -11.99062,33.33 -4.0976,12.763 -7.62579,25.7047 -11.11772,38.6465 -8.15869,30.2378 -9.97367,39.6945 -16.37031,68.4361 -0.41996,4.2057 -5.65702,19.5591 5.386,20.7646 2.23925,0.2445 3.29822,-3.3303 3.94169,-5.489 1.80999,-6.0721 2.72677,-12.4117 3.27578,-18.724 2.05732,-23.6541 0.68699,-42.4552 -0.0718,-66.3261 -0.45637,-16.7885 -2.13929,-31.6481 1.16088,-48.0249 0.3522,-1.7478 7.07736,-16.927 5.45067,-20.783 -2.75645,-6.5342 -21.18106,-0.1951 -21.17393,-2.0747 -18.07698,5.1696 -25.73586,5.7704 -41.56312,16.7597 -4.99657,3.4693 -9.31611,7.9087 -13.24874,12.5494 -4.25351,5.0194 -7.81812,10.6112 -11.17369,16.2704 -3.26707,5.51 -15.85699,31.4084 -18.85964,37.52 -4.86115,7.9304 -7.62675,14.9324 -15.37642,20.1981 -2.54954,1.7323 -6.40846,1.4138 -8.47385,3.7019 -1.83669,2.0347 -3.57465,5.6809 -2.05514,7.9623 5.76063,8.649 31.77454,-11.1357 31.16185,0.9206 11.01864,-1.7268 22.11211,-3.0296 33.05593,-5.1802 26.60871,-5.2288 54.54907,-12.9711 80.70238,-19.9532 11.21818,-2.9949 22.43638,-5.9908 33.62914,-9.0793 7.14696,-1.9722 15.13676,-2.1173 21.38868,-6.1025 2.15966,-1.3767 0.15513,-5.1199 0.2327,-7.6799 -27.90128,-2.1233 -23.90092,-2.4672 -60.53823,-0.5033 -29.57143,1.5852 -51.16818,3.6035 -79.50096,8.5414 -7.93365,1.3827 -15.79376,3.1735 -23.63202,5.0218 -4.94427,1.1659 -9.80041,2.6781 -14.70061,4.0172 -1.04057,0.36 -18.19262,2.8493 -11.5161,11.2775 1.61962,2.0445 5.19461,0.9952 7.79016,0.7374 6.58127,-0.6539 13.13224,-1.8086 19.53834,-3.4526 26.82132,-6.883 31.8706,-10.4838 57.8431,-21.9977 9.10987,-4.9839 18.36679,-9.708 27.3296,-14.9518 6.726,-3.9352 13.11462,-8.4209 19.71091,-12.5698 2.81418,-1.77 5.39927,-4.0379 8.51921,-5.1862 13.94778,-5.1336 6.38505,2.3283 22.61143,-1.1731 4.24657,-0.9164 7.82633,-3.7738 11.7395,-5.6606 -12.84244,-5.8903 -5.56866,-3.0843 -32.99711,-6.174 -16.90336,-1.9041 -33.84675,-3.4536 -50.79834,-4.8653 -20.40478,-1.6993 -40.83882,-3.028 -61.2636,-4.467 -31.28845,-2.2045 -48.53713,-3.2885 -76.94366,-5.1174 -4.75997,-0.1762 -9.51697,-0.5822 -14.2799,-0.5286 -7.04903,0.079 -14.08471,-0.6842 -16.90769,8.1364 -0.43703,1.3655 2.79272,0.8613 4.22536,0.8045 20.05025,-0.7943 34.59972,-4.2003 55.34957,-7.6954 44.56078,-11.2126 42.97328,-9.3693 85.43203,-25.6837 10.06001,-3.8654 19.76678,-8.5967 29.72253,-12.7232 4.77096,-1.9775 9.49775,-4.1259 14.45148,-5.5864 3.48422,-1.0273 15.6157,-2.2558 19.37031,-2.6825 -0.71561,-9.3518 1.42885,-6.2783 -11.41834,-8.7527 -8.03835,-1.5482 -16.12424,-2.854 -24.22581,-4.0273 -18.07058,-2.6171 -38.57471,-5.0095 -56.90631,-6.4314 -5.06082,-0.3926 -10.141,-0.4735 -15.21149,-0.7102 -1.40077,0 -1.40077,6.003 0,6.003 z" /><path
       style="fill:url(#linearGradient9548);fill-rule:evenodd;stroke:url(#linearGradient5888);stroke-width:2.6;stroke-linejoin:round;filter:url(#filter1763)"
       id="path1765"
       d="m -533.37585,-1572.8466 c 4.97674,0.2345 9.96304,0.3162 14.93023,0.7036 18.16644,1.4167 38.52323,3.7948 56.42546,6.3894 8.02716,1.1634 16.03843,2.46 24.00298,3.9945 3.53748,0.6816 6.923,3.2325 10.47797,2.649 1.52812,-0.2508 -1.60433,-2.6492 -2.4065,-3.9738 -6.98911,-1.0481 -7.20735,-1.6099 -15.98118,0.9098 -9.91112,2.8463 -41.47371,17.1364 -45.59327,18.7194 -41.9597,16.1241 -40.54347,14.3384 -84.53328,25.3806 -22.68698,3.8089 -33.42641,6.5592 -54.40851,7.5371 -0.82661,0.039 -3.0197,-1.2149 -2.38723,-0.6813 8.04075,6.7843 5.64187,3.7708 16.0516,3.7059 4.53338,-0.028 9.05973,0.3612 13.5896,0.5418 8.35687,0.5388 16.71488,1.0602 25.07063,1.6162 17.23411,1.1468 34.46936,2.2781 51.69888,3.492 39.36882,2.7738 73.01016,4.9375 111.89406,9.3186 27.14922,3.059 20.04891,-0.4411 30.90708,5.5786 -3.01972,-1.9075 -5.61691,-4.7695 -9.05914,-5.7226 -4.10261,-1.136 -18.99521,-0.3514 -23.52607,1.2404 -3.82952,1.3455 -7.16979,3.8171 -10.63557,5.9299 -6.72501,4.0996 -13.12706,8.7224 -19.92494,12.7 -8.84664,5.1763 -17.98836,9.8311 -26.98254,14.7466 -25.53755,11.3015 -30.4363,14.819 -56.75034,21.534 -6.15953,1.5718 -12.46262,2.6404 -18.78822,3.2705 -2.03896,0.2032 -4.78501,-2.3663 -6.09598,-0.7915 -1.11692,1.3416 2.68691,2.7349 4.43176,2.7907 2.86438,0.092 5.50675,-1.59 8.26013,-2.3849 4.81638,-1.3142 9.58944,-2.7989 14.44913,-3.9426 7.72737,-1.8186 15.47612,-3.5811 23.29729,-4.9407 28.05306,-4.8767 49.44728,-6.8674 78.73158,-8.4295 36.34545,-1.9387 32.18286,-1.6253 59.60087,0.5047 -1.46037,-0.7174 -2.76025,-2.2942 -4.38111,-2.1522 -6.22372,0.545 -12.22603,2.5952 -18.28041,4.1367 -11.27359,2.8703 -22.45387,6.0957 -33.69349,9.0963 -26.07576,6.9613 -53.94737,14.6868 -80.48053,19.8978 -10.80599,2.1223 -21.7608,3.4002 -32.6412,5.1002 -9.46153,20.2264 -19.67317,-3.675 -28.87404,-0.8367 -1.64804,0.5084 2.80243,2.5486 4.52658,2.5062 2.50137,-0.062 4.90225,-1.3789 6.96887,-2.7895 10.0737,-6.8759 11.36256,-11.8098 18.14662,-22.5598 2.74027,-5.5574 16.03039,-32.7688 19.10333,-37.95 3.22523,-5.4381 6.67437,-10.798 10.77779,-15.608 3.67312,-4.3057 7.73887,-8.3944 12.41647,-11.5804 14.68177,-9.9999 22.33245,-10.6712 39.08544,-15.357 -14.08663,0.786 17.78129,-3.897 16.55983,1.5095 -0.27632,1.2231 -2.42062,0.6556 -3.63092,0.9833 -1.49857,4.1922 -3.59306,8.2171 -4.4957,12.5766 -3.7039,17.8891 -1.98022,31.4893 -1.506,50.1945 0.75502,23.7535 2.12761,42.4495 0.0732,65.964 -0.52705,6.0326 -1.52607,12.0617 -3.18784,17.8848 -0.3541,1.2408 -3.32512,3.9003 -2.70604,2.7682 6.81722,-12.4675 2.05803,7.3715 5.25305,-16.3094 6.28128,-28.0801 8.24366,-38.0749 16.22818,-67.6598 3.47538,-12.8773 6.98698,-25.7545 11.06568,-38.4536 3.57058,-11.1171 7.74442,-22.0335 11.86989,-32.9568 5.24449,-13.8863 12.66242,-31.5132 18.52185,-45.6281 2.1146,-4.0564 3.96913,-8.2594 6.34378,-12.1693 1.23529,-2.0339 2.83686,-3.8318 4.44166,-5.5889 0.20996,-0.2299 0.12829,0.8473 -0.17505,0.9174 -1.3318,0.3079 -3.21927,-0.9746 -4.10012,0.071 -2.64176,3.1348 -3.54187,7.3945 -5.30841,11.0938 -3.72552,7.8017 -7.44519,15.6061 -11.16778,23.4092 -13.05025,25.2933 -21.73447,44.4195 -38.88966,67.69 -7.9376,10.7671 -16.59857,21.0792 -26.17591,30.4179 -18.10483,17.6536 -41.81258,34.6017 -63.66969,47.6068 -6.33739,3.7708 -13.18461,6.6099 -19.77691,9.9149 -2.38843,0.3044 -4.9834,-0.1048 -7.16529,0.9134 -1.33926,0.6249 3.06537,0.9631 4.41835,0.3684 3.95713,-1.7392 8.16995,-10.5304 8.78647,-13.3501 1.94539,-8.8976 1.50017,-39.6109 1.53673,-45.0465 2.56554,-26.4542 2.11777,-39.253 11.23141,-64.4786 3.38967,-9.3823 7.83205,-18.4336 13.0785,-26.9184 9.27528,-15.0002 20.53362,-25.8592 33.95658,-36.8749 4.43818,-3.6423 9.32939,-6.6945 13.99409,-10.0418 -15.24327,-7.2849 11.96684,-3.0541 10.34915,-6.8646 -2.76617,-6.5157 -4.06887,-4.8283 -7.74452,-3.2334 -1.28407,0.5597 1.11475,6.0626 2.39882,5.5029 v 0 c 3.33897,-1.4631 5.32872,-1.2922 1.83514,-7.139 -2.12222,-3.5517 -12.09808,31.1685 -10.34383,6.8608 -4.8413,3.4902 -9.92234,6.6698 -14.52389,10.4705 -14.05387,11.6078 -25.64875,22.9125 -35.3263,38.7071 -5.42122,8.848 -9.98997,18.2864 -13.4923,28.0542 -9.25728,25.8179 -8.81673,38.9134 -11.41572,65.9159 -5.9e-4,0.091 0.18606,36.2601 -0.96755,42.5341 -0.50124,2.726 -1.90124,5.2572 -3.40247,7.5872 -1.31861,2.0465 -11.88494,9.4432 -3.48568,13.8839 2.68158,1.4177 5.98504,-0.9915 8.97755,-1.4872 6.79301,-3.4208 13.84662,-6.367 20.37902,-10.2625 22.39791,-13.3566 46.38032,-30.5652 64.9257,-48.7112 9.77219,-9.5618 18.59839,-20.1221 26.70332,-31.1326 17.3006,-23.503 26.06362,-42.7851 39.22692,-68.3025 3.72669,-7.8117 7.48069,-15.6104 11.18007,-23.435 1.9399,-4.1032 4.99003,-7.8713 5.73756,-12.3479 0.94013,-5.63 -2.03401,-9.7724 -6.31051,-5.9941 -4.82044,4.2587 -9.17318,14.4776 -11.60351,19.1579 -5.89369,14.1984 -13.35599,31.931 -18.6258,45.8965 -4.16845,11.0467 -8.38136,22.0881 -11.99062,33.33 -4.0976,12.763 -7.62579,25.7047 -11.11772,38.6465 -8.15869,30.2378 -9.97367,39.6945 -16.37031,68.4361 -0.41996,4.2057 -5.65702,19.5591 5.386,20.7646 2.23925,0.2445 3.29822,-3.3303 3.94169,-5.489 1.80999,-6.0721 2.72677,-12.4117 3.27578,-18.724 2.05732,-23.6541 0.68699,-42.4552 -0.0718,-66.3261 -0.45637,-16.7885 -2.13929,-31.6481 1.16088,-48.0249 0.3522,-1.7478 7.07736,-16.927 5.45067,-20.783 -2.75645,-6.5342 -21.18106,-0.1951 -21.17393,-2.0747 -18.07698,5.1696 -25.73586,5.7704 -41.56312,16.7597 -4.99657,3.4693 -9.31611,7.9087 -13.24874,12.5494 -4.25351,5.0194 -7.81812,10.6112 -11.17369,16.2704 -3.26707,5.51 -15.85699,31.4084 -18.85964,37.52 -4.86115,7.9304 -7.62675,14.9324 -15.37642,20.1981 -2.54954,1.7323 -6.40846,1.4138 -8.47385,3.7019 -1.83669,2.0347 -3.57465,5.6809 -2.05514,7.9623 5.76063,8.649 31.77454,-11.1357 31.16185,0.9206 11.01864,-1.7268 22.11211,-3.0296 33.05593,-5.1802 26.60871,-5.2288 54.54907,-12.9711 80.70238,-19.9532 11.21818,-2.9949 22.43638,-5.9908 33.62914,-9.0793 7.14696,-1.9722 15.13676,-2.1173 21.38868,-6.1025 2.15966,-1.3767 0.15513,-5.1199 0.2327,-7.6799 -27.90128,-2.1233 -23.90092,-2.4672 -60.53823,-0.5033 -29.57143,1.5852 -51.16818,3.6035 -79.50096,8.5414 -7.93365,1.3827 -15.79376,3.1735 -23.63202,5.0218 -4.94427,1.1659 -9.80041,2.6781 -14.70061,4.0172 -1.04057,0.36 -18.19262,2.8493 -11.5161,11.2775 1.61962,2.0445 5.19461,0.9952 7.79016,0.7374 6.58127,-0.6539 13.13224,-1.8086 19.53834,-3.4526 26.82132,-6.883 31.8706,-10.4838 57.8431,-21.9977 9.10987,-4.9839 18.36679,-9.708 27.3296,-14.9518 6.726,-3.9352 13.11462,-8.4209 19.71091,-12.5698 2.81418,-1.77 5.39927,-4.0379 8.51921,-5.1862 13.94778,-5.1336 6.38505,2.3283 22.61143,-1.1731 4.24657,-0.9164 7.82633,-3.7738 11.7395,-5.6606 -12.84244,-5.8903 -5.56866,-3.0843 -32.99711,-6.174 -16.90336,-1.9041 -33.84675,-3.4536 -50.79834,-4.8653 -20.40478,-1.6993 -40.83882,-3.028 -61.2636,-4.467 -31.28845,-2.2045 -48.53713,-3.2885 -76.94366,-5.1174 -4.75997,-0.1762 -9.51697,-0.5822 -14.2799,-0.5286 -7.04903,0.079 -14.08471,-0.6842 -16.90769,8.1364 -0.43703,1.3655 2.79272,0.8613 4.22536,0.8045 20.05025,-0.7943 34.59972,-4.2003 55.34957,-7.6954 44.56078,-11.2126 42.97328,-9.3693 85.43203,-25.6837 10.06001,-3.8654 19.76678,-8.5967 29.72253,-12.7232 4.77096,-1.9775 9.49775,-4.1259 14.45148,-5.5864 3.48422,-1.0273 15.6157,-2.2558 19.37031,-2.6825 -0.71561,-9.3518 1.42885,-6.2783 -11.41834,-8.7527 -8.03835,-1.5482 -16.12424,-2.854 -24.22581,-4.0273 -18.07058,-2.6171 -38.57471,-5.0095 -56.90631,-6.4314 -5.06082,-0.3926 -10.141,-0.4735 -15.21149,-0.7102 -1.40077,0 -1.40077,6.003 0,6.003 z"
       transform="matrix(-1,0,0,1,-973.38419,34.676051)" /><path
       style="fill:url(#linearGradient9548);fill-rule:evenodd;stroke:url(#linearGradient5888);stroke-width:2.6;stroke-linejoin:round;filter:url(#filter1763)"
       id="path1767"
       d="m -444.16181,-1560.7531 c 4.97674,0.2345 9.96304,0.3162 14.93023,0.7036 18.16644,1.4167 38.52323,3.7948 56.42546,6.3894 8.02716,1.1634 16.03843,2.46 24.00298,3.9945 3.53748,0.6816 6.923,3.2325 10.47797,2.649 1.52812,-0.2508 -1.60433,-2.6492 -2.4065,-3.9738 -6.98911,-1.0481 -7.20735,-1.6099 -15.98118,0.9098 -9.91112,2.8463 -41.47371,17.1364 -45.59327,18.7194 -41.9597,16.1241 -40.54347,14.3384 -84.53328,25.3806 -22.68698,3.8089 -33.42641,6.5592 -54.40851,7.5371 -0.82661,0.039 -3.0197,-1.2149 -2.38723,-0.6813 8.04075,6.7843 5.64187,3.7708 16.0516,3.7059 4.53338,-0.028 9.05973,0.3612 13.5896,0.5418 8.35687,0.5388 16.71488,1.0602 25.07063,1.6162 17.23411,1.1468 34.46936,2.2781 51.69888,3.492 39.36882,2.7738 73.01016,4.9375 111.89406,9.3186 27.14922,3.059 20.04891,-0.4411 30.90708,5.5786 -3.01972,-1.9075 -5.61691,-4.7695 -9.05914,-5.7226 -4.10261,-1.136 -18.99521,-0.3514 -23.52607,1.2404 -3.82952,1.3455 -7.16979,3.8171 -10.63557,5.9299 -6.72501,4.0996 -13.12706,8.7224 -19.92494,12.7 -8.84664,5.1763 -17.98836,9.8311 -26.98254,14.7466 -25.53755,11.3015 -30.4363,14.819 -56.75034,21.534 -6.15953,1.5718 -12.46262,2.6404 -18.78822,3.2705 -2.03896,0.2032 -4.78501,-2.3663 -6.09598,-0.7915 -1.11692,1.3416 2.68691,2.7349 4.43176,2.7907 2.86438,0.092 5.50675,-1.59 8.26013,-2.3849 4.81638,-1.3142 9.58944,-2.7989 14.44913,-3.9426 7.72737,-1.8186 15.47612,-3.5811 23.29729,-4.9407 28.05306,-4.8767 49.44728,-6.8674 78.73158,-8.4295 36.34545,-1.9387 32.18286,-1.6253 59.60087,0.5047 -1.46037,-0.7174 -2.76025,-2.2942 -4.38111,-2.1522 -6.22372,0.545 -12.22603,2.5952 -18.28041,4.1367 -11.27359,2.8703 -22.45387,6.0957 -33.69349,9.0963 -26.07576,6.9613 -53.94737,14.6868 -80.48053,19.8978 -10.80599,2.1223 -21.7608,3.4002 -32.6412,5.1002 -9.46153,20.2264 -19.67317,-3.675 -28.87404,-0.8367 -1.64804,0.5084 2.80243,2.5486 4.52658,2.5062 2.50137,-0.062 4.90225,-1.3789 6.96887,-2.7895 10.0737,-6.8759 11.36256,-11.8098 18.14662,-22.5598 2.74027,-5.5574 16.03039,-32.7688 19.10333,-37.95 3.22523,-5.4381 6.67437,-10.798 10.77779,-15.608 3.67312,-4.3057 7.73887,-8.3944 12.41647,-11.5804 14.68177,-9.9999 22.33245,-10.6712 39.08544,-15.357 -14.08663,0.786 17.78129,-3.897 16.55983,1.5095 -0.27632,1.2231 -2.42062,0.6556 -3.63092,0.9833 -1.49857,4.1922 -3.59306,8.2171 -4.4957,12.5766 -3.7039,17.8891 -1.98022,31.4893 -1.506,50.1945 0.75502,23.7535 2.12761,42.4495 0.0732,65.964 -0.52705,6.0326 -1.52607,12.0617 -3.18784,17.8848 -0.3541,1.2408 -3.32512,3.9003 -2.70604,2.7682 6.81722,-12.4675 2.05803,7.3715 5.25305,-16.3094 6.28128,-28.0801 8.24366,-38.0749 16.22818,-67.6598 3.47538,-12.8773 6.98698,-25.7545 11.06568,-38.4536 3.57058,-11.1171 7.74442,-22.0335 11.86989,-32.9568 5.24449,-13.8863 12.66242,-31.5132 18.52185,-45.6281 2.1146,-4.0564 3.96913,-8.2594 6.34378,-12.1693 1.23529,-2.0339 2.83686,-3.8318 4.44166,-5.5889 0.20996,-0.2299 0.12829,0.8473 -0.17505,0.9174 -1.3318,0.3079 -3.21927,-0.9746 -4.10012,0.071 -2.64176,3.1348 -3.54187,7.3945 -5.30841,11.0938 -3.72552,7.8017 -7.44519,15.6061 -11.16778,23.4092 -13.05025,25.2933 -21.73447,44.4195 -38.88966,67.69 -7.9376,10.7671 -16.59857,21.0792 -26.17591,30.4179 -18.10483,17.6536 -41.81258,34.6017 -63.66969,47.6068 -6.33739,3.7708 -13.18461,6.6099 -19.77691,9.9149 -2.38843,0.3044 -4.9834,-0.1048 -7.16529,0.9134 -1.33926,0.6249 3.06537,0.9631 4.41835,0.3684 3.95713,-1.7392 8.16995,-10.5304 8.78647,-13.3501 1.94539,-8.8976 1.50017,-39.6109 1.53673,-45.0465 2.56554,-26.4542 2.11777,-39.253 11.23141,-64.4786 3.38967,-9.3823 7.83205,-18.4336 13.0785,-26.9184 9.27528,-15.0002 20.53362,-25.8592 33.95658,-36.8749 4.43818,-3.6423 9.32939,-6.6945 13.99409,-10.0418 -15.24327,-7.2849 11.96684,-3.0541 10.34915,-6.8646 -2.76617,-6.5157 -4.06887,-4.8283 -7.74452,-3.2334 -1.28407,0.5597 1.11475,6.0626 2.39882,5.5029 v 0 c 3.33897,-1.4631 5.32872,-1.2922 1.83514,-7.139 -2.12222,-3.5517 -12.09808,31.1685 -10.34383,6.8608 -4.8413,3.4902 -9.92234,6.6698 -14.52389,10.4705 -14.05387,11.6078 -25.64875,22.9125 -35.3263,38.7071 -5.42122,8.848 -9.98997,18.2864 -13.4923,28.0542 -9.25728,25.8179 -8.81673,38.9134 -11.41572,65.9159 -5.9e-4,0.091 0.18606,36.2601 -0.96755,42.5341 -0.50124,2.726 -1.90124,5.2572 -3.40247,7.5872 -1.31861,2.0465 -11.88494,9.4432 -3.48568,13.8839 2.68158,1.4177 5.98504,-0.9915 8.97755,-1.4872 6.79301,-3.4208 13.84662,-6.367 20.37902,-10.2625 22.39791,-13.3566 46.38032,-30.5652 64.9257,-48.7112 9.77219,-9.5618 18.59839,-20.1221 26.70332,-31.1326 17.3006,-23.503 26.06362,-42.7851 39.22692,-68.3025 3.72669,-7.8117 7.48069,-15.6104 11.18007,-23.435 1.9399,-4.1032 4.99003,-7.8713 5.73756,-12.3479 0.94013,-5.63 -2.03401,-9.7724 -6.31051,-5.9941 -4.82044,4.2587 -9.17318,14.4776 -11.60351,19.1579 -5.89369,14.1984 -13.35599,31.931 -18.6258,45.8965 -4.16845,11.0467 -8.38136,22.0881 -11.99062,33.33 -4.0976,12.763 -7.62579,25.7047 -11.11772,38.6465 -8.15869,30.2378 -9.97367,39.6945 -16.37031,68.4361 -0.41996,4.2057 -5.65702,19.5591 5.386,20.7646 2.23925,0.2445 3.29822,-3.3303 3.94169,-5.489 1.80999,-6.0721 2.72677,-12.4117 3.27578,-18.724 2.05732,-23.6541 0.68699,-42.4552 -0.0718,-66.3261 -0.45637,-16.7885 -2.13929,-31.6481 1.16088,-48.0249 0.3522,-1.7478 7.07736,-16.927 5.45067,-20.783 -2.75645,-6.5342 -21.18106,-0.1951 -21.17393,-2.0747 -18.07698,5.1696 -25.73586,5.7704 -41.56312,16.7597 -4.99657,3.4693 -9.31611,7.9087 -13.24874,12.5494 -4.25351,5.0194 -7.81812,10.6112 -11.17369,16.2704 -3.26707,5.51 -15.85699,31.4084 -18.85964,37.52 -4.86115,7.9304 -7.62675,14.9324 -15.37642,20.1981 -2.54954,1.7323 -6.40846,1.4138 -8.47385,3.7019 -1.83669,2.0347 -3.57465,5.6809 -2.05514,7.9623 5.76063,8.649 31.77454,-11.1357 31.16185,0.9206 11.01864,-1.7268 22.11211,-3.0296 33.05593,-5.1802 26.60871,-5.2288 54.54907,-12.9711 80.70238,-19.9532 11.21818,-2.9949 22.43638,-5.9908 33.62914,-9.0793 7.14696,-1.9722 15.13676,-2.1173 21.38868,-6.1025 2.15966,-1.3767 0.15513,-5.1199 0.2327,-7.6799 -27.90128,-2.1233 -23.90092,-2.4672 -60.53823,-0.5033 -29.57143,1.5852 -51.16818,3.6035 -79.50096,8.5414 -7.93365,1.3827 -15.79376,3.1735 -23.63202,5.0218 -4.94427,1.1659 -9.80041,2.6781 -14.70061,4.0172 -1.04057,0.36 -18.19262,2.8493 -11.5161,11.2775 1.61962,2.0445 5.19461,0.9952 7.79016,0.7374 6.58127,-0.6539 13.13224,-1.8086 19.53834,-3.4526 26.82132,-6.883 31.8706,-10.4838 57.8431,-21.9977 9.10987,-4.9839 18.36679,-9.708 27.3296,-14.9518 6.726,-3.9352 13.11462,-8.4209 19.71091,-12.5698 2.81418,-1.77 5.39927,-4.0379 8.51921,-5.1862 13.94778,-5.1336 6.38505,2.3283 22.61143,-1.1731 4.24657,-0.9164 7.82633,-3.7738 11.7395,-5.6606 -12.84244,-5.8903 -5.56866,-3.0843 -32.99711,-6.174 -16.90336,-1.9041 -33.84675,-3.4536 -50.79834,-4.8653 -20.40478,-1.6993 -40.83882,-3.028 -61.2636,-4.467 -31.28845,-2.2045 -48.53713,-3.2885 -76.94366,-5.1174 -4.75997,-0.1762 -9.51697,-0.5822 -14.2799,-0.5286 -7.04903,0.079 -14.08471,-0.6842 -16.90769,8.1364 -0.43703,1.3655 2.79272,0.8613 4.22536,0.8045 20.05025,-0.7943 34.59972,-4.2003 55.34957,-7.6954 44.56078,-11.2126 42.97328,-9.3693 85.43203,-25.6837 10.06001,-3.8654 19.76678,-8.5967 29.72253,-12.7232 4.77096,-1.9775 9.49775,-4.1259 14.45148,-5.5864 3.48422,-1.0273 15.6157,-2.2558 19.37031,-2.6825 -0.71561,-9.3518 1.42885,-6.2783 -11.41834,-8.7527 -8.03835,-1.5482 -16.12424,-2.854 -24.22581,-4.0273 -18.07058,-2.6171 -38.57471,-5.0095 -56.90631,-6.4314 -5.06082,-0.3926 -10.141,-0.4735 -15.21149,-0.7102 -1.40077,0 -1.40077,6.003 0,6.003 z"
       transform="matrix(1,0,0,-1,35.245054,-2949.6946)" /><path
       style="fill:url(#linearGradient9548);fill-rule:evenodd;stroke:url(#linearGradient5888);stroke-width:2.6;stroke-linejoin:round;filter:url(#filter1763)"
       id="path1769"
       d="m -533.37585,-1572.8466 c 4.97674,0.2345 9.96304,0.3162 14.93023,0.7036 18.16644,1.4167 38.52323,3.7948 56.42546,6.3894 8.02716,1.1634 16.03843,2.46 24.00298,3.9945 3.53748,0.6816 6.923,3.2325 10.47797,2.649 1.52812,-0.2508 -1.60433,-2.6492 -2.4065,-3.9738 -6.98911,-1.0481 -7.20735,-1.6099 -15.98118,0.9098 -9.91112,2.8463 -41.47371,17.1364 -45.59327,18.7194 -41.9597,16.1241 -40.54347,14.3384 -84.53328,25.3806 -22.68698,3.8089 -33.42641,6.5592 -54.40851,7.5371 -0.82661,0.039 -3.0197,-1.2149 -2.38723,-0.6813 8.04075,6.7843 5.64187,3.7708 16.0516,3.7059 4.53338,-0.028 9.05973,0.3612 13.5896,0.5418 8.35687,0.5388 16.71488,1.0602 25.07063,1.6162 17.23411,1.1468 34.46936,2.2781 51.69888,3.492 39.36882,2.7738 73.01016,4.9375 111.89406,9.3186 27.14922,3.059 20.04891,-0.4411 30.90708,5.5786 -3.01972,-1.9075 -5.61691,-4.7695 -9.05914,-5.7226 -4.10261,-1.136 -18.99521,-0.3514 -23.52607,1.2404 -3.82952,1.3455 -7.16979,3.8171 -10.63557,5.9299 -6.72501,4.0996 -13.12706,8.7224 -19.92494,12.7 -8.84664,5.1763 -17.98836,9.8311 -26.98254,14.7466 -25.53755,11.3015 -30.4363,14.819 -56.75034,21.534 -6.15953,1.5718 -12.46262,2.6404 -18.78822,3.2705 -2.03896,0.2032 -4.78501,-2.3663 -6.09598,-0.7915 -1.11692,1.3416 2.68691,2.7349 4.43176,2.7907 2.86438,0.092 5.50675,-1.59 8.26013,-2.3849 4.81638,-1.3142 9.58944,-2.7989 14.44913,-3.9426 7.72737,-1.8186 15.47612,-3.5811 23.29729,-4.9407 28.05306,-4.8767 49.44728,-6.8674 78.73158,-8.4295 36.34545,-1.9387 32.18286,-1.6253 59.60087,0.5047 -1.46037,-0.7174 -2.76025,-2.2942 -4.38111,-2.1522 -6.22372,0.545 -12.22603,2.5952 -18.28041,4.1367 -11.27359,2.8703 -22.45387,6.0957 -33.69349,9.0963 -26.07576,6.9613 -53.94737,14.6868 -80.48053,19.8978 -10.80599,2.1223 -21.7608,3.4002 -32.6412,5.1002 -9.46153,20.2264 -19.67317,-3.675 -28.87404,-0.8367 -1.64804,0.5084 2.80243,2.5486 4.52658,2.5062 2.50137,-0.062 4.90225,-1.3789 6.96887,-2.7895 10.0737,-6.8759 11.36256,-11.8098 18.14662,-22.5598 2.74027,-5.5574 16.03039,-32.7688 19.10333,-37.95 3.22523,-5.4381 6.67437,-10.798 10.77779,-15.608 3.67312,-4.3057 7.73887,-8.3944 12.41647,-11.5804 14.68177,-9.9999 22.33245,-10.6712 39.08544,-15.357 -14.08663,0.786 17.78129,-3.897 16.55983,1.5095 -0.27632,1.2231 -2.42062,0.6556 -3.63092,0.9833 -1.49857,4.1922 -3.59306,8.2171 -4.4957,12.5766 -3.7039,17.8891 -1.98022,31.4893 -1.506,50.1945 0.75502,23.7535 2.12761,42.4495 0.0732,65.964 -0.52705,6.0326 -1.52607,12.0617 -3.18784,17.8848 -0.3541,1.2408 -3.32512,3.9003 -2.70604,2.7682 6.81722,-12.4675 2.05803,7.3715 5.25305,-16.3094 6.28128,-28.0801 8.24366,-38.0749 16.22818,-67.6598 3.47538,-12.8773 6.98698,-25.7545 11.06568,-38.4536 3.57058,-11.1171 7.74442,-22.0335 11.86989,-32.9568 5.24449,-13.8863 12.66242,-31.5132 18.52185,-45.6281 2.1146,-4.0564 3.96913,-8.2594 6.34378,-12.1693 1.23529,-2.0339 2.83686,-3.8318 4.44166,-5.5889 0.20996,-0.2299 0.12829,0.8473 -0.17505,0.9174 -1.3318,0.3079 -3.21927,-0.9746 -4.10012,0.071 -2.64176,3.1348 -3.54187,7.3945 -5.30841,11.0938 -3.72552,7.8017 -7.44519,15.6061 -11.16778,23.4092 -13.05025,25.2933 -21.73447,44.4195 -38.88966,67.69 -7.9376,10.7671 -16.59857,21.0792 -26.17591,30.4179 -18.10483,17.6536 -41.81258,34.6017 -63.66969,47.6068 -6.33739,3.7708 -13.18461,6.6099 -19.77691,9.9149 -2.38843,0.3044 -4.9834,-0.1048 -7.16529,0.9134 -1.33926,0.6249 3.06537,0.9631 4.41835,0.3684 3.95713,-1.7392 8.16995,-10.5304 8.78647,-13.3501 1.94539,-8.8976 1.50017,-39.6109 1.53673,-45.0465 2.56554,-26.4542 2.11777,-39.253 11.23141,-64.4786 3.38967,-9.3823 7.83205,-18.4336 13.0785,-26.9184 9.27528,-15.0002 20.53362,-25.8592 33.95658,-36.8749 4.43818,-3.6423 9.32939,-6.6945 13.99409,-10.0418 -15.24327,-7.2849 11.96684,-3.0541 10.34915,-6.8646 -2.76617,-6.5157 -4.06887,-4.8283 -7.74452,-3.2334 -1.28407,0.5597 1.11475,6.0626 2.39882,5.5029 v 0 c 3.33897,-1.4631 5.32872,-1.2922 1.83514,-7.139 -2.12222,-3.5517 -12.09808,31.1685 -10.34383,6.8608 -4.8413,3.4902 -9.92234,6.6698 -14.52389,10.4705 -14.05387,11.6078 -25.64875,22.9125 -35.3263,38.7071 -5.42122,8.848 -9.98997,18.2864 -13.4923,28.0542 -9.25728,25.8179 -8.81673,38.9134 -11.41572,65.9159 -5.9e-4,0.091 0.18606,36.2601 -0.96755,42.5341 -0.50124,2.726 -1.90124,5.2572 -3.40247,7.5872 -1.31861,2.0465 -11.88494,9.4432 -3.48568,13.8839 2.68158,1.4177 5.98504,-0.9915 8.97755,-1.4872 6.79301,-3.4208 13.84662,-6.367 20.37902,-10.2625 22.39791,-13.3566 46.38032,-30.5652 64.9257,-48.7112 9.77219,-9.5618 18.59839,-20.1221 26.70332,-31.1326 17.3006,-23.503 26.06362,-42.7851 39.22692,-68.3025 3.72669,-7.8117 7.48069,-15.6104 11.18007,-23.435 1.9399,-4.1032 4.99003,-7.8713 5.73756,-12.3479 0.94013,-5.63 -2.03401,-9.7724 -6.31051,-5.9941 -4.82044,4.2587 -9.17318,14.4776 -11.60351,19.1579 -5.89369,14.1984 -13.35599,31.931 -18.6258,45.8965 -4.16845,11.0467 -8.38136,22.0881 -11.99062,33.33 -4.0976,12.763 -7.62579,25.7047 -11.11772,38.6465 -8.15869,30.2378 -9.97367,39.6945 -16.37031,68.4361 -0.41996,4.2057 -5.65702,19.5591 5.386,20.7646 2.23925,0.2445 3.29822,-3.3303 3.94169,-5.489 1.80999,-6.0721 2.72677,-12.4117 3.27578,-18.724 2.05732,-23.6541 0.68699,-42.4552 -0.0718,-66.3261 -0.45637,-16.7885 -2.13929,-31.6481 1.16088,-48.0249 0.3522,-1.7478 7.07736,-16.927 5.45067,-20.783 -2.75645,-6.5342 -21.18106,-0.1951 -21.17393,-2.0747 -18.07698,5.1696 -25.73586,5.7704 -41.56312,16.7597 -4.99657,3.4693 -9.31611,7.9087 -13.24874,12.5494 -4.25351,5.0194 -7.81812,10.6112 -11.17369,16.2704 -3.26707,5.51 -15.85699,31.4084 -18.85964,37.52 -4.86115,7.9304 -7.62675,14.9324 -15.37642,20.1981 -2.54954,1.7323 -6.40846,1.4138 -8.47385,3.7019 -1.83669,2.0347 -3.57465,5.6809 -2.05514,7.9623 5.76063,8.649 31.77454,-11.1357 31.16185,0.9206 11.01864,-1.7268 22.11211,-3.0296 33.05593,-5.1802 26.60871,-5.2288 54.54907,-12.9711 80.70238,-19.9532 11.21818,-2.9949 22.43638,-5.9908 33.62914,-9.0793 7.14696,-1.9722 15.13676,-2.1173 21.38868,-6.1025 2.15966,-1.3767 0.15513,-5.1199 0.2327,-7.6799 -27.90128,-2.1233 -23.90092,-2.4672 -60.53823,-0.5033 -29.57143,1.5852 -51.16818,3.6035 -79.50096,8.5414 -7.93365,1.3827 -15.79376,3.1735 -23.63202,5.0218 -4.94427,1.1659 -9.80041,2.6781 -14.70061,4.0172 -1.04057,0.36 -18.19262,2.8493 -11.5161,11.2775 1.61962,2.0445 5.19461,0.9952 7.79016,0.7374 6.58127,-0.6539 13.13224,-1.8086 19.53834,-3.4526 26.82132,-6.883 31.8706,-10.4838 57.8431,-21.9977 9.10987,-4.9839 18.36679,-9.708 27.3296,-14.9518 6.726,-3.9352 13.11462,-8.4209 19.71091,-12.5698 2.81418,-1.77 5.39927,-4.0379 8.51921,-5.1862 13.94778,-5.1336 6.38505,2.3283 22.61143,-1.1731 4.24657,-0.9164 7.82633,-3.7738 11.7395,-5.6606 -12.84244,-5.8903 -5.56866,-3.0843 -32.99711,-6.174 -16.90336,-1.9041 -33.84675,-3.4536 -50.79834,-4.8653 -20.40478,-1.6993 -40.83882,-3.028 -61.2636,-4.467 -31.28845,-2.2045 -48.53713,-3.2885 -76.94366,-5.1174 -4.75997,-0.1762 -9.51697,-0.5822 -14.2799,-0.5286 -7.04903,0.079 -14.08471,-0.6842 -16.90769,8.1364 -0.43703,1.3655 2.79272,0.8613 4.22536,0.8045 20.05025,-0.7943 34.59972,-4.2003 55.34957,-7.6954 44.56078,-11.2126 42.97328,-9.3693 85.43203,-25.6837 10.06001,-3.8654 19.76678,-8.5967 29.72253,-12.7232 4.77096,-1.9775 9.49775,-4.1259 14.45148,-5.5864 3.48422,-1.0273 15.6157,-2.2558 19.37031,-2.6825 -0.71561,-9.3518 1.42885,-6.2783 -11.41834,-8.7527 -8.03835,-1.5482 -16.12424,-2.854 -24.22581,-4.0273 -18.07058,-2.6171 -38.57471,-5.0095 -56.90631,-6.4314 -5.06082,-0.3926 -10.141,-0.4735 -15.21149,-0.7102 -1.40077,0 -1.40077,6.003 0,6.003 z"
       transform="rotate(180,-410.37196,-1460.404)" /></g></svg>
