<?xml version="1.0" encoding="UTF-8" standalone="no"?>
<!-- Created with Inkscape (http://www.inkscape.org/) -->

<svg
   width="178.95584mm"
   height="159.31616mm"
   viewBox="0 0 178.95584 159.31616"
   version="1.1"
   id="svg5"
   xml:space="preserve"
   xmlns="http://www.w3.org/2000/svg"
   xmlns:svg="http://www.w3.org/2000/svg"><defs
     id="defs2"><linearGradient
       id="linearGradient2560"
       gradientTransform="matrix(9.0769026e-5,0,0,9.0769026e-5,-4.7216088,-40.298232)"><stop
         style="stop-color:#ffffff;stop-opacity:1;"
         offset="0"
         id="stop2558" /></linearGradient><linearGradient
       id="linearGradient2554"><stop
         style="stop-color:#eeccb2;stop-opacity:1;"
         offset="0"
         id="stop2552" /></linearGradient><linearGradient
       id="linearGradient10538"
       gradientTransform="matrix(0,0,0,0,2171.8017,136.61469)"><stop
         style="stop-color:#e4c7ff;stop-opacity:1;"
         offset="0"
         id="stop10536" /></linearGradient><linearGradient
       id="linearGradient10280"
       gradientTransform="matrix(0,0,0,0,4588.3696,12544.551)"><stop
         style="stop-color:#fcef7f;stop-opacity:1;"
         offset="0"
         id="stop10278" /></linearGradient><linearGradient
       id="linearGradient9548"
       gradientTransform="matrix(3.4306404e-4,0,0,3.4306404e-4,-707.70461,-2098.3102)"><stop
         style="stop-color:#9aa49b;stop-opacity:1;"
         offset="0"
         id="stop9546" /></linearGradient><linearGradient
       id="linearGradient8816"
       gradientTransform="matrix(2.4015971e-5,0,0,2.4015971e-5,-561.32101,-1567.6908)"><stop
         style="stop-color:#ff2050;stop-opacity:1;"
         offset="0"
         id="stop8814" /></linearGradient><linearGradient
       id="linearGradient8084"
       gradientTransform="matrix(0.07000434,0,0,0.07000434,-686.55801,-1979.5711)"><stop
         style="stop-color:#ff8157;stop-opacity:1;"
         offset="0"
         id="stop8082" /></linearGradient><linearGradient
       id="linearGradient6626"
       gradientTransform="matrix(0.01852198,0,0,0.01852198,-718.45904,-2089.6906)"><stop
         style="stop-color:#e4c7ff;stop-opacity:1;"
         offset="0"
         id="stop6624" /></linearGradient><linearGradient
       id="linearGradient6620"
       gradientTransform="matrix(0,0,0,0,75.93373,58.971845)"><stop
         style="stop-color:#544cf8;stop-opacity:1;"
         offset="0"
         id="stop6618" /></linearGradient><linearGradient
       id="linearGradient5888"
       gradientTransform="matrix(0,0,0,0,-486.97993,-1575.8712)"><stop
         style="stop-color:#1c4939;stop-opacity:1;"
         offset="0"
         id="stop5886" /></linearGradient><linearGradient
       id="linearGradient5882"
       gradientTransform="matrix(1.4751574e-5,-2.3311945e-7,4.9457063e-6,9.0729955e-5,1621.803,413.03004)"><stop
         style="stop-color:#81e0a0;stop-opacity:1;"
         offset="0"
         id="stop5880" /></linearGradient><linearGradient
       id="linearGradient4424"
       gradientTransform="matrix(-0.01510627,-0.00766461,-0.00795902,0.01454747,1112.771,-485.21619)"><stop
         style="stop-color:#ff0000;stop-opacity:1;"
         offset="0"
         id="stop4422" /></linearGradient><linearGradient
       id="linearGradient4418"><stop
         style="stop-color:#ffffff;stop-opacity:1;"
         offset="0"
         id="stop4416" /></linearGradient><linearGradient
       id="linearGradient3686"
       gradientTransform="scale(0.26458333)"><stop
         style="stop-color:#eeccb2;stop-opacity:1;"
         offset="0"
         id="stop3684" /></linearGradient><filter
       height="1.1755817"
       y="-0.087785341"
       width="1.1110518"
       x="-0.055525623"
       style="color-interpolation-filters:sRGB"
       id="filter2464"><feGaussianBlur
         stdDeviation="3"
         result="result10"
         id="feGaussianBlur2446" /><feBlend
         in2="result10"
         mode="normal"
         in="result10"
         result="fbSourceGraphic"
         id="feBlend2448" /><feGaussianBlur
         stdDeviation="3"
         result="result8"
         in="fbSourceGraphic"
         id="feGaussianBlur2450" /><feTurbulence
         seed="0"
         result="result7"
         type="fractalNoise"
         numOctaves="1"
         baseFrequency="0.2"
         id="feTurbulence2452" /><feComposite
         in2="result8"
         result="result6"
         operator="in"
         in="result8"
         id="feComposite2454" /><feDisplacementMap
         in2="result6"
         in="result7"
         xChannelSelector="R"
         yChannelSelector="G"
         scale="50"
         result="result4"
         id="feDisplacementMap2456" /><feComposite
         in2="result4"
         result="result2"
         operator="arithmetic"
         in="result8"
         k1="1"
         k3="1"
         id="feComposite2458"
         k2="0"
         k4="0" /><feComposite
         in2="result2"
         result="fbSourceGraphic"
         in="fbSourceGraphic"
         operator="in"
         id="feComposite2460" /><feDisplacementMap
         in2="result4"
         yChannelSelector="G"
         scale="50"
         xChannelSelector="R"
         id="feDisplacementMap2462"
         result="fbSourceGraphic" /><feColorMatrix
         result="fbSourceGraphicAlpha"
         in="fbSourceGraphic"
         values="0 0 0 -1 0 0 0 0 -1 0 0 0 0 -1 0 0 0 0 1 0"
         id="feColorMatrix2466" /><feTurbulence
         id="feTurbulence2468"
         type="fractalNoise"
         numOctaves="3"
         baseFrequency="0.25 0.4"
         seed="5" /><feColorMatrix
         id="feColorMatrix2470"
         result="result5"
         values="1 0 0 0 0 0 1 0 0 0 0 0 1 0 0 0 0 0 1 0 " /><feComposite
         in2="result5"
         id="feComposite2472"
         in="fbSourceGraphic"
         operator="in" /><feMorphology
         id="feMorphology2474"
         operator="dilate"
         radius="1.5"
         result="result3" /><feTurbulence
         id="feTurbulence2476"
         numOctaves="5"
         baseFrequency="0.03"
         type="fractalNoise"
         seed="7" /><feGaussianBlur
         id="feGaussianBlur2478"
         stdDeviation="0.5"
         result="result91" /><feDisplacementMap
         in2="result91"
         id="feDisplacementMap2480"
         in="result3"
         xChannelSelector="R"
         yChannelSelector="G"
         scale="27"
         result="result4" /><feComposite
         in2="result4"
         id="feComposite2482"
         in="result4"
         k3="0.8"
         k1="1.3"
         result="result2"
         operator="arithmetic"
         k2="0"
         k4="0" /><feBlend
         in2="result2"
         id="feBlend2484"
         mode="screen"
         in="result2" /></filter></defs><g
     id="layer3"
     style="display:inline"
     transform="translate(538.33784,1565.7949)"><path
       style="fill:url(#linearGradient6626);fill-rule:evenodd;stroke:url(#linearGradient8084);stroke-width:2.6;stroke-linejoin:round;filter:url(#filter2464)"
       id="path2404"
       d="m -521.02748,-1549.1732 c 19.82477,0.3923 21.07839,0.1866 44.10238,2.0049 10.69991,0.8449 21.38849,1.8496 32.05784,3.0188 9.74025,1.0673 19.46588,2.2847 29.16315,3.6899 16.26958,2.3576 12.86887,1.4393 21.91645,4.4758 2.26742,-2.8342 -6.90724,-9.5067 -9.21201,-6.5308 -1.12139,1.448 0.58156,4.3333 2.28946,4.9945 3.32538,1.2874 7.13233,-0.035 10.69753,0.033 14.61521,0.28 18.31606,0.5366 32.16809,1.1804 2.32568,0.137 5.27712,2.0041 6.97703,0.411 1.3224,-1.2392 -0.96356,-3.5805 -2.03617,-5.0413 -0.4331,-0.5899 -1.37849,-0.5917 -2.11015,-0.6058 -3.38974,-0.065 -8.06745,1.0229 -11.20738,1.8256 -3.43037,0.8769 -6.82359,1.8932 -10.23539,2.8398 -16.01463,3.8102 -25.27039,6.0981 -42.2101,9.6778 -9.85852,2.0834 -19.74989,4.0084 -29.63383,5.9676 -9.7822,1.9391 -19.55886,3.9092 -29.3643,5.7271 -10.12694,1.8775 -24.46756,4.2253 -35.39314,6.0369 -1.16855,0.175 -3.20662,-0.618 -3.50566,0.5251 -0.50124,1.9161 0.73423,4.0267 1.89514,5.6313 0.34498,0.4768 1.46508,-0.4728 1.41277,-1.059 -0.16073,-1.8015 -0.96448,-3.5491 -1.95872,-5.0599 -0.17729,-0.2694 -2.17348,-0.15 -2.5522,-0.1374 -2.23927,0.6615 -6.35497,1.393 1.33065,5.9786 1.65772,0.989 3.84351,-0.3646 5.76623,-0.5362 4.73917,-0.423 9.46957,-0.9686 14.21939,-1.2477 20.97016,-1.2321 31.43671,-1.0691 53.25907,-1.3317 28.58876,1.5246 30.88578,0.7744 58.24974,5.4608 7.0847,1.2134 14.08141,2.8991 21.0896,4.4961 4.09092,0.9323 8.14095,2.0361 12.20213,3.0903 0.96756,0.2512 2.64413,1.7964 2.88298,0.8257 0.52591,-2.1372 -1.00273,-4.2861 -1.50409,-6.4292 -5.19229,-0.4313 -7.64974,-0.9024 -12.89447,-0.2431 -5.34259,0.6716 -9.06698,2.4141 -14.29603,4.0955 -5.41363,1.7409 -10.76696,3.7039 -16.27859,5.1038 -11.02622,2.8006 -22.19824,4.9921 -33.29736,7.4882 -38.68448,6.5299 -41.33913,7.6015 -80.5734,11.7003 -22.10686,2.3095 -52.70778,4.4195 -75.13236,5.7683 -9.38473,0.5644 -18.77887,0.9601 -28.1672,1.4612 -3.40943,0.1819 -6.8173,0.3918 -10.22595,0.5877 1.47016,1.9858 2.11946,5.0322 4.41049,5.9572 3.02147,1.2199 6.51462,-0.1773 9.77264,-0.2307 5.78513,-0.095 9.58321,-0.087 15.18088,-0.03 1.74889,0.018 3.49822,0.1327 5.24636,0.078 2.27285,-0.071 4.53784,-0.3023 6.80676,-0.4535 25.74566,-2.0602 51.5029,-3.9764 77.27432,-5.687 12.68529,-0.842 25.3708,-1.6865 38.06346,-2.409 12.87598,-0.7329 25.75255,-1.4907 38.64094,-1.957 12.05915,-0.4363 24.1289,-0.5005 36.19335,-0.7508 29.87244,1.169 40.41801,0.806 68.85042,4.5969 5.87676,0.7835 11.7473,1.7892 17.47037,3.3373 1.40469,0.38 3.43587,3.8164 3.66058,2.3787 0.87991,-5.6298 -6.8886,-4.6262 -8.93435,-4.7384 -1.2097,-0.2321 -3.05414,-1.7856 -3.62912,-0.6963 -0.92532,1.7531 -0.0413,4.1313 0.89331,5.8795 0.42449,0.794 1.83605,0.2274 2.61387,0.6809 0.30798,0.1796 0.65964,0.955 0.3098,1.0237 -1.58568,0.3109 -3.2951,-0.5883 -4.84583,-0.1341 -5.07977,1.4881 -9.83525,3.9168 -14.75287,5.8752 -8.78125,2.5517 -17.46757,5.4562 -26.34376,7.655 -21.75928,5.3902 -51.35401,10.7719 -73.27152,14.2852 -20.12857,3.2266 -45.92282,6.9266 -66.63751,8.0399 -7.29818,0.3922 -14.61742,-0.015 -21.92614,-0.023 -12.42155,-1.5178 -10.94232,-0.9058 -20.42442,-3.1497 -0.14881,-0.035 0.51022,-0.1579 0.45855,-0.014 -0.66846,1.8621 -0.42494,5.3512 -2.40192,5.4277 -1.85147,0.072 -0.35072,-4.0871 -1.78037,-5.2657 -1.30015,-1.0719 -3.36154,-0.2394 -5.04231,-0.3591 -1.44513,-0.1723 -2.89025,-0.3447 -4.33537,-0.517 -0.29394,-0.1378 -1.04144,-0.696 -0.88182,-0.4134 0.90225,1.5978 1.36395,4.2581 3.1841,4.4905 4.90163,0.6257 9.75559,-1.5943 14.6581,-2.2129 8.26314,-1.0428 16.53335,-2.0632 24.83193,-2.7705 10.76558,-0.9175 21.5637,-1.4016 32.34555,-2.1024 37.44556,-1.1774 42.65799,-1.9292 81.03381,-0.631 13.48663,0.4563 26.96231,1.2521 40.42292,2.2059 10.64094,0.754 21.26677,1.7434 31.86967,2.9166 17.21557,1.9049 13.34727,-1.5103 18.41314,3.3914 -1.9672,-1.7477 -3.40012,-4.4264 -5.9016,-5.243 -1.97317,-0.6441 -20.54986,0.8539 -21.47226,0.9574 -4.71654,0.5297 -9.39665,1.3453 -14.08946,2.0551 -15.19468,2.2981 -15.36024,2.402 -30.56488,5.0015 -10.2303,1.4857 -26.16024,4.1508 -36.2748,4.0437 -18.04279,-0.191 -36.98169,-2.9265 -54.29713,-8.0004 -18.78659,-5.505 -25.16086,-10.0646 -41.76392,-19.1316 -9.66017,-6.4082 -18.62718,-11.1969 -26.2283,-20.0176 -1.56493,-1.816 -2.6635,-4.0843 -3.27737,-6.4016 -0.16105,-0.608 0.56772,-1.5097 1.19471,-1.4604 0.3626,1.7957 -0.2167,1.6192 0.97884,1.5306 -0.29742,-7.0293 1.65308,-5.7251 -3.01914,-7.8078 -0.65198,-0.2906 -1.59666,-1.3582 -1.99886,-0.7684 -1.16666,1.7106 -3.2008,4.7264 -1.5751,6.0087 3.7595,2.9655 9.23061,2.5563 13.88083,3.6981 9.30698,2.285 18.65783,4.3875 27.98675,6.5813 37.49213,8.1986 46.49869,10.4645 84.92118,17.6156 12.90279,2.4014 25.84384,4.5961 38.79193,6.7398 28.41403,4.7044 29.9775,4.5521 56.28901,8.4984 6.12221,0.9182 12.23243,1.9148 18.34865,2.8721 2.8846,0.6022 5.85688,2.7342 8.65381,1.8065 0.32381,-0.1074 -3.08672,-5.4717 -4.03001,-5.9347 -1.35704,-0.6662 -3.0203,-0.4434 -4.42054,-1.0132 -2.21855,-0.9028 -6.92867,-5.5631 -7.92643,-6.4611 -5.42958,-4.158 -16.0601,-12.0355 -20.41609,-16.6477 -3.10089,-3.2833 -6.21141,-6.758 -8.10066,-10.86 -4.09417,-8.8893 -3.46316,-22.1842 -3.36154,-31.2456 0.079,-7.0431 0.46602,-14.0794 0.69903,-21.119 1.0459,-25.837 0.58845,-16.58 1.90298,-41.3937 0.27471,-5.1855 0.71244,-10.3643 0.84396,-15.5554 0.0178,-0.7028 0.82219,-11.0213 -2.19377,-12.7162 -1.68502,-0.9469 -3.86364,-0.127 -5.79547,-0.1906 -3.27318,1.269 -1.73064,4.6728 -3.04228,6.7709 -2.19395,3.5093 -4.94215,6.6401 -7.41323,9.9601 -4.91895,7.264 -10.16961,14.3141 -14.75687,21.7919 -20.37901,33.2206 -18.1654,32.0323 -34.11386,69.4329 -8.85357,32.5349 -12.13902,36.9692 -13.73385,68.8079 -0.33396,6.667 0.21726,13.3661 0.91019,20.0054 0.29088,2.787 0.0675,6.1569 2.02916,8.158 7.22531,7.3706 7.36248,-5.5011 7.57437,-6.5963 -0.10261,-1.632 -0.0851,-3.2759 -0.30783,-4.8958 -1.11467,-8.1064 -3.15763,-14.6387 -5.97007,-22.6626 -2.58748,-7.3821 -5.42676,-14.6764 -8.37195,-21.9232 -0.95307,-2.3451 -22.67109,-53.0045 -23.17582,-54.1826 -7.69838,-19.5294 -13.71328,-31.8214 -17.60553,-52.1943 -1.65053,-8.6392 -2.8243,-18.6468 0.85664,-27.1164 0.21807,-0.5017 1.6189,0.2225 1.46169,0.7466 -0.35356,1.1785 -1.66687,1.8103 -2.50031,2.7155 -1.44121,3.2856 -2.70886,6.6529 -4.32363,9.8568 -3.24115,6.4308 -6.9006,12.6431 -10.23376,19.0267 -8.64341,16.5537 -15.40555,28.8654 -21.23125,46.5799 -5.72782,17.4169 -5.79365,22.9488 -8.09924,39.9382 -0.62331,7.6778 -0.87341,14.3104 -2.36254,21.7628 -0.38882,1.9459 -0.97744,3.8497 -1.59826,5.7344 -0.32299,0.9806 -0.77267,1.9168 -1.2273,2.8437 -0.0234,0.048 -0.16377,-0.1239 -0.11146,-0.1142 1.73094,0.3197 3.45021,0.6998 5.17531,1.0496 -0.0944,-1.4338 0.024,-1.2352 -1.26112,-3.077 -0.35041,-0.5023 -1.00972,-0.7584 -1.30131,-1.2969 -2.90445,-5.3641 -7.46567,-21.9894 -7.78982,-23.0865 -2.70713,-9.1623 -5.23069,-18.3778 -7.84604,-27.5668 -5.53139,-19.6453 -13.95692,-47.7909 -17.63274,-67.9332 -1.62444,-8.9015 -3.27962,-17.929 -3.04277,-26.9744 0.14414,-5.5048 2.77843,-10.6572 4.16765,-15.9858 0.33786,-1.3594 -5.48792,-2.8073 -5.82577,-1.4479 v 0 c -1.43551,6.0371 -4.15218,11.9079 -4.30651,18.1114 -0.231,9.2857 1.49778,18.5479 3.1672,27.6852 3.69486,20.2234 12.14012,48.4443 17.69931,68.1882 2.50678,8.805 9.87353,35.6593 13.77304,46.3841 0.87544,2.4078 2.15073,4.6569 3.40952,6.8882 0.24675,0.4374 0.59939,1.2247 1.07295,1.0576 0.4278,-0.1509 -0.0866,-0.9353 -0.32431,-1.3217 -0.15611,-0.2538 0.04,0.5946 0.06,0.8919 1.76456,0.8068 3.37127,2.1578 5.29367,2.4204 0.63546,0.087 0.86078,-0.9691 1.15437,-1.5393 0.59227,-1.1503 1.08789,-2.3549 1.4847,-3.5863 0.68285,-2.1192 1.31539,-4.2626 1.74815,-6.4466 1.5041,-7.5908 1.74306,-14.0108 2.37349,-21.8403 0.7503,-5.6255 1.13487,-11.312 2.2509,-16.8765 3.49235,-17.4127 7.0009,-27.7618 14.43867,-44.0847 3.64851,-8.007 7.91744,-15.7172 11.98217,-23.5211 3.45542,-6.6341 7.53545,-12.9574 10.57721,-19.7911 1.9659,-4.4167 2.92361,-9.2162 4.38542,-13.8243 -1.83965,-2.1184 -2.81433,-5.6089 -5.51895,-6.3552 -1.95065,-0.5382 -4.07804,1.6496 -4.99135,3.4553 -1.71644,3.3935 -2.29735,7.3523 -2.39789,11.154 -0.16698,6.3131 0.40872,12.6767 1.60359,18.878 3.98732,20.694 10.07155,33.1766 17.87834,52.9761 0.32898,0.7678 22.23902,51.8794 23.08636,53.9617 4.98584,12.2522 9.23698,23.1995 12.61781,35.7967 1.3351,4.9747 1.30781,6.6007 1.65203,11.1088 0.20879,0.9539 0.0338,2.0856 0.62637,2.8617 0.90749,1.1886 3.03362,4.0589 3.60126,2.6754 0.90988,-2.2176 -1.59212,-4.5664 -1.84751,-6.9498 -0.6778,-6.3257 -1.24389,-12.7079 -0.93975,-19.0626 1.4858,-31.0441 4.68244,-35.299 13.29018,-67.1148 5.28716,-12.4321 9.91182,-25.1674 15.86147,-37.2965 10.75777,-21.931 19.23624,-33.5026 32.37351,-52.7945 0.56755,-0.8335 8.57831,-8.8121 8.71038,-14.0195 0.008,-0.3241 -0.15986,-0.6284 -0.23978,-0.9426 -0.7766,-0.7016 -1.44519,-1.5455 -2.32981,-2.1048 -0.512,-0.3237 1.09249,0.7807 1.18283,1.3797 0.40045,2.6551 0.3084,5.3677 0.23965,8.052 -0.13309,5.1956 -0.56981,10.3791 -0.84469,15.5691 -1.31745,24.875 -0.86023,15.6238 -1.90783,41.5077 -0.23373,7.1435 -0.65498,14.2834 -0.70119,21.4306 -0.0753,11.6411 -0.65233,23.8293 4.57039,34.7458 2.13509,4.4627 5.58998,8.2156 8.99177,11.8075 4.46948,4.7194 14.72491,12.2933 20.33389,16.5761 1.94242,1.7023 3.74999,3.5721 5.82724,5.1069 2.73333,2.0197 6.33925,3.8074 9.8508,3.8446 2.5617,0.027 5.81045,0.8225 7.6216,-0.9893 1.22785,-1.2284 -0.24874,-3.9884 -1.71434,-4.9203 -2.57124,-1.6349 -5.96645,-1.2402 -8.94968,-1.8604 -6.13831,-0.9607 -12.27063,-1.9605 -18.41495,-2.8821 -26.25271,-3.9375 -27.77735,-3.7798 -56.12353,-8.472 -12.90375,-2.1359 -25.80053,-4.3224 -38.65914,-6.7152 -38.32671,-7.1321 -47.30394,-9.3909 -84.7074,-17.5695 -9.28935,-2.184 -18.58547,-4.3395 -27.86805,-6.5521 -4.09081,-0.9751 -8.0707,-3.4635 -12.25171,-3.011 -1.98482,0.2149 -2.91132,2.8869 -3.66871,4.7341 -0.20227,0.4933 1.01157,0.3412 1.50047,0.5539 3.95498,1.7204 1.66202,2.0898 4.98836,-3.5607 -2.31218,0.2906 -4.52425,0.3834 -6.14495,2.9552 -2.86532,4.5467 1.31918,10.8561 3.86352,13.7872 3.30426,3.8065 7.20516,7.0896 11.21639,10.142 5.14563,3.9158 10.78502,7.1362 16.17753,10.7043 17.32783,9.409 23.76885,14.0273 43.37373,19.7286 18.04868,5.2487 37.26877,7.938 56.05398,8.1138 10.27934,0.096 26.37873,-2.5958 36.79064,-4.1091 15.63282,-2.6733 14.7958,-2.6055 30.42291,-4.979 4.54755,-0.6907 9.08189,-1.4892 13.65232,-2.0073 3.75862,-0.4261 7.53921,-0.6551 11.31817,-0.8232 3.31953,-0.1477 6.80078,0.8822 9.96769,-0.1236 3.36548,-1.069 5.88873,-3.8986 8.83309,-5.8479 -8.18683,-4.3408 -3.55615,-2.3436 -21.04416,-4.2766 -10.67611,-1.18 -21.3753,-2.1747 -32.08965,-2.9326 -13.54166,-0.958 -27.09845,-1.7571 -40.66625,-2.2142 -38.5923,-1.3002 -43.86342,-0.5439 -81.50717,0.643 -28.0908,1.8315 -31.77245,1.567 -57.70546,4.9309 -9.51326,1.2339 -17.59502,-1.531 -19.00001,9.2875 -0.30339,2.3361 9.54164,-1.5423 6.94835,1.2908 2.22531,0.1036 12.37486,2.4672 9.73482,-5.7945 -0.61938,-1.9383 -3.21053,2.813 -3.83476,4.7497 -0.22954,0.7121 1.2214,0.9203 1.93972,1.1298 6.68041,1.9485 15.19494,2.5118 21.69258,3.2857 7.49569,0 15.00229,0.4013 22.48706,0 20.84668,-1.1263 46.85873,-4.8548 67.12087,-8.1049 22.08579,-3.5426 51.99894,-8.9844 73.90847,-14.4336 9.07708,-2.2576 17.95799,-5.2414 26.93698,-7.862 5.44938,-2.2801 11.54679,-3.3991 16.34812,-6.8402 6.59331,-4.7255 7.65049,-8.7006 1.94747,-11.3465 -1.30045,-0.6033 -3.15217,-1.7616 -4.22391,-0.8095 -7.37909,6.5556 0.22608,6.3471 2.86752,6.8103 3.79657,0.064 12.81022,2.1824 12.19592,-6.4248 -0.15203,-2.13 -3.54151,-2.5429 -5.59971,-3.1122 -5.88356,-1.6273 -11.94132,-2.6084 -17.99252,-3.4131 -28.73197,-3.8208 -39.40591,-3.4536 -69.57554,-4.6257 -12.1241,0.2524 -24.25351,0.3185 -36.3723,0.7572 -12.91358,0.4675 -25.8153,1.2269 -38.71645,1.9613 -12.70555,0.7232 -25.40394,1.5687 -38.10211,2.4116 -25.76818,1.7105 -51.52224,3.6259 -77.26465,5.6863 -2.10303,0.1467 -4.20197,0.3747 -6.3091,0.4403 -1.76498,0.055 -3.53117,-0.061 -5.29691,-0.079 -5.67186,-0.058 -9.49982,-0.065 -15.36166,0.031 -3.23012,0.053 -6.75138,-1.115 -9.68895,0.2293 -2.19679,1.0053 -2.6719,4.0258 -4.00784,6.0387 3.3975,-0.1954 6.79423,-0.4046 10.1925,-0.586 9.4177,-0.5027 18.84123,-0.8999 28.25531,-1.4664 22.55186,-1.3571 53.23281,-3.4741 75.46151,-5.7993 39.51461,-4.1335 42.18763,-5.2148 81.16394,-11.8027 11.25822,-2.5388 22.5898,-4.7719 33.77467,-7.6165 5.55666,-1.4132 10.95581,-3.387 16.41238,-5.1475 3.90984,-1.2614 8.42436,-3.2141 12.6462,-3.7834 4.60767,-0.6213 6.83701,-0.2175 11.40516,0.1267 1.45445,-1.7409 3.88916,-3.0042 4.36335,-5.2226 0.22175,-1.0374 -2.03343,-0.6071 -3.0603,-0.8734 -4.13538,-1.0724 -8.25939,-2.1955 -12.42533,-3.1423 -7.14931,-1.6247 -14.28736,-3.3382 -21.51462,-4.5707 -27.78198,-4.7376 -30.17576,-3.9842 -59.14678,-5.5172 -22.19915,0.269 -32.39125,0.1001 -53.7113,1.3542 -4.76044,0.2801 -9.50148,0.8264 -14.25125,1.2506 -1.87761,0.1676 -4.43747,-0.9342 -5.63084,0.5251 -6.39399,7.8186 3.75816,4.9334 -0.59702,6.0045 2.11291,-0.2237 -0.3824,-1.4193 -0.2643,-4.8125 0.0128,-0.3681 0.82602,-0.8966 0.95688,-0.5523 0.71424,1.879 -0.23069,4.4143 1.08787,5.9316 0.79545,0.9153 2.39853,-0.3598 3.59779,-0.5397 11.01785,-1.827 25.31296,-4.1672 35.56029,-6.067 9.81747,-1.8202 19.6062,-3.7925 29.40036,-5.7342 9.92486,-1.9676 19.85709,-3.9014 29.75642,-5.9936 17.14295,-3.6233 26.30493,-5.8934 42.50935,-9.7528 2.76043,-0.7681 11.43129,-3.3495 15.37261,-4.0041 1.55908,-0.259 3.1532,-0.2415 4.72013,-0.4477 1.97158,-0.2595 4.78434,0.7043 5.88985,-0.9487 1.93842,-2.8983 -5.12322,-11.2296 -8.69909,-5.8092 -8.67831,-0.4028 -24.46015,-1.2225 -32.60281,-1.1848 -4.45322,0.021 -9.38349,-1.3781 -13.34353,0.659 -1.86226,0.958 -1.53144,4.709 -0.14764,6.2809 1.39006,1.579 4.34739,1.5224 6.27445,0.6786 2.43789,-1.0674 3.6442,-3.8795 5.46631,-5.8192 -9.78029,-3.1374 -6.51891,-2.3355 -23.03157,-4.7266 -9.7607,-1.4133 -19.54994,-2.6375 -29.35386,-3.7109 -10.73479,-1.1753 -21.48886,-2.1857 -32.25441,-3.0341 -23.29464,-1.8358 -24.53838,-1.624 -44.64089,-2.0135 -1.40019,0.04 -1.22762,6.0408 0.17257,6.0005 z" /></g></svg>
