<?xml version="1.0" encoding="UTF-8" standalone="no"?>
<!-- Created with Inkscape (http://www.inkscape.org/) -->

<svg
   width="100%"
   height="auto"
   viewBox="0 0 107.73917 120.22974"
   version="1.1"
   id="svg5"
   xml:space="preserve"
   inkscape:version="1.2.2 (1:1.2.2+202212051552+b0a8486541)"
   sodipodi:docname="bfoxdraft.svg"
   xmlns:inkscape="http://www.inkscape.org/namespaces/inkscape"
   xmlns:sodipodi="http://sodipodi.sourceforge.net/DTD/sodipodi-0.dtd"
   xmlns="http://www.w3.org/2000/svg"
   xmlns:svg="http://www.w3.org/2000/svg"><sodipodi:namedview
     id="namedview7"
     pagecolor="#505050"
     bordercolor="#ffffff"
     borderopacity="1"
     inkscape:showpageshadow="0"
     inkscape:pageopacity="0"
     inkscape:pagecheckerboard="1"
     inkscape:deskcolor="#505050"
     inkscape:document-units="mm"
     showgrid="false"
     inkscape:zoom="1.2689249"
     inkscape:cx="337.68745"
     inkscape:cy="-5133.4797"
     inkscape:window-width="2166"
     inkscape:window-height="1336"
     inkscape:window-x="1994"
     inkscape:window-y="27"
     inkscape:window-maximized="1"
     inkscape:current-layer="layer1"
     inkscape:lockguides="false"
     showguides="true" /><defs
     id="defs2"><linearGradient
       id="linearGradient2560"
       inkscape:swatch="solid"
       gradientTransform="matrix(9.0769026e-5,0,0,9.0769026e-5,47.845192,-9.1303294)"><stop
         style="stop-color:#ffffff;stop-opacity:1;"
         offset="0"
         id="stop2558" /></linearGradient><linearGradient
       id="linearGradient2554"
       inkscape:swatch="solid"><stop
         style="stop-color:#eeccb2;stop-opacity:1;"
         offset="0"
         id="stop2552" /></linearGradient><linearGradient
       id="linearGradient10538"
       inkscape:swatch="solid"
       gradientTransform="matrix(0,0,0,0,-216.5073,-27.076947)"><stop
         style="stop-color:#e4c7ff;stop-opacity:1;"
         offset="0"
         id="stop10536" /></linearGradient><linearGradient
       id="linearGradient10280"
       inkscape:swatch="solid"
       gradientTransform="matrix(0,0,0,0,140.79759,-291.22169)"><stop
         style="stop-color:#fcef7f;stop-opacity:1;"
         offset="0"
         id="stop10278" /></linearGradient><linearGradient
       id="linearGradient9548"
       inkscape:swatch="solid"
       gradientTransform="scale(0.01852198)"><stop
         style="stop-color:#9aa49b;stop-opacity:1;"
         offset="0"
         id="stop9546" /></linearGradient><linearGradient
       id="linearGradient8816"
       inkscape:swatch="solid"
       gradientTransform="matrix(9.0769026e-5,0,0,9.0769026e-5,-4.37595,-14.411535)"><stop
         style="stop-color:#ff2050;stop-opacity:1;"
         offset="0"
         id="stop8814" /></linearGradient><linearGradient
       id="linearGradient8084"
       inkscape:swatch="solid"
       gradientTransform="translate(-0.14741627,-0.00257316)"><stop
         style="stop-color:#ff8157;stop-opacity:1;"
         offset="0"
         id="stop8082" /></linearGradient><linearGradient
       id="linearGradient6626"
       inkscape:swatch="solid"><stop
         style="stop-color:#e4c7ff;stop-opacity:1;"
         offset="0"
         id="stop6624" /></linearGradient><linearGradient
       id="linearGradient6620"
       inkscape:swatch="solid"
       gradientTransform="matrix(0,0,0,0,1.02802e-5,6.9615089e-6)"><stop
         style="stop-color:#544cf8;stop-opacity:1;"
         offset="0"
         id="stop6618" /></linearGradient><linearGradient
       id="linearGradient5888"
       inkscape:swatch="solid"
       gradientTransform="matrix(0,0,0,0,-0.08171277,-0.26648156)"><stop
         style="stop-color:#1c4939;stop-opacity:1;"
         offset="0"
         id="stop5886" /></linearGradient><linearGradient
       id="linearGradient5882"
       inkscape:swatch="solid"
       gradientTransform="matrix(1.4751574e-5,-2.3311945e-7,4.9457063e-6,9.0729955e-5,1621.803,413.03004)"><stop
         style="stop-color:#81e0a0;stop-opacity:1;"
         offset="0"
         id="stop5880" /></linearGradient><linearGradient
       id="linearGradient4424"
       inkscape:swatch="solid"
       gradientTransform="matrix(-0.01510627,-0.00766461,-0.00795902,0.01454747,704.50872,-503.87783)"><stop
         style="stop-color:#ff0000;stop-opacity:1;"
         offset="0"
         id="stop4422" /></linearGradient><linearGradient
       id="linearGradient4418"
       inkscape:swatch="solid"><stop
         style="stop-color:#ffffff;stop-opacity:1;"
         offset="0"
         id="stop4416" /></linearGradient><linearGradient
       id="linearGradient3686"
       inkscape:swatch="solid"
       gradientTransform="scale(0.26458333)"><stop
         style="stop-color:#eeccb2;stop-opacity:1;"
         offset="0"
         id="stop3684" /></linearGradient></defs><g
     inkscape:label="Layer 1"
     inkscape:groupmode="layer"
     id="layer1"
     style="display:inline"
     transform="translate(-88.175837,1463.0706)"><path
       style="fill:#ffb023;fill-opacity:0;fill-rule:evenodd;stroke:#ff0d0d;stroke-width:2.51354;stroke-linejoin:round;stroke-dasharray:none;stroke-opacity:1;paint-order:fill markers stroke"
       d="m 194.49028,-1461.8135 0.16796,113.8125 c -0.65906,3.4493 -7.67991,4.547 -10.59549,3.5003 l 4.05644,-116.6758 c 2.31428,-0.075 4.3528,-0.2577 6.37109,-0.6374 z"
       id="path34080"
       sodipodi:nodetypes="cccccc" /><path
       style="fill:#ffb023;fill-opacity:0;fill-rule:evenodd;stroke:#ff0d0d;stroke-width:2.51354;stroke-linejoin:round;stroke-dasharray:none;stroke-opacity:1;paint-order:fill markers stroke"
       d="m 94.248582,-1460.5821 -4.815981,110.036 c 4.683128,3.0945 12.169099,1.8631 16.115669,-1.4893 l -3.57972,-108.9975 z"
       id="path34082"
       sodipodi:nodetypes="ccccc" /><path
       style="fill:#aeff00;fill-opacity:0;fill-rule:evenodd;stroke:#ff0d0d;stroke-width:1.85369;stroke-linecap:round;stroke-linejoin:round;stroke-dasharray:none;stroke-opacity:1;paint-order:fill markers stroke"
       d="m 146.34543,-1445.244 c -2.24762,-4.5344 -6.3156,2.5944 -4.08745,8.3192 0.37626,1.1589 1.52371,1.2766 2.21008,1.0739 2.76169,-0.8152 2.25337,-7.8456 1.87737,-9.3931 z"
       id="path34092"
       sodipodi:nodetypes="ccsc" /><path
       style="fill:#aeff00;fill-opacity:0;fill-rule:evenodd;stroke:#ff0d0d;stroke-width:1.85369;stroke-linecap:round;stroke-linejoin:round;stroke-dasharray:none;stroke-opacity:1;paint-order:fill markers stroke"
       d="m 131.93258,-1445.3309 c -5.41229,11.1864 6.9245,15.0301 3.55247,1.1803 -0.2196,-0.902 -0.98944,-1.2444 -1.53942,-1.6767 -0.62393,-0.2366 -1.43287,-0.7023 -2.01305,0.4964 z"
       id="path34094"
       sodipodi:nodetypes="sscs" /><path
       style="fill:#aeff00;fill-opacity:0;fill-rule:evenodd;stroke:#ff0d0d;stroke-width:1.99827;stroke-linecap:round;stroke-linejoin:round;stroke-dasharray:none;stroke-opacity:1;paint-order:fill markers stroke"
       d="m 112.13745,-1445.4746 c -6.39447,11.0028 8.18112,14.7834 4.19715,1.1609 -0.95407,-2.8373 -3.18618,-2.7854 -4.19715,-1.1609 z"
       id="path34096"
       sodipodi:nodetypes="ccc" /><path
       style="fill:#aeff00;fill-opacity:0;fill-rule:evenodd;stroke:#ff0d0d;stroke-width:1.85369;stroke-linecap:round;stroke-linejoin:round;stroke-dasharray:none;stroke-opacity:1;paint-order:fill markers stroke"
       d="m 137.49835,-1445.2278 c -3.22795,12.1663 6.54312,15.1904 3.55246,1.1803 -0.77632,-2.86 -2.97594,-3.1713 -3.55246,-1.1803 z"
       id="path34098"
       sodipodi:nodetypes="ccc" /><path
       style="display:inline;fill:#aeff00;fill-opacity:0;fill-rule:evenodd;stroke:#ff0d0d;stroke-width:1.85369;stroke-linecap:round;stroke-linejoin:round;stroke-dasharray:none;stroke-opacity:1;paint-order:fill markers stroke"
       d="m 183.0153,-1444.6092 c -2.24762,-4.5344 -6.3156,2.5944 -4.08745,8.3192 0.37626,1.1589 1.52371,1.2766 2.21008,1.0739 2.76169,-0.8152 2.25337,-7.8456 1.87737,-9.3931 z"
       id="path34092-6"
       sodipodi:nodetypes="ccsc" /><path
       style="display:inline;fill:#aeff00;fill-opacity:0;fill-rule:evenodd;stroke:#ff0d0d;stroke-width:1.85369;stroke-linecap:round;stroke-linejoin:round;stroke-dasharray:none;stroke-opacity:1;paint-order:fill markers stroke"
       d="m 168.60245,-1444.6961 c -5.41229,11.1864 6.9245,15.0301 3.55247,1.1803 -0.2196,-0.902 -0.98944,-1.2444 -1.53942,-1.6767 -0.62393,-0.2366 -1.43287,-0.7023 -2.01305,0.4964 z"
       id="path34094-1"
       sodipodi:nodetypes="sscs" /><path
       style="display:inline;fill:#aeff00;fill-opacity:0;fill-rule:evenodd;stroke:#ff0d0d;stroke-width:1.99827;stroke-linecap:round;stroke-linejoin:round;stroke-dasharray:none;stroke-opacity:1;paint-order:fill markers stroke"
       d="m 148.80732,-1444.8398 c -6.39447,11.0028 8.18112,14.7834 4.19715,1.1609 -0.95407,-2.8373 -3.18618,-2.7854 -4.19715,-1.1609 z"
       id="path34096-2"
       sodipodi:nodetypes="ccc" /><path
       style="display:inline;fill:#aeff00;fill-opacity:0;fill-rule:evenodd;stroke:#ff0d0d;stroke-width:1.85369;stroke-linecap:round;stroke-linejoin:round;stroke-dasharray:none;stroke-opacity:1;paint-order:fill markers stroke"
       d="m 174.16822,-1444.593 c -3.22795,12.1663 6.54312,15.1904 3.55246,1.1803 -0.77632,-2.86 -2.97594,-3.1713 -3.55246,-1.1803 z"
       id="path34098-9"
       sodipodi:nodetypes="ccc" /><path
       style="fill:#aeff00;fill-opacity:0;fill-rule:evenodd;stroke:#ff0d0d;stroke-width:1.85939;stroke-linecap:round;stroke-linejoin:round;stroke-dasharray:none;stroke-opacity:1;paint-order:fill markers stroke"
       d="m 179.42655,-1370.8032 c -2.2619,-4.5334 -6.35574,2.594 -4.11342,8.3177 0.37865,1.1586 1.53339,1.2763 2.22412,1.0737 2.77924,-0.8151 2.26769,-7.8441 1.8893,-9.3914 z"
       id="path34100"
       sodipodi:nodetypes="ccsc" /><path
       style="fill:#aeff00;fill-opacity:0;fill-rule:evenodd;stroke:#ff0d0d;stroke-width:1.85939;stroke-linecap:round;stroke-linejoin:round;stroke-dasharray:none;stroke-opacity:1;paint-order:fill markers stroke"
       d="m 164.92211,-1370.89 c -5.44669,11.1842 6.9685,15.0272 3.57504,1.1801 -0.81265,-2.8842 -2.71392,-2.8314 -3.57504,-1.1801 z"
       id="path34102"
       sodipodi:nodetypes="ccc" /><path
       style="fill:#aeff00;fill-opacity:0;fill-rule:evenodd;stroke:#ff0d0d;stroke-width:1.85939;stroke-linecap:round;stroke-linejoin:round;stroke-dasharray:none;stroke-opacity:1;paint-order:fill markers stroke"
       d="m 170.52324,-1370.7869 c -5.44668,11.1842 6.96851,15.0271 3.57505,1.18 -0.81266,-2.8841 -2.71387,-2.8314 -3.57505,-1.18 z"
       id="path34106"
       sodipodi:nodetypes="ccc" /><path
       style="fill:#aeff00;fill-opacity:0;fill-rule:evenodd;stroke:#ff0d0d;stroke-width:2.11808;stroke-linecap:round;stroke-linejoin:round;stroke-dasharray:none;stroke-opacity:1;paint-order:fill markers stroke"
       d="m 110.28747,-1370.877 c 2.76237,-4.4284 7.76202,2.5338 5.02356,8.125 -0.46243,1.1318 -1.87267,1.2467 -2.71623,1.0489 -3.39418,-0.7963 -2.76945,-7.6625 -2.30733,-9.1739 z"
       id="path34116"
       sodipodi:nodetypes="ccsc" /><path
       style="fill:#aeff00;fill-opacity:0;fill-rule:evenodd;stroke:#ff0d0d;stroke-width:1.89194;stroke-linecap:round;stroke-linejoin:round;stroke-dasharray:none;stroke-opacity:1;paint-order:fill markers stroke"
       d="m 127.27443,-1371.0674 c 5.63344,11.1953 -7.20744,15.0421 -3.69762,1.1812 0.78849,-2.8484 2.7994,-2.8478 3.69762,-1.1812 z"
       id="path34118"
       sodipodi:nodetypes="ccc" /><path
       style="fill:#aeff00;fill-opacity:0;fill-rule:evenodd;stroke:#ff0d0d;stroke-width:2.11808;stroke-linecap:round;stroke-linejoin:round;stroke-dasharray:none;stroke-opacity:1;paint-order:fill markers stroke"
       d="m 147.20428,-1371.3336 c 7.23525,10.9251 -9.25681,14.6791 -4.74901,1.1527 1.07951,-2.8174 3.60511,-2.7658 4.74901,-1.1527 z"
       id="path34120"
       sodipodi:nodetypes="ccc" /><path
       style="fill:#aeff00;fill-opacity:0;fill-rule:evenodd;stroke:#ff0d0d;stroke-width:2.11808;stroke-linecap:round;stroke-linejoin:round;stroke-dasharray:none;stroke-opacity:1;paint-order:fill markers stroke"
       d="m 120.92704,-1370.8611 c 6.36125,10.9251 -8.13861,14.6791 -4.17534,1.1527 0.9491,-2.8174 3.16955,-2.7658 4.17534,-1.1527 z"
       id="path34122"
       sodipodi:nodetypes="ccc" /><path
       style="fill:none;fill-opacity:1;fill-rule:evenodd;stroke:#ff0d0d;stroke-width:0.5;stroke-linecap:round;stroke-linejoin:round;stroke-dasharray:none;stroke-dashoffset:0;stroke-opacity:1;paint-order:normal"
       d="m 99.634354,-1369.3645 c -1.088783,0.8116 -1.311815,2.663 1.46e-4,3.3056"
       id="path34124" /><path
       style="display:inline;fill:none;fill-opacity:1;fill-rule:evenodd;stroke:#ff0d0d;stroke-width:0.5;stroke-linecap:round;stroke-linejoin:round;stroke-dasharray:none;stroke-dashoffset:0;stroke-opacity:1;paint-order:normal"
       d="m 98.668223,-1394.9615 c -0.982241,0.7658 -1.183448,2.5127 1.32e-4,3.119"
       id="path34126" /><path
       style="display:inline;fill:none;fill-opacity:1;fill-rule:evenodd;stroke:#ff0d0d;stroke-width:0.5;stroke-linecap:round;stroke-linejoin:round;stroke-dasharray:none;stroke-dashoffset:0;stroke-opacity:1;paint-order:normal"
       d="m 98.720714,-1419.0669 c -0.957213,0.842 -1.153293,2.7628 1.29e-4,3.4295"
       id="path34128" /><path
       style="display:inline;fill:none;fill-opacity:1;fill-rule:evenodd;stroke:#ff0d0d;stroke-width:0.5;stroke-linecap:round;stroke-linejoin:round;stroke-dasharray:none;stroke-dashoffset:0;stroke-opacity:1;paint-order:normal"
       d="m 99.043296,-1443.7495 c -0.716548,0.7378 -0.863329,2.4209 9.7e-5,3.0052"
       id="path34130" /><path
       style="display:inline;fill:none;fill-opacity:1;fill-rule:evenodd;stroke:#ff0d0d;stroke-width:0.499999;stroke-linecap:round;stroke-linejoin:round;stroke-dasharray:none;stroke-dashoffset:0;stroke-opacity:1;paint-order:normal"
       d="m 185.85482,-1344.6746 4.11265,-115.6993"
       id="path34132"
       sodipodi:nodetypes="cc" /><path
       style="fill:#aeff00;fill-opacity:0;fill-rule:evenodd;stroke:#ff0d0d;stroke-width:1.89194;stroke-linecap:round;stroke-linejoin:round;stroke-dasharray:none;stroke-opacity:1;paint-order:fill markers stroke"
       d="m 139.98666,-1371.0674 c 5.63344,11.1953 -7.20744,15.0421 -3.69762,1.1812 0.78849,-2.8484 2.7994,-2.8478 3.69762,-1.1812 z"
       id="path34152"
       sodipodi:nodetypes="ccc" /><path
       style="fill:#aeff00;fill-opacity:0;fill-rule:evenodd;stroke:#ff0d0d;stroke-width:2.11808;stroke-linecap:round;stroke-linejoin:round;stroke-dasharray:none;stroke-opacity:1;paint-order:fill markers stroke"
       d="m 133.86193,-1370.8611 c 7.23525,10.9251 -9.25681,14.6791 -4.74901,1.1527 1.07951,-2.8174 3.60503,-2.7658 4.74901,-1.1527 z"
       id="path34154"
       sodipodi:nodetypes="ccc" /><path
       style="fill:#aeff00;fill-opacity:0;fill-rule:evenodd;stroke:#ff0d0d;stroke-width:2.11808;stroke-linecap:round;stroke-linejoin:round;stroke-dasharray:none;stroke-opacity:1;paint-order:fill markers stroke"
       d="m 140.74396,-1396.8531 c 3.00465,-4.4284 8.44281,2.5338 5.46416,8.125 -0.50298,1.1318 -2.03691,1.2467 -2.95446,1.0489 -3.69188,-0.7963 -3.01235,-7.6625 -2.5097,-9.1739 z"
       id="path34180"
       sodipodi:nodetypes="ccsc" /><path
       style="fill:#aeff00;fill-opacity:0;fill-rule:evenodd;stroke:#ff0d0d;stroke-width:1.89194;stroke-linecap:round;stroke-linejoin:round;stroke-dasharray:none;stroke-opacity:1;paint-order:fill markers stroke"
       d="m 157.96987,-1397.0435 c 5.63344,11.1953 -7.20744,15.0421 -3.69762,1.1812 0.78849,-2.8484 2.7994,-2.8478 3.69762,-1.1812 z"
       id="path34182"
       sodipodi:nodetypes="ccc" /><path
       style="fill:#aeff00;fill-opacity:0;fill-rule:evenodd;stroke:#ff0d0d;stroke-width:2.11808;stroke-linecap:round;stroke-linejoin:round;stroke-dasharray:none;stroke-opacity:1;paint-order:fill markers stroke"
       d="m 177.89972,-1397.3097 c 7.23525,10.9251 -9.25681,14.6791 -4.74901,1.1527 1.07951,-2.8174 3.60511,-2.7658 4.74901,-1.1527 z"
       id="path34184"
       sodipodi:nodetypes="ccc" /><path
       style="fill:#aeff00;fill-opacity:0;fill-rule:evenodd;stroke:#ff0d0d;stroke-width:2.11808;stroke-linecap:round;stroke-linejoin:round;stroke-dasharray:none;stroke-opacity:1;paint-order:fill markers stroke"
       d="m 151.84514,-1396.8372 c 7.23525,10.9251 -9.25681,14.6791 -4.74901,1.1527 1.07951,-2.8174 3.60503,-2.7658 4.74901,-1.1527 z"
       id="path34186"
       sodipodi:nodetypes="ccc" /><path
       style="fill:#aeff00;fill-opacity:0;fill-rule:evenodd;stroke:#ff0d0d;stroke-width:1.89194;stroke-linecap:round;stroke-linejoin:round;stroke-dasharray:none;stroke-opacity:1;paint-order:fill markers stroke"
       d="m 170.6821,-1397.0435 c 5.63344,11.1953 -7.20744,15.0421 -3.69762,1.1812 0.78849,-2.8484 2.7994,-2.8478 3.69762,-1.1812 z"
       id="path34188"
       sodipodi:nodetypes="ccc" /><path
       style="fill:#aeff00;fill-opacity:0;fill-rule:evenodd;stroke:#ff0d0d;stroke-width:2.11808;stroke-linecap:round;stroke-linejoin:round;stroke-dasharray:none;stroke-opacity:1;paint-order:fill markers stroke"
       d="m 164.55737,-1396.8372 c 7.23525,10.9251 -9.25681,14.6791 -4.74901,1.1527 1.07951,-2.8174 3.60503,-2.7658 4.74901,-1.1527 z"
       id="path34190"
       sodipodi:nodetypes="ccc" /><path
       style="fill:#aeff00;fill-opacity:0;fill-rule:evenodd;stroke:#ff0d0d;stroke-width:2.11808;stroke-linecap:round;stroke-linejoin:round;stroke-dasharray:none;stroke-opacity:1;paint-order:fill markers stroke"
       d="m 105.4628,-1396.8531 c 3.00465,-4.4284 8.44281,2.5338 5.46416,8.125 -0.50298,1.1318 -2.03691,1.2467 -2.95446,1.0489 -3.69188,-0.7963 -3.01235,-7.6625 -2.5097,-9.1739 z"
       id="path34192"
       sodipodi:nodetypes="ccsc" /><path
       style="fill:#aeff00;fill-opacity:0;fill-rule:evenodd;stroke:#ff0d0d;stroke-width:1.89194;stroke-linecap:round;stroke-linejoin:round;stroke-dasharray:none;stroke-opacity:1;paint-order:fill markers stroke"
       d="m 122.68871,-1397.0435 c 5.63344,11.1953 -7.20744,15.0421 -3.69762,1.1812 0.78849,-2.8484 2.7994,-2.8478 3.69762,-1.1812 z"
       id="path34194"
       sodipodi:nodetypes="ccc" /><path
       style="fill:#aeff00;fill-opacity:0;fill-rule:evenodd;stroke:#ff0d0d;stroke-width:2.11808;stroke-linecap:round;stroke-linejoin:round;stroke-dasharray:none;stroke-opacity:1;paint-order:fill markers stroke"
       d="m 116.56398,-1396.8372 c 7.23525,10.9251 -9.25681,14.6791 -4.74901,1.1527 1.07951,-2.8174 3.60503,-2.7658 4.74901,-1.1527 z"
       id="path34196"
       sodipodi:nodetypes="ccc" /><path
       style="fill:#aeff00;fill-opacity:0;fill-rule:evenodd;stroke:#ff0d0d;stroke-width:1.85369;stroke-linecap:round;stroke-linejoin:round;stroke-dasharray:none;stroke-opacity:1;paint-order:fill markers stroke"
       d="m 126.37803,-1445.2278 c -3.22795,12.1663 6.54312,15.1904 3.55246,1.1803 -0.77632,-2.86 -2.97594,-3.1713 -3.55246,-1.1803 z"
       id="path34243"
       sodipodi:nodetypes="ccc" /><path
       style="fill:#aeff00;fill-opacity:0;fill-rule:evenodd;stroke:#ff0d0d;stroke-width:2.11808;stroke-linecap:round;stroke-linejoin:round;stroke-dasharray:none;stroke-opacity:1;paint-order:fill markers stroke"
       d="m 106.47234,-1421.9305 c 3.00465,-4.4284 8.44281,2.5338 5.46416,8.125 -0.50298,1.1318 -2.03691,1.2467 -2.95446,1.0489 -3.69188,-0.7963 -3.01235,-7.6625 -2.5097,-9.1739 z"
       id="path34245"
       sodipodi:nodetypes="ccsc" /><path
       style="fill:#aeff00;fill-opacity:0;fill-rule:evenodd;stroke:#ff0d0d;stroke-width:1.89194;stroke-linecap:round;stroke-linejoin:round;stroke-dasharray:none;stroke-opacity:1;paint-order:fill markers stroke"
       d="m 123.69825,-1422.1209 c 5.63344,11.1953 -7.20744,15.0421 -3.69762,1.1812 0.78849,-2.8484 2.7994,-2.8478 3.69762,-1.1812 z"
       id="path34247"
       sodipodi:nodetypes="ccc" /><path
       style="display:inline;fill:#aeff00;fill-opacity:0;fill-rule:evenodd;stroke:#ff0d0d;stroke-width:1.85369;stroke-linecap:round;stroke-linejoin:round;stroke-dasharray:none;stroke-opacity:1;paint-order:fill markers stroke"
       d="m 160.62121,-1421.092 c -2.24762,-4.5344 -6.3156,2.5944 -4.08745,8.3192 0.37626,1.1589 1.52371,1.2766 2.21008,1.0739 2.76169,-0.8152 2.25337,-7.8456 1.87737,-9.3931 z"
       id="path34092-3"
       sodipodi:nodetypes="ccsc" /><path
       style="display:inline;fill:#aeff00;fill-opacity:0;fill-rule:evenodd;stroke:#ff0d0d;stroke-width:1.85369;stroke-linecap:round;stroke-linejoin:round;stroke-dasharray:none;stroke-opacity:1;paint-order:fill markers stroke"
       d="m 146.34929,-1421.1789 c -4.85952,11.1864 6.21728,15.0301 3.18965,1.1803 -0.19717,-0.902 -0.88839,-1.2444 -1.3822,-1.6767 -0.5602,-0.2366 -1.28653,-0.7023 -1.80745,0.4964 z"
       id="path34094-19"
       sodipodi:nodetypes="sscs" /><path
       style="display:inline;fill:#aeff00;fill-opacity:0;fill-rule:evenodd;stroke:#ff0d0d;stroke-width:1.99827;stroke-linecap:round;stroke-linejoin:round;stroke-dasharray:none;stroke-opacity:1;paint-order:fill markers stroke"
       d="m 126.41323,-1421.3226 c -6.39447,11.0028 8.18112,14.7834 4.19715,1.1609 -0.95407,-2.8373 -3.18618,-2.7854 -4.19715,-1.1609 z"
       id="path34096-4"
       sodipodi:nodetypes="ccc" /><path
       style="display:inline;fill:#aeff00;fill-opacity:0;fill-rule:evenodd;stroke:#ff0d0d;stroke-width:1.85369;stroke-linecap:round;stroke-linejoin:round;stroke-dasharray:none;stroke-opacity:1;paint-order:fill markers stroke"
       d="m 151.23359,-1421.1495 c -3.22795,12.1663 6.54312,15.1904 3.55246,1.1803 -0.77632,-2.86 -2.97594,-3.1713 -3.55246,-1.1803 z"
       id="path34098-7"
       sodipodi:nodetypes="ccc" /><path
       style="fill:#aeff00;fill-opacity:0;fill-rule:evenodd;stroke:#ff0d0d;stroke-width:1.85939;stroke-linecap:round;stroke-linejoin:round;stroke-dasharray:none;stroke-opacity:1;paint-order:fill markers stroke"
       d="m 179.42655,-1420.4086 c -2.2619,-4.5334 -6.35574,2.594 -4.11342,8.3177 0.37865,1.1586 1.53339,1.2763 2.22412,1.0737 2.77924,-0.8151 2.26769,-7.8441 1.8893,-9.3914 z"
       id="path34276"
       sodipodi:nodetypes="ccsc" /><path
       style="fill:#aeff00;fill-opacity:0;fill-rule:evenodd;stroke:#ff0d0d;stroke-width:1.85939;stroke-linecap:round;stroke-linejoin:round;stroke-dasharray:none;stroke-opacity:1;paint-order:fill markers stroke"
       d="m 164.92211,-1420.4954 c -5.44669,11.1842 6.9685,15.0272 3.57504,1.1801 -0.81265,-2.8842 -2.71392,-2.8314 -3.57504,-1.1801 z"
       id="path34278"
       sodipodi:nodetypes="ccc" /><path
       style="fill:#aeff00;fill-opacity:0;fill-rule:evenodd;stroke:#ff0d0d;stroke-width:1.85939;stroke-linecap:round;stroke-linejoin:round;stroke-dasharray:none;stroke-opacity:1;paint-order:fill markers stroke"
       d="m 170.52324,-1420.3923 c -5.44668,11.1842 6.96851,15.0271 3.57505,1.18 -0.81266,-2.8841 -2.71387,-2.8314 -3.57505,-1.18 z"
       id="path34280"
       sodipodi:nodetypes="ccc" /><path
       style="fill:url(#linearGradient5882);fill-rule:evenodd;stroke:#ff0000;stroke-width:2.6;stroke-linecap:butt;stroke-linejoin:bevel;stroke-dasharray:none;stroke-opacity:1;paint-order:normal"
       d="m 98.939133,-1367.7583 10.972007,0.2329"
       id="path34282"
       sodipodi:nodetypes="cc" /><path
       style="display:inline;fill:url(#linearGradient5882);fill-rule:evenodd;stroke:#ff0000;stroke-width:2.6;stroke-linecap:butt;stroke-linejoin:bevel;stroke-dasharray:none;stroke-opacity:1;paint-order:normal"
       d="m 145.48617,-1366.5788 18.07987,0.322"
       id="path34282-4"
       sodipodi:nodetypes="cc" /><path
       style="fill:url(#linearGradient5882);fill-rule:evenodd;stroke:#ff0000;stroke-width:2.6;stroke-linecap:butt;stroke-linejoin:bevel;stroke-dasharray:none;stroke-opacity:1;paint-order:normal"
       d="m 98.042874,-1393.4211 7.519906,0.1955"
       id="path35168"
       sodipodi:nodetypes="cc" /><path
       style="display:inline;fill:url(#linearGradient5882);fill-rule:evenodd;stroke:#ff0000;stroke-width:2.6;stroke-linecap:butt;stroke-linejoin:bevel;stroke-dasharray:none;stroke-opacity:1;paint-order:normal"
       d="m 121.48747,-1392.809 18.87857,0.101"
       id="path35170"
       sodipodi:nodetypes="cc" /><path
       style="fill:url(#linearGradient5882);fill-rule:evenodd;stroke:#ff0000;stroke-width:2.6;stroke-linecap:butt;stroke-linejoin:bevel;stroke-dasharray:none;stroke-opacity:1;paint-order:normal"
       d="m 176.08302,-1392.0664 9.38164,0.3091"
       id="path35172"
       sodipodi:nodetypes="cc" /><path
       style="fill:url(#linearGradient5882);fill-rule:evenodd;stroke:#ff0000;stroke-width:2.6;stroke-linecap:butt;stroke-linejoin:bevel;stroke-dasharray:none;stroke-opacity:1;paint-order:normal"
       d="m 98.111806,-1417.3133 8.194984,0.073"
       id="path35174"
       sodipodi:nodetypes="cc" /><path
       style="display:inline;fill:url(#linearGradient5882);fill-rule:evenodd;stroke:#ff0000;stroke-width:2.6;stroke-linecap:butt;stroke-linejoin:bevel;stroke-dasharray:none;stroke-opacity:1;paint-order:normal"
       d="m 109.54879,-1417.2558 9.70861,0.1858"
       id="path35174-0"
       sodipodi:nodetypes="cc"
       inkscape:transform-center-x="5.7345242"
       inkscape:transform-center-y="-0.341501" /><path
       style="display:inline;fill:url(#linearGradient5882);fill-rule:evenodd;stroke:#ff0000;stroke-width:2.6;stroke-linecap:butt;stroke-linejoin:bevel;stroke-dasharray:none;stroke-opacity:1;paint-order:normal"
       d="m 127.98259,-1416.5307 17.07611,0.3029"
       id="path35176"
       sodipodi:nodetypes="cc" /><path
       style="fill:url(#linearGradient5882);fill-rule:evenodd;stroke:#ff0000;stroke-width:2.6;stroke-linecap:butt;stroke-linejoin:bevel;stroke-dasharray:none;stroke-opacity:1;paint-order:normal"
       d="m 177.0893,-1415.5676 9.13091,0.1582"
       id="path35178"
       sodipodi:nodetypes="cc" /><path
       style="fill:url(#linearGradient5882);fill-rule:evenodd;stroke:#ff0000;stroke-width:2.6;stroke-linecap:butt;stroke-linejoin:bevel;stroke-dasharray:none;stroke-opacity:1;paint-order:normal"
       d="m 98.626294,-1442.274 11.803726,0.4827"
       id="path35180"
       sodipodi:nodetypes="cc" /><path
       style="display:inline;fill:url(#linearGradient5882);fill-rule:evenodd;stroke:#ff0000;stroke-width:2.6;stroke-linecap:butt;stroke-linejoin:bevel;stroke-dasharray:none;stroke-opacity:1;paint-order:normal"
       d="m 114.03224,-1441.5829 12.32586,0.217"
       id="path35180-3"
       sodipodi:nodetypes="cc" /><path
       style="display:inline;fill:url(#linearGradient5882);fill-rule:evenodd;stroke:#ff0000;stroke-width:2.6;stroke-linecap:butt;stroke-linejoin:bevel;stroke-dasharray:none;stroke-opacity:1;paint-order:normal"
       d="m 150.40288,-1440.6292 17.57505,0.3465"
       id="path35182"
       sodipodi:nodetypes="cc" /><path
       style="fill:url(#linearGradient5882);fill-rule:evenodd;stroke:#ff0000;stroke-width:2.6;stroke-linecap:butt;stroke-linejoin:bevel;stroke-dasharray:none;stroke-opacity:1;paint-order:normal"
       d="m 180.92215,-1439.9148 6.57629,0.1893"
       id="path35184"
       sodipodi:nodetypes="cc" /><path
       style="fill:url(#linearGradient5882);fill-rule:evenodd;stroke:#ff0000;stroke-width:2.6;stroke-linecap:butt;stroke-linejoin:round;stroke-dasharray:none;stroke-opacity:1;paint-order:normal"
       d="m 177.31393,-1366.5315 8.179,0.1893"
       id="path35360"
       sodipodi:nodetypes="cc" /><path
       style="fill:url(#linearGradient5882);fill-rule:evenodd;stroke:#ff0000;stroke-width:2.6;stroke-linecap:butt;stroke-linejoin:bevel;stroke-dasharray:none;stroke-opacity:1;paint-order:normal"
       d="m 158.8146,-1416.0377 4.55913,0.1186"
       id="path35364"
       sodipodi:nodetypes="cc" /><path
       style="display:inline;fill:none;fill-opacity:1;fill-rule:evenodd;stroke:#ff0d0d;stroke-width:0.5;stroke-linecap:round;stroke-linejoin:round;stroke-dasharray:none;stroke-dashoffset:0;stroke-opacity:1;paint-order:normal"
       d="m 128.45369,-1418.0392 c -0.65498,0.7229 -0.78916,2.3722 1e-4,2.9446"
       id="path35411" /><path
       style="display:inline;fill:none;fill-opacity:1;fill-rule:evenodd;stroke:#ff0d0d;stroke-width:0.5;stroke-linecap:round;stroke-linejoin:round;stroke-dasharray:none;stroke-dashoffset:0;stroke-opacity:1;paint-order:normal"
       d="m 121.86428,-1394.3925 c -0.61617,0.7631 -0.74239,2.5038 9e-5,3.108"
       id="path35413" /><path
       style="display:inline;fill:none;fill-opacity:1;fill-rule:evenodd;stroke:#ff0d0d;stroke-width:0.5;stroke-linecap:round;stroke-linejoin:round;stroke-dasharray:none;stroke-dashoffset:0;stroke-opacity:1;paint-order:normal"
       d="m 176.41174,-1393.5005 c -0.61617,0.7207 -0.74239,2.3647 9e-5,2.9354"
       id="path35415" /><path
       style="display:inline;fill:none;fill-opacity:1;fill-rule:evenodd;stroke:#ff0d0d;stroke-width:0.5;stroke-linecap:round;stroke-linejoin:round;stroke-dasharray:none;stroke-dashoffset:0;stroke-opacity:1;paint-order:normal"
       d="m 177.38849,-1416.8355 c -0.61617,0.6562 -0.74239,2.153 9e-5,2.6725"
       id="path35417" /><path
       style="display:inline;fill:none;fill-opacity:1;fill-rule:evenodd;stroke:#ff0d0d;stroke-width:0.5;stroke-linecap:round;stroke-linejoin:round;stroke-dasharray:none;stroke-dashoffset:0;stroke-opacity:1;paint-order:normal"
       d="m 159.19208,-1417.4137 c -0.61617,0.6829 -0.74239,2.2405 9e-5,2.7812"
       id="path35419" /><path
       style="display:inline;fill:none;fill-opacity:1;fill-rule:evenodd;stroke:#ff0d0d;stroke-width:0.5;stroke-linecap:round;stroke-linejoin:round;stroke-dasharray:none;stroke-dashoffset:0;stroke-opacity:1;paint-order:normal"
       d="m 109.96551,-1418.8332 c -0.61617,0.8176 -0.74239,2.6828 9e-5,3.3302"
       id="path35421" /><path
       style="display:inline;fill:none;fill-opacity:1;fill-rule:evenodd;stroke:#ff0d0d;stroke-width:0.5;stroke-linecap:round;stroke-linejoin:round;stroke-dasharray:none;stroke-dashoffset:0;stroke-opacity:1;paint-order:normal"
       d="m 114.41069,-1443.1463 c -0.61617,0.7786 -0.74239,2.5549 9e-5,3.1714"
       id="path35423" /><path
       style="display:inline;fill:none;fill-opacity:1;fill-rule:evenodd;stroke:#ff0d0d;stroke-width:0.5;stroke-linecap:round;stroke-linejoin:round;stroke-dasharray:none;stroke-dashoffset:0;stroke-opacity:1;paint-order:normal"
       d="m 150.68586,-1442.1804 c -0.61617,0.6974 -0.74239,2.2886 9e-5,2.8408"
       id="path35425" /><path
       style="display:inline;fill:none;fill-opacity:1;fill-rule:evenodd;stroke:#ff0d0d;stroke-width:0.5;stroke-linecap:round;stroke-linejoin:round;stroke-dasharray:none;stroke-dashoffset:0;stroke-opacity:1;paint-order:normal"
       d="m 181.25648,-1441.7258 c -0.61617,0.8176 -0.74239,2.6828 9e-5,3.3302"
       id="path35427" /><path
       style="display:inline;fill:none;fill-opacity:1;fill-rule:evenodd;stroke:#ff0d0d;stroke-width:0.5;stroke-linecap:round;stroke-linejoin:round;stroke-dasharray:none;stroke-dashoffset:0;stroke-opacity:1;paint-order:normal"
       d="m 145.89262,-1368.2432 c -0.61617,0.8176 -0.74239,2.6828 9e-5,3.3302"
       id="path35429" /><path
       style="display:inline;fill:none;fill-opacity:1;fill-rule:evenodd;stroke:#ff0d0d;stroke-width:0.5;stroke-linecap:round;stroke-linejoin:round;stroke-dasharray:none;stroke-dashoffset:0;stroke-opacity:1;paint-order:normal"
       d="m 177.65922,-1368.1261 c -0.61617,0.7744 -0.74239,2.541 9e-5,3.1542"
       id="path36157" /></g></svg>
