<?xml version="1.0" encoding="UTF-8" standalone="no"?>
<!-- Created with Inkscape (http://www.inkscape.org/) -->

<svg
   width="100%"
   height="auto"
   viewBox="0 0 151.12047 98.475128"
   version="1.1"
   id="svg5"
   xml:space="preserve"
   xmlns:inkscape="http://www.inkscape.org/namespaces/inkscape"
   xmlns:sodipodi="http://sodipodi.sourceforge.net/DTD/sodipodi-0.dtd"
   xmlns="http://www.w3.org/2000/svg"
   xmlns:svg="http://www.w3.org/2000/svg"><sodipodi:namedview
     id="namedview7"
     pagecolor="#505050"
     bordercolor="#ffffff"
     borderopacity="1"
     inkscape:showpageshadow="0"
     inkscape:pageopacity="0"
     inkscape:pagecheckerboard="1"
     inkscape:deskcolor="#505050"
     inkscape:document-units="mm"
     showgrid="false"
     inkscape:zoom="3.3638608"
     inkscape:cx="700.98025"
     inkscape:cy="448.29441"
     inkscape:window-width="2166"
     inkscape:window-height="1336"
     inkscape:window-x="1994"
     inkscape:window-y="27"
     inkscape:window-maximized="1"
     inkscape:current-layer="layer1" /><defs
     id="defs2" /><g
     inkscape:label="Layer 1"
     inkscape:groupmode="layer"
     id="layer1"
     transform="translate(-41.852437,-60.287199)"><path
       style="fill:none;fill-rule:evenodd;stroke:#ff0000;stroke-width:2.6;stroke-linejoin:round"
       d="m 151.80303,136.45885 c -4.93194,-0.0413 -10.23445,-0.22039 -15.33197,-0.31143 -3.60475,6.8221 -1.05835,13.52662 -0.0953,20.75749 18.27314,0.2674 36.14108,1.29415 54.22269,-0.38301 -1.08763,-6.65931 0.24721,-13.2351 -0.135,-19.99514 -0.32413,-2.39922 -2.99526,-1.13494 -4.49973,-1.70501 -4.42304,-12.37543 -9.41342,-25.49108 -12.8403,-38.34607 7.26292,-0.943529 13.74989,-4.069718 18.54949,-9.586778 -0.006,-7.388322 -0.47782,-9.286844 -0.29247,-17.035337 -3.38006,-3.496617 -6.89493,-6.269497 -11.30011,-7.74108 -19.09513,0.804605 -43.41472,-0.637675 -64.67022,-0.44194 -6.13903,-0.583108 -4.81861,2.043594 -7.80724,5.821702 -3.95839,0.559949 -6.66307,4.26488 -7.78287,4.416166 -1.551769,0.440212 -3.588306,1.051326 -5.097716,0.984154 -0.242158,3.035099 -0.119993,6.346847 -0.481192,9.841561 L 99.82,83.328268 c 0.96249,0.502251 3.39562,3.267641 8.60048,2.928026 1.82783,4.033892 2.11668,4.83147 5.04482,7.712956 9.72064,0.811511 19.42882,2.239526 28.67701,3.481496 2.00122,0.268751 3.9809,0.528791 5.93451,0.771987 1.64566,4.115247 2.97743,8.296997 4.2257,12.504757 1.48951,5.02095 2.86014,10.07894 4.50333,15.10519 -1.30126,3.46631 -4.03167,8.68281 -5.00284,10.62617 z"
       id="path365"
       sodipodi:nodetypes="ccccccccccccccccccscsccc" /><path
       style="fill:#ff0000;fill-opacity:1;fill-rule:evenodd;stroke:#ff0000;stroke-width:1.71742;stroke-linejoin:miter;stroke-dasharray:none"
       d="m 44.138848,76.31979 3.567327,0.09934 2.566641,2.204008 -3.728567,-0.110044 z"
       id="path1171"
       sodipodi:nodetypes="ccccc" /><path
       style="fill:#ff0000;fill-opacity:1;fill-rule:evenodd;stroke:#ff0000;stroke-width:1.71742;stroke-linejoin:miter;stroke-dasharray:none"
       d="m 51.75312,76.358384 3.567327,0.09934 2.566641,2.204008 -3.728567,-0.110044 z"
       id="path1962"
       sodipodi:nodetypes="ccccc" /><path
       style="fill:#ff0000;fill-opacity:1;fill-rule:evenodd;stroke:#ff0000;stroke-width:1.71742;stroke-linejoin:miter;stroke-dasharray:none"
       d="m 59.007418,76.358384 3.567327,0.09934 2.566641,2.204008 -3.728567,-0.110044 z"
       id="path1964"
       sodipodi:nodetypes="ccccc" /><path
       style="fill:#ff0000;fill-opacity:1;fill-rule:evenodd;stroke:#ff0000;stroke-width:1.71742;stroke-linejoin:miter;stroke-dasharray:none"
       d="m 66.751676,76.358384 3.567327,0.09934 2.566641,2.204008 -3.728567,-0.110044 z"
       id="path1966"
       sodipodi:nodetypes="ccccc" /><path
       style="fill:#ff0000;fill-opacity:1;fill-rule:evenodd;stroke:#ff0000;stroke-width:1.71742;stroke-linejoin:miter;stroke-dasharray:none"
       d="m 66.348052,76.358384 3.567327,0.09934 2.566641,2.204008 -3.728567,-0.110044 z"
       id="path1968"
       sodipodi:nodetypes="ccccc" /><path
       style="fill:#ff0000;fill-opacity:1;fill-rule:evenodd;stroke:#ff0000;stroke-width:1.71742;stroke-linejoin:miter;stroke-dasharray:none"
       d="m 74.277533,76.313137 3.567327,0.09934 2.566641,2.204008 -3.728567,-0.110044 z"
       id="path1970"
       sodipodi:nodetypes="ccccc" /><path
       style="fill:#ff0000;fill-opacity:1;fill-rule:evenodd;stroke:#ff0000;stroke-width:1.71742;stroke-linejoin:miter;stroke-dasharray:none"
       d="m 81.7543,76.288632 3.567327,0.09934 2.566641,2.204008 -3.728567,-0.110044 z"
       id="path1972"
       sodipodi:nodetypes="ccccc" /><path
       style="fill:#ff0000;fill-opacity:1;fill-rule:evenodd;stroke:#ff0000;stroke-width:1.71742;stroke-linejoin:miter;stroke-dasharray:none"
       d="m 89.07355,76.376932 3.568425,0.04509 0.229614,2.187979 -1.359572,-0.07659 z"
       id="path1974"
       sodipodi:nodetypes="ccccc" /><path
       style="fill:none;fill-opacity:1;fill-rule:evenodd;stroke:#ff0000;stroke-width:3;stroke-linejoin:miter;stroke-dasharray:none"
       d="m 142.12186,97.550479 c -0.96943,4.273691 -2.44691,9.040861 -3.93793,12.732221 3.97471,1.73654 10.35762,0.8623 13.60412,0.61477"
       id="path2041"
       sodipodi:nodetypes="ccc" /><path
       style="fill:none;fill-opacity:1;fill-rule:evenodd;stroke:#ff0000;stroke-width:1.3;stroke-linejoin:miter;stroke-dasharray:none"
       d="m 175.64694,128.42504 c 2.41641,0.20252 5.15317,0.0977 7.2695,0.0446"
       id="path2047" /><path
       style="fill:none;fill-opacity:1;fill-rule:evenodd;stroke:#ff0000;stroke-width:1.211;stroke-linecap:butt;stroke-linejoin:bevel;stroke-dasharray:none"
       d="m 179.35655,67.292182 c 2.45403,0.617568 5.95453,3.171914 7.86445,5.339139"
       id="path4347"
       sodipodi:nodetypes="cc" /><path
       style="fill:none;fill-opacity:1;fill-rule:evenodd;stroke:#ff0000;stroke-width:1.211;stroke-linejoin:miter;stroke-dasharray:none"
       d="m 173.48717,91.780832 c 6.11594,-0.781939 10.37167,-2.902061 13.73383,-6.218748"
       id="path4349"
       sodipodi:nodetypes="cc" /><path
       id="path5135"
       style="fill:none;fill-opacity:1;fill-rule:evenodd;stroke:#ff0000;stroke-width:1.3;stroke-linejoin:miter;stroke-dasharray:none"
       d="m 125.34703,67.912806 c -2.93877,-0.04157 -5.66127,-0.03782 -7.82718,0.01793 -1.63259,12.8665 -0.27044,15.420562 2.02421,17.942546 2.22805,1.144168 23.76794,2.787156 27.32744,1.710085 0.51024,-9.89607 0.66273,-10.727606 0.79393,-13.760065 -0.34442,-2.522233 -1.61999,-4.088465 -3.40878,-5.084726 -4.93264,-0.430236 -12.44431,-0.735116 -18.90962,-0.825766 z" /><path
       style="fill:none;fill-opacity:1;fill-rule:evenodd;stroke:#ff0000;stroke-width:1.3;stroke-linejoin:miter;stroke-dasharray:none"
       d="m 118.63921,67.94032 4.51274,19.090986"
       id="path5137"
       sodipodi:nodetypes="cc" /><path
       style="fill:none;fill-opacity:1;fill-rule:evenodd;stroke:#ff0000;stroke-width:1.3;stroke-linejoin:miter;stroke-dasharray:none"
       d="m 120.91233,67.923028 4.56724,19.391238"
       id="path5139"
       sodipodi:nodetypes="cc" /><path
       style="fill:none;fill-opacity:1;fill-rule:evenodd;stroke:#ff0000;stroke-width:1.3;stroke-linejoin:miter;stroke-dasharray:none"
       d="m 123.24337,67.95124 4.5768,19.641152"
       id="path5141"
       sodipodi:nodetypes="cc" /><path
       style="fill:none;fill-opacity:1;fill-rule:evenodd;stroke:#ff0000;stroke-width:1.3;stroke-linejoin:miter;stroke-dasharray:none"
       d="m 117.11762,71.213735 3.66726,15.111613"
       id="path5143"
       sodipodi:nodetypes="cc" /><path
       style="fill:none;fill-opacity:1;fill-rule:evenodd;stroke:#ff0000;stroke-width:1.3;stroke-linejoin:miter;stroke-dasharray:none"
       d="m 125.52329,67.978834 4.58704,19.842421"
       id="path5145" /><path
       style="fill:none;fill-opacity:1;fill-rule:evenodd;stroke:#ff0000;stroke-width:1.3;stroke-linejoin:miter;stroke-dasharray:none"
       d="m 127.85433,68.007047 4.58703,19.84242"
       id="path5147" /><path
       style="fill:none;fill-opacity:1;fill-rule:evenodd;stroke:#ff0000;stroke-width:1.3;stroke-linejoin:miter;stroke-dasharray:none"
       d="m 130.1334,68.03463 4.58704,19.842421"
       id="path5149" /><path
       style="fill:none;fill-opacity:1;fill-rule:evenodd;stroke:#ff0000;stroke-width:1.3;stroke-linejoin:miter;stroke-dasharray:none"
       d="m 132.46444,68.062843 4.58704,19.84242"
       id="path5151" /><path
       style="fill:none;fill-opacity:1;fill-rule:evenodd;stroke:#ff0000;stroke-width:1.3;stroke-linejoin:miter;stroke-dasharray:none"
       d="m 134.81223,68.091258 4.58704,19.842421"
       id="path5153" /><path
       style="fill:none;fill-opacity:1;fill-rule:evenodd;stroke:#ff0000;stroke-width:1.3;stroke-linejoin:miter;stroke-dasharray:none"
       d="m 137.14327,68.11947 4.58704,19.842421"
       id="path5155" /><path
       style="fill:none;fill-opacity:1;fill-rule:evenodd;stroke:#ff0000;stroke-width:1.3;stroke-linejoin:miter;stroke-dasharray:none"
       d="m 139.42235,68.147054 4.58703,19.842421"
       id="path5157" /><path
       style="fill:none;fill-opacity:1;fill-rule:evenodd;stroke:#ff0000;stroke-width:1.3;stroke-linejoin:miter;stroke-dasharray:none"
       d="m 141.75337,68.175266 4.58705,19.842421"
       id="path5159" /><path
       style="fill:none;fill-opacity:1;fill-rule:evenodd;stroke:#ff0000;stroke-width:1.3;stroke-linejoin:miter;stroke-dasharray:none"
       d="m 134.81223,68.091258 4.58704,19.842421"
       id="path5161" /><path
       style="fill:none;fill-opacity:1;fill-rule:evenodd;stroke:#ff0000;stroke-width:1.3;stroke-linejoin:miter;stroke-dasharray:none"
       d="m 137.14327,68.11947 4.58704,19.842421"
       id="path5163" /><path
       style="fill:none;fill-opacity:1;fill-rule:evenodd;stroke:#ff0000;stroke-width:1.3;stroke-linejoin:miter;stroke-dasharray:none"
       d="m 139.42235,68.147054 4.58703,19.842421"
       id="path5165" /><path
       style="fill:none;fill-opacity:1;fill-rule:evenodd;stroke:#ff0000;stroke-width:1.3;stroke-linejoin:miter;stroke-dasharray:none"
       d="m 141.75337,68.175266 4.58705,19.842421"
       id="path5167" /><path
       style="fill:none;fill-opacity:1;fill-rule:evenodd;stroke:#ff0000;stroke-width:1.3;stroke-linejoin:miter;stroke-dasharray:none"
       d="m 144.16086,68.461303 3.03963,13.380521"
       id="path5169"
       sodipodi:nodetypes="cc" /></g></svg>
