<?xml version="1.0" encoding="UTF-8" standalone="no"?>
<!-- Created with Inkscape (http://www.inkscape.org/) -->

<svg
   width="518.26202mm"
   height="269.63672mm"
   viewBox="0 0 518.26202 269.63672"
   version="1.1"
   id="svg5"
   xml:space="preserve"
   inkscape:version="1.2.2 (1:1.2.2+202212051552+b0a8486541)"
   sodipodi:docname="bfoxdraft.svg"
   xmlns:inkscape="http://www.inkscape.org/namespaces/inkscape"
   xmlns:sodipodi="http://sodipodi.sourceforge.net/DTD/sodipodi-0.dtd"
   xmlns="http://www.w3.org/2000/svg"
   xmlns:svg="http://www.w3.org/2000/svg"><sodipodi:namedview
     id="namedview7"
     pagecolor="#505050"
     bordercolor="#ffffff"
     borderopacity="1"
     inkscape:showpageshadow="0"
     inkscape:pageopacity="0"
     inkscape:pagecheckerboard="1"
     inkscape:deskcolor="#505050"
     inkscape:document-units="mm"
     showgrid="false"
     inkscape:zoom="1"
     inkscape:cx="729"
     inkscape:cy="-1749"
     inkscape:window-width="2166"
     inkscape:window-height="1336"
     inkscape:window-x="1994"
     inkscape:window-y="27"
     inkscape:window-maximized="1"
     inkscape:current-layer="layer1"
     inkscape:lockguides="false" /><defs
     id="defs2"><linearGradient
       id="linearGradient2560"
       inkscape:swatch="solid"
       gradientTransform="matrix(9.0769026e-5,0,0,9.0769026e-5,0.37128883,-0.86598974)"><stop
         style="stop-color:#ffffff;stop-opacity:1;"
         offset="0"
         id="stop2558" /></linearGradient><linearGradient
       id="linearGradient2554"
       inkscape:swatch="solid"><stop
         style="stop-color:#eeccb2;stop-opacity:1;"
         offset="0"
         id="stop2552" /></linearGradient><linearGradient
       id="linearGradient10538"
       inkscape:swatch="solid"><stop
         style="stop-color:#e4c7ff;stop-opacity:1;"
         offset="0"
         id="stop10536" /></linearGradient><linearGradient
       id="linearGradient10280"
       inkscape:swatch="solid"
       gradientTransform="scale(0.00129662)"><stop
         style="stop-color:#fcef7f;stop-opacity:1;"
         offset="0"
         id="stop10278" /></linearGradient><linearGradient
       id="linearGradient9548"
       inkscape:swatch="solid"><stop
         style="stop-color:#9aa49b;stop-opacity:1;"
         offset="0"
         id="stop9546" /></linearGradient><linearGradient
       id="linearGradient8816"
       inkscape:swatch="solid"><stop
         style="stop-color:#ff2050;stop-opacity:1;"
         offset="0"
         id="stop8814" /></linearGradient><linearGradient
       id="linearGradient8084"
       inkscape:swatch="solid"><stop
         style="stop-color:#ff8157;stop-opacity:1;"
         offset="0"
         id="stop8082" /></linearGradient><linearGradient
       id="linearGradient6626"
       inkscape:swatch="solid"><stop
         style="stop-color:#e4c7ff;stop-opacity:1;"
         offset="0"
         id="stop6624" /></linearGradient><linearGradient
       id="linearGradient6620"
       inkscape:swatch="solid"><stop
         style="stop-color:#544cf8;stop-opacity:1;"
         offset="0"
         id="stop6618" /></linearGradient><linearGradient
       id="linearGradient5888"
       inkscape:swatch="solid"
       gradientTransform="scale(0.00490061)"><stop
         style="stop-color:#1c4939;stop-opacity:1;"
         offset="0"
         id="stop5886" /></linearGradient><linearGradient
       id="linearGradient5882"
       inkscape:swatch="solid"
       gradientTransform="scale(0.01852198)"><stop
         style="stop-color:#81e0a0;stop-opacity:1;"
         offset="0"
         id="stop5880" /></linearGradient><linearGradient
       id="linearGradient4424"
       inkscape:swatch="solid"><stop
         style="stop-color:#000000;stop-opacity:1;"
         offset="0"
         id="stop4422" /></linearGradient><linearGradient
       id="linearGradient4418"
       inkscape:swatch="solid"><stop
         style="stop-color:#ffffff;stop-opacity:1;"
         offset="0"
         id="stop4416" /></linearGradient><linearGradient
       id="linearGradient3686"
       inkscape:swatch="solid"
       gradientTransform="scale(0.26458333)"><stop
         style="stop-color:#eeccb2;stop-opacity:1;"
         offset="0"
         id="stop3684" /></linearGradient></defs><g
     inkscape:label="Layer 1"
     inkscape:groupmode="layer"
     id="layer1"
     style="display:inline"
     transform="translate(1213.734,-611.80668)"><path
       style="fill:none;fill-opacity:0;fill-rule:evenodd;stroke:#ff0d0d;stroke-width:2.9;stroke-dasharray:none;stroke-opacity:1;paint-order:fill markers stroke"
       d="m -1155.1768,687.83614 c 30.0714,9.33389 61.0851,25.18463 94.4639,33.35279 12.1728,24.43856 23.0675,48.7122 29.0769,75.67647 25.1933,-5.21914 49.2053,-10.65775 72.5129,-16.36045 m 31.38439,-7.9425 c 45.31973,-11.84847 90.07897,-25.28576 135.29663,-39.7402 m 29.10239,-9.18574 c 20.60024,-6.75084 43.40485,-14.57421 65.41152,-21.97482 -19.36427,-23.54733 -41.23799,-47.29215 -62.06946,-71.91452 -30.67689,-4.1567 -62.09713,-10.91252 -90.469,-16.45331 -9.25981,2.46305 -26.89409,7.1658 -36.22481,9.56249 m -126.74566,30.37996 c -40.1501,9.72711 -102.9066,25.59025 -142.5403,36.32812 -18.6894,17.81169 -40.9632,34.46753 -55.4936,56.57676 55.2178,17.51333 120.7851,38.56179 179.8451,50.72749 -1.087,26.15338 0.6955,55.25948 -2.3895,82.5348 103.81699,-32.08385 212.78118,-71.36083 312.86092,-109.97262 0.13577,-19.84614 3.5661,-42.16596 5.60687,-61.56895"
       id="path5505"
       sodipodi:nodetypes="cccccccccccccccccc" /><path
       style="fill:none;fill-opacity:0;fill-rule:evenodd;stroke:#ff0d0d;stroke-width:2.9;stroke-dasharray:none;stroke-opacity:1;paint-order:fill markers stroke"
       d="m -1033.6161,877.67676 c -53.6879,-18.5729 -108.2637,-30.84314 -159.0588,-51.70794 -3.1172,-25.50675 -7.2367,-51.04353 -10.2972,-76.52602"
       id="path5507" /><path
       style="fill:none;fill-opacity:0;fill-rule:evenodd;stroke:#ff0d0d;stroke-width:2.9;stroke-dasharray:none;stroke-opacity:1;paint-order:fill markers stroke"
       d="m -1059.7684,720.42309 c 98.23438,-33.91125 209.0006,-55.82324 300.56962,-89.66927"
       id="path5509"
       sodipodi:nodetypes="cc" /><path
       style="display:inline;fill:none;fill-opacity:1;fill-rule:evenodd;stroke:#ff0d0d;stroke-width:2.9;stroke-dasharray:none;stroke-opacity:1;paint-order:normal"
       d="m -789.11701,720.32831 c 3.7936,7.20465 5.16272,15.30351 8.49107,22.45283 1.19296,1.79315 3.10575,1.99469 4.68471,2.86232 2.58401,-0.97731 5.24796,-2.06254 7.8679,-3.07204 1.00604,-1.62758 1.5785,-3.34348 2.27552,-4.85955 -3.42363,-7.16897 -5.33653,-15.03827 -8.49694,-22.46079 -5.07255,1.47393 -9.88145,3.05414 -14.82225,5.07726 z"
       id="path5511" /><path
       style="display:inline;fill:none;fill-opacity:1;fill-rule:evenodd;stroke:#ff0d0d;stroke-width:2.9;stroke-dasharray:none;stroke-opacity:1;paint-order:normal"
       d="m -783.88709,723.10306 3.52519,9.31105 7.48521,-2.84724 -3.22712,-9.28511 z"
       id="path5513"
       sodipodi:nodetypes="ccccc" /><path
       style="display:inline;fill:none;fill-opacity:1;fill-rule:evenodd;stroke:#ff0d0d;stroke-width:2.9;stroke-dasharray:none;stroke-opacity:1;paint-order:normal"
       d="m -788.79869,721.85918 -5.91833,2.05074 5.42489,15.65597 6.01769,-2.13706"
       id="path5515" /><path
       style="display:inline;fill:none;fill-opacity:1;fill-rule:evenodd;stroke:#ff0d0d;stroke-width:2.9;stroke-dasharray:none;stroke-opacity:1;paint-order:normal"
       d="m -773.97784,717.52832 5.83558,-2.27555 6.0196,15.43706 -5.96719,2.27425"
       id="path5517" /><path
       style="display:inline;fill:none;fill-opacity:1;fill-rule:evenodd;stroke:#ff0d0d;stroke-width:2.9;stroke-dasharray:none;stroke-opacity:1;paint-order:normal"
       d="m -953.53659,769.01447 c 3.27902,7.45295 4.07683,15.62788 6.89564,22.993 1.06428,1.87239 2.95822,2.20757 4.47245,3.18379 2.64619,-0.79369 5.37968,-1.68944 8.06396,-2.51273 1.1177,-1.55302 1.80908,-3.22456 2.6107,-4.68801 -2.91247,-7.39141 -4.26882,-15.37548 -6.90094,-23.00135 -5.16342,1.11458 -10.0713,2.35367 -15.14181,4.02533 z"
       id="path5519" /><path
       style="display:inline;fill:none;fill-opacity:1;fill-rule:evenodd;stroke:#ff0d0d;stroke-width:2.9;stroke-dasharray:none;stroke-opacity:1;paint-order:normal"
       d="m -948.5536,771.96858 2.62947,9.60855 7.94001,-2.20797 -2.56805,-9.48856 z"
       id="path5521"
       sodipodi:nodetypes="ccccc" /><path
       style="display:inline;fill:none;fill-opacity:1;fill-rule:evenodd;stroke:#ff0d0d;stroke-width:2.9;stroke-dasharray:none;stroke-opacity:1;paint-order:normal"
       d="m -953.32641,770.5639 -6.04757,1.63066 4.31365,15.99785 6.15273,-1.7098"
       id="path5523" /><path
       style="display:inline;fill:none;fill-opacity:1;fill-rule:evenodd;stroke:#ff0d0d;stroke-width:2.9;stroke-dasharray:none;stroke-opacity:1;paint-order:normal"
       d="m -938.23834,767.28302 5.98078,-1.86072 4.92225,15.82119 -6.11198,1.85019"
       id="path5525" /><path
       style="display:inline;fill:none;fill-opacity:1;fill-rule:evenodd;stroke:#ff0d0d;stroke-width:2.9;stroke-dasharray:none;stroke-opacity:1;paint-order:normal"
       d="m -1013.7251,665.72184 c 4.296,3.75691 9.404,6.97881 13.1261,9.71878 2.56183,6.45302 -3.6322,7.39157 -4.3091,6.58081 -5.4189,-1.96178 -10.524,-6.15247 -15.104,-9.25584 -2.134,-5.80446 0.4417,-9.64506 6.287,-7.04375 z"
       id="path5527"
       sodipodi:nodetypes="ccccc" /><path
       style="display:inline;fill:none;fill-opacity:1;fill-rule:evenodd;stroke:#ff0d0d;stroke-width:2.9;stroke-dasharray:none;stroke-opacity:1;paint-order:normal"
       d="m -1020.2871,667.40009 c 3.2747,-8.97729 10.0017,-16.13673 14.2976,-22.40986 5.0271,-3.03176 -0.3734,5.93057 -0.1417,6.60845 -3.7297,4.41413 -7.8472,9.63415 -10.8324,13.1287"
       id="path5529"
       sodipodi:nodetypes="cccc" /><path
       style="display:inline;fill:none;fill-opacity:1;fill-rule:evenodd;stroke:#ff0d0d;stroke-width:2.9;stroke-dasharray:none;stroke-opacity:1;paint-order:normal"
       d="m -1001.5261,674.94568 c 3.01563,-8.62894 7.80834,-16.48596 12.1824,-23.33444 4.08222,-0.37813 1.1139,6.29549 1.2036,6.8024 -3.62891,7.53163 -8.00264,14.30733 -12.0231,19.96345"
       id="path5531" /><path
       style="display:inline;fill:none;fill-opacity:1;fill-rule:evenodd;stroke:#ff0d0d;stroke-width:2.9;stroke-dasharray:none;stroke-opacity:1;paint-order:normal"
       d="m -1006.9184,652.82886 c 3.9753,2.70034 7.77736,5.98503 11.55084,8.80749"
       id="path5533" /><path
       style="display:inline;fill:none;fill-opacity:1;fill-rule:evenodd;stroke:#ff0d0d;stroke-width:2.9;stroke-dasharray:none;stroke-opacity:1;paint-order:normal"
       d="m -1005.6078,644.6573 c 6.04464,-0.002 10.77573,3.62404 15.40864,6.59091"
       id="path5535" /><path
       style="display:inline;fill:none;fill-opacity:1;fill-rule:evenodd;stroke:#ff0d0d;stroke-width:2.9;stroke-dasharray:none;stroke-opacity:1;paint-order:normal"
       d="m -987.57909,657.56763 c 33.61782,-8.87888 64.36929,-13.9588 102.76855,-22.71254"
       id="path5537"
       sodipodi:nodetypes="cc" /><path
       style="display:inline;fill:none;fill-opacity:1;fill-rule:evenodd;stroke:#ff0d0d;stroke-width:2.9;stroke-dasharray:none;stroke-opacity:1;paint-order:normal"
       d="m -988.67588,651.72981 c 34.15382,-9.91162 69.10618,-15.45704 103.55981,-23.73801 1.08147,2.69544 0.54627,6.49487 0.56345,6.69925 2.00149,4.36992 3.98053,9.18602 5.20212,13.00717 0.002,-8.76653 -2.03161,-13.10385 -5.75248,-19.66318"
       id="path5539"
       sodipodi:nodetypes="ccccc" /><path
       style="display:inline;fill:none;fill-opacity:1;fill-rule:evenodd;stroke:#ff0d0d;stroke-width:2.9;stroke-dasharray:none;stroke-opacity:1;paint-order:normal"
       d="m -879.2865,647.77132 c -6.31538,-1.38269 -15.46214,-5.50589 -20.26916,-9.34843"
       id="path5541"
       sodipodi:nodetypes="cc" /><path
       style="display:inline;fill:none;fill-opacity:1;fill-rule:evenodd;stroke:#ff0d0d;stroke-width:2.9;stroke-dasharray:none;stroke-opacity:1;paint-order:normal"
       d="m -1005.8619,644.75465 c 38.65917,-10.83548 75.64291,-17.89317 114.84083,-25.91198 4.80256,6.01341 8.31246,7.63527 9.22147,15.76441"
       id="path5543"
       sodipodi:nodetypes="ccc" /></g></svg>
