<?xml version="1.0" encoding="UTF-8" standalone="no"?>
<!-- Created with Inkscape (http://www.inkscape.org/) -->

<svg
   width="100%"
   height="auto"
   viewBox="0 0 92.39386 92.563843"
   version="1.1"
   id="svg5"
   xml:space="preserve"
   sodipodi:docname="wheel.svg"
   inkscape:export-filename="wheelshadow.svg"
   inkscape:export-xdpi="96"
   inkscape:export-ydpi="96"
   inkscape:version="1.2.2 (1:1.2.2+202212051552+b0a8486541)"
   xmlns:inkscape="http://www.inkscape.org/namespaces/inkscape"
   xmlns:sodipodi="http://sodipodi.sourceforge.net/DTD/sodipodi-0.dtd"
   xmlns="http://www.w3.org/2000/svg"
   xmlns:svg="http://www.w3.org/2000/svg"><sodipodi:namedview
     id="namedview7"
     pagecolor="#505050"
     bordercolor="#ffffff"
     borderopacity="1"
     inkscape:showpageshadow="0"
     inkscape:pageopacity="0"
     inkscape:pagecheckerboard="1"
     inkscape:deskcolor="#505050"
     inkscape:document-units="mm"
     showgrid="false"
     inkscape:zoom="5.3966357"
     inkscape:cx="129.24719"
     inkscape:cy="347.43868"
     inkscape:window-width="2166"
     inkscape:window-height="1336"
     inkscape:window-x="1994"
     inkscape:window-y="27"
     inkscape:window-maximized="1"
     inkscape:current-layer="layer1" /><defs
     id="defs2" /><g
     inkscape:label="Layer 1"
     inkscape:groupmode="layer"
     id="layer1"
     transform="translate(199.97352,-718.63951)"><path
       style="fill:none;fill-rule:evenodd;stroke:#ff0000;stroke-width:2.6;stroke-linecap:round;stroke-linejoin:round;paint-order:normal"
       d="m -152.63555,737.08704 c 17.78059,1.60239 29.35651,18.96023 24.78019,33.94829 -1.46608,3.70127 -2.78308,7.48353 -4.64005,11.00496 -2.08703,3.31927 -7.42544,7.02989 -9.43076,7.48016 -14.67607,6.75925 -39.79626,-0.18276 -39.79626,-20.04031 -1.67342,-20.26613 8.52417,-31.61636 29.08688,-32.3931 z"
       id="path311"
       sodipodi:nodetypes="cccccc"
       inkscape:export-filename="wheel.svg"
       inkscape:export-xdpi="96"
       inkscape:export-ydpi="96" /><path
       style="fill:none;fill-rule:evenodd;stroke:#ff0000;stroke-width:2.6;stroke-linecap:round;stroke-linejoin:round;paint-order:normal"
       d="m -155.28926,761.85957 c -5.03208,1.67116 -4.12303,5.75464 -0.51717,8.38082 3.6635,0.9541 5.94499,-1.09547 5.77296,-4.48461 -0.7233,-2.16327 -2.26825,-3.89363 -5.25579,-3.89621 z"
       id="path409"
       sodipodi:nodetypes="cccc" /><path
       style="fill:none;fill-rule:evenodd;stroke:#ff0000;stroke-width:2.6;stroke-linecap:round;stroke-linejoin:round;paint-order:normal"
       d="m -150.89617,741.54786 c -0.56857,3.13317 -0.47531,6.55976 -0.31841,9.66576 0.47586,4.96205 3.1833,6.64711 6.21276,4.87739 3.50856,-0.62101 6.61709,-2.77719 9.40182,-4.39777 -1.98922,-4.91747 -11.10088,-9.07805 -15.29617,-10.14538 z"
       id="path413"
       sodipodi:nodetypes="ccccc" /><path
       style="fill:none;fill-rule:evenodd;stroke:#ff0000;stroke-width:2.6;stroke-linecap:round;stroke-linejoin:round;paint-order:normal"
       d="m -143.08206,764.08229 c -0.38561,2.11034 -0.14213,5.29767 -0.0872,5.58871 0.4173,3.33886 6.07546,6.9174 7.13328,8.13368 4.6858,-5.69683 5.83196,-15.89153 3.68138,-21.302 -3.59722,2.189 -10.06419,2.9639 -10.72746,7.57961 z"
       id="path415"
       sodipodi:nodetypes="ccccc" /><path
       style="fill:none;fill-rule:evenodd;stroke:#ff0000;stroke-width:2.6;stroke-linecap:round;stroke-linejoin:round;paint-order:normal"
       d="m -157.19785,741.93672 c -0.18832,3.92141 0.17829,8.61298 0.26775,12.09087 -0.70217,3.67597 -4.67669,3.09788 -6.4717,2.91829 -2.06261,-3.02823 -7.46048,-4.31044 -9.7245,-5.72267 3.95664,-5.07031 10.55859,-7.30795 15.92845,-9.28649 z"
       id="path417"
       sodipodi:nodetypes="ccccc" /><path
       style="fill:none;fill-rule:evenodd;stroke:#ff0000;stroke-width:2.6;stroke-linecap:round;stroke-linejoin:round;paint-order:normal"
       d="m -164.71752,763.75847 c 0.0549,2.63123 0.0986,7.30064 0.0312,7.61373 -2.88102,2.04222 -5.64236,4.68714 -7.59457,7.06232 -2.64078,-5.40923 -9.85472,-17.02485 -3.95875,-21.2531 3.74774,2.02465 8.76753,5.62546 11.52212,6.57705 z"
       id="path419"
       sodipodi:nodetypes="ccccc" /><path
       style="fill:none;fill-rule:evenodd;stroke:#ff0000;stroke-width:2.6;stroke-linecap:round;stroke-linejoin:round;paint-order:normal"
       d="m -159.71098,776.24704 c -2.95917,1.80988 -6.08545,4.91794 -7.76898,7.04924 7.99675,5.47363 19.31757,6.01129 26.1759,-0.50679 -2.1836,-3.06434 -3.9474,-5.32688 -7.14933,-7.30239 -3.57158,1.71352 -8.41467,0.0877 -11.25759,0.75994 z"
       id="path421"
       sodipodi:nodetypes="ccccc" /><path
       style="fill:none;fill-rule:evenodd;stroke:#ff0000;stroke-width:2.6;stroke-linecap:round;stroke-linejoin:round;paint-order:normal"
       d="m -177.2586,729.15758 c 2.32733,-0.4808 3.88201,-1.77494 4.15958,-2.08331 0.20683,-0.39421 0.20159,-0.94735 -0.5675,-1.6608 2.73677,-1.79692 6.74445,-2.20396 9.52917,-3.16442 0.46541,0.46586 0.45825,1.0484 0.94142,1.49581 1.37802,0.48562 3.4371,-0.68112 3.91026,-0.86024 0.14121,-0.67987 -0.32278,-1.51313 -0.27513,-2.05253 2.46247,-1.15474 8.02543,-1.13615 10.18232,-0.24403 0.26019,0.47303 0.58407,1.74087 0.68548,2.05516 1.12604,0.32654 2.42551,0.66532 3.45767,0.95744 0.81415,-0.10818 1.02378,-1.59048 1.13905,-1.76957 3.85963,-0.0794 9.18915,2.39156 10.72053,3.48339 -0.42469,0.38389 -0.78223,1.0525 -1.06435,1.4321 1.07371,0.38582 1.98606,1.55523 2.68251,2.1184 0.97612,0.069 1.74944,-0.77354 2.35994,-1.15447 2.37788,1.59414 4.58064,3.4392 6.78032,5.27142 1.2473,1.0459 0.0519,2.36523 -0.0282,2.65285 1.00117,0.71782 1.59965,1.83468 2.18424,2.67165 0.52982,0.87022 1.85532,0.005 1.93447,0.006 3.17461,2.07441 4.44918,6.62183 4.44268,7.73029 0.98267,1.32717 -0.73664,1.24453 -1.03235,1.74412 0.84221,0.92334 0.97221,2.59685 1.49034,3.73414 -0.0348,0.36544 2.48393,0.37609 2.57359,0.39354 0.41905,3.14573 2.08825,9.29155 2.09292,9.44897 -0.33728,0.55832 -1.09639,0.70701 -1.64459,1.06051 -0.33145,2.12705 -0.21276,1.6273 -0.12774,3.69437 0.70936,0.26106 1.31052,0.86818 1.85237,1.16547 -2.06466,2.54735 -1.5768,9.18161 -1.55579,9.34159 -0.61244,1.25321 -1.97707,0.8054 -2.41318,0.93798 -0.40452,1.26377 -0.77027,2.56113 -1.41545,3.72065 0.68054,0.13101 1.42474,1.14829 1.59992,1.28948 -1.25684,2.60066 -4.77234,7.93469 -5.50553,9.05399 -0.37816,-0.21594 -0.82503,-0.27905 -1.23754,-0.41857 -1.28457,0.11848 -2.79439,2.63955 -2.84062,2.6996 0.81874,0.3629 0.67586,1.20722 0.98052,1.75142 -2.79694,2.35104 -5.39557,4.82938 -8.03562,6.30903 -0.35607,-0.27139 -0.7483,-0.49173 -1.12245,-0.7376 -2.19781,1.4514 -1.98746,1.01551 -3.62778,1.89159 -0.49459,0.29169 -0.0739,1.03214 -0.091,1.27081 -2.946,0.90617 -8.09338,3.32922 -9.51432,4.05397 0.3254,-1.51825 0.26658,0.3181 -0.57954,-1.29226 -1.2643,0.3437 -3.31635,0.38651 -4.32291,0.46133 -0.38971,0.47933 -0.0385,1.23493 -0.0578,1.8524 -3.44554,0.58525 -7.92395,0.57325 -10.87555,-0.0848 -0.20763,-0.58796 -0.0424,-1.22623 -0.0624,-1.80552 -1.1932,-0.2075 -2.4679,-0.16043 -3.69392,-0.19253 -0.19125,0.63976 -0.78869,1.01234 -1.02538,1.31615 -3.3065,-1.94544 -7.76465,-1.75656 -9.59452,-4.00681 0.20059,-0.55741 0.0288,-1.18446 0.0432,-1.7767 -0.37298,-0.59825 -1.45962,-0.70505 -1.86074,-0.89881 -0.48419,0.0436 -0.90952,0.34367 -1.36429,0.51551 -3.56745,-1.12963 -6.93931,-4.32019 -9.09359,-6.6506 1.36321,-1.25595 1.27121,-2.04833 1.04877,-2.14875 -0.59811,-0.62026 -1.53438,-1.59792 -1.95896,-2.14396 -1.04707,-0.18543 -2.27697,0.27102 -3.16229,0.42238 -0.30515,-2.68385 -2.54993,-5.86175 -4.24888,-8.21483 0.0323,-1.11323 1.03931,-1.04276 1.32577,-2.06973 -0.25481,-1.11815 -1.34514,-3.07732 -1.34844,-3.69464 -1.02397,-0.17555 -1.92459,0.11752 -2.91748,-0.18827 -1.56263,-2.98354 -0.72807,-5.30881 -1.26614,-10.12573 0.60612,-0.34476 1.1206,-0.91062 1.7777,-1.14399 0.84312,-1.00729 0.18656,-2.8161 0.13496,-3.45223 -0.0353,-1.71911 -1.11724,-1.33396 -1.83199,-1.7694 0.19704,-2.84606 0.99327,-6.62391 2.00746,-10.14773 0.76552,0.65724 2.09124,0.32682 2.40674,0.37613 0.36163,-1.37321 0.73873,-2.53439 0.75768,-2.82887 -0.6468,-0.44657 -1.21701,-1.01792 -1.85097,-1.54817 1.2336,-3.36559 3.21437,-6.34231 5.70113,-8.72008 0.86661,0.16793 1.45327,0.93109 2.31431,0.57307 1.02512,-0.42624 2.27477,-2.05129 2.56769,-2.74499 0.42565,-1.00804 -0.70302,-1.88526 -1.69312,-2.93651 2.29432,-2.34781 5.57949,-4.04934 7.94548,-6.04345 0.22743,0.68655 0.69364,1.28497 1.17786,1.82219 z"
       id="path427"
       sodipodi:nodetypes="ccccccccccccccccccccccccccccccccccccccccccccccccccccccccccccccccccccssccc" /></g></svg>
