<?xml version="1.0" encoding="UTF-8" standalone="no"?>
<!-- Created with Inkscape (http://www.inkscape.org/) -->

<svg
   width="214.47331mm"
   height="101.00171mm"
   viewBox="0 0 214.47331 101.00171"
   version="1.1"
   id="svg5"
   xml:space="preserve"
   inkscape:version="1.2.2 (1:1.2.2+202212051552+b0a8486541)"
   sodipodi:docname="bfoxdraft.svg"
   xmlns:inkscape="http://www.inkscape.org/namespaces/inkscape"
   xmlns:sodipodi="http://sodipodi.sourceforge.net/DTD/sodipodi-0.dtd"
   xmlns="http://www.w3.org/2000/svg"
   xmlns:svg="http://www.w3.org/2000/svg"><sodipodi:namedview
     id="namedview7"
     pagecolor="#505050"
     bordercolor="#ffffff"
     borderopacity="1"
     inkscape:showpageshadow="0"
     inkscape:pageopacity="0"
     inkscape:pagecheckerboard="1"
     inkscape:deskcolor="#505050"
     inkscape:document-units="mm"
     showgrid="false"
     inkscape:zoom="0.89726538"
     inkscape:cx="-5323.9544"
     inkscape:cy="-7396.9198"
     inkscape:window-width="2166"
     inkscape:window-height="1336"
     inkscape:window-x="74"
     inkscape:window-y="27"
     inkscape:window-maximized="1"
     inkscape:current-layer="layer1"
     inkscape:lockguides="false"
     showguides="true" /><defs
     id="defs2"><linearGradient
       id="linearGradient2560"
       inkscape:swatch="solid"
       gradientTransform="matrix(9.0769026e-5,0,0,9.0769026e-5,47.845192,-9.1303294)"><stop
         style="stop-color:#ffffff;stop-opacity:1;"
         offset="0"
         id="stop2558" /></linearGradient><linearGradient
       id="linearGradient2554"
       inkscape:swatch="solid"><stop
         style="stop-color:#eeccb2;stop-opacity:1;"
         offset="0"
         id="stop2552" /></linearGradient><linearGradient
       id="linearGradient10538"
       inkscape:swatch="solid"
       gradientTransform="matrix(0,0,0,0,-216.5073,-27.076947)"><stop
         style="stop-color:#e4c7ff;stop-opacity:1;"
         offset="0"
         id="stop10536" /></linearGradient><linearGradient
       id="linearGradient10280"
       inkscape:swatch="solid"
       gradientTransform="matrix(0,0,0,0,140.79759,-291.22169)"><stop
         style="stop-color:#fcef7f;stop-opacity:1;"
         offset="0"
         id="stop10278" /></linearGradient><linearGradient
       id="linearGradient9548"
       inkscape:swatch="solid"
       gradientTransform="scale(0.01852198)"><stop
         style="stop-color:#9aa49b;stop-opacity:1;"
         offset="0"
         id="stop9546" /></linearGradient><linearGradient
       id="linearGradient8816"
       inkscape:swatch="solid"
       gradientTransform="matrix(9.0769026e-5,0,0,9.0769026e-5,-4.37595,-14.411535)"><stop
         style="stop-color:#ff2050;stop-opacity:1;"
         offset="0"
         id="stop8814" /></linearGradient><linearGradient
       id="linearGradient8084"
       inkscape:swatch="solid"
       gradientTransform="translate(-0.14741627,-0.00257316)"><stop
         style="stop-color:#ff8157;stop-opacity:1;"
         offset="0"
         id="stop8082" /></linearGradient><linearGradient
       id="linearGradient6626"
       inkscape:swatch="solid"><stop
         style="stop-color:#e4c7ff;stop-opacity:1;"
         offset="0"
         id="stop6624" /></linearGradient><linearGradient
       id="linearGradient6620"
       inkscape:swatch="solid"
       gradientTransform="matrix(0,0,0,0,1.02802e-5,6.9615089e-6)"><stop
         style="stop-color:#544cf8;stop-opacity:1;"
         offset="0"
         id="stop6618" /></linearGradient><linearGradient
       id="linearGradient5888"
       inkscape:swatch="solid"
       gradientTransform="matrix(0,0,0,0,-0.08171277,-0.26648156)"><stop
         style="stop-color:#1c4939;stop-opacity:1;"
         offset="0"
         id="stop5886" /></linearGradient><linearGradient
       id="linearGradient5882"
       inkscape:swatch="solid"
       gradientTransform="matrix(0.01852198,0,0,0.01852198,0.59752439,-0.15193057)"><stop
         style="stop-color:#81e0a0;stop-opacity:1;"
         offset="0"
         id="stop5880" /></linearGradient><linearGradient
       id="linearGradient4424"
       inkscape:swatch="solid"
       gradientTransform="matrix(-0.01510627,-0.00766461,-0.00795902,0.01454747,704.50872,-503.87783)"><stop
         style="stop-color:#ff0000;stop-opacity:1;"
         offset="0"
         id="stop4422" /></linearGradient><linearGradient
       id="linearGradient4418"
       inkscape:swatch="solid"><stop
         style="stop-color:#ffffff;stop-opacity:1;"
         offset="0"
         id="stop4416" /></linearGradient><linearGradient
       id="linearGradient3686"
       inkscape:swatch="solid"
       gradientTransform="scale(0.26458333)"><stop
         style="stop-color:#eeccb2;stop-opacity:1;"
         offset="0"
         id="stop3684" /></linearGradient></defs><g
     inkscape:label="Layer 1"
     inkscape:groupmode="layer"
     id="layer1"
     style="display:inline"
     transform="translate(-12.387216,1595.0137)"><path
       style="fill:#ffb023;fill-opacity:0;fill-rule:evenodd;stroke:#ff0d0d;stroke-width:2.21509;stroke-dasharray:none;stroke-opacity:1;paint-order:fill markers stroke"
       d="m 39.51492,-1495.6147 c -21.121906,5.2329 -39.50418385,-31.963 -12.587113,-53.7057 6.244465,-6.9884 18.498471,-7.5462 27.6449,-9.3775 -1.723593,-3.6081 0.867016,-6.5696 1.238923,-9.3876 16.886595,-16.3417 28.23336,-13.0763 44.54786,-1.6378 1.06156,16.4013 -2.210864,34.8833 -3.779245,51.9289 -6.093296,11.5739 -13.037003,1.0717 -20.384997,-0.2638 -10.406341,0.7771 -13.129194,9.0246 -19.883135,14.8433 -4.994947,1.6328 -5.847892,-2.3898 -7.770967,-4.7664 -3.206228,-6.1619 -3.599074,-12.1846 -5.3533,-18.1235 -1.713622,11.6977 -2.399293,21.0383 -3.672926,30.4901 z"
       id="path25635"
       sodipodi:nodetypes="ccccccccccc" /><path
       style="fill:#ffb023;fill-opacity:0;fill-rule:evenodd;stroke:#ff0d0d;stroke-width:2.66499;stroke-dasharray:none;stroke-opacity:1;paint-order:fill markers stroke"
       d="m 94.35149,-1572.7027 c 3.228276,-3.7857 8.06792,-2.4326 12.32832,-3.7172 6.78769,4.1571 4.62341,13.627 6.98394,20.5845 32.77966,-14.7831 67.33801,-26.5008 102.16755,-37.8798"
       id="path26365"
       sodipodi:nodetypes="cccc" /><path
       style="fill:#aeff00;fill-opacity:0;fill-rule:evenodd;stroke:#ff0d0d;stroke-width:2.665;stroke-linecap:round;stroke-linejoin:bevel;stroke-dasharray:none;stroke-opacity:1;paint-order:fill markers stroke"
       d="m 97.145976,-1527.6913 c 42.520804,-16.0771 86.326354,-35.2121 125.582314,-52.3845"
       id="path33392"
       sodipodi:nodetypes="cc" /><path
       style="fill:#aeff00;fill-opacity:0;fill-rule:evenodd;stroke:#ff0d0d;stroke-width:2.66499;stroke-linecap:round;stroke-linejoin:bevel;stroke-dasharray:none;stroke-opacity:1;paint-order:fill markers stroke"
       d="m 215.56772,-1593.6812 c 14.15148,0.786 9.85988,2.0581 7.17166,13.6232"
       id="path34402"
       sodipodi:nodetypes="cc" /><path
       style="fill:#aeff00;fill-opacity:0;fill-rule:evenodd;stroke:#ff0d0d;stroke-width:2.66499;stroke-linecap:round;stroke-linejoin:bevel;stroke-dasharray:none;stroke-opacity:1;paint-order:fill markers stroke"
       d="m 101.55606,-1552.3469 c 3.38112,-1.925 7.09613,-2.3967 10.4701,-3.5362"
       id="path34404" /><path
       style="fill:#aeff00;fill-opacity:0;fill-rule:evenodd;stroke:#ff0d0d;stroke-width:2.66499;stroke-linecap:round;stroke-linejoin:bevel;stroke-dasharray:none;stroke-opacity:1;paint-order:fill markers stroke"
       d="m 79.790323,-1539.4941 c 0.337838,-8.202 -0.767384,-16.7448 0.398108,-24.5779 3.638864,-1.0557 8.044709,-1.3299 11.57124,-1.9129 -1.024578,1.3887 -0.201529,2.6929 -0.310268,4.1459 5.987116,7.3445 1.663234,10.9779 -0.811408,18.506 -0.172347,1.1675 0.24038,1.7668 0.38851,2.8555 -3.620068,0.1401 -7.543059,0.6602 -11.236182,0.9834 z"
       id="path34408" /><path
       style="fill:#aeff00;fill-opacity:0;fill-rule:evenodd;stroke:#ff0d0d;stroke-width:2.66499;stroke-linecap:round;stroke-linejoin:bevel;stroke-dasharray:none;stroke-opacity:1;paint-order:fill markers stroke"
       d="m 80.68661,-1558.8589 c 7.082232,6.3354 1.375905,10.3546 0.317685,16.0318"
       id="path34410" /><path
       style="fill:#aeff00;fill-opacity:0;fill-rule:evenodd;stroke:#ff0d0d;stroke-width:2.66499;stroke-linecap:round;stroke-linejoin:bevel;stroke-dasharray:none;stroke-opacity:1;paint-order:fill markers stroke"
       d="m 98.135277,-1569.9107 c -13.260368,-2.7504 -23.13393,-2.3799 -30.846865,9.1228 -1.149886,10.7601 -1.22114,23.2018 -0.491444,33.1088 3.056955,5.3565 8.227781,0.3195 12.894977,0.5008 6.861394,1.7181 6.088866,7.5394 7.432281,13.9679"
       id="path34412" /><path
       style="fill:#aeff00;fill-opacity:0;fill-rule:evenodd;stroke:#ff0d0d;stroke-width:2.66499;stroke-linecap:round;stroke-linejoin:bevel;stroke-dasharray:none;stroke-opacity:1;paint-order:fill markers stroke"
       d="m 38.599631,-1544.0772 c -17.288147,14.5212 -17.183618,32.9617 -0.721162,46.7001"
       id="path34441"
       sodipodi:nodetypes="cc" /><path
       style="fill:#aeff00;fill-opacity:0;fill-rule:evenodd;stroke:#ff0d0d;stroke-width:2.66499;stroke-linecap:round;stroke-linejoin:bevel;stroke-dasharray:none;stroke-opacity:1;paint-order:fill markers stroke"
       d="m 57.369075,-1533.3036 c 1.2759,7.4944 3.213722,14.4874 4.814051,22.1052"
       id="path34443" /><path
       style="fill:#aeff00;fill-opacity:0;fill-rule:evenodd;stroke:#ff0d0d;stroke-width:1.765;stroke-linecap:round;stroke-linejoin:bevel;stroke-dasharray:none;stroke-opacity:1;paint-order:fill markers stroke"
       d="m 65.803456,-1541.6731 c -2.214647,0.8822 -6.742351,1.7491 -8.728798,2.2704 -1.800709,-2.1056 -1.751162,-6.2537 -1.413703,-8.4461 2.986196,-0.8393 7.330756,-1.7402 10.384505,-2.8221"
       id="path34445"
       sodipodi:nodetypes="cccc" /><path
       style="fill:#aeff00;fill-opacity:0;fill-rule:evenodd;stroke:#ff0d0d;stroke-width:2.66499;stroke-linecap:round;stroke-linejoin:bevel;stroke-dasharray:none;stroke-opacity:1;paint-order:fill markers stroke"
       d="m 38.654582,-1544.1031 c 4.140026,-6.8552 11.432164,-6.6855 18.638332,-8.8259"
       id="path34447"
       sodipodi:nodetypes="cc" /><path
       style="fill:#aeff00;fill-opacity:0;fill-rule:evenodd;stroke:#ff0d0d;stroke-width:2.66499;stroke-linecap:round;stroke-linejoin:bevel;stroke-dasharray:none;stroke-opacity:1;paint-order:fill markers stroke"
       d="m 59.493125,-1559.8081 c 1.982455,1.5 1.596748,3.9009 2.371501,5.7936"
       id="path34449" /><path
       style="fill:#aeff00;fill-opacity:0;fill-rule:evenodd;stroke:#ff0d0d;stroke-width:0.665;stroke-linecap:round;stroke-linejoin:bevel;stroke-dasharray:none;stroke-opacity:1;paint-order:fill markers stroke"
       d="m 43.591553,-1539.0599 c -12.790424,7.9949 -9.783125,26.629 -10.636534,36.1603"
       id="path34451"
       sodipodi:nodetypes="cc" /><path
       style="fill:#aeff00;fill-opacity:0;fill-rule:evenodd;stroke:#ff0d0d;stroke-width:2.66499;stroke-linecap:round;stroke-linejoin:bevel;stroke-dasharray:none;stroke-opacity:1;paint-order:fill markers stroke"
       d="m 140.96915,-1559.4693 c 26.82126,-10.9855 57.91996,-25.0661 84.19324,-30.2047"
       id="path34453"
       sodipodi:nodetypes="cc" /><path
       style="fill:#aeff00;fill-opacity:0;fill-rule:evenodd;stroke:#ff0d0d;stroke-width:1.02447;stroke-linecap:round;stroke-linejoin:bevel;stroke-dasharray:none;stroke-opacity:1;paint-order:fill markers stroke"
       d="m 101.59872,-1575.065 c 3.33881,-0.1651 6.62258,4.121 7.86021,11.1011 m 23.89107,-7.6611"
       id="path34457"
       sodipodi:nodetypes="cc" /><path
       style="fill:#aeff00;fill-opacity:0;fill-rule:evenodd;stroke:#ff0d0d;stroke-width:0.865717;stroke-linecap:round;stroke-linejoin:bevel;stroke-dasharray:none;stroke-opacity:1;paint-order:fill markers stroke"
       d="m 47.972016,-1509.1063 c 2.896493,1.4168 5.013224,2.1016 7.42211,3.1635"
       id="path34459"
       sodipodi:nodetypes="cc" /><path
       style="fill:#aeff00;fill-opacity:0;fill-rule:evenodd;stroke:#ff0d0d;stroke-width:0.865717;stroke-linecap:round;stroke-linejoin:bevel;stroke-dasharray:none;stroke-opacity:1;paint-order:fill markers stroke"
       d="m 47.424279,-1513.3187 c 5.387227,2.5484 3.387234,1.6309 7.343752,3.2521"
       id="path34461"
       sodipodi:nodetypes="cc" /><path
       style="fill:#aeff00;fill-opacity:0;fill-rule:evenodd;stroke:#ff0d0d;stroke-width:0.865717;stroke-linecap:round;stroke-linejoin:bevel;stroke-dasharray:none;stroke-opacity:1;paint-order:fill markers stroke"
       d="m 45.311577,-1520.9718 c 3.137167,1.0953 5.44934,2.0582 8.00186,3.1603"
       id="path34463"
       sodipodi:nodetypes="cc" /><path
       style="display:inline;fill:#aeff00;fill-opacity:0;fill-rule:evenodd;stroke:#ff0d0d;stroke-width:0.865717;stroke-linecap:round;stroke-linejoin:bevel;stroke-dasharray:none;stroke-opacity:1;paint-order:fill markers stroke"
       d="m 46.365048,-1516.9431 c 3.137167,1.0953 5.416214,1.8366 7.968734,2.9387"
       id="path34463-9"
       sodipodi:nodetypes="cc" /><path
       style="fill:#aeff00;fill-opacity:0;fill-rule:evenodd;stroke:#ff0d0d;stroke-width:0.865717;stroke-linecap:round;stroke-linejoin:bevel;stroke-dasharray:none;stroke-opacity:1;paint-order:fill markers stroke"
       d="m 42.784709,-1526.2882 c 4.361764,1.8281 5.63612,2.5696 9.616689,4.3326"
       id="path34465"
       sodipodi:nodetypes="cc" /><path
       style="fill:#aeff00;fill-opacity:0;fill-rule:evenodd;stroke:#ff0d0d;stroke-width:2.66499;stroke-linecap:round;stroke-linejoin:bevel;stroke-dasharray:none;stroke-opacity:1;paint-order:fill markers stroke"
       d="m 52.167617,-1525.0591 c -2.424027,-1.0841 -5.033557,-2.6604 -7.633821,-3.414 -2.5671,-0.4299 -1.757937,1.8379 -1.570471,2.4318"
       id="path34467"
       sodipodi:nodetypes="ccc" /><path
       style="fill:#aeff00;fill-opacity:0;fill-rule:evenodd;stroke:#ff0d0d;stroke-width:0.865717;stroke-linecap:round;stroke-linejoin:bevel;stroke-dasharray:none;stroke-opacity:1;paint-order:fill markers stroke"
       d="m 48.117723,-1507.6554 c 2.896493,1.4168 5.013224,2.1016 7.42211,3.1635"
       id="path19056"
       sodipodi:nodetypes="cc" /><path
       style="fill:#aeff00;fill-opacity:0;fill-rule:evenodd;stroke:#ff0d0d;stroke-width:0.865717;stroke-linecap:round;stroke-linejoin:bevel;stroke-dasharray:none;stroke-opacity:1;paint-order:fill markers stroke"
       d="m 47.813096,-1511.1265 c 3.237466,1.4973 3.58726,1.4979 7.543778,3.1191"
       id="path19058"
       sodipodi:nodetypes="cc" /><path
       style="fill:#aeff00;fill-opacity:0;fill-rule:evenodd;stroke:#ff0d0d;stroke-width:0.865717;stroke-linecap:round;stroke-linejoin:bevel;stroke-dasharray:none;stroke-opacity:1;paint-order:fill markers stroke"
       d="m 45.841178,-1518.7698 c 3.137167,1.0953 5.416214,1.8366 7.968734,2.9387"
       id="path19060"
       sodipodi:nodetypes="cc" /><path
       style="display:inline;fill:#aeff00;fill-opacity:0;fill-rule:evenodd;stroke:#ff0d0d;stroke-width:0.865717;stroke-linecap:round;stroke-linejoin:bevel;stroke-dasharray:none;stroke-opacity:1;paint-order:fill markers stroke"
       d="m 46.861523,-1514.9627 c 3.137167,1.0953 5.416214,1.8366 7.968734,2.9387"
       id="path19062"
       sodipodi:nodetypes="cc" /><path
       style="fill:#aeff00;fill-opacity:0;fill-rule:evenodd;stroke:#ff0d0d;stroke-width:0.865717;stroke-linecap:round;stroke-linejoin:bevel;stroke-dasharray:none;stroke-opacity:1;paint-order:fill markers stroke"
       d="m 43.374728,-1523.6921 c 4.437301,1.57 5.542576,1.9539 9.523145,3.7169"
       id="path19064"
       sodipodi:nodetypes="cc" /><path
       style="fill:#aeff00;fill-opacity:0;fill-rule:evenodd;stroke:#ff0d0d;stroke-width:1.02447;stroke-linecap:round;stroke-linejoin:bevel;stroke-dasharray:none;stroke-opacity:1;paint-order:fill markers stroke"
       d="m 99.349342,-1574.2073 c 3.338808,-0.1651 6.622578,4.121 7.860208,11.1011 m 23.89107,-7.6611"
       id="path19091"
       sodipodi:nodetypes="cc" /><path
       style="fill:none;fill-opacity:1;fill-rule:evenodd;stroke:#ff0d0d;stroke-width:0.865;stroke-linecap:round;stroke-linejoin:round;stroke-dasharray:none;stroke-dashoffset:0;stroke-opacity:1;paint-order:normal"
       d="m 83.364148,-1560.1221 c 1.582345,-0.1513 3.793047,-0.8682 5.392409,-0.9253 m -3.387183,3.1045 c 1.582345,-0.1513 3.793047,-0.8682 5.392409,-0.9253 m -4.06902,3.3924 c 1.58235,-0.1513 3.79305,-0.8682 5.39241,-0.9253 m -5.39241,3.5711 c 1.58235,-0.1513 3.79305,-0.8682 5.39241,-0.9253 m -5.921576,3.5711 c 1.58235,-0.1513 3.79305,-0.8682 5.39241,-0.9253 m -6.450744,3.5712 c 1.58235,-0.1513 3.79305,-0.8682 5.39241,-0.9253 m -6.450743,3.0419 c 1.58235,-0.1513 3.79305,-0.8682 5.39241,-0.9253 m -5.921577,3.042 c 1.58235,-0.1513 3.79305,-0.8682 5.39241,-0.9253"
       id="path19884"
       sodipodi:nodetypes="cccccccccccccccc" /><path
       style="fill:none;fill-opacity:1;fill-rule:evenodd;stroke:#ff0d0d;stroke-width:3.465;stroke-linecap:round;stroke-linejoin:round;stroke-dasharray:none;stroke-dashoffset:0;stroke-opacity:1;paint-order:normal"
       d="m 133.85655,-1563.2896 c 2.24461,5.5519 4.95286,12.2183 7.20593,18.3328"
       id="path19976"
       sodipodi:nodetypes="cc" /></g></svg>
