<svg fill="#000000" xmlns="http://www.w3.org/2000/svg"  viewBox="0 0 32 32" width="64px" height="64px"><path d="M 6.6445312 3.0039062 C 6.3446562 2.9872812 6.0529219 3.0508125 5.7949219 3.1953125 C 5.2899219 3.4793125 5 4.0198281 5 4.6738281 L 5 27.453125 C 5 28.046125 5.2762344 28.557359 5.7402344 28.818359 C 5.9562344 28.939359 6.1935 29.001953 6.4375 29.001953 C 6.7325 29.001953 7.0380781 28.911375 7.3300781 28.734375 C 7.6580781 28.535375 26.130859 17.330078 26.130859 17.330078 C 26.692859 16.989078 27.007047 16.474016 26.998047 15.916016 C 26.990047 15.367016 26.675719 14.876266 26.136719 14.572266 C 26.081719 14.540266 25.663 14.289672 25 13.888672 L 25 15.677734 C 24.639684 15.896279 23.565614 16.547533 23 16.890625 L 23 8 L 9 8 L 9 25.382812 C 8.5342834 25.665326 7.2318777 26.455043 7 26.595703 L 7 5.3046875 C 7 5.3046875 7.4294844 5.565 8.1464844 6 L 12 6 C 9.43 4.439 7.5410156 3.2929688 7.5410156 3.2929688 C 7.2525156 3.1179688 6.9444063 3.0205313 6.6445312 3.0039062 z M 11 10 L 15 10 L 15 16 L 17 14 L 19 16 L 19 10 L 21 10 L 21 18.103516 C 17.419572 20.275408 14.223611 22.214404 11 24.169922 L 11 10 z"/></svg>