<?xml version="1.0" encoding="UTF-8" standalone="no"?>
<!-- Created with Inkscape (http://www.inkscape.org/) -->

<svg
   width="407.57568mm"
   height="382.69019mm"
   viewBox="0 0 407.57568 382.69019"
   version="1.1"
   id="svg5"
   xml:space="preserve"
   xmlns:xlink="http://www.w3.org/1999/xlink"
   xmlns="http://www.w3.org/2000/svg"
   xmlns:svg="http://www.w3.org/2000/svg"><defs
     id="defs2"><linearGradient
       id="linearGradient8517"><stop
         style="stop-color:#eeccb2;stop-opacity:1;"
         offset="0"
         id="stop8515" /></linearGradient><linearGradient
       id="linearGradient5751"><stop
         style="stop-color:#eeccb2;stop-opacity:1;"
         offset="0"
         id="stop5749" /></linearGradient><linearGradient
       id="linearGradient5721"
       gradientTransform="matrix(0.91371757,0,0,1.0944301,-710.13339,4.4109493)"
       x1="-441.49295"
       y1="-2692.7603"
       x2="107.96328"
       y2="-2795.7954"
       gradientUnits="userSpaceOnUse"><stop
         style="stop-color:#ff4500;stop-opacity:1;"
         offset="0"
         id="stop5719" /></linearGradient><linearGradient
       id="linearGradient10538"><stop
         style="stop-color:#e4c7ff;stop-opacity:1;"
         offset="0"
         id="stop10536" /></linearGradient><linearGradient
       id="linearGradient10280"
       gradientTransform="scale(0.00129662)"><stop
         style="stop-color:#fcef7f;stop-opacity:1;"
         offset="0"
         id="stop10278" /></linearGradient><linearGradient
       id="linearGradient9548"><stop
         style="stop-color:#9aa49b;stop-opacity:1;"
         offset="0"
         id="stop9546" /></linearGradient><linearGradient
       id="linearGradient8816"><stop
         style="stop-color:#ff2050;stop-opacity:1;"
         offset="0"
         id="stop8814" /></linearGradient><linearGradient
       id="linearGradient8084"><stop
         style="stop-color:#ff8157;stop-opacity:1;"
         offset="0"
         id="stop8082" /></linearGradient><linearGradient
       id="linearGradient6626"><stop
         style="stop-color:#e4c7ff;stop-opacity:1;"
         offset="0"
         id="stop6624" /></linearGradient><linearGradient
       id="linearGradient6620"><stop
         style="stop-color:#544cf8;stop-opacity:1;"
         offset="0"
         id="stop6618" /></linearGradient><linearGradient
       id="linearGradient5888"
       gradientTransform="scale(0.00490061)"><stop
         style="stop-color:#1c4939;stop-opacity:1;"
         offset="0"
         id="stop5886" /></linearGradient><linearGradient
       id="linearGradient5882"
       gradientTransform="scale(0.01852198)"><stop
         style="stop-color:#81e0a0;stop-opacity:1;"
         offset="0"
         id="stop5880" /></linearGradient><linearGradient
       id="linearGradient4424"><stop
         style="stop-color:#000000;stop-opacity:1;"
         offset="0"
         id="stop4422" /></linearGradient><linearGradient
       id="linearGradient4418"><stop
         style="stop-color:#ffffff;stop-opacity:1;"
         offset="0"
         id="stop4416" /></linearGradient><linearGradient
       id="linearGradient3686"><stop
         style="stop-color:#eeccb2;stop-opacity:1;"
         offset="0"
         id="stop3684" /></linearGradient><linearGradient
       xlink:href="#linearGradient6626"
       id="linearGradient5723"
       x1="-436.92361"
       y1="-2737.438"
       x2="95.947952"
       y2="-2737.438"
       gradientUnits="userSpaceOnUse"
       gradientTransform="translate(-710.13339,4.4109493)" /><filter
       height="1.0128438"
       width="1.01329"
       y="-0.0064310348"
       x="-0.0066946154"
       style="color-interpolation-filters:sRGB"
       id="filter11685"><feTurbulence
         type="fractalNoise"
         numOctaves="3"
         baseFrequency="0.25 0.4"
         seed="5"
         id="feTurbulence11667" /><feColorMatrix
         result="result5"
         values="1 0 0 0 0 0 1 0 0 0 0 0 1 0 0 0 0 0 1 0 "
         id="feColorMatrix11669" /><feComposite
         in="SourceGraphic"
         operator="in"
         in2="result5"
         id="feComposite11671" /><feMorphology
         operator="dilate"
         radius="1.5"
         result="result3"
         id="feMorphology11673" /><feTurbulence
         numOctaves="5"
         baseFrequency="0.03"
         type="fractalNoise"
         seed="7"
         id="feTurbulence11675" /><feGaussianBlur
         stdDeviation="0.5"
         result="result91"
         id="feGaussianBlur11677" /><feDisplacementMap
         in="result3"
         xChannelSelector="R"
         yChannelSelector="G"
         scale="27"
         result="result4"
         in2="result91"
         id="feDisplacementMap11679" /><feComposite
         in="result4"
         k3="0.8"
         k1="1.3"
         result="result2"
         operator="arithmetic"
         in2="result4"
         id="feComposite11681"
         k2="0"
         k4="0" /><feBlend
         in2="result2"
         mode="screen"
         in="result2"
         id="feBlend11683" /></filter></defs><g
     id="layer1"
     style="display:inline"
     transform="translate(661.09669,2836.1598)"><path
       id="path7036"
       style="fill:url(#linearGradient5723);fill-opacity:1;fill-rule:evenodd;stroke:url(#linearGradient5721);stroke-width:5.86996;stroke-linecap:round;stroke-linejoin:bevel;stroke-opacity:0.835294;paint-order:fill markers stroke;filter:url(#filter11685)"
       d="m -1063.604,-2414.6945 c 54.0557,-13.405 66.542,-15.2938 122.7459,-35.1145 14.12233,-4.9803 28.43132,-9.8782 41.52192,-17.1501 1.60006,-0.8888 0.93327,-5.4529 -0.89675,-5.4174 -11.5342,0.2239 -23.06486,2.6292 -34.06805,6.0959 -8.16533,2.5725 -15.2005,7.8808 -22.80076,11.8212 5.42302,0.1656 10.97091,1.6654 16.26906,0.4966 18.77011,-4.1409 37.0238,-10.3844 55.31589,-16.2889 51.38579,-16.5868 108.15449,-35.6195 157.67823,-58.3712 6.74966,-3.1008 19.55568,-4.7739 18.67987,-12.1499 -0.80481,-6.7782 -13.5803,-1.3921 -20.37045,-2.0882 -8.95617,2.4179 -18.19461,3.9639 -26.86853,7.2536 -1.17494,0.4456 -2.69792,3.4856 -1.44132,3.4834 9.69289,-0.017 19.40414,-1.416 28.86357,-3.5306 10.7789,-2.4095 21.39436,-5.7485 31.59471,-9.9845 4.47398,-1.8579 13.40815,-3.489 12.04193,-8.1368 -1.5371,-5.2291 -10.49183,-2.9573 -15.73774,-4.436 -7.67795,2.037 -15.61852,3.2625 -23.03384,6.1109 -6.84128,2.6278 -20.30862,11.501 1.55601,11.0065 6.19175,-0.1401 12.09173,-2.8691 17.8582,-5.1285 3.26739,-1.2803 8.59193,-1.9267 9.03253,-5.4082 0.39017,-3.083 -5.11936,-3.5245 -7.67904,-5.2868 -5.77308,0.4995 -11.64009,0.3472 -17.31924,1.4984 -3.36136,0.6814 -7.48858,1.1649 -9.50531,3.939 -1.06997,1.4718 1.95612,3.9767 3.77543,3.9428 3.67657,-0.069 14.20031,-5.8613 13.81653,-11.3604 -0.21258,-3.0459 -3.76872,-4.805 -5.65308,-7.2075 -13.28232,-4.7082 -28.28821,-1.5944 -41.56839,-6.0293 -28.1421,-9.398 -57.06511,-34.8605 -77.72979,-52.0939 -30.05951,-25.0683 -27.90779,-23.1149 -42.88164,-40.8605 5.58703,7.2366 10.88646,14.7048 16.76109,21.7101 6.57662,7.8425 14.03224,14.922 20.56546,22.8006 0.28962,0.3493 -0.95874,0.7678 -1.2841,0.4516 -6.3298,-6.1523 -12.08316,-12.8712 -18.11982,-19.3113 -7.14076,-7.618 -14.9318,-14.6763 -21.41245,-22.8633 -1.41701,-1.7902 -1.26375,-4.3879 -1.89563,-6.5818 21.10989,25.3034 3.49403,4.9715 30.33368,33.2198 1.62462,1.7098 5.75403,7.4297 4.61293,5.3654 -6.71828,-12.1531 -24.98607,-33.357 -30.38219,-41.8859 -7.70405,-12.1764 -13.7803,-25.3095 -20.67044,-37.9642 -45.24423,-110.5109 7.67391,22.8965 -26.3554,-74.7012 -0.85578,-2.4545 -2.97506,-8.6405 -4.37861,-6.4526 -3.06899,4.7839 0.607,25.1047 2.83459,29.0631 0.69832,1.2412 2.24008,-1.7584 3.36012,-2.6376 -2.22418,-10.6148 -4.92774,-25.0447 -8.46579,-35.1679 -0.79861,-2.2849 -1.38599,-6.9731 -3.69609,-6.2503 -9.57711,2.9959 -1.56731,14.9419 -4.76844,19.4707 -1.18784,1.6807 -3.02676,-2.7892 -4.54013,-4.1838 -3.92335,-5.0041 -7.79402,-10.0497 -11.77004,-15.0122 -8.49785,-10.6056 -15.10433,-23.7498 -31.10723,-24.3528 -12.46476,-0.4696 -28.04396,12.6135 -37.14266,18.1605 -4.6162,2.8141 -9.4446,5.2647 -14.1669,7.897 -1.6121,-0.2069 -3.5445,0.3656 -4.8363,-0.6207 -2.0702,-1.5806 -2.8136,-4.3932 -4.4177,-6.445 -2.234,-2.8575 -6.6426,-9.4679 -12.0008,-6.9805 -2.9928,1.3893 -4.8189,4.64 -6.452,7.507 -1.5334,2.6919 -1.9073,5.8949 -2.861,8.8424 -1.0269,1.6999 -1.4426,3.9769 -3.0807,5.0998 -1.5716,1.0777 -3.7586,0.634 -5.6476,0.884 -2.8902,0.3826 -5.9454,0.024 -8.6875,1.0134 -14.3124,5.1697 -24.8673,12.4214 -36.2867,22.5335 -4.764,4.2187 -8.7193,9.2707 -13.079,13.9062 -0.034,3.1176 -1.8929,6.8006 -0.1023,9.3528 0.8555,1.2192 12.8989,2.1579 11.514,8.1306 -0.8662,3.7357 162.84922,21.4719 160.83122,24.7326 -2.9958,4.8411 -173.66732,-5.6842 -175.86852,-0.4341 -1.8535,4.421 -1.7844,9.4203 -2.6767,14.1301 2.2045,2.8059 3.3806,6.9075 6.6136,8.418 5.5558,2.5958 12.1082,1.9653 18.1268,3.1409 5.4474,1.0641 11.1066,1.5216 16.2625,3.5766 8.0153,3.1946 5.9245,6.2503 8.6378,12.6698 0.8708,2.0606 2.2093,3.8905 3.3139,5.8354 5.0804,0.2382 10.1807,0.2053 15.2411,0.7139 31.8259,3.199 85.92864,11.4339 113.29913,13.7022 42.86698,3.5523 85.82718,9.8026 128.79932,7.9068 42.73503,-1.8851 86.50905,-5.0644 126.88741,-19.186 16.20915,-5.6689 23.52494,-25.0214 35.28741,-37.5322 -12.63848,-12.9913 -22.6802,-29.156 -37.91543,-38.9742 -15.93563,-10.2692 -35.40339,-13.5908 -53.3106,-19.8146 -1.72999,-0.6014 -7.20825,-1.1589 -5.46033,-0.612 31.33592,9.8057 66.37936,20.2888 99.44703,20.9241 8.08038,0.155 15.53448,-4.4662 23.30172,-6.6993 -33.75661,-24.601 -21.17346,-20.2885 -68.79603,-29.9638 -5.58645,-1.1351 -18.95549,-6.4624 -17.06736,-1.0837 2.53703,7.2273 12.96996,8.7156 20.39996,10.5775 21.36011,5.3522 35.93628,3.9724 56.0859,3.261 -21.11475,-13.8324 -15.73657,-12.7627 -47.04264,-18.0777 -6.28132,-1.0665 -13.40196,-3.5941 -19.09918,-0.7421 -2.98909,1.4962 4.43923,5.5896 7.66499,6.4659 18.79537,5.1061 22.88933,2.268 39.21007,-1.8593 -3.09414,-3.6488 -5.2669,-8.346 -9.2824,-10.9468 -20.42054,-13.2263 -22.4346,-7.6388 -42.69714,-15.8758 -20.06215,-8.1556 2.582,-0.4072 -5.48624,-9.519 -8.09463,-9.1416 -149.47943,8.1511 -158.42048,-0.1645 -32.47036,-17.5286 20.93602,3.1092 -12.77782,-12.8846 -8.01248,-3.801 15.45569,-83.3804 6.94305,-80.8935 -6.16077,1.7994 8.88745,9.4797 14.3719,12.8135 24.69347,15.0106 24.51254,13.866 44.82146,17.9088 -24.03228,-22.7602 -9.48762,-11.2654 -45.8127,-32.3014 -4.91393,-2.8456 -9.124,-7.756 -14.75053,-8.5217 -4.05922,-0.5527 5.89444,5.8473 9.49249,7.806 16.17631,8.8064 23.05931,10.2161 38.73883,14.8799 -5.74827,-21.5519 1.72014,-0.044 -17.92809,-27.1163 -3.47311,-4.7855 -9.36679,-9.864 -8.29639,-15.679 1.04558,-5.6806 7.88202,-9.0209 13.23991,-11.1781 12.32504,-4.962 26.07691,-5.4417 38.65701,-9.716 24.96957,-8.4841 49.20308,-18.9974 73.80461,-28.4962 31.21813,-12.1129 62.40312,-24.3117 93.65439,-36.3389 13.13044,-5.0533 25.49896,-16.3883 39.48955,-14.9021 12.31344,1.3075 -22.73056,9.8721 -33.7547,15.5112 -20.87807,10.6796 -41.79566,21.3608 -61.90723,33.4219 -10.49662,6.2949 -30.69518,9.3369 -29.73769,21.5389 0.81725,10.4151 20.78386,-2.1413 31.17579,-3.212 28.48238,-16.677 62.60901,-22.0314 91.52499,-38.0032 4.87842,-2.6945 -10.99485,2.3162 -16.06668,4.6262 -14.31787,6.5212 -28.0377,14.2894 -41.88031,21.7668 -9.43348,5.0959 -20.35905,8.3582 -27.93493,15.9454 -2.70984,2.7138 7.66236,0.3468 11.49354,0.5201 0.22523,-0.2143 -2.80584,-3.3996 -3.03107,-3.185 v 0 c -1.20989,2.9162 -6.74082,9.2861 -3.62966,8.7487 18.95393,-3.2753 57.66406,-30.2414 68.97126,-40.054 4.11929,-3.5747 13.80932,-13.7048 8.36685,-14.0612 -32.8363,-2.1511 -60.22785,40.441 -91.27895,37.6004 -7.56044,5.0366 -31.62711,16.6913 -22.68131,15.1099 12.29176,-2.1728 22.65466,-10.5905 33.36641,-16.9987 20.08113,-12.0137 40.48028,-23.7652 58.89857,-38.1993 9.66959,-7.5779 33.49528,-18.7335 24.72251,-27.3338 -10.7783,-10.5664 -30.3719,2.8004 -44.59521,7.8518 -31.30253,11.1172 -60.74709,26.8991 -91.12063,40.3487 -24.23347,9.8292 -48.37558,19.8866 -72.70041,29.4875 -12.74909,5.0319 -26.7637,7.3475 -38.51195,14.4071 -6.27237,3.769 -12.75623,9.8089 -13.8325,17.0471 -0.94217,6.336 4.82,12.0523 8.75377,17.108 12.26947,15.7691 12.12532,14.2078 25.81479,18.0594 -9.21986,-3.583 -33.02633,-13.0458 -39.41948,-14.1354 -5.3757,-0.9162 -15.63964,-3.7489 -16.27452,1.6672 -0.67918,5.7941 9.99175,6.0253 15.02761,8.9701 36.36556,21.2659 19.1783,15.3504 53.05128,21.9234 -13.26294,-5.9526 -32.81091,-14.8995 -44.16588,-18.269 -6.90744,-2.0499 -22.00649,-10.043 -21.4253,-2.8612 0.69257,8.558 14.65049,8.9808 22.24473,12.9866 18.00534,9.498 36.34936,18.3393 54.52404,27.509 19.03619,10.2515 38.07239,20.5028 57.10858,30.7541 9.71732,6.0973 61.42357,111.5205 69.98372,119.1577 20.00274,17.8464 -257.68274,-150.0291 -227.25189,-134.3589 5.81332,2.9935 205.80738,52.468 212.00285,54.559 19.19571,6.4786 19.34538,6.3802 34.40461,10.6024 -19.43219,2.6562 -7.64244,1.4475 -35.47648,2.3564 -3.98261,0.4831 -14.32103,0.6596 -11.50891,3.5208 4.19509,4.2682 11.81366,1.9277 17.73279,2.8117 36.31628,5.4234 21.99494,4.535 49.07051,4.7829 -4.86096,-0.3845 -9.72924,-0.6853 -14.58287,-1.1533 -12.31245,-1.1872 -24.54575,-3.5423 -36.91237,-3.8116 -8.68606,-0.1892 -18.26373,-1.6084 -25.94966,2.4426 -4.68834,2.471 10.4167,1.9606 15.61228,3.0057 49.34151,9.9258 30.42836,5.48 69.80656,15.8599 -5.55049,0.8795 -11.0405,2.9528 -16.65148,2.6387 -33.57947,-1.8786 -72.31299,-12.4539 -106.53459,-7.8774 -2.69791,0.3606 0.45383,6.5455 2.95859,7.611 95.30384,40.5373 13.47364,-12.0129 90.66147,43.4363 -12.20724,7.9476 -22.64083,19.7544 -36.62171,23.8427 -77.8951,22.7782 -165.00388,25.3608 -245.08095,22.6417 -24.28834,-0.8247 -48.10186,-7.1988 -72.31686,-9.2578 -31.1752,-2.6508 -33.8055,-1.9547 -54.7007,0.3392 -1.2139,-1.4692 -2.8357,-2.681 -3.6419,-4.4079 -3.784,-8.1047 -0.4889,-12.1629 -10.4264,-16.6452 -5.1248,-2.3119 -10.919,-2.7345 -16.4643,-3.6611 -21.0661,-3.5192 -10.406,1.6148 -22.4432,-5.484 1.5096,-4.0447 2.6918,-8.2272 4.5288,-12.1343 2.5166,-5.3523 6.1683,-10.1396 8.4996,-15.5752 2.3907,-5.5743 8.1581,-15.9817 -0.3284,-20.7296 -1.6461,-0.921 -4.0641,2.5286 -5.5047,1.311 -1.4169,-1.1972 0.3313,-3.6952 0.4971,-5.543 7.2836,-7.0652 21.8489,-21.6202 29.592,-27.1471 4.911,-3.5052 10.3419,-6.3018 15.8981,-8.6539 5.3491,-2.2646 11.7281,-1.0549 16.6588,-4.757 1.8269,-1.3719 2.5401,-3.7981 3.8101,-5.697 1.9033,-6.3897 1.6887,-8.0981 5.714,-13.1831 0.3872,-0.489 1.1519,-1.2462 1.6537,-0.8758 2.0482,1.5124 3.3874,3.8044 4.9909,5.7819 2.2385,2.7604 3.4197,6.7101 6.5313,8.4278 3.0563,1.687 6.9541,0.6231 10.4312,0.9348 33.8857,-18.1134 -5.6062,3.7081 32.5286,-20.0689 3.8795,-2.4188 7.54102,-6.3921 12.11262,-6.4342 14.28628,-0.1307 21.64587,14.7815 29.0361,23.3249 4.71436,5.4502 -241.43072,218.3161 -236.60042,223.6638 100.0262,-232.9987 259.92536,-205.0784 262.74997,-207.748 2.9995,-2.8348 -0.79656,-16.1515 -4.3986,-18.1036 -1.91048,-1.0353 1.50197,4.0812 2.12502,6.1629 1.85045,6.1831 3.40145,12.454 5.29333,18.6243 1.8964,6.1852 4.04606,12.2896 6.06909,18.4346 1.53649,-0.5895 4.52883,-0.1249 4.60948,-1.7688 0.2954,-6.0213 -5.89624,-24.2191 -12.67084,-27.0525 -2.51618,-1.0523 -1.07168,5.5065 -0.47673,8.1682 7.60175,34.0087 13.41339,42.5894 27.902,75.8965 14.15418,24.2215 24.32421,47.0273 46.01625,65.5668 5.01539,4.2865 11.39523,7.7557 17.97075,8.2949 2.77409,0.2274 -2.47074,-5.0539 -4.27648,-7.1721 -20.16269,-23.6512 -13.33968,-17.3393 -40.42277,-28.257 0.52104,3.1609 -0.24758,6.84 1.56313,9.4826 11.6123,16.9474 29.35744,33.9137 49.44325,40.5066 2.19824,0.7216 3.35121,-4.6537 2.11649,-6.6103 -5.56823,-8.8238 -12.86349,-16.6663 -20.95897,-23.2486 -7.80844,-6.349 -17.44243,-10.0441 -26.16365,-15.0665 9.12102,24.3688 3.78143,14.5259 40.72022,44.9588 20.56699,16.9445 53.27001,43.2498 81.90958,52.1304 5.79699,1.7976 32.29659,2.7275 40.32281,3.0988 1.43862,0.3083 4.03148,-0.5187 4.31585,0.9248 1.23647,6.2764 -8.07283,7.1319 -10.17983,9.7674 -1.05324,1.3173 -1.69289,4.6107 -0.067,5.0595 3.18238,0.8784 6.39132,-1.6591 9.602,-2.4277 4.30408,-1.0303 8.62729,-1.979 12.94093,-2.9685 2.04428,-1.1997 8.3942,-4.3093 6.13285,-3.5989 -3.02218,0.9493 -5.50672,3.1831 -8.45966,4.3298 -5.36551,2.0835 -11.1245,3.0853 -16.42343,5.3328 -2.53232,1.0741 -9.60759,4.1757 -6.88281,4.5523 3.61761,0.5 6.71073,-2.9 10.16021,-4.0993 7.01916,-2.4402 14.15152,-4.5418 21.22728,-6.8128 3.4215,-1.9468 14.17396,-5.3792 10.2645,-5.8403 -4.50335,-0.5312 -8.1876,3.9169 -12.40296,5.5881 -10.07236,3.9932 -20.55287,6.9688 -30.44135,11.3978 -7.74852,3.4706 -14.89088,8.1609 -22.33631,12.2413 0.41652,-0.1643 0.81888,-0.3704 1.24956,-0.4928 8.69177,-2.4704 17.40745,-4.8558 26.11118,-7.2837 4.71536,-2.9029 19.66329,-8.2376 14.14609,-8.7088 -7.3501,-0.6276 -13.60455,5.7345 -20.57121,8.1601 -23.81022,8.2902 -48.18044,14.9877 -71.73493,23.9788 -28.63479,10.9303 -56.2388,24.4151 -84.71904,35.7421 -17.518,6.9671 -35.8782,11.744 -53.22761,19.121 -4.33137,1.8417 -7.58992,5.568 -11.38487,8.3521 8.24374,-2.7288 16.74769,-4.7705 24.73124,-8.1865 8.94788,-3.8285 17.53832,-8.4986 25.90086,-13.4776 0.60897,-0.3626 0.96462,-2.2781 0.27654,-2.1082 -55.56643,13.7202 -107.84401,37.5877 -162.31711,54.7436 -0.3302,0.1645 1.996,4.8342 2.3262,4.6697 z m 482.60443,-672.8642 c -27.49079,19.6937 -26.49371,18.3383 -54.39706,41.2919 -4.7553,3.9119 -10.55743,7.0083 -13.8739,12.1962 -1.11446,1.7437 4.43828,0.8801 6.20426,-0.1984 9.86878,-6.0253 11.0244,-9.9893 15.8899,-18.6044 -34.2533,-0.4858 -7.96568,-1.9357 -56.4451,10.5203 -14.02683,3.6039 -27.92528,8.3516 -42.34068,9.743 -2.0918,0.2019 -37.2361,3.2621 -21.8142,-11.4821 5.0382,-4.8167 11.6273,-7.6904 17.441,-11.5355 3.8471,-1.4889 9.8998,-0.6819 11.5413,-4.4662 1.309,-3.0178 -6.5705,0.3442 -9.8523,0.572 -6.6666,0.4625 -13.3377,2.1151 -19.9919,1.4989 -9.6647,-0.8951 -20.1948,-4.136 -9.5101,-15.1694 4.6216,-4.7725 11.2706,-7.0371 16.9058,-10.5555 5.1606,-1.2608 10.1716,-3.6338 15.4819,-3.7825 1.2458,-0.035 2.6689,2.4484 1.7585,3.2996 -1.7535,1.6394 -25.648,8.3511 -14.5838,-3.6788 2.8677,-3.1178 6.4641,-5.4766 9.6961,-8.215 4.4973,-1.6224 8.8783,-3.6132 13.4918,-4.8678 1.3059,-0.3551 4.7104,-1.0911 4.0589,0.095 -0.2769,0.504 -15.5672,4.3177 -8.5801,-2.8655 1.8762,-1.9288 4.1041,-3.4811 6.1562,-5.2218 15.29946,-6.5511 6.5364,-4.0124 20.12065,-6.0679 0.18992,-0.029 -0.45913,0.09 -0.57248,-0.065 -0.85437,-1.1689 -2.261,-2.2929 -2.20877,-3.7396 0.0354,-0.9816 1.59115,-1.1523 2.40512,-1.7016 2.17992,-1.4713 4.38382,-2.9069 6.57574,-4.3603 3.29959,-1.7312 6.44975,-3.7833 9.89878,-5.1935 2.70975,-1.1078 5.63898,-1.5767 8.47127,-2.3172 0.0859,-0.021 0.33782,0.083 0.26445,0.033 -1.07474,-0.7342 -2.00488,-2.2985 -3.29145,-2.1011 -0.98112,0.1506 -1.89462,2.1966 -1.08635,2.7729 2.21589,1.5795 5.26283,1.3869 7.89427,2.0804 4.63531,-1.0004 9.46237,-0.8221 14.10456,-1.7725 1.56721,-0.3209 2.97977,-1.2507 4.56102,-1.4933 1.28456,-0.1968 2.6121,0.4128 3.89364,0.1971 1.53702,-0.2585 10.38915,-4.21 10.65347,-4.3238 5.96294,-2.5866 19.39367,-10.7635 26.09059,-5.597 0.89313,0.689 0.92049,2.0598 1.37917,3.0904 0.34081,0.7657 0.18232,2.3428 1.01936,2.2987 4.91329,-0.2596 9.61877,-2.0762 14.42815,-3.1142 7.07022,-2.3582 14.10483,-4.826 21.21069,-7.0744 13.45539,-4.2577 23.82632,-9.542 38.0006,-5.6947 4.81356,1.3066 7.6136,5.1602 4.41079,8.7493 -0.48493,0.5434 -1.42182,0.3162 -2.13273,0.4744 1.87339,1.0094 3.54664,2.5498 5.62018,3.0279 3.17849,0.7331 6.51454,0.3479 9.7718,0.5217 5.64287,1.0012 11.36184,1.6418 16.92868,3.0039 5.05698,1.2371 24.59878,7.9253 29.40216,10.3499 2.84692,1.437 5.16274,3.7452 7.74409,5.6177 1.12377,5.1906 5.91841,2.1433 8.47156,3.9224 0.63783,0.4445 0.31491,1.588 0.81066,2.1871 1.40438,1.6965 3.36283,2.876 4.77761,4.5637 3.47472,4.1455 4.16118,6.1228 6.32169,10.5815 4.82523,7.7394 10.21156,15.0535 15.66444,22.3571 1.99668,2.6744 4.08162,5.2839 6.01163,8.0068 1.60895,2.2698 1.94352,1.7026 1.3217,2.5995 -0.664,0.9975 -1.8755,1.7997 -1.99203,2.9922 -0.89916,9.2035 2.74347,17.6347 6.02155,25.9802 4.74633,12.0833 9.35741,20.374 14.5697,32.0844 0.93684,2.1048 1.67603,4.2921 2.51405,6.4382 0.28085,-1.0756 4.13443,-12.4778 -5.62049,-0.6096 -4.01273,4.882 -6.79575,30.1143 -6.87777,30.6712 -5.61755,38.154 -0.82137,14.6725 -8.07429,46.1205 -2.12185,2.0987 -3.48144,5.5287 -6.36553,6.2961 -1.45962,0.3884 -1.32032,-2.717 -1.98048,-4.0755 -2.05576,-0.6297 -4.1383,-2.6004 -6.16733,-1.8892 -8.62502,3.0233 -8.1706,11.1005 -10.297,18.1133 -1.18976,3.9237 -2.612,7.7732 -3.91798,11.6599 -1.60981,1.8373 -2.55209,4.6282 -4.82944,5.5119 -1.15686,0.4489 -1.73821,-1.7734 -2.65766,-2.6067 -4.1348,-3.7475 -7.31285,-8.0845 -14.06663,-6.0486 -5.76122,1.7367 -11.10305,4.8718 -15.98115,8.3948 -77.4089,55.906 -153.81583,113.1864 -230.72376,169.7796 -122.3359,89.3076 -248.4175,173.6982 -367.00775,267.9228 -54.5798,43.3659 -159.8268,74.8824 -151.5614,144.1012 7.3615,61.6484 106.9653,-63.5092 156.7561,-100.5982 97.56495,-72.6756 191.77105,-149.8469 284.76375,-228.288 52.0338,-43.8915 117.2859,-78.8485 150.07367,-138.5054 19.24021,-35.0073 -70.23127,38.0838 -105.34687,57.1256 -165.2533,110.4481 -276.81905,173.6312 -417.93635,302.7348 -12.0563,11.0299 30.2403,-13.1285 43.3608,-22.8684 59.915,-44.4773 117.6275,-91.8763 175.18395,-139.3663 149.1335,-123.0505 195.0673,-121.8109 113.316,-115.8792 -85.3404,76.0104 -188.33115,126.6388 -280.00765,193.465 -2.1555,1.5712 2.6468,7.8565 4.8553,6.3607 37.7489,-25.5656 73.2561,-54.349 108.57335,-83.1809 103.0597,-84.1347 172.01915,-184.5134 214.13575,-240.8901 -104.7954,67.9583 -158.37915,168.1875 -267.0247,248.4618 -7.7716,5.7422 -31.2119,22.7062 -22.9113,17.7594 53.1009,-31.6458 96.54025,-66.3807 145.49045,-104.994 10.6441,-8.3964 20.7293,-17.4781 31.0939,-26.2172 -83.4184,48.8177 4.005,-4.0098 -104.019,68.9427 -9.00645,6.0824 -33.88865,25.7467 -28.08685,16.557 7.3618,-11.6608 22.406,-16.1006 33.20955,-24.6711 66.9671,-55.1146 37.2858,-31.2699 88.6748,-71.9914 -35.3853,3.5505 -4.967,-1.478 -59.0369,21.5971 -7.8631,3.3556 -16.2843,11.3315 -24.2725,8.2855 -5.9973,-2.2867 10.1484,-7.8617 15.2826,-11.7134 41.7611,-31.3295 24.6007,-19.5687 63.8572,-43.9433 -1.5231,-0.4832 -3.0566,-1.9645 -4.5695,-1.4498 -2.2747,0.7738 -37.6248,18.3789 -43.4019,18.5879 -2.9556,0.107 3.3826,-4.9266 5.6054,-6.8774 19.3949,-17.0214 24.1535,-18.9112 45.3853,-32.3248 1.2368,-0.9367 5.1415,-2.211 3.7104,-2.8102 -17.9001,-7.4946 -7.7793,4.357 -25.2101,0.2038 -1.3207,-0.3146 -0.3525,-3.1222 0.6679,-4.0179 8.1874,-7.1866 17.9224,-9.0779 27.9373,-12.341 2.6899,-0.8093 6.1251,-0.4008 8.0696,-2.4279 1.7495,-1.8239 1.2693,-4.9268 1.406,-7.4505 0.2391,-4.4121 -1.3243,-8.9583 -0.2842,-13.2527 1.7966,-7.4181 9.6064,-23.0837 16.9747,-27.9551 2.3445,-1.55 5.5974,-0.5161 8.3961,-0.7742 0.063,1.1973 -0.9906,3.3746 0.1885,3.5918 1.4072,0.2592 2.3639,-1.7512 3.0805,-2.9897 11.411,-19.7204 6.2886,-17.979 20.7268,-40.4919 9.6687,-15.0758 6.2637,-15.0702 14.4239,-12.9468 -0.7219,2.3469 -3.593,5.0427 -2.1656,7.0405 13.40535,5.3138 23.53365,-27.5182 29.4701,-37.8584 2.3946,-4.0862 5.7767,-7.6103 7.7142,-11.932 0.5546,-1.237 -2.2529,1.5085 -3.3794,2.2628 5.3068,-0.8394 -10.8142,12.9138 -5.8627,14.935 2.4149,0.9857 5.0371,-2.0151 6.7213,-4.0068 4.1171,-4.8688 6.622,-10.9101 10.298,-16.12 14.0268,-19.8792 11.3579,-15.8591 28.3666,-31.0223 6.6601,-8.0902 17.3141,-11.1274 24.9221,-17.9896 0.8463,-0.7633 1.9495,-2.0558 1.467,-3.0885 -1.5678,-3.3557 -4.9763,-3.81 -7.9071,-4.6013 -0.2523,-0.1305 -2.0948,3.4374 -1.8425,3.5679 v 0 c 4.7953,2.4783 1.7295,2.1394 6.0605,-1.1213 0.4818,-0.3631 -0.644,1.0678 -1.1487,1.398 -3.1452,2.0579 -6.4806,3.8098 -9.7208,5.7145 -5.6935,3.9441 -11.387,7.8883 -17.0805,11.8324 -11.155,11.3456 -19.6839,19.0863 -28.805,32.5425 -3.5864,5.2911 -7.2789,10.7549 -9.0893,16.8853 -0.7255,2.4565 -0.5232,6.6273 1.9043,7.4444 6.1228,2.0611 -2.2171,-28.0053 6.1112,-18.3926 -1.9312,-0.9775 -3.9337,-4.04 -5.7936,-2.9327 -5.65463,18.6845 -22.57641,31.6302 -37.9444,41.5078 -5.1716,3.6192 62.6976,163.5043 59.2157,168.7692 -8.4321,12.7502 -89.4798,-125.1322 -90.0527,-108.9542 -0.096,2.7076 19.0935,-10.7011 -1.8198,-7.9215 -3.5489,0.8734 -7.5851,0.624 -10.6466,2.6201 -12.1846,7.9443 -15.3154,17.0489 -17.4264,31.1433 -0.6296,4.2035 0.5006,8.4866 0.8315,12.7241 0.08,1.0288 1.2868,2.5389 0.4018,3.0695 -2.6589,1.594 -6.0371,1.4123 -9.0556,2.1184 -5.455,2.1721 -11.4242,3.3439 -16.3649,6.5163 -4.8652,3.1239 -10.3812,6.6429 -12.5048,12.0206 -1.0647,2.6963 2.1951,6.2006 4.9289,7.165 5.546,1.9567 19.5125,0.1483 21.4046,-8.119 0.4782,-2.0898 -4.2594,0.4914 -6.389,0.7372 -11.6791,8.2455 -37.4875,24.844 -44.8482,37.21 -2.2571,3.7919 -2.2965,11.9746 1.9728,13.0905 7.134,1.8647 14.4353,-3.6466 20.9509,-7.0988 26.8816,-14.2427 28.6954,-9.5298 19.9302,-20.0047 -21.8433,12.3068 -49.5292,25.8258 -65.9079,45.3264 -4.7067,5.6038 -11.8817,17.0123 -5.8525,21.1602 7.8054,5.3697 19.1171,-2.2124 27.7628,-6.0868 36.5613,-16.3843 32.5203,-13.9835 46.2384,-35.9182 -29.4176,21.6523 -65.494,46.8567 -89.46665,72.9461 -9.4432,10.2771 -27.6975,23.4151 -21.5077,35.9243 5.2192,10.5475 22.96575,-6.688 32.70825,-13.2891 51.3911,-34.8206 54.8625,-43.668 88.6258,-84.7472 -45.7672,30.9601 -67.4787,44.3133 -115.88175,88.3244 -18.3477,16.6828 -39.3953,32.516 -50.3591,54.759 -4.7297,9.5954 20.6624,-6.5711 29.5452,-12.5326 92.49105,-62.0744 87.54745,-63.9942 159.69065,-137.945 -72.6733,23.2417 -30.4853,5.1451 -133.43175,106.6421 -33.0043,32.5397 -68.9036,62.9168 -96.2807,100.3148 -3.7009,5.0555 11.5503,10.9397 17.0433,7.926 115.55255,-63.3985 167.34975,-120.3999 265.51075,-208.3259 3.686,-80.1116 7.5106,-43.9262 -142.9601,90.0188 -55.39385,49.31 -110.79035,99.4976 -157.71145,156.9289 -11.0498,13.5248 -27.7979,58.7047 -12.14,50.9685 153.55355,-75.8667 249.24285,-245.61 404.21105,-317.2118 24.1939,-29.0021 107.47798,-101.4533 72.58163,-87.0064 -91.02653,37.6846 -411.51178,358.0778 -427.41488,373.9743 -42.4591,42.4416 -177.8145,116.6072 -120.3511,133.9858 69.147,20.9121 126.5063,-70.8191 183.8227,-114.7902 118.80105,-91.1399 228.90145,-193.0929 343.35208,-289.6394 68.2189,-64.4772 136.03486,-129.3834 204.65666,-193.4316 5.14602,-4.803 10.41424,-11.0577 17.80257,-7.5723 5.74657,2.7109 7.49663,9.8145 15.83791,6.8765 2.81485,-0.9914 3.854,-4.5576 5.78101,-6.8365 6.14177,-20.4329 1.49164,-3.7055 5.7866,-22.439 0.37195,-1.6225 -0.16529,-4.0653 1.32045,-4.8158 1.56824,-0.7922 3.36527,1.0169 5.01754,1.6143 13.54841,4.8982 7.04617,6.3905 17.96441,-4.4429 7.99544,-28.5966 4.86489,-12.9904 8.23526,-46.9732 0.66702,-6.7252 1.17211,-13.4687 2.00266,-20.1758 0.30422,-2.457 0.58499,-4.9557 1.39898,-7.2936 0.87921,-2.5251 5.37478,-3.4853 6.95265,-4.1251 -2.12702,-8.4682 -3.35476,-14.2189 -7.18947,-23.0174 -8.875,-20.3631 -8.07247,-11.0313 -14.54897,-30.8671 -0.84328,-2.5826 -1.29532,-5.3141 -1.40268,-8.0288 -0.0415,-1.0496 0.64436,-1.9994 0.96655,-2.9993 0.42343,-1.2083 1.39218,-2.3505 1.27029,-3.625 -0.11404,-1.1928 -1.25955,-2.0387 -1.90826,-3.0457 -1.77977,-2.7635 -3.50975,-5.561 -5.37691,-8.2661 -5.09037,-7.375 -10.98053,-14.198 -15.48186,-21.9606 -0.91776,-1.6111 -1.67105,-3.3274 -2.75328,-4.8327 -1.4886,-2.0706 -3.2544,-3.9277 -4.92808,-5.8518 -0.49868,-0.573 -5.33868,-6.0325 -6.80487,-7.3083 -2.13063,-1.8536 -5.12992,-2.5884 -6.92565,-4.8805 -2.9169,-1.9616 -5.65833,-4.2135 -8.7507,-5.8846 -11.69125,-6.3185 -17.21937,-7.9139 -30.2923,-10.7603 -6.05118,-1.3176 -23.72627,-5.2602 -31.08386,-2.663 -1.30212,0.4595 0.48091,2.7193 0.72136,4.0793 0.91514,-1.0819 2.34027,-1.8875 2.74545,-3.2451 1.79316,-6.0084 -0.0935,-12.4508 -7.32145,-14.6899 -6.74936,-2.091 -14.16333,-2.1966 -21.16203,-1.2251 -7.51435,1.0433 -14.46964,4.5797 -21.60307,7.1618 -6.89504,2.4958 -13.64419,5.3776 -20.46629,8.0666 -2.65094,1.8267 -4.91281,4.4204 -7.95282,5.4798 -0.82103,0.2863 -0.90006,-1.4883 -1.32588,-2.2463 -0.99467,-1.7706 -1.21661,-4.2567 -2.93515,-5.3388 -5.97046,-3.7595 -14.79071,-1.5211 -20.56173,0.3508 -3.776,1.2251 -7.21884,3.3052 -10.82825,4.9578 -1.64667,1.2316 -3.08394,2.8096 -4.93996,3.6949 -2.0933,0.9983 -6.63176,0.097 -8.56451,0.2032 -1.53628,0.085 -3.04139,0.4739 -4.55073,0.7726 -6.26435,1.2398 -6.91896,1.5129 -13.00596,3.1202 -0.92766,0.639 -1.86415,1.265 -2.78294,1.9167 -0.1505,0.1066 -0.48564,0.5302 -0.4231,0.3566 0.59905,-1.6618 2.62684,-3.2133 2.05534,-4.885 -0.45141,-1.3202 -2.67761,-1.1358 -4.06577,-0.9951 -9.33588,0.9459 -12.08696,3.904 -20.36969,8.7257 -2.08883,2.7972 -5.4895,4.9885 -6.26653,8.3921 -2.24427,9.8308 6.8987,5.1093 6.56614,1.493 -0.13591,-1.4777 -2.57363,-1.8163 -4.0577,-1.8328 -9.77791,-0.1074 -14.07911,3.7188 -22.83451,8.1979 -2.0223,3.1395 -5.6918,5.7031 -6.0669,9.4189 -0.8167,8.0918 7.587,8.6646 11.6222,5.203 7.7906,-6.6833 0.9352,-9.8462 -5.8018,-8.4793 -5.1626,1.0472 -9.6537,4.2193 -14.4806,6.3291 -3.479,3.9994 -8.922,6.9186 -10.437,11.9985 -1.0804,3.6225 0.4564,8.7234 3.657,10.7347 5.0064,3.1464 19.007,-3.979 19.1666,-9.9547 0.088,-3.3115 -4.3143,-6.1462 -7.6185,-6.3809 -6.0989,-0.4331 -11.8416,3.052 -17.7624,4.5781 -5.9504,4.8702 -13.9334,7.9941 -17.8512,14.6105 -16.2561,27.454 28.394,24.8394 39.3716,18.6002 3.3794,-1.9206 7.3802,-28.3392 -10.5577,-4.9514 -5.9751,5.2417 -13.9903,8.8191 -17.9252,15.725 -2.7176,4.7696 -5.0302,13.4906 -0.4152,16.4629 8.829,5.6864 20.8561,4.3656 31.3169,3.4396 14.6229,-1.2941 28.81484,-5.8301 42.88811,-10.0071 29.67021,-8.8061 28.55835,-9.1109 47.75348,-20.475 -1.54189,2.3749 -2.86708,4.9053 -4.62566,7.1244 -3.2394,4.0878 -8.10461,7.0348 -10.33216,11.7509 -0.96568,2.0445 -0.5274,7.0734 1.67751,6.5726 6.16429,-1.4002 10.76182,-6.676 15.76816,-10.5357 12.50156,-9.6378 38.96648,-32.5377 51.89024,-43.6084 0.25493,-0.2654 -3.50015,-3.8709 -3.7551,-3.6052 z"
       transform="matrix(0.4782991,0,0,0.43094603,-69.951933,-1471.8148)" /></g></svg>
