<?xml version="1.0" encoding="UTF-8" standalone="no"?>
<!-- Created with Inkscape (http://www.inkscape.org/) -->

<svg
   width="158.59137mm"
   height="89.731659mm"
   viewBox="0 0 158.59137 89.731659"
   version="1.1"
   id="svg5"
   xml:space="preserve"
   xmlns="http://www.w3.org/2000/svg"
   xmlns:svg="http://www.w3.org/2000/svg"><defs
     id="defs2"><filter
       style="color-interpolation-filters:sRGB"
       id="filter77723"
       x="-0.00037986919"
       y="-0.00067177095"
       width="1.0007597"
       height="1.0013435"><feGaussianBlur
         stdDeviation="0.025082603"
         id="feGaussianBlur77725" /></filter></defs><g
     id="layer1"
     transform="translate(76.246164,-308.26739)"><path
       id="path-1-92"
       style="opacity:1;mix-blend-mode:screen;fill:#15ff00;fill-opacity:1;fill-rule:nonzero;stroke:none;stroke-width:0.329;stroke-dasharray:none;paint-order:markers fill stroke;filter:url(#filter77723)"
       d="m 32.992382,308.3276 c -17.180716,6.53354 -35.9413618,6.82059 -53.301139,12.71706 4.871622,7.85871 14.8884692,2.66242 21.8945222,1.5098 10.8538318,-2.40899 21.6395748,-5.12235 32.3497118,-8.10527 -0.02097,3.1831 4.036674,5.88083 1.701445,1.20589 1.346359,-3.61604 6.324492,5.99942 3.962808,0.77661 5.914979,-4.55335 14.823913,-0.0758 20.835176,1.16045 -1.445393,5.18359 -11.567241,4.26315 -16.202872,7.06925 -23.849269,6.77488 -48.8645568,9.72104 -71.739318,19.70019 1.041419,8.10746 8.439491,13.66246 9.471276,21.77298 -8.365856,-0.60753 -16.065008,-4.65103 -24.469589,-5.05838 -11.400295,-2.04594 -22.974149,-3.96943 -33.68037,-8.5766 4.405624,7.36788 1.267783,16.51376 4.7462,24.16713 1.676091,-6.53404 -5.98248,-17.33122 0.878922,-20.97457 8.015334,1.75078 15.755968,4.6252 23.972848,5.42887 10.180939,1.84653 20.458758,3.55453 30.235587,7.04842 0.250666,8.88099 -3.03166,17.39471 -3.13483,26.24967 -7.176104,5.7097 -14.800099,-2.67213 -21.825078,-4.5284 -9.799752,-4.30754 -19.179291,-9.80935 -29.652779,-12.38696 10.895389,5.15237 22.379269,9.01533 32.961997,14.82842 6.800266,1.81094 15.199984,8.7692 21.701453,3.91713 27.568864,-17.12585 62.312119,-15.56153 90.036429,-32.32509 6.89418,-4.78908 -3.46349,1.42183 -5.712983,2.3628 -26.958284,13.68481 -59.1260538,13.21255 -84.999194,29.50047 -4.853374,3.95928 -0.437242,-6.68068 -0.834,-9.65369 0.933563,-6.24487 1.93577,-12.47951 3.009795,-18.70177 13.5908232,-2.2324 27.130296,-4.8084 40.536544,-7.97368 -1.285752,6.45854 8.347041,17.83476 12.73282,9.14737 -0.328261,-5.42884 -3.448905,-15.12694 5.576462,-13.95818 12.234237,-3.06459 23.972798,-7.73867 35.783386,-12.09667 2.91208,4.58554 -1.76577,10.24377 0.56227,14.72389 -1.25172,-7.53323 5.73808,-16.87595 -1.28124,-22.99814 -6.91611,-6.85691 -11.762337,-17.36893 -22.29752,-19.20019 -7.416775,-1.87469 -16.850057,1.22852 -22.524736,-5.2265 l -0.667652,-0.74563 -0.626332,-0.77668 z m -103.957479,69.17614 -0.06566,-0.0523 z m 103.71615,-68.50073 c 5.227211,7.51392 -9.753436,6.23826 -13.994604,8.75319 -11.1372648,2.87971 -22.4099378,5.20265 -33.715662,7.3125 -4.005795,-8.16277 9.8864762,-6.53821 14.56117523,-8.14426 11.17267477,-2.0383 22.55640677,-3.62509 33.14909077,-7.92143 z m 30.970202,9.73171 c 6.598507,5.12883 10.702047,12.71889 17.201077,17.95287 0.13629,8.92247 -11.270791,7.35043 -16.821487,10.66053 -11.925877,4.75971 -24.463464,7.89576 -36.888448,10.92684 -6.734975,-4.16864 5.409459,-13.02885 9.315256,-6.63194 1.85663,0.2638 -5.134009,-6.2039 -7.930586,-2.30793 -5.354208,3.44112 -4.297147,12.02209 -12.164742,11.87402 -5.83582,1.02035 -11.9300438,0.80389 -17.4875458,3.10572 -7.254168,2.7633 -17.8021182,2.69221 -19.9597442,-6.57756 -3.001531,-4.64393 -6.69858,-13.40262 0.622596,-15.90097 15.1919222,-4.08564 30.2666012,-8.62891 45.712877,-11.70356 13.027621,-2.94136 26.087282,-6.12505 38.400747,-11.39802 z m -84.746765,3.65094 c -13.982767,5.99366 -31.161859,4.6657 -42.881563,15.56061 -4.151331,3.9691 -8.048539,8.19919 -11.696946,12.63466 6.721025,-3.90702 9.277367,-13.59893 17.816262,-14.53864 9.300107,0.82239 17.256514,6.68133 26.525519,7.63747 -8.208881,-3.22176 -16.733626,-5.53168 -25.036105,-8.48713 5.067259,-7.08535 15.021427,-5.40399 22.398456,-8.14644 4.384957,-1.05487 9.40103,-1.49205 12.874377,-4.66053 z m -0.435115,1.62264 c -2.82356,1.06101 -3.868815,9.32087 -1.005883,3.04023 0.545788,-0.92154 1.006189,-1.94738 1.005883,-3.04023 z m 8.113716,2.28927 c -2.654522,1.10244 -3.092505,8.86787 -0.775758,3.03991 0.59458,-0.86329 1.188034,-1.96493 0.775758,-3.03991 z m 48.850765,30.74076 c 6.670575,4.94935 -0.740487,20.40691 -7.075686,10.61385 -2.724445,-4.79886 0.95441,-12.41282 7.075686,-10.61385 z m 1.516704,9.7901 c -3.327167,-1.19507 -5.058447,3.80511 -0.975696,0.72554 z" /></g></svg>
